G04*
G04 #@! TF.GenerationSoftware,Altium Limited,Altium Designer,25.8.1 (18)*
G04*
G04 Layer_Color=16711935*
%FSLAX25Y25*%
%MOIN*%
G70*
G04*
G04 #@! TF.SameCoordinates,E36E52A4-E568-4103-8F21-D7739CEC9F1F*
G04*
G04*
G04 #@! TF.FilePolarity,Negative*
G04*
G01*
G75*
%ADD51R,0.03950X0.03950*%
%ADD52R,0.11417X0.02559*%
%ADD53O,0.10642X0.08280*%
%ADD54C,0.06600*%
%ADD55C,0.02375*%
%ADD56C,0.03162*%
%ADD57C,0.02769*%
D51*
X505512Y33071D02*
D03*
Y37795D02*
D03*
X511024D02*
D03*
Y33071D02*
D03*
D52*
X-48976Y280315D02*
D03*
Y277166D02*
D03*
Y274016D02*
D03*
Y270866D02*
D03*
Y267716D02*
D03*
Y264567D02*
D03*
Y261417D02*
D03*
Y258268D02*
D03*
Y255118D02*
D03*
Y251968D02*
D03*
Y248819D02*
D03*
Y245669D02*
D03*
Y242520D02*
D03*
Y239370D02*
D03*
Y236220D02*
D03*
Y233071D02*
D03*
Y229921D02*
D03*
Y226772D02*
D03*
Y223622D02*
D03*
Y220472D02*
D03*
Y217323D02*
D03*
Y214173D02*
D03*
Y211024D02*
D03*
Y207874D02*
D03*
Y204725D02*
D03*
Y201575D02*
D03*
Y198425D02*
D03*
Y182677D02*
D03*
Y179528D02*
D03*
Y176378D02*
D03*
Y173228D02*
D03*
Y170079D02*
D03*
Y166929D02*
D03*
Y163779D02*
D03*
Y160630D02*
D03*
Y157480D02*
D03*
Y154331D02*
D03*
Y151181D02*
D03*
Y148031D02*
D03*
Y144882D02*
D03*
Y141732D02*
D03*
Y138583D02*
D03*
Y135433D02*
D03*
Y132283D02*
D03*
Y129134D02*
D03*
Y125984D02*
D03*
Y122835D02*
D03*
Y119685D02*
D03*
Y116535D02*
D03*
Y113386D02*
D03*
D53*
X508268Y48228D02*
D03*
X508268Y22638D02*
D03*
D54*
X532866Y210748D02*
D03*
Y200748D02*
D03*
Y190748D02*
D03*
Y180748D02*
D03*
Y170748D02*
D03*
Y160748D02*
D03*
Y150748D02*
D03*
Y140748D02*
D03*
Y130748D02*
D03*
Y120748D02*
D03*
Y110748D02*
D03*
Y100748D02*
D03*
Y90748D02*
D03*
Y80748D02*
D03*
Y70748D02*
D03*
Y60748D02*
D03*
Y50748D02*
D03*
Y40748D02*
D03*
Y30748D02*
D03*
Y20748D02*
D03*
X522866Y210748D02*
D03*
Y200748D02*
D03*
Y190748D02*
D03*
Y180748D02*
D03*
Y170748D02*
D03*
Y160748D02*
D03*
Y150748D02*
D03*
Y140748D02*
D03*
Y130748D02*
D03*
Y120748D02*
D03*
Y110748D02*
D03*
Y100748D02*
D03*
Y90748D02*
D03*
Y80748D02*
D03*
Y70748D02*
D03*
Y60748D02*
D03*
Y50748D02*
D03*
Y40748D02*
D03*
Y30748D02*
D03*
Y20748D02*
D03*
X532866Y372756D02*
D03*
Y362756D02*
D03*
Y352756D02*
D03*
Y342756D02*
D03*
Y332756D02*
D03*
Y322756D02*
D03*
Y312756D02*
D03*
Y302756D02*
D03*
Y292756D02*
D03*
Y282756D02*
D03*
Y272756D02*
D03*
Y262756D02*
D03*
Y252756D02*
D03*
Y242756D02*
D03*
Y232756D02*
D03*
X522866Y372756D02*
D03*
Y362756D02*
D03*
Y352756D02*
D03*
Y342756D02*
D03*
Y332756D02*
D03*
Y322756D02*
D03*
Y312756D02*
D03*
Y302756D02*
D03*
Y292756D02*
D03*
Y282756D02*
D03*
Y272756D02*
D03*
Y262756D02*
D03*
Y252756D02*
D03*
Y242756D02*
D03*
Y232756D02*
D03*
D55*
X104724Y373622D02*
D03*
X117717Y341732D02*
D03*
X44488Y89370D02*
D03*
X36614Y94488D02*
D03*
X39764Y92126D02*
D03*
X211024Y89370D02*
D03*
X208661Y92126D02*
D03*
X205906Y94488D02*
D03*
X208518Y121117D02*
D03*
X211024Y123622D02*
D03*
X205906Y118504D02*
D03*
X44882Y140157D02*
D03*
X42126Y123228D02*
D03*
Y128347D02*
D03*
Y135433D02*
D03*
X299213Y188976D02*
D03*
X234646Y139764D02*
D03*
X299213Y193701D02*
D03*
X231890Y133858D02*
D03*
X299213Y198819D02*
D03*
X229134Y131496D02*
D03*
X299213Y203937D02*
D03*
X226378Y128740D02*
D03*
X222441Y126378D02*
D03*
Y306299D02*
D03*
X92126Y104331D02*
D03*
Y280315D02*
D03*
X150787Y108268D02*
D03*
Y342520D02*
D03*
X448819Y23228D02*
D03*
Y28346D02*
D03*
Y33465D02*
D03*
X197638Y301969D02*
D03*
X165748Y113779D02*
D03*
X204724Y136614D02*
D03*
X223622Y333858D02*
D03*
X142126Y359055D02*
D03*
X154724Y348425D02*
D03*
X98032Y361024D02*
D03*
Y325590D02*
D03*
X97638Y271654D02*
D03*
X392913Y86614D02*
D03*
X15748Y113386D02*
D03*
X51575Y337402D02*
D03*
Y334252D02*
D03*
Y331496D02*
D03*
Y340158D02*
D03*
X392913Y346457D02*
D03*
Y259842D02*
D03*
X392520Y173228D02*
D03*
X322047Y187008D02*
D03*
Y193307D02*
D03*
Y199606D02*
D03*
Y205906D02*
D03*
X275197Y185039D02*
D03*
X399606Y183071D02*
D03*
X379921D02*
D03*
X399606Y74410D02*
D03*
X385039D02*
D03*
X399606Y334646D02*
D03*
X385039D02*
D03*
X403543Y245276D02*
D03*
Y158661D02*
D03*
Y331890D02*
D03*
X385039Y308858D02*
D03*
Y222244D02*
D03*
Y49016D02*
D03*
X416142Y346457D02*
D03*
Y259842D02*
D03*
Y173228D02*
D03*
X386614Y346457D02*
D03*
Y259842D02*
D03*
X386221Y173228D02*
D03*
X416142Y86614D02*
D03*
X386614D02*
D03*
X418504Y308661D02*
D03*
X418110Y222047D02*
D03*
X418504Y48819D02*
D03*
Y331890D02*
D03*
Y245276D02*
D03*
Y158661D02*
D03*
X385039Y135630D02*
D03*
X372047Y50394D02*
D03*
Y56693D02*
D03*
Y62992D02*
D03*
Y69291D02*
D03*
Y75590D02*
D03*
Y81890D02*
D03*
Y171653D02*
D03*
Y165354D02*
D03*
Y159055D02*
D03*
Y152756D02*
D03*
Y146457D02*
D03*
Y140157D02*
D03*
Y133858D02*
D03*
Y127559D02*
D03*
Y258268D02*
D03*
Y251969D02*
D03*
Y245669D02*
D03*
Y239370D02*
D03*
Y233071D02*
D03*
Y226772D02*
D03*
Y220473D02*
D03*
Y214173D02*
D03*
Y300394D02*
D03*
Y306693D02*
D03*
Y312992D02*
D03*
Y319291D02*
D03*
Y325591D02*
D03*
Y331890D02*
D03*
Y338189D02*
D03*
Y344488D02*
D03*
D56*
X501181Y38976D02*
D03*
X175197Y109843D02*
D03*
X236614Y359449D02*
D03*
X81102Y369685D02*
D03*
D57*
X256299Y387795D02*
D03*
X68504Y142913D02*
D03*
X84646Y129921D02*
D03*
X2362Y113386D02*
D03*
X-40551Y201575D02*
D03*
Y207874D02*
D03*
Y214173D02*
D03*
Y220472D02*
D03*
Y226772D02*
D03*
Y233071D02*
D03*
Y239370D02*
D03*
Y245669D02*
D03*
Y251969D02*
D03*
Y257874D02*
D03*
Y264567D02*
D03*
Y270866D02*
D03*
Y277165D02*
D03*
Y280315D02*
D03*
Y116535D02*
D03*
Y182677D02*
D03*
Y176378D02*
D03*
Y170079D02*
D03*
Y163779D02*
D03*
Y157480D02*
D03*
Y151181D02*
D03*
Y132283D02*
D03*
Y141339D02*
D03*
X59449Y138976D02*
D03*
X42070Y116702D02*
D03*
X30709Y127953D02*
D03*
Y135433D02*
D03*
Y120472D02*
D03*
X-35433Y144882D02*
D03*
X-27559Y117976D02*
D03*
X-26006Y154295D02*
D03*
Y160594D02*
D03*
Y166894D02*
D03*
Y173193D02*
D03*
Y179492D02*
D03*
Y198390D02*
D03*
Y204689D02*
D03*
Y210988D02*
D03*
Y217287D02*
D03*
Y223587D02*
D03*
Y229886D02*
D03*
Y236185D02*
D03*
Y242484D02*
D03*
Y248783D02*
D03*
Y255083D02*
D03*
M02*
