G04*
G04 #@! TF.GenerationSoftware,Altium Limited,Altium Designer,25.8.1 (18)*
G04*
G04 Layer_Color=8388736*
%FSLAX25Y25*%
%MOIN*%
G70*
G04*
G04 #@! TF.SameCoordinates,E36E52A4-E568-4103-8F21-D7739CEC9F1F*
G04*
G04*
G04 #@! TF.FilePolarity,Negative*
G04*
G01*
G75*
%ADD19R,0.13504X0.07008*%
%ADD24R,0.02253X0.05926*%
G04:AMPARAMS|DCode=25|XSize=59.26mil|YSize=22.53mil|CornerRadius=11.26mil|HoleSize=0mil|Usage=FLASHONLY|Rotation=270.000|XOffset=0mil|YOffset=0mil|HoleType=Round|Shape=RoundedRectangle|*
%AMROUNDEDRECTD25*
21,1,0.05926,0.00000,0,0,270.0*
21,1,0.03674,0.02253,0,0,270.0*
1,1,0.02253,0.00000,-0.01837*
1,1,0.02253,0.00000,0.01837*
1,1,0.02253,0.00000,0.01837*
1,1,0.02253,0.00000,-0.01837*
%
%ADD25ROUNDEDRECTD25*%
%ADD29R,0.06517X0.01499*%
G04:AMPARAMS|DCode=30|XSize=65.17mil|YSize=14.99mil|CornerRadius=7.5mil|HoleSize=0mil|Usage=FLASHONLY|Rotation=0.000|XOffset=0mil|YOffset=0mil|HoleType=Round|Shape=RoundedRectangle|*
%AMROUNDEDRECTD30*
21,1,0.06517,0.00000,0,0,0.0*
21,1,0.05018,0.01499,0,0,0.0*
1,1,0.01499,0.02509,0.00000*
1,1,0.01499,-0.02509,0.00000*
1,1,0.01499,-0.02509,0.00000*
1,1,0.01499,0.02509,0.00000*
%
%ADD30ROUNDEDRECTD30*%
G04:AMPARAMS|DCode=38|XSize=27.69mil|YSize=43.43mil|CornerRadius=7.25mil|HoleSize=0mil|Usage=FLASHONLY|Rotation=180.000|XOffset=0mil|YOffset=0mil|HoleType=Round|Shape=RoundedRectangle|*
%AMROUNDEDRECTD38*
21,1,0.02769,0.02894,0,0,180.0*
21,1,0.01319,0.04343,0,0,180.0*
1,1,0.01450,-0.00659,0.01447*
1,1,0.01450,0.00659,0.01447*
1,1,0.01450,0.00659,-0.01447*
1,1,0.01450,-0.00659,-0.01447*
%
%ADD38ROUNDEDRECTD38*%
G04:AMPARAMS|DCode=39|XSize=35.95mil|YSize=42.65mil|CornerRadius=8.61mil|HoleSize=0mil|Usage=FLASHONLY|Rotation=0.000|XOffset=0mil|YOffset=0mil|HoleType=Round|Shape=RoundedRectangle|*
%AMROUNDEDRECTD39*
21,1,0.03595,0.02542,0,0,0.0*
21,1,0.01873,0.04265,0,0,0.0*
1,1,0.01722,0.00936,-0.01271*
1,1,0.01722,-0.00936,-0.01271*
1,1,0.01722,-0.00936,0.01271*
1,1,0.01722,0.00936,0.01271*
%
%ADD39ROUNDEDRECTD39*%
G04:AMPARAMS|DCode=40|XSize=31.62mil|YSize=65.09mil|CornerRadius=6.01mil|HoleSize=0mil|Usage=FLASHONLY|Rotation=90.000|XOffset=0mil|YOffset=0mil|HoleType=Round|Shape=RoundedRectangle|*
%AMROUNDEDRECTD40*
21,1,0.03162,0.05307,0,0,90.0*
21,1,0.01961,0.06509,0,0,90.0*
1,1,0.01202,0.02653,0.00980*
1,1,0.01202,0.02653,-0.00980*
1,1,0.01202,-0.02653,-0.00980*
1,1,0.01202,-0.02653,0.00980*
%
%ADD40ROUNDEDRECTD40*%
G04:AMPARAMS|DCode=41|XSize=59.18mil|YSize=47.37mil|CornerRadius=13.84mil|HoleSize=0mil|Usage=FLASHONLY|Rotation=0.000|XOffset=0mil|YOffset=0mil|HoleType=Round|Shape=RoundedRectangle|*
%AMROUNDEDRECTD41*
21,1,0.05918,0.01968,0,0,0.0*
21,1,0.03150,0.04737,0,0,0.0*
1,1,0.02769,0.01575,-0.00984*
1,1,0.02769,-0.01575,-0.00984*
1,1,0.02769,-0.01575,0.00984*
1,1,0.02769,0.01575,0.00984*
%
%ADD41ROUNDEDRECTD41*%
%ADD42C,0.04737*%
%ADD43R,0.04737X0.02965*%
G04:AMPARAMS|DCode=44|XSize=27.69mil|YSize=43.43mil|CornerRadius=7.25mil|HoleSize=0mil|Usage=FLASHONLY|Rotation=90.000|XOffset=0mil|YOffset=0mil|HoleType=Round|Shape=RoundedRectangle|*
%AMROUNDEDRECTD44*
21,1,0.02769,0.02894,0,0,90.0*
21,1,0.01319,0.04343,0,0,90.0*
1,1,0.01450,0.01447,0.00659*
1,1,0.01450,0.01447,-0.00659*
1,1,0.01450,-0.01447,-0.00659*
1,1,0.01450,-0.01447,0.00659*
%
%ADD44ROUNDEDRECTD44*%
G04:AMPARAMS|DCode=45|XSize=25.72mil|YSize=63.12mil|CornerRadius=5.95mil|HoleSize=0mil|Usage=FLASHONLY|Rotation=270.000|XOffset=0mil|YOffset=0mil|HoleType=Round|Shape=RoundedRectangle|*
%AMROUNDEDRECTD45*
21,1,0.02572,0.05122,0,0,270.0*
21,1,0.01382,0.06312,0,0,270.0*
1,1,0.01190,-0.02561,-0.00691*
1,1,0.01190,-0.02561,0.00691*
1,1,0.01190,0.02561,0.00691*
1,1,0.01190,0.02561,-0.00691*
%
%ADD45ROUNDEDRECTD45*%
G04:AMPARAMS|DCode=46|XSize=35.56mil|YSize=78.87mil|CornerRadius=10.89mil|HoleSize=0mil|Usage=FLASHONLY|Rotation=0.000|XOffset=0mil|YOffset=0mil|HoleType=Round|Shape=RoundedRectangle|*
%AMROUNDEDRECTD46*
21,1,0.03556,0.05709,0,0,0.0*
21,1,0.01378,0.07887,0,0,0.0*
1,1,0.02178,0.00689,-0.02854*
1,1,0.02178,-0.00689,-0.02854*
1,1,0.02178,-0.00689,0.02854*
1,1,0.02178,0.00689,0.02854*
%
%ADD46ROUNDEDRECTD46*%
%ADD47R,0.05800X0.03792*%
%ADD48R,0.04000X0.04800*%
%ADD49R,0.04147X0.04540*%
%ADD50R,0.07414X0.13162*%
%ADD51R,0.03950X0.03950*%
%ADD52R,0.11417X0.02559*%
%ADD53O,0.10642X0.08280*%
%ADD54C,0.06600*%
%ADD55C,0.02375*%
%ADD56C,0.03162*%
%ADD57C,0.02769*%
G36*
X79934Y127541D02*
X78934D01*
X76534Y129941D01*
X78934Y132342D01*
X79934D01*
Y127541D01*
D02*
G37*
G36*
X76334Y129941D02*
X78734Y127541D01*
X74934D01*
Y129941D01*
Y132342D01*
X78734D01*
X76334Y129941D01*
D02*
G37*
D19*
X68898Y297244D02*
D03*
Y324803D02*
D03*
X69291Y353150D02*
D03*
X217323Y365748D02*
D03*
X125984Y276378D02*
D03*
X177953Y365748D02*
D03*
Y348819D02*
D03*
X123622Y357874D02*
D03*
X123228Y322835D02*
D03*
D24*
X108465Y322443D02*
D03*
Y357876D02*
D03*
D25*
X104724Y322443D02*
D03*
X100984D02*
D03*
Y313778D02*
D03*
X108465D02*
D03*
Y349211D02*
D03*
X100984D02*
D03*
Y357876D02*
D03*
X104724D02*
D03*
D29*
X390451Y77067D02*
D03*
Y250295D02*
D03*
Y163681D02*
D03*
Y336910D02*
D03*
D30*
Y74508D02*
D03*
Y71949D02*
D03*
Y69390D02*
D03*
Y66831D02*
D03*
Y64272D02*
D03*
Y61713D02*
D03*
Y59153D02*
D03*
Y56595D02*
D03*
Y54035D02*
D03*
Y51476D02*
D03*
Y48917D02*
D03*
X412698D02*
D03*
Y51476D02*
D03*
Y54035D02*
D03*
Y56595D02*
D03*
Y59153D02*
D03*
Y61713D02*
D03*
Y64272D02*
D03*
Y66831D02*
D03*
Y69390D02*
D03*
Y71949D02*
D03*
Y74508D02*
D03*
Y77067D02*
D03*
X390451Y247736D02*
D03*
Y245177D02*
D03*
Y242618D02*
D03*
Y240059D02*
D03*
Y237500D02*
D03*
Y234941D02*
D03*
Y232382D02*
D03*
Y229823D02*
D03*
Y227264D02*
D03*
Y224705D02*
D03*
Y222146D02*
D03*
X412698D02*
D03*
Y224705D02*
D03*
Y227264D02*
D03*
Y229823D02*
D03*
Y232382D02*
D03*
Y234941D02*
D03*
Y237500D02*
D03*
Y240059D02*
D03*
Y242618D02*
D03*
Y245177D02*
D03*
Y247736D02*
D03*
Y250295D02*
D03*
X390451Y161122D02*
D03*
Y158563D02*
D03*
Y156004D02*
D03*
Y153445D02*
D03*
Y150886D02*
D03*
Y148327D02*
D03*
Y145768D02*
D03*
Y143209D02*
D03*
Y140650D02*
D03*
Y138091D02*
D03*
Y135531D02*
D03*
X412698D02*
D03*
Y138091D02*
D03*
Y140650D02*
D03*
Y143209D02*
D03*
Y145768D02*
D03*
Y148327D02*
D03*
Y150886D02*
D03*
Y153445D02*
D03*
Y156004D02*
D03*
Y158563D02*
D03*
Y161122D02*
D03*
Y163681D02*
D03*
X390451Y334350D02*
D03*
Y331791D02*
D03*
Y329232D02*
D03*
Y326673D02*
D03*
Y324114D02*
D03*
Y321555D02*
D03*
Y318996D02*
D03*
Y316437D02*
D03*
Y313878D02*
D03*
Y311319D02*
D03*
Y308760D02*
D03*
X412698D02*
D03*
Y311319D02*
D03*
Y313878D02*
D03*
Y316437D02*
D03*
Y318996D02*
D03*
Y321555D02*
D03*
Y324114D02*
D03*
Y326673D02*
D03*
Y329232D02*
D03*
Y331791D02*
D03*
Y334350D02*
D03*
Y336910D02*
D03*
D38*
X430827Y51575D02*
D03*
X425079D02*
D03*
X430827Y46457D02*
D03*
X425079D02*
D03*
X363268Y38976D02*
D03*
X369016D02*
D03*
X363268Y44094D02*
D03*
X369016D02*
D03*
X472717Y352362D02*
D03*
X478465D02*
D03*
X472717Y342126D02*
D03*
X478465D02*
D03*
X472717Y331890D02*
D03*
X478465D02*
D03*
X472717Y321654D02*
D03*
X478465D02*
D03*
X472717Y311417D02*
D03*
X478465D02*
D03*
X472717Y301181D02*
D03*
X478465D02*
D03*
X472717Y290945D02*
D03*
X478465D02*
D03*
X472717Y280709D02*
D03*
X478465D02*
D03*
X472717Y261811D02*
D03*
X478465D02*
D03*
X472717Y251575D02*
D03*
X478465D02*
D03*
X472717Y241339D02*
D03*
X478465D02*
D03*
X472717Y231102D02*
D03*
X478465D02*
D03*
X472717Y220866D02*
D03*
X478465D02*
D03*
X472717Y190157D02*
D03*
X478465D02*
D03*
X472717Y179921D02*
D03*
X478465D02*
D03*
X472717Y169685D02*
D03*
X478465D02*
D03*
X472717Y159449D02*
D03*
X478465D02*
D03*
X472717Y149213D02*
D03*
X478465D02*
D03*
X472717Y138976D02*
D03*
X478465D02*
D03*
X472717Y128740D02*
D03*
X478465D02*
D03*
X472717Y118504D02*
D03*
X478465D02*
D03*
X472717Y100000D02*
D03*
X478465D02*
D03*
X472717Y89764D02*
D03*
X478465D02*
D03*
X472717Y79528D02*
D03*
X478465D02*
D03*
X472717Y69291D02*
D03*
X478465D02*
D03*
X472717Y59055D02*
D03*
X478465D02*
D03*
X472717Y48819D02*
D03*
X478465D02*
D03*
X472717Y38583D02*
D03*
X478465D02*
D03*
X472717Y27953D02*
D03*
X478465D02*
D03*
X472717Y17717D02*
D03*
X478465D02*
D03*
X150906Y359055D02*
D03*
X145158D02*
D03*
Y353937D02*
D03*
X150906D02*
D03*
X145158Y348819D02*
D03*
X150906D02*
D03*
X6575Y108268D02*
D03*
X12323D02*
D03*
X206417Y301969D02*
D03*
X200669D02*
D03*
X445787Y33465D02*
D03*
X440039D02*
D03*
Y28346D02*
D03*
X445787D02*
D03*
X440039Y23228D02*
D03*
X445787D02*
D03*
X80433Y123969D02*
D03*
X74685D02*
D03*
X80433Y117946D02*
D03*
X74685D02*
D03*
X33740Y135225D02*
D03*
X39488D02*
D03*
X33740Y127942D02*
D03*
X39488D02*
D03*
X33740Y120820D02*
D03*
X39488D02*
D03*
X363268Y127559D02*
D03*
X369016D02*
D03*
X363268Y146457D02*
D03*
X369016D02*
D03*
X363268Y133858D02*
D03*
X369016D02*
D03*
X363268Y140157D02*
D03*
X369016D02*
D03*
X363268Y171653D02*
D03*
X369016D02*
D03*
X363268Y159055D02*
D03*
X369016D02*
D03*
X363268Y152756D02*
D03*
X369016D02*
D03*
X363268Y165354D02*
D03*
X369016D02*
D03*
X363268Y344488D02*
D03*
X369016D02*
D03*
X363268Y338189D02*
D03*
X369016D02*
D03*
X363268Y331890D02*
D03*
X369016D02*
D03*
X312874Y199606D02*
D03*
X318622D02*
D03*
X363268Y325590D02*
D03*
X369016D02*
D03*
X312874Y193307D02*
D03*
X318622D02*
D03*
X363268Y319291D02*
D03*
X369016D02*
D03*
X312874Y187008D02*
D03*
X318622D02*
D03*
X363268Y312992D02*
D03*
X369016D02*
D03*
X363268Y306693D02*
D03*
X369016D02*
D03*
X363268Y300394D02*
D03*
X369016D02*
D03*
X363268Y258268D02*
D03*
X369016D02*
D03*
X363268Y251969D02*
D03*
X369016D02*
D03*
X363268Y245669D02*
D03*
X369016D02*
D03*
X363268Y239370D02*
D03*
X369016D02*
D03*
X363268Y233071D02*
D03*
X369016D02*
D03*
X363268Y226772D02*
D03*
X369016D02*
D03*
X363268Y220472D02*
D03*
X369016D02*
D03*
X363268Y214173D02*
D03*
X369016D02*
D03*
X363268Y81890D02*
D03*
X369016D02*
D03*
X363268Y75590D02*
D03*
X369016D02*
D03*
X363268Y69291D02*
D03*
X369016D02*
D03*
X363268Y62992D02*
D03*
X369016D02*
D03*
X363268Y56693D02*
D03*
X369016D02*
D03*
X363268Y50394D02*
D03*
X369016D02*
D03*
X472717Y22835D02*
D03*
X478465D02*
D03*
X472717Y33465D02*
D03*
X478465D02*
D03*
X472717Y43701D02*
D03*
X478465D02*
D03*
X472717Y53937D02*
D03*
X478465D02*
D03*
X472717Y64173D02*
D03*
X478465D02*
D03*
X472717Y74410D02*
D03*
X478465D02*
D03*
X472717Y84646D02*
D03*
X478465D02*
D03*
X472717Y94882D02*
D03*
X478465D02*
D03*
X472717Y105131D02*
D03*
X478465D02*
D03*
X472717Y123622D02*
D03*
X478465D02*
D03*
X472717Y133858D02*
D03*
X478465D02*
D03*
X472717Y144095D02*
D03*
X478465D02*
D03*
X472717Y154331D02*
D03*
X478465D02*
D03*
X472717Y164567D02*
D03*
X478465D02*
D03*
X472717Y174803D02*
D03*
X478465D02*
D03*
X472716Y185131D02*
D03*
X478464D02*
D03*
X472716Y195131D02*
D03*
X478464D02*
D03*
X472717Y225984D02*
D03*
X478465D02*
D03*
X472717Y236221D02*
D03*
X478465D02*
D03*
X472717Y246457D02*
D03*
X478465D02*
D03*
X472717Y256693D02*
D03*
X478465D02*
D03*
X472717Y266978D02*
D03*
X478465D02*
D03*
X472717Y285827D02*
D03*
X478465D02*
D03*
X472717Y296063D02*
D03*
X478465D02*
D03*
X472717Y306299D02*
D03*
X478465D02*
D03*
X472717Y316535D02*
D03*
X478465D02*
D03*
X472717Y326772D02*
D03*
X478465D02*
D03*
X472717Y337008D02*
D03*
X478465D02*
D03*
X472717Y347244D02*
D03*
X478465D02*
D03*
X472717Y357480D02*
D03*
X478465D02*
D03*
X312874Y205906D02*
D03*
X318622D02*
D03*
X12323Y113386D02*
D03*
X6575D02*
D03*
D39*
X98543Y334646D02*
D03*
X104606D02*
D03*
X114842Y341732D02*
D03*
X108780D02*
D03*
X98543Y370079D02*
D03*
X104606D02*
D03*
X169016Y113780D02*
D03*
X175079D02*
D03*
X68386Y138965D02*
D03*
X62323D02*
D03*
X104606Y329527D02*
D03*
X98543D02*
D03*
X104606Y364961D02*
D03*
X98543D02*
D03*
X409961Y255906D02*
D03*
X416024D02*
D03*
X392795Y255906D02*
D03*
X386732D02*
D03*
X409961Y342520D02*
D03*
X416024D02*
D03*
X392795Y342520D02*
D03*
X386732D02*
D03*
X409961Y82677D02*
D03*
X416024D02*
D03*
X392795Y82677D02*
D03*
X386732D02*
D03*
X409961Y169291D02*
D03*
X416024D02*
D03*
X392402Y169291D02*
D03*
X386339D02*
D03*
D40*
X67815Y118091D02*
D03*
Y123091D02*
D03*
Y128091D02*
D03*
Y133091D02*
D03*
X46358Y118091D02*
D03*
Y123091D02*
D03*
Y128091D02*
D03*
Y133091D02*
D03*
D41*
X181299Y276575D02*
D03*
X196653Y283465D02*
D03*
X181299Y290354D02*
D03*
D42*
X108661Y305906D02*
D03*
X100787Y341732D02*
D03*
Y305906D02*
D03*
X-6299Y113386D02*
D03*
D43*
X163976Y355118D02*
D03*
X155905Y351181D02*
D03*
Y359055D02*
D03*
X109941Y275984D02*
D03*
X101870Y272047D02*
D03*
Y279921D02*
D03*
D44*
X96063Y274685D02*
D03*
Y280433D02*
D03*
X223622Y325079D02*
D03*
Y330827D02*
D03*
D45*
X176575Y136516D02*
D03*
Y133957D02*
D03*
Y131398D02*
D03*
Y128839D02*
D03*
Y126279D02*
D03*
Y123721D02*
D03*
Y121161D02*
D03*
Y118602D02*
D03*
X199803Y136516D02*
D03*
Y133957D02*
D03*
Y131398D02*
D03*
Y128839D02*
D03*
Y126279D02*
D03*
Y123721D02*
D03*
Y121161D02*
D03*
Y118602D02*
D03*
D46*
X236614Y351772D02*
D03*
X246457D02*
D03*
X256299D02*
D03*
X236614Y327755D02*
D03*
X246457D02*
D03*
X256299D02*
D03*
D47*
X305157Y203957D02*
D03*
Y198957D02*
D03*
Y193957D02*
D03*
Y188957D02*
D03*
X275157D02*
D03*
Y193957D02*
D03*
Y198957D02*
D03*
Y203957D02*
D03*
D48*
X80934Y129941D02*
D03*
X74184D02*
D03*
D49*
X60630Y369685D02*
D03*
X55512D02*
D03*
D50*
X44449D02*
D03*
X25630D02*
D03*
X44449Y352756D02*
D03*
X25630D02*
D03*
X44449Y335827D02*
D03*
X25630D02*
D03*
D51*
X76378Y369685D02*
D03*
X70079D02*
D03*
D52*
X-48976Y280315D02*
D03*
Y277166D02*
D03*
Y274016D02*
D03*
Y270866D02*
D03*
Y267716D02*
D03*
Y264567D02*
D03*
Y261417D02*
D03*
Y258268D02*
D03*
Y255118D02*
D03*
Y251968D02*
D03*
Y248819D02*
D03*
Y245669D02*
D03*
Y242520D02*
D03*
Y239370D02*
D03*
Y236220D02*
D03*
Y233071D02*
D03*
Y229921D02*
D03*
Y226772D02*
D03*
Y223622D02*
D03*
Y220472D02*
D03*
Y217323D02*
D03*
Y214173D02*
D03*
Y211024D02*
D03*
Y207874D02*
D03*
Y204725D02*
D03*
Y201575D02*
D03*
Y198425D02*
D03*
Y182677D02*
D03*
Y179528D02*
D03*
Y176378D02*
D03*
Y173228D02*
D03*
Y170079D02*
D03*
Y166929D02*
D03*
Y163779D02*
D03*
Y160630D02*
D03*
Y157480D02*
D03*
Y154331D02*
D03*
Y151181D02*
D03*
Y148031D02*
D03*
Y144882D02*
D03*
Y141732D02*
D03*
Y138583D02*
D03*
Y135433D02*
D03*
Y132283D02*
D03*
Y129134D02*
D03*
Y125984D02*
D03*
Y122835D02*
D03*
Y119685D02*
D03*
Y116535D02*
D03*
Y113386D02*
D03*
D53*
X508268Y48228D02*
D03*
X508268Y22638D02*
D03*
D54*
X532866Y210748D02*
D03*
Y200748D02*
D03*
Y190748D02*
D03*
Y180748D02*
D03*
Y170748D02*
D03*
Y160748D02*
D03*
Y150748D02*
D03*
Y140748D02*
D03*
Y130748D02*
D03*
Y120748D02*
D03*
Y110748D02*
D03*
Y100748D02*
D03*
Y90748D02*
D03*
Y80748D02*
D03*
Y70748D02*
D03*
Y60748D02*
D03*
Y50748D02*
D03*
Y40748D02*
D03*
Y30748D02*
D03*
Y20748D02*
D03*
X522866Y210748D02*
D03*
Y200748D02*
D03*
Y190748D02*
D03*
Y180748D02*
D03*
Y170748D02*
D03*
Y160748D02*
D03*
Y150748D02*
D03*
Y140748D02*
D03*
Y130748D02*
D03*
Y120748D02*
D03*
Y110748D02*
D03*
Y100748D02*
D03*
Y90748D02*
D03*
Y80748D02*
D03*
Y70748D02*
D03*
Y60748D02*
D03*
Y50748D02*
D03*
Y40748D02*
D03*
Y30748D02*
D03*
Y20748D02*
D03*
X532866Y372756D02*
D03*
Y362756D02*
D03*
Y352756D02*
D03*
Y342756D02*
D03*
Y332756D02*
D03*
Y322756D02*
D03*
Y312756D02*
D03*
Y302756D02*
D03*
Y292756D02*
D03*
Y282756D02*
D03*
Y272756D02*
D03*
Y262756D02*
D03*
Y252756D02*
D03*
Y242756D02*
D03*
Y232756D02*
D03*
X522866Y372756D02*
D03*
Y362756D02*
D03*
Y352756D02*
D03*
Y342756D02*
D03*
Y332756D02*
D03*
Y322756D02*
D03*
Y312756D02*
D03*
Y302756D02*
D03*
Y292756D02*
D03*
Y282756D02*
D03*
Y272756D02*
D03*
Y262756D02*
D03*
Y252756D02*
D03*
Y242756D02*
D03*
Y232756D02*
D03*
D55*
X104724Y373622D02*
D03*
X117717Y341732D02*
D03*
X44488Y89370D02*
D03*
X36614Y94488D02*
D03*
X39764Y92126D02*
D03*
X211024Y89370D02*
D03*
X208661Y92126D02*
D03*
X205906Y94488D02*
D03*
X208518Y121117D02*
D03*
X211024Y123622D02*
D03*
X205906Y118504D02*
D03*
X44882Y140157D02*
D03*
X42126Y123228D02*
D03*
Y128347D02*
D03*
Y135433D02*
D03*
X299213Y188976D02*
D03*
X234646Y139764D02*
D03*
X299213Y193701D02*
D03*
X231890Y133858D02*
D03*
X299213Y198819D02*
D03*
X229134Y131496D02*
D03*
X299213Y203937D02*
D03*
X226378Y128740D02*
D03*
X222441Y126378D02*
D03*
Y306299D02*
D03*
X92126Y104331D02*
D03*
Y280315D02*
D03*
X150787Y108268D02*
D03*
Y342520D02*
D03*
X448819Y23228D02*
D03*
Y28346D02*
D03*
Y33465D02*
D03*
X197638Y301969D02*
D03*
X165748Y113779D02*
D03*
X204724Y136614D02*
D03*
X223622Y333858D02*
D03*
X142126Y359055D02*
D03*
X154724Y348425D02*
D03*
X98032Y361024D02*
D03*
Y325590D02*
D03*
X97638Y271654D02*
D03*
X392913Y86614D02*
D03*
X15748Y113386D02*
D03*
X51575Y337402D02*
D03*
Y334252D02*
D03*
Y331496D02*
D03*
Y340158D02*
D03*
X392913Y346457D02*
D03*
Y259842D02*
D03*
X392520Y173228D02*
D03*
X322047Y187008D02*
D03*
Y193307D02*
D03*
Y199606D02*
D03*
Y205906D02*
D03*
X275197Y185039D02*
D03*
X399606Y183071D02*
D03*
X379921D02*
D03*
X399606Y74410D02*
D03*
X385039D02*
D03*
X399606Y334646D02*
D03*
X385039D02*
D03*
Y308858D02*
D03*
Y222244D02*
D03*
Y49016D02*
D03*
X416142Y346457D02*
D03*
Y259842D02*
D03*
Y173228D02*
D03*
X386614Y346457D02*
D03*
Y259842D02*
D03*
X386221Y173228D02*
D03*
X416142Y86614D02*
D03*
X386614D02*
D03*
X418504Y308661D02*
D03*
X418110Y222047D02*
D03*
X418504Y48819D02*
D03*
Y331890D02*
D03*
Y245276D02*
D03*
Y158661D02*
D03*
X385039Y135630D02*
D03*
X372047Y50394D02*
D03*
Y56693D02*
D03*
Y62992D02*
D03*
Y69291D02*
D03*
Y75590D02*
D03*
Y81890D02*
D03*
Y171653D02*
D03*
Y165354D02*
D03*
Y159055D02*
D03*
Y152756D02*
D03*
Y146457D02*
D03*
Y140157D02*
D03*
Y133858D02*
D03*
Y127559D02*
D03*
Y258268D02*
D03*
Y251969D02*
D03*
Y245669D02*
D03*
Y239370D02*
D03*
Y233071D02*
D03*
Y226772D02*
D03*
Y220473D02*
D03*
Y214173D02*
D03*
Y300394D02*
D03*
Y306693D02*
D03*
Y312992D02*
D03*
Y319291D02*
D03*
Y325591D02*
D03*
Y331890D02*
D03*
Y338189D02*
D03*
Y344488D02*
D03*
D56*
X501181Y38976D02*
D03*
X175197Y109843D02*
D03*
X236614Y359449D02*
D03*
X81102Y369685D02*
D03*
D57*
X256299Y387795D02*
D03*
X68504Y142913D02*
D03*
X84646Y129921D02*
D03*
X2362Y113386D02*
D03*
X-40551Y201575D02*
D03*
Y207874D02*
D03*
Y214173D02*
D03*
Y220472D02*
D03*
Y226772D02*
D03*
Y233071D02*
D03*
Y239370D02*
D03*
Y245669D02*
D03*
Y251969D02*
D03*
Y257874D02*
D03*
Y264567D02*
D03*
Y270866D02*
D03*
Y277165D02*
D03*
Y280315D02*
D03*
Y116535D02*
D03*
Y182677D02*
D03*
Y176378D02*
D03*
Y170079D02*
D03*
Y163779D02*
D03*
Y157480D02*
D03*
Y151181D02*
D03*
Y132283D02*
D03*
Y141339D02*
D03*
X59449Y138976D02*
D03*
X42070Y116702D02*
D03*
X30709Y127953D02*
D03*
Y135433D02*
D03*
Y120472D02*
D03*
X-35433Y144882D02*
D03*
X-27559Y117976D02*
D03*
X-26006Y154295D02*
D03*
Y160594D02*
D03*
Y166894D02*
D03*
Y173193D02*
D03*
Y179492D02*
D03*
Y198390D02*
D03*
Y204689D02*
D03*
Y210988D02*
D03*
Y217287D02*
D03*
Y223587D02*
D03*
Y229886D02*
D03*
Y236185D02*
D03*
Y242484D02*
D03*
Y248783D02*
D03*
Y255083D02*
D03*
M02*
