G04*
G04 #@! TF.GenerationSoftware,Altium Limited,Altium Designer,25.8.1 (18)*
G04*
G04 Layer_Physical_Order=3*
G04 Layer_Color=16440176*
%FSLAX25Y25*%
%MOIN*%
G70*
G04*
G04 #@! TF.SameCoordinates,E36E52A4-E568-4103-8F21-D7739CEC9F1F*
G04*
G04*
G04 #@! TF.FilePolarity,Positive*
G04*
G01*
G75*
%ADD62C,0.06000*%
%ADD63C,0.01575*%
%ADD64C,0.02362*%
%ADD65C,0.01968*%
G36*
X545773Y391494D02*
X547010Y391163D01*
X548193Y390673D01*
X549303Y390032D01*
X550319Y389252D01*
X551225Y388347D01*
X552005Y387330D01*
X552645Y386221D01*
X553135Y385038D01*
X553467Y383800D01*
X553634Y382530D01*
Y381890D01*
X553634Y11811D01*
X553634Y11170D01*
X553467Y9900D01*
X553135Y8663D01*
X552645Y7480D01*
X552005Y6370D01*
X551225Y5354D01*
X550319Y4448D01*
X549303Y3669D01*
X548194Y3028D01*
X547010Y2538D01*
X545773Y2206D01*
X544503Y2039D01*
X543862Y2039D01*
X11811Y2039D01*
X11170Y2039D01*
X9900Y2206D01*
X8663Y2538D01*
X7480Y3028D01*
X6370Y3669D01*
X5354Y4448D01*
X4448Y5354D01*
X3669Y6370D01*
X3028Y7480D01*
X2538Y8663D01*
X2206Y9900D01*
X2039Y11171D01*
X2039Y11811D01*
X2039Y99508D01*
X1884Y100288D01*
X1442Y100950D01*
X780Y101392D01*
X-0Y101547D01*
X-23858Y101547D01*
X-23908Y101537D01*
X-23958Y101544D01*
X-24344Y101525D01*
X-24491Y101489D01*
X-24642D01*
X-25399Y101338D01*
X-25585Y101261D01*
X-25782Y101222D01*
X-26495Y100927D01*
X-26662Y100815D01*
X-26847Y100738D01*
X-27489Y100310D01*
X-27631Y100168D01*
X-27798Y100056D01*
X-28343Y99510D01*
X-28455Y99343D01*
X-28597Y99201D01*
X-29026Y98560D01*
X-29103Y98374D01*
X-29214Y98207D01*
X-29510Y97494D01*
X-29549Y97297D01*
X-29626Y97111D01*
X-29776Y96355D01*
Y96203D01*
X-29813Y96057D01*
X-29832Y95671D01*
X-29825Y95621D01*
X-29834Y95571D01*
X-29835Y93673D01*
X-32763D01*
X-32764Y105414D01*
X-32774Y105464D01*
X-32766Y105514D01*
X-32785Y105900D01*
X-32822Y106046D01*
Y106197D01*
X-32972Y106954D01*
X-33049Y107140D01*
X-33088Y107337D01*
X-33384Y108050D01*
X-33495Y108217D01*
X-33572Y108402D01*
X-34001Y109044D01*
X-34143Y109186D01*
X-34255Y109353D01*
X-34800Y109899D01*
X-34967Y110010D01*
X-35109Y110152D01*
X-35751Y110581D01*
X-35936Y110658D01*
X-36103Y110769D01*
X-36816Y111065D01*
X-37013Y111104D01*
X-37199Y111181D01*
X-37956Y111331D01*
X-38107D01*
X-38254Y111368D01*
X-38640Y111387D01*
X-38690Y111380D01*
X-38740Y111390D01*
X-56386Y111390D01*
Y183788D01*
X-42550Y183788D01*
X-42216Y183288D01*
X-42323Y183030D01*
Y182325D01*
X-42053Y181674D01*
X-41555Y181175D01*
X-40904Y180905D01*
X-40199D01*
X-39548Y181175D01*
X-39049Y181674D01*
X-38780Y182325D01*
Y183030D01*
X-38886Y183288D01*
X-38552Y183788D01*
X-37953D01*
X-37886Y183801D01*
X-37819Y183792D01*
X-37203Y183832D01*
X-37009Y183884D01*
X-36808Y183898D01*
X-35617Y184217D01*
X-35378Y184335D01*
X-35125Y184421D01*
X-34057Y185037D01*
X-33856Y185213D01*
X-33635Y185361D01*
X-32763Y186233D01*
X-32614Y186455D01*
X-32439Y186656D01*
X-31822Y187724D01*
X-31736Y187976D01*
X-31618Y188215D01*
X-31299Y189407D01*
X-31282Y189673D01*
X-31230Y189935D01*
X-31230Y191168D01*
X-31282Y191429D01*
X-31299Y191696D01*
X-31618Y192887D01*
X-31736Y193126D01*
X-31822Y193379D01*
X-32439Y194447D01*
X-32615Y194647D01*
X-32763Y194869D01*
X-33635Y195741D01*
X-33857Y195889D01*
X-34057Y196065D01*
X-35125Y196682D01*
X-35378Y196768D01*
X-35617Y196886D01*
X-36808Y197205D01*
X-37009Y197218D01*
X-37203Y197270D01*
X-37819Y197310D01*
X-37887Y197301D01*
X-37953Y197315D01*
X-56386Y197315D01*
Y282311D01*
X-41668D01*
X-41561Y281844D01*
X-41560Y281811D01*
X-42053Y281318D01*
X-42323Y280667D01*
Y279963D01*
X-42053Y279311D01*
X-41809Y279067D01*
X-41601Y278740D01*
X-41809Y278414D01*
X-42053Y278169D01*
X-42323Y277518D01*
Y276813D01*
X-42053Y276162D01*
X-41555Y275663D01*
X-40904Y275394D01*
X-40199D01*
X-39548Y275663D01*
X-39049Y276162D01*
X-38780Y276813D01*
Y277518D01*
X-39049Y278169D01*
X-39294Y278414D01*
X-39501Y278740D01*
X-39294Y279067D01*
X-39049Y279311D01*
X-38780Y279963D01*
Y280667D01*
X-39049Y281318D01*
X-39542Y281811D01*
X-39542Y281844D01*
X-39435Y282311D01*
X-38739D01*
X-38689Y282321D01*
X-38639Y282314D01*
X-38253Y282333D01*
X-38107Y282369D01*
X-37955Y282369D01*
X-37198Y282520D01*
X-37013Y282597D01*
X-36816Y282636D01*
X-36103Y282931D01*
X-35936Y283043D01*
X-35750Y283120D01*
X-35109Y283549D01*
X-34967Y283691D01*
X-34800Y283802D01*
X-34254Y284348D01*
X-34143Y284515D01*
X-34001Y284657D01*
X-33572Y285299D01*
X-33495Y285484D01*
X-33383Y285651D01*
X-33088Y286364D01*
X-33049Y286561D01*
X-32972Y286747D01*
X-32822Y287504D01*
X-32822Y287655D01*
X-32785Y287802D01*
X-32766Y288188D01*
X-32773Y288238D01*
X-32763Y288287D01*
X-32763Y300028D01*
X-29834Y300028D01*
X-29834Y298130D01*
X-29825Y298080D01*
X-29832Y298030D01*
X-29813Y297644D01*
X-29776Y297497D01*
Y297346D01*
X-29626Y296589D01*
X-29549Y296404D01*
X-29510Y296207D01*
X-29214Y295494D01*
X-29103Y295327D01*
X-29026Y295141D01*
X-28597Y294499D01*
X-28455Y294357D01*
X-28343Y294190D01*
X-27798Y293645D01*
X-27631Y293533D01*
X-27489Y293391D01*
X-26847Y292962D01*
X-26662Y292885D01*
X-26495Y292774D01*
X-25782Y292478D01*
X-25585Y292439D01*
X-25399Y292362D01*
X-24642Y292212D01*
X-24491D01*
X-24344Y292175D01*
X-23958Y292156D01*
X-23908Y292164D01*
X-23858Y292154D01*
X-0D01*
X780Y292309D01*
X1442Y292751D01*
X1884Y293413D01*
X2039Y294193D01*
X2039Y381890D01*
X2039Y382530D01*
X2206Y383800D01*
X2538Y385038D01*
X3028Y386221D01*
X3669Y387330D01*
X4448Y388347D01*
X5354Y389252D01*
X6370Y390032D01*
X7480Y390673D01*
X8663Y391163D01*
X9900Y391494D01*
X11170Y391662D01*
X544503D01*
X545773Y391494D01*
D02*
G37*
%LPC*%
G36*
X109407Y389567D02*
X108703D01*
X108052Y389297D01*
X107808Y389054D01*
X107600Y389262D01*
X106949Y389531D01*
X106244D01*
X105593Y389262D01*
X105284Y388953D01*
X104941Y389297D01*
X104289Y389567D01*
X103585D01*
X102933Y389297D01*
X102435Y388799D01*
X102165Y388148D01*
Y387443D01*
X102435Y386792D01*
X102933Y386293D01*
X103585Y386024D01*
X104289D01*
X104941Y386293D01*
X105249Y386602D01*
X105593Y386258D01*
X106244Y385988D01*
X106949D01*
X107600Y386258D01*
X107843Y386501D01*
X108052Y386293D01*
X108703Y386024D01*
X109407D01*
X110059Y386293D01*
X110557Y386792D01*
X110827Y387443D01*
Y388148D01*
X110557Y388799D01*
X110059Y389297D01*
X109407Y389567D01*
D02*
G37*
G36*
X256652D02*
X255947D01*
X255296Y389297D01*
X254797Y388799D01*
X254528Y388148D01*
Y387443D01*
X254797Y386792D01*
X255296Y386293D01*
X255947Y386024D01*
X256652D01*
X257303Y386293D01*
X257801Y386792D01*
X258071Y387443D01*
Y388148D01*
X257801Y388799D01*
X257303Y389297D01*
X256652Y389567D01*
D02*
G37*
G36*
X59014Y381299D02*
X58309D01*
X57658Y381030D01*
X57414Y380786D01*
X57206Y380994D01*
X56555Y381264D01*
X55850D01*
X55199Y380994D01*
X54891Y380686D01*
X54547Y381030D01*
X53896Y381299D01*
X53191D01*
X52540Y381030D01*
X52041Y380531D01*
X51772Y379880D01*
Y379175D01*
X52041Y378524D01*
X52540Y378026D01*
X53191Y377756D01*
X53896D01*
X54547Y378026D01*
X54855Y378334D01*
X55199Y377990D01*
X55850Y377720D01*
X56555D01*
X57206Y377990D01*
X57450Y378234D01*
X57658Y378026D01*
X58309Y377756D01*
X59014D01*
X59665Y378026D01*
X60163Y378524D01*
X60433Y379175D01*
Y379880D01*
X60163Y380531D01*
X59665Y381030D01*
X59014Y381299D01*
D02*
G37*
G36*
X533365Y376543D02*
X532368D01*
X531404Y376285D01*
X530541Y375787D01*
X529836Y375081D01*
X529337Y374218D01*
X529079Y373254D01*
Y372257D01*
X529337Y371294D01*
X529836Y370430D01*
X530541Y369725D01*
X531404Y369227D01*
X532368Y368969D01*
X533365D01*
X534328Y369227D01*
X535192Y369725D01*
X535897Y370430D01*
X536395Y371294D01*
X536654Y372257D01*
Y373254D01*
X536395Y374218D01*
X535897Y375081D01*
X535192Y375787D01*
X534328Y376285D01*
X533365Y376543D01*
D02*
G37*
G36*
X523365D02*
X522367D01*
X521404Y376285D01*
X520541Y375787D01*
X519836Y375081D01*
X519337Y374218D01*
X519079Y373254D01*
Y372257D01*
X519337Y371294D01*
X519836Y370430D01*
X520541Y369725D01*
X521404Y369227D01*
X522367Y368969D01*
X523365D01*
X524328Y369227D01*
X525192Y369725D01*
X525897Y370430D01*
X526395Y371294D01*
X526653Y372257D01*
Y373254D01*
X526395Y374218D01*
X525897Y375081D01*
X525192Y375787D01*
X524328Y376285D01*
X523365Y376543D01*
D02*
G37*
G36*
X81494Y371654D02*
X80711D01*
X79987Y371354D01*
X79434Y370800D01*
X79134Y370077D01*
Y369293D01*
X79434Y368570D01*
X79987Y368016D01*
X80711Y367717D01*
X81494D01*
X82217Y368016D01*
X82771Y368570D01*
X83071Y369293D01*
Y370077D01*
X82771Y370800D01*
X82217Y371354D01*
X81494Y371654D01*
D02*
G37*
G36*
X98345Y362598D02*
X97718D01*
X97139Y362359D01*
X96697Y361916D01*
X96457Y361337D01*
Y360710D01*
X96697Y360132D01*
X97139Y359689D01*
X97718Y359449D01*
X98345D01*
X98924Y359689D01*
X99366Y360132D01*
X99606Y360710D01*
Y361337D01*
X99366Y361916D01*
X98924Y362359D01*
X98345Y362598D01*
D02*
G37*
G36*
X533365Y366543D02*
X532368D01*
X531404Y366285D01*
X530541Y365787D01*
X529836Y365081D01*
X529337Y364218D01*
X529079Y363254D01*
Y362257D01*
X529337Y361294D01*
X529836Y360430D01*
X530541Y359725D01*
X531404Y359227D01*
X532368Y358968D01*
X533365D01*
X534328Y359227D01*
X535192Y359725D01*
X535897Y360430D01*
X536395Y361294D01*
X536654Y362257D01*
Y363254D01*
X536395Y364218D01*
X535897Y365081D01*
X535192Y365787D01*
X534328Y366285D01*
X533365Y366543D01*
D02*
G37*
G36*
X523365D02*
X522367D01*
X521404Y366285D01*
X520541Y365787D01*
X519836Y365081D01*
X519337Y364218D01*
X519079Y363254D01*
Y362257D01*
X519337Y361294D01*
X519836Y360430D01*
X520541Y359725D01*
X521404Y359227D01*
X522367Y358968D01*
X523365D01*
X524328Y359227D01*
X525192Y359725D01*
X525897Y360430D01*
X526395Y361294D01*
X526653Y362257D01*
Y363254D01*
X526395Y364218D01*
X525897Y365081D01*
X525192Y365787D01*
X524328Y366285D01*
X523365Y366543D01*
D02*
G37*
G36*
X533365Y356543D02*
X532368D01*
X531404Y356285D01*
X530541Y355787D01*
X529836Y355081D01*
X529337Y354218D01*
X529079Y353255D01*
Y352257D01*
X529337Y351294D01*
X529836Y350430D01*
X530541Y349725D01*
X531404Y349227D01*
X532368Y348969D01*
X533365D01*
X534328Y349227D01*
X535192Y349725D01*
X535897Y350430D01*
X536395Y351294D01*
X536654Y352257D01*
Y353255D01*
X536395Y354218D01*
X535897Y355081D01*
X535192Y355787D01*
X534328Y356285D01*
X533365Y356543D01*
D02*
G37*
G36*
X523365D02*
X522367D01*
X521404Y356285D01*
X520541Y355787D01*
X519836Y355081D01*
X519337Y354218D01*
X519079Y353255D01*
Y352257D01*
X519337Y351294D01*
X519836Y350430D01*
X520541Y349725D01*
X521404Y349227D01*
X522367Y348969D01*
X523365D01*
X524328Y349227D01*
X525192Y349725D01*
X525897Y350430D01*
X526395Y351294D01*
X526653Y352257D01*
Y353255D01*
X526395Y354218D01*
X525897Y355081D01*
X525192Y355787D01*
X524328Y356285D01*
X523365Y356543D01*
D02*
G37*
G36*
X155038Y350000D02*
X154411D01*
X153832Y349760D01*
X153389Y349317D01*
X153150Y348739D01*
Y348112D01*
X153389Y347533D01*
X153832Y347090D01*
X154411Y346850D01*
X155038D01*
X155616Y347090D01*
X156060Y347533D01*
X156299Y348112D01*
Y348739D01*
X156060Y349317D01*
X155616Y349760D01*
X155038Y350000D01*
D02*
G37*
G36*
X416455Y348031D02*
X415829D01*
X415250Y347792D01*
X414807Y347349D01*
X414567Y346770D01*
Y346143D01*
X414807Y345565D01*
X415250Y345122D01*
X415829Y344882D01*
X416455D01*
X417034Y345122D01*
X417477Y345565D01*
X417717Y346143D01*
Y346770D01*
X417477Y347349D01*
X417034Y347792D01*
X416455Y348031D01*
D02*
G37*
G36*
X386927D02*
X386301D01*
X385722Y347792D01*
X385279Y347349D01*
X385039Y346770D01*
Y346143D01*
X385279Y345565D01*
X385722Y345122D01*
X386301Y344882D01*
X386927D01*
X387506Y345122D01*
X387949Y345565D01*
X388189Y346143D01*
Y346770D01*
X387949Y347349D01*
X387506Y347792D01*
X386927Y348031D01*
D02*
G37*
G36*
X372360Y346063D02*
X371734D01*
X371155Y345823D01*
X370712Y345380D01*
X370472Y344801D01*
Y344175D01*
X370712Y343596D01*
X371155Y343153D01*
X371734Y342913D01*
X372360D01*
X372939Y343153D01*
X373382Y343596D01*
X373622Y344175D01*
Y344801D01*
X373382Y345380D01*
X372939Y345823D01*
X372360Y346063D01*
D02*
G37*
G36*
X151101Y344094D02*
X150474D01*
X149895Y343855D01*
X149452Y343412D01*
X149213Y342833D01*
Y342206D01*
X149452Y341628D01*
X149895Y341185D01*
X150474Y340945D01*
X151101D01*
X151679Y341185D01*
X152122Y341628D01*
X152362Y342206D01*
Y342833D01*
X152122Y343412D01*
X151679Y343855D01*
X151101Y344094D01*
D02*
G37*
G36*
X118030Y343307D02*
X117403D01*
X116824Y343067D01*
X116382Y342624D01*
X116142Y342045D01*
Y341419D01*
X116382Y340840D01*
X116824Y340397D01*
X117403Y340158D01*
X118030D01*
X118609Y340397D01*
X119052Y340840D01*
X119291Y341419D01*
Y342045D01*
X119052Y342624D01*
X118609Y343067D01*
X118030Y343307D01*
D02*
G37*
G36*
X533365Y346543D02*
X532368D01*
X531404Y346285D01*
X530541Y345787D01*
X529836Y345081D01*
X529337Y344218D01*
X529079Y343254D01*
Y342257D01*
X529337Y341294D01*
X529836Y340430D01*
X530541Y339725D01*
X531404Y339227D01*
X532368Y338968D01*
X533365D01*
X534328Y339227D01*
X535192Y339725D01*
X535897Y340430D01*
X536395Y341294D01*
X536654Y342257D01*
Y343254D01*
X536395Y344218D01*
X535897Y345081D01*
X535192Y345787D01*
X534328Y346285D01*
X533365Y346543D01*
D02*
G37*
G36*
X523365D02*
X522367D01*
X521404Y346285D01*
X520541Y345787D01*
X519836Y345081D01*
X519337Y344218D01*
X519079Y343254D01*
Y342257D01*
X519337Y341294D01*
X519836Y340430D01*
X520541Y339725D01*
X521404Y339227D01*
X522367Y338968D01*
X523365D01*
X524328Y339227D01*
X525192Y339725D01*
X525897Y340430D01*
X526395Y341294D01*
X526653Y342257D01*
Y343254D01*
X526395Y344218D01*
X525897Y345081D01*
X525192Y345787D01*
X524328Y346285D01*
X523365Y346543D01*
D02*
G37*
G36*
X372360Y339764D02*
X371734D01*
X371155Y339524D01*
X370712Y339081D01*
X370472Y338502D01*
Y337876D01*
X370712Y337297D01*
X371155Y336854D01*
X371734Y336614D01*
X372360D01*
X372939Y336854D01*
X373382Y337297D01*
X373622Y337876D01*
Y338502D01*
X373382Y339081D01*
X372939Y339524D01*
X372360Y339764D01*
D02*
G37*
G36*
X399920Y336221D02*
X399293D01*
X398714Y335981D01*
X398271Y335538D01*
X398031Y334959D01*
Y334332D01*
X398271Y333754D01*
X398714Y333311D01*
X399293Y333071D01*
X399920D01*
X400498Y333311D01*
X400941Y333754D01*
X401181Y334332D01*
Y334959D01*
X400941Y335538D01*
X400498Y335981D01*
X399920Y336221D01*
D02*
G37*
G36*
X385353D02*
X384726D01*
X384147Y335981D01*
X383704Y335538D01*
X383465Y334959D01*
Y334332D01*
X383704Y333754D01*
X384147Y333311D01*
X384726Y333071D01*
X385353D01*
X385931Y333311D01*
X386374Y333754D01*
X386614Y334332D01*
Y334959D01*
X386374Y335538D01*
X385931Y335981D01*
X385353Y336221D01*
D02*
G37*
G36*
X418817Y333465D02*
X418191D01*
X417612Y333225D01*
X417169Y332782D01*
X416929Y332203D01*
Y331576D01*
X417169Y330998D01*
X417612Y330555D01*
X418191Y330315D01*
X418817D01*
X419396Y330555D01*
X419839Y330998D01*
X420079Y331576D01*
Y332203D01*
X419839Y332782D01*
X419396Y333225D01*
X418817Y333465D01*
D02*
G37*
G36*
X403857D02*
X403230D01*
X402651Y333225D01*
X402208Y332782D01*
X401968Y332203D01*
Y331576D01*
X402208Y330998D01*
X402651Y330555D01*
X403230Y330315D01*
X403857D01*
X404435Y330555D01*
X404878Y330998D01*
X405118Y331576D01*
Y332203D01*
X404878Y332782D01*
X404435Y333225D01*
X403857Y333465D01*
D02*
G37*
G36*
X372360D02*
X371734D01*
X371155Y333225D01*
X370712Y332782D01*
X370472Y332203D01*
Y331576D01*
X370712Y330998D01*
X371155Y330555D01*
X371734Y330315D01*
X372360D01*
X372939Y330555D01*
X373382Y330998D01*
X373622Y331576D01*
Y332203D01*
X373382Y332782D01*
X372939Y333225D01*
X372360Y333465D01*
D02*
G37*
G36*
X533365Y336543D02*
X532368D01*
X531404Y336285D01*
X530541Y335787D01*
X529836Y335081D01*
X529337Y334218D01*
X529079Y333255D01*
Y332257D01*
X529337Y331294D01*
X529836Y330430D01*
X530541Y329725D01*
X531404Y329227D01*
X532368Y328969D01*
X533365D01*
X534328Y329227D01*
X535192Y329725D01*
X535897Y330430D01*
X536395Y331294D01*
X536654Y332257D01*
Y333255D01*
X536395Y334218D01*
X535897Y335081D01*
X535192Y335787D01*
X534328Y336285D01*
X533365Y336543D01*
D02*
G37*
G36*
X523365D02*
X522367D01*
X521404Y336285D01*
X520541Y335787D01*
X519836Y335081D01*
X519337Y334218D01*
X519079Y333255D01*
Y332257D01*
X519337Y331294D01*
X519836Y330430D01*
X520541Y329725D01*
X521404Y329227D01*
X522367Y328969D01*
X523365D01*
X524328Y329227D01*
X525192Y329725D01*
X525897Y330430D01*
X526395Y331294D01*
X526653Y332257D01*
Y333255D01*
X526395Y334218D01*
X525897Y335081D01*
X525192Y335787D01*
X524328Y336285D01*
X523365Y336543D01*
D02*
G37*
G36*
X372360Y327165D02*
X371734D01*
X371155Y326926D01*
X370712Y326483D01*
X370472Y325904D01*
Y325277D01*
X370712Y324698D01*
X371155Y324255D01*
X371734Y324016D01*
X372360D01*
X372939Y324255D01*
X373382Y324698D01*
X373622Y325277D01*
Y325904D01*
X373382Y326483D01*
X372939Y326926D01*
X372360Y327165D01*
D02*
G37*
G36*
X98345Y327165D02*
X97718D01*
X97139Y326926D01*
X96697Y326483D01*
X96457Y325904D01*
Y325277D01*
X96697Y324698D01*
X97139Y324255D01*
X97718Y324016D01*
X98345D01*
X98924Y324255D01*
X99366Y324698D01*
X99606Y325277D01*
Y325904D01*
X99366Y326483D01*
X98924Y326926D01*
X98345Y327165D01*
D02*
G37*
G36*
X260156Y325197D02*
X259529D01*
X258950Y324957D01*
X258507Y324514D01*
X258268Y323935D01*
Y323309D01*
X258507Y322730D01*
X258950Y322287D01*
X259529Y322047D01*
X260156D01*
X260735Y322287D01*
X261178Y322730D01*
X261417Y323309D01*
Y323935D01*
X261178Y324514D01*
X260735Y324957D01*
X260156Y325197D01*
D02*
G37*
G36*
X253069D02*
X252443D01*
X251864Y324957D01*
X251421Y324514D01*
X251181Y323935D01*
Y323309D01*
X251421Y322730D01*
X251864Y322287D01*
X252443Y322047D01*
X253069D01*
X253648Y322287D01*
X254091Y322730D01*
X254331Y323309D01*
Y323935D01*
X254091Y324514D01*
X253648Y324957D01*
X253069Y325197D01*
D02*
G37*
G36*
X256612Y324016D02*
X255986D01*
X255407Y323776D01*
X254964Y323333D01*
X254724Y322754D01*
Y322128D01*
X254964Y321549D01*
X255407Y321106D01*
X255986Y320866D01*
X256612D01*
X257191Y321106D01*
X257634Y321549D01*
X257874Y322128D01*
Y322754D01*
X257634Y323333D01*
X257191Y323776D01*
X256612Y324016D01*
D02*
G37*
G36*
X533365Y326543D02*
X532368D01*
X531404Y326285D01*
X530541Y325787D01*
X529836Y325081D01*
X529337Y324218D01*
X529079Y323254D01*
Y322257D01*
X529337Y321294D01*
X529836Y320430D01*
X530541Y319725D01*
X531404Y319227D01*
X532368Y318969D01*
X533365D01*
X534328Y319227D01*
X535192Y319725D01*
X535897Y320430D01*
X536395Y321294D01*
X536654Y322257D01*
Y323254D01*
X536395Y324218D01*
X535897Y325081D01*
X535192Y325787D01*
X534328Y326285D01*
X533365Y326543D01*
D02*
G37*
G36*
X523365D02*
X522367D01*
X521404Y326285D01*
X520541Y325787D01*
X519836Y325081D01*
X519337Y324218D01*
X519079Y323254D01*
Y322257D01*
X519337Y321294D01*
X519836Y320430D01*
X520541Y319725D01*
X521404Y319227D01*
X522367Y318969D01*
X523365D01*
X524328Y319227D01*
X525192Y319725D01*
X525897Y320430D01*
X526395Y321294D01*
X526653Y322257D01*
Y323254D01*
X526395Y324218D01*
X525897Y325081D01*
X525192Y325787D01*
X524328Y326285D01*
X523365Y326543D01*
D02*
G37*
G36*
X372360Y320866D02*
X371734D01*
X371155Y320626D01*
X370712Y320183D01*
X370472Y319605D01*
Y318978D01*
X370712Y318399D01*
X371155Y317956D01*
X371734Y317717D01*
X372360D01*
X372939Y317956D01*
X373382Y318399D01*
X373622Y318978D01*
Y319605D01*
X373382Y320183D01*
X372939Y320626D01*
X372360Y320866D01*
D02*
G37*
G36*
Y314567D02*
X371734D01*
X371155Y314327D01*
X370712Y313884D01*
X370472Y313305D01*
Y312679D01*
X370712Y312100D01*
X371155Y311657D01*
X371734Y311417D01*
X372360D01*
X372939Y311657D01*
X373382Y312100D01*
X373622Y312679D01*
Y313305D01*
X373382Y313884D01*
X372939Y314327D01*
X372360Y314567D01*
D02*
G37*
G36*
X533365Y316543D02*
X532368D01*
X531404Y316285D01*
X530541Y315787D01*
X529836Y315081D01*
X529337Y314218D01*
X529079Y313254D01*
Y312257D01*
X529337Y311294D01*
X529836Y310430D01*
X530541Y309725D01*
X531404Y309227D01*
X532368Y308968D01*
X533365D01*
X534328Y309227D01*
X535192Y309725D01*
X535897Y310430D01*
X536395Y311294D01*
X536654Y312257D01*
Y313254D01*
X536395Y314218D01*
X535897Y315081D01*
X535192Y315787D01*
X534328Y316285D01*
X533365Y316543D01*
D02*
G37*
G36*
X523365D02*
X522367D01*
X521404Y316285D01*
X520541Y315787D01*
X519836Y315081D01*
X519337Y314218D01*
X519079Y313254D01*
Y312257D01*
X519337Y311294D01*
X519836Y310430D01*
X520541Y309725D01*
X521404Y309227D01*
X522367Y308968D01*
X523365D01*
X524328Y309227D01*
X525192Y309725D01*
X525897Y310430D01*
X526395Y311294D01*
X526653Y312257D01*
Y313254D01*
X526395Y314218D01*
X525897Y315081D01*
X525192Y315787D01*
X524328Y316285D01*
X523365Y316543D01*
D02*
G37*
G36*
X385353Y310433D02*
X384726D01*
X384147Y310193D01*
X383704Y309750D01*
X383465Y309172D01*
Y308545D01*
X383704Y307966D01*
X384147Y307523D01*
X384726Y307283D01*
X385353D01*
X385931Y307523D01*
X386374Y307966D01*
X386614Y308545D01*
Y309172D01*
X386374Y309750D01*
X385931Y310193D01*
X385353Y310433D01*
D02*
G37*
G36*
X418817Y310236D02*
X418191D01*
X417612Y309997D01*
X417169Y309554D01*
X416929Y308975D01*
Y308348D01*
X417169Y307769D01*
X417612Y307326D01*
X418191Y307087D01*
X418817D01*
X419396Y307326D01*
X419839Y307769D01*
X420079Y308348D01*
Y308975D01*
X419839Y309554D01*
X419396Y309997D01*
X418817Y310236D01*
D02*
G37*
G36*
X372360Y308268D02*
X371734D01*
X371155Y308028D01*
X370712Y307585D01*
X370472Y307006D01*
Y306380D01*
X370712Y305801D01*
X371155Y305358D01*
X371734Y305118D01*
X372360D01*
X372939Y305358D01*
X373382Y305801D01*
X373622Y306380D01*
Y307006D01*
X373382Y307585D01*
X372939Y308028D01*
X372360Y308268D01*
D02*
G37*
G36*
X222754Y307874D02*
X222128D01*
X221549Y307634D01*
X221106Y307191D01*
X220866Y306612D01*
Y305986D01*
X221106Y305407D01*
X221549Y304964D01*
X222128Y304724D01*
X222754D01*
X223333Y304964D01*
X223776Y305407D01*
X224016Y305986D01*
Y306612D01*
X223776Y307191D01*
X223333Y307634D01*
X222754Y307874D01*
D02*
G37*
G36*
X533365Y306543D02*
X532368D01*
X531404Y306285D01*
X530541Y305787D01*
X529836Y305081D01*
X529337Y304218D01*
X529079Y303255D01*
Y302257D01*
X529337Y301294D01*
X529836Y300430D01*
X530541Y299725D01*
X531404Y299227D01*
X532368Y298969D01*
X533365D01*
X534328Y299227D01*
X535192Y299725D01*
X535897Y300430D01*
X536395Y301294D01*
X536654Y302257D01*
Y303255D01*
X536395Y304218D01*
X535897Y305081D01*
X535192Y305787D01*
X534328Y306285D01*
X533365Y306543D01*
D02*
G37*
G36*
X523365D02*
X522367D01*
X521404Y306285D01*
X520541Y305787D01*
X519836Y305081D01*
X519337Y304218D01*
X519079Y303255D01*
Y302257D01*
X519337Y301294D01*
X519836Y300430D01*
X520541Y299725D01*
X521404Y299227D01*
X522367Y298969D01*
X523365D01*
X524328Y299227D01*
X525192Y299725D01*
X525897Y300430D01*
X526395Y301294D01*
X526653Y302257D01*
Y303255D01*
X526395Y304218D01*
X525897Y305081D01*
X525192Y305787D01*
X524328Y306285D01*
X523365Y306543D01*
D02*
G37*
G36*
X372360Y301969D02*
X371734D01*
X371155Y301729D01*
X370712Y301286D01*
X370472Y300707D01*
Y300080D01*
X370712Y299502D01*
X371155Y299059D01*
X371734Y298819D01*
X372360D01*
X372939Y299059D01*
X373382Y299502D01*
X373622Y300080D01*
Y300707D01*
X373382Y301286D01*
X372939Y301729D01*
X372360Y301969D01*
D02*
G37*
G36*
X533365Y296543D02*
X532368D01*
X531404Y296285D01*
X530541Y295787D01*
X529836Y295081D01*
X529337Y294218D01*
X529079Y293254D01*
Y292257D01*
X529337Y291294D01*
X529836Y290430D01*
X530541Y289725D01*
X531404Y289227D01*
X532368Y288968D01*
X533365D01*
X534328Y289227D01*
X535192Y289725D01*
X535897Y290430D01*
X536395Y291294D01*
X536654Y292257D01*
Y293254D01*
X536395Y294218D01*
X535897Y295081D01*
X535192Y295787D01*
X534328Y296285D01*
X533365Y296543D01*
D02*
G37*
G36*
X523365D02*
X522367D01*
X521404Y296285D01*
X520541Y295787D01*
X519836Y295081D01*
X519337Y294218D01*
X519079Y293254D01*
Y292257D01*
X519337Y291294D01*
X519836Y290430D01*
X520541Y289725D01*
X521404Y289227D01*
X522367Y288968D01*
X523365D01*
X524328Y289227D01*
X525192Y289725D01*
X525897Y290430D01*
X526395Y291294D01*
X526653Y292257D01*
Y293254D01*
X526395Y294218D01*
X525897Y295081D01*
X525192Y295787D01*
X524328Y296285D01*
X523365Y296543D01*
D02*
G37*
G36*
X533365Y286543D02*
X532368D01*
X531404Y286285D01*
X530541Y285787D01*
X529836Y285081D01*
X529337Y284218D01*
X529079Y283255D01*
Y282257D01*
X529337Y281294D01*
X529836Y280430D01*
X530541Y279725D01*
X531404Y279227D01*
X532368Y278969D01*
X533365D01*
X534328Y279227D01*
X535192Y279725D01*
X535897Y280430D01*
X536395Y281294D01*
X536654Y282257D01*
Y283255D01*
X536395Y284218D01*
X535897Y285081D01*
X535192Y285787D01*
X534328Y286285D01*
X533365Y286543D01*
D02*
G37*
G36*
X523365D02*
X522367D01*
X521404Y286285D01*
X520541Y285787D01*
X519836Y285081D01*
X519337Y284218D01*
X519079Y283255D01*
Y282257D01*
X519337Y281294D01*
X519836Y280430D01*
X520541Y279725D01*
X521404Y279227D01*
X522367Y278969D01*
X523365D01*
X524328Y279227D01*
X525192Y279725D01*
X525897Y280430D01*
X526395Y281294D01*
X526653Y282257D01*
Y283255D01*
X526395Y284218D01*
X525897Y285081D01*
X525192Y285787D01*
X524328Y286285D01*
X523365Y286543D01*
D02*
G37*
G36*
X92439Y281890D02*
X91813D01*
X91234Y281650D01*
X90791Y281207D01*
X90551Y280628D01*
Y280002D01*
X90791Y279423D01*
X91234Y278980D01*
X91813Y278740D01*
X92439D01*
X93018Y278980D01*
X93461Y279423D01*
X93701Y280002D01*
Y280628D01*
X93461Y281207D01*
X93018Y281650D01*
X92439Y281890D01*
D02*
G37*
G36*
X-22504Y275752D02*
X-23209D01*
X-23860Y275482D01*
X-24105Y275238D01*
X-24431Y275030D01*
X-24758Y275238D01*
X-25003Y275482D01*
X-25654Y275752D01*
X-26359D01*
X-27010Y275482D01*
X-27384Y275108D01*
X-27758Y275482D01*
X-28410Y275752D01*
X-29114D01*
X-29766Y275482D01*
X-30140Y275108D01*
X-30514Y275482D01*
X-31166Y275752D01*
X-31870D01*
X-32522Y275482D01*
X-32765Y275239D01*
X-32973Y275447D01*
X-33624Y275716D01*
X-34329D01*
X-34980Y275447D01*
X-35289Y275138D01*
X-35633Y275482D01*
X-36284Y275752D01*
X-36988D01*
X-37640Y275482D01*
X-38138Y274984D01*
X-38408Y274333D01*
Y273628D01*
X-38138Y272977D01*
X-37640Y272478D01*
X-36988Y272209D01*
X-36284D01*
X-35633Y272478D01*
X-35324Y272787D01*
X-34980Y272443D01*
X-34329Y272173D01*
X-33624D01*
X-32973Y272443D01*
X-32730Y272686D01*
X-32522Y272478D01*
X-31870Y272209D01*
X-31166D01*
X-30514Y272478D01*
X-30140Y272853D01*
X-29766Y272478D01*
X-29114Y272209D01*
X-28410D01*
X-27758Y272478D01*
X-27384Y272853D01*
X-27010Y272478D01*
X-26359Y272209D01*
X-25654D01*
X-25003Y272478D01*
X-24758Y272723D01*
X-24431Y272930D01*
X-24105Y272723D01*
X-23860Y272478D01*
X-23209Y272209D01*
X-22504D01*
X-21853Y272478D01*
X-21355Y272977D01*
X-21085Y273628D01*
Y274333D01*
X-21355Y274984D01*
X-21853Y275482D01*
X-22504Y275752D01*
D02*
G37*
G36*
X97951Y273228D02*
X97325D01*
X96746Y272989D01*
X96303Y272546D01*
X96063Y271967D01*
Y271340D01*
X96303Y270761D01*
X96746Y270319D01*
X97325Y270079D01*
X97951D01*
X98530Y270319D01*
X98973Y270761D01*
X99213Y271340D01*
Y271967D01*
X98973Y272546D01*
X98530Y272989D01*
X97951Y273228D01*
D02*
G37*
G36*
X-40199Y272638D02*
X-40904D01*
X-41555Y272368D01*
X-42053Y271870D01*
X-42323Y271218D01*
Y270514D01*
X-42053Y269863D01*
X-41555Y269364D01*
X-40904Y269094D01*
X-40199D01*
X-39548Y269364D01*
X-39049Y269863D01*
X-38780Y270514D01*
Y271218D01*
X-39049Y271870D01*
X-39548Y272368D01*
X-40199Y272638D01*
D02*
G37*
G36*
X533365Y276543D02*
X532368D01*
X531404Y276285D01*
X530541Y275787D01*
X529836Y275081D01*
X529337Y274218D01*
X529079Y273254D01*
Y272257D01*
X529337Y271294D01*
X529836Y270430D01*
X530541Y269725D01*
X531404Y269227D01*
X532368Y268969D01*
X533365D01*
X534328Y269227D01*
X535192Y269725D01*
X535897Y270430D01*
X536395Y271294D01*
X536654Y272257D01*
Y273254D01*
X536395Y274218D01*
X535897Y275081D01*
X535192Y275787D01*
X534328Y276285D01*
X533365Y276543D01*
D02*
G37*
G36*
X523365D02*
X522367D01*
X521404Y276285D01*
X520541Y275787D01*
X519836Y275081D01*
X519337Y274218D01*
X519079Y273254D01*
Y272257D01*
X519337Y271294D01*
X519836Y270430D01*
X520541Y269725D01*
X521404Y269227D01*
X522367Y268969D01*
X523365D01*
X524328Y269227D01*
X525192Y269725D01*
X525897Y270430D01*
X526395Y271294D01*
X526653Y272257D01*
Y273254D01*
X526395Y274218D01*
X525897Y275081D01*
X525192Y275787D01*
X524328Y276285D01*
X523365Y276543D01*
D02*
G37*
G36*
X-22504Y269453D02*
X-23209D01*
X-23860Y269183D01*
X-24105Y268938D01*
X-24431Y268731D01*
X-24758Y268938D01*
X-25003Y269183D01*
X-25654Y269453D01*
X-26359D01*
X-27010Y269183D01*
X-27384Y268809D01*
X-27758Y269183D01*
X-28410Y269453D01*
X-29114D01*
X-29766Y269183D01*
X-30140Y268809D01*
X-30514Y269183D01*
X-31166Y269453D01*
X-31870D01*
X-32522Y269183D01*
X-32765Y268939D01*
X-32973Y269147D01*
X-33624Y269417D01*
X-34329D01*
X-34980Y269147D01*
X-35289Y268839D01*
X-35633Y269183D01*
X-36284Y269453D01*
X-36988D01*
X-37640Y269183D01*
X-38138Y268685D01*
X-38408Y268033D01*
Y267329D01*
X-38138Y266677D01*
X-37640Y266179D01*
X-36988Y265909D01*
X-36284D01*
X-35633Y266179D01*
X-35324Y266488D01*
X-34980Y266144D01*
X-34329Y265874D01*
X-33624D01*
X-32973Y266144D01*
X-32730Y266387D01*
X-32522Y266179D01*
X-31870Y265909D01*
X-31166D01*
X-30514Y266179D01*
X-30140Y266553D01*
X-29766Y266179D01*
X-29114Y265909D01*
X-28410D01*
X-27758Y266179D01*
X-27384Y266553D01*
X-27010Y266179D01*
X-26359Y265909D01*
X-25654D01*
X-25003Y266179D01*
X-24758Y266424D01*
X-24431Y266631D01*
X-24105Y266424D01*
X-23860Y266179D01*
X-23209Y265909D01*
X-22504D01*
X-21853Y266179D01*
X-21355Y266677D01*
X-21085Y267329D01*
Y268033D01*
X-21355Y268685D01*
X-21853Y269183D01*
X-22504Y269453D01*
D02*
G37*
G36*
X-40199Y266339D02*
X-40904D01*
X-41555Y266069D01*
X-42053Y265570D01*
X-42323Y264919D01*
Y264214D01*
X-42053Y263563D01*
X-41555Y263065D01*
X-40904Y262795D01*
X-40199D01*
X-39548Y263065D01*
X-39049Y263563D01*
X-38780Y264214D01*
Y264919D01*
X-39049Y265570D01*
X-39548Y266069D01*
X-40199Y266339D01*
D02*
G37*
G36*
X-22504Y263154D02*
X-23209D01*
X-23860Y262884D01*
X-24105Y262639D01*
X-24431Y262432D01*
X-24758Y262639D01*
X-25003Y262884D01*
X-25654Y263154D01*
X-26359D01*
X-27010Y262884D01*
X-27384Y262509D01*
X-27758Y262884D01*
X-28410Y263154D01*
X-29114D01*
X-29766Y262884D01*
X-30140Y262509D01*
X-30514Y262884D01*
X-31166Y263154D01*
X-31870D01*
X-32522Y262884D01*
X-32765Y262640D01*
X-32973Y262848D01*
X-33624Y263118D01*
X-34329D01*
X-34980Y262848D01*
X-35289Y262540D01*
X-35633Y262884D01*
X-36284Y263154D01*
X-36988D01*
X-37640Y262884D01*
X-38138Y262385D01*
X-38408Y261734D01*
Y261029D01*
X-38138Y260378D01*
X-37640Y259880D01*
X-36988Y259610D01*
X-36284D01*
X-35633Y259880D01*
X-35324Y260188D01*
X-34980Y259844D01*
X-34329Y259575D01*
X-33624D01*
X-32973Y259844D01*
X-32730Y260088D01*
X-32522Y259880D01*
X-31870Y259610D01*
X-31166D01*
X-30514Y259880D01*
X-30140Y260254D01*
X-29766Y259880D01*
X-29114Y259610D01*
X-28410D01*
X-27758Y259880D01*
X-27384Y260254D01*
X-27010Y259880D01*
X-26359Y259610D01*
X-25654D01*
X-25003Y259880D01*
X-24758Y260124D01*
X-24431Y260332D01*
X-24105Y260124D01*
X-23860Y259880D01*
X-23209Y259610D01*
X-22504D01*
X-21853Y259880D01*
X-21355Y260378D01*
X-21085Y261029D01*
Y261734D01*
X-21355Y262385D01*
X-21853Y262884D01*
X-22504Y263154D01*
D02*
G37*
G36*
X533365Y266543D02*
X532368D01*
X531404Y266285D01*
X530541Y265787D01*
X529836Y265081D01*
X529337Y264218D01*
X529079Y263254D01*
Y262257D01*
X529337Y261294D01*
X529836Y260430D01*
X530541Y259725D01*
X531404Y259227D01*
X532368Y258968D01*
X533365D01*
X534328Y259227D01*
X535192Y259725D01*
X535897Y260430D01*
X536395Y261294D01*
X536654Y262257D01*
Y263254D01*
X536395Y264218D01*
X535897Y265081D01*
X535192Y265787D01*
X534328Y266285D01*
X533365Y266543D01*
D02*
G37*
G36*
X523365D02*
X522367D01*
X521404Y266285D01*
X520541Y265787D01*
X519836Y265081D01*
X519337Y264218D01*
X519079Y263254D01*
Y262257D01*
X519337Y261294D01*
X519836Y260430D01*
X520541Y259725D01*
X521404Y259227D01*
X522367Y258968D01*
X523365D01*
X524328Y259227D01*
X525192Y259725D01*
X525897Y260430D01*
X526395Y261294D01*
X526653Y262257D01*
Y263254D01*
X526395Y264218D01*
X525897Y265081D01*
X525192Y265787D01*
X524328Y266285D01*
X523365Y266543D01*
D02*
G37*
G36*
X416455Y261417D02*
X415829D01*
X415250Y261178D01*
X414807Y260735D01*
X414567Y260156D01*
Y259529D01*
X414807Y258950D01*
X415250Y258507D01*
X415829Y258268D01*
X416455D01*
X417034Y258507D01*
X417477Y258950D01*
X417717Y259529D01*
Y260156D01*
X417477Y260735D01*
X417034Y261178D01*
X416455Y261417D01*
D02*
G37*
G36*
X386927D02*
X386301D01*
X385722Y261178D01*
X385279Y260735D01*
X385039Y260156D01*
Y259529D01*
X385279Y258950D01*
X385722Y258507D01*
X386301Y258268D01*
X386927D01*
X387506Y258507D01*
X387949Y258950D01*
X388189Y259529D01*
Y260156D01*
X387949Y260735D01*
X387506Y261178D01*
X386927Y261417D01*
D02*
G37*
G36*
X372360Y259842D02*
X371734D01*
X371155Y259603D01*
X370712Y259160D01*
X370472Y258581D01*
Y257955D01*
X370712Y257376D01*
X371155Y256933D01*
X371734Y256693D01*
X372360D01*
X372939Y256933D01*
X373382Y257376D01*
X373622Y257955D01*
Y258581D01*
X373382Y259160D01*
X372939Y259603D01*
X372360Y259842D01*
D02*
G37*
G36*
X-40199Y259646D02*
X-40904D01*
X-41555Y259376D01*
X-42053Y258878D01*
X-42323Y258226D01*
Y257522D01*
X-42053Y256871D01*
X-41555Y256372D01*
X-40904Y256102D01*
X-40199D01*
X-39548Y256372D01*
X-39049Y256871D01*
X-38780Y257522D01*
Y258226D01*
X-39049Y258878D01*
X-39548Y259376D01*
X-40199Y259646D01*
D02*
G37*
G36*
X-25654Y256854D02*
X-26359D01*
X-27010Y256585D01*
X-27508Y256086D01*
X-27778Y255435D01*
Y254730D01*
X-27508Y254079D01*
X-27010Y253581D01*
X-26359Y253311D01*
X-25654D01*
X-25003Y253581D01*
X-24504Y254079D01*
X-24235Y254730D01*
Y255435D01*
X-24504Y256086D01*
X-25003Y256585D01*
X-25654Y256854D01*
D02*
G37*
G36*
X372360Y253543D02*
X371734D01*
X371155Y253304D01*
X370712Y252861D01*
X370472Y252282D01*
Y251655D01*
X370712Y251077D01*
X371155Y250634D01*
X371734Y250394D01*
X372360D01*
X372939Y250634D01*
X373382Y251077D01*
X373622Y251655D01*
Y252282D01*
X373382Y252861D01*
X372939Y253304D01*
X372360Y253543D01*
D02*
G37*
G36*
X-40199Y253740D02*
X-40904D01*
X-41555Y253470D01*
X-42053Y252972D01*
X-42323Y252321D01*
Y251616D01*
X-42053Y250965D01*
X-41555Y250467D01*
X-40904Y250197D01*
X-40199D01*
X-39548Y250467D01*
X-39049Y250965D01*
X-38780Y251616D01*
Y252321D01*
X-39049Y252972D01*
X-39548Y253470D01*
X-40199Y253740D01*
D02*
G37*
G36*
X533365Y256543D02*
X532368D01*
X531404Y256285D01*
X530541Y255787D01*
X529836Y255081D01*
X529337Y254218D01*
X529079Y253255D01*
Y252257D01*
X529337Y251294D01*
X529836Y250430D01*
X530541Y249725D01*
X531404Y249227D01*
X532368Y248969D01*
X533365D01*
X534328Y249227D01*
X535192Y249725D01*
X535897Y250430D01*
X536395Y251294D01*
X536654Y252257D01*
Y253255D01*
X536395Y254218D01*
X535897Y255081D01*
X535192Y255787D01*
X534328Y256285D01*
X533365Y256543D01*
D02*
G37*
G36*
X523365D02*
X522367D01*
X521404Y256285D01*
X520541Y255787D01*
X519836Y255081D01*
X519337Y254218D01*
X519079Y253255D01*
Y252257D01*
X519337Y251294D01*
X519836Y250430D01*
X520541Y249725D01*
X521404Y249227D01*
X522367Y248969D01*
X523365D01*
X524328Y249227D01*
X525192Y249725D01*
X525897Y250430D01*
X526395Y251294D01*
X526653Y252257D01*
Y253255D01*
X526395Y254218D01*
X525897Y255081D01*
X525192Y255787D01*
X524328Y256285D01*
X523365Y256543D01*
D02*
G37*
G36*
X-25654Y250555D02*
X-26359D01*
X-27010Y250285D01*
X-27508Y249787D01*
X-27778Y249136D01*
Y248431D01*
X-27508Y247780D01*
X-27010Y247282D01*
X-26359Y247012D01*
X-25654D01*
X-25003Y247282D01*
X-24504Y247780D01*
X-24235Y248431D01*
Y249136D01*
X-24504Y249787D01*
X-25003Y250285D01*
X-25654Y250555D01*
D02*
G37*
G36*
X372360Y247244D02*
X371734D01*
X371155Y247004D01*
X370712Y246561D01*
X370472Y245983D01*
Y245356D01*
X370712Y244777D01*
X371155Y244334D01*
X371734Y244094D01*
X372360D01*
X372939Y244334D01*
X373382Y244777D01*
X373622Y245356D01*
Y245983D01*
X373382Y246561D01*
X372939Y247004D01*
X372360Y247244D01*
D02*
G37*
G36*
X-40199Y247441D02*
X-40904D01*
X-41555Y247171D01*
X-42053Y246673D01*
X-42323Y246022D01*
Y245317D01*
X-42053Y244666D01*
X-41555Y244167D01*
X-40904Y243898D01*
X-40199D01*
X-39548Y244167D01*
X-39049Y244666D01*
X-38780Y245317D01*
Y246022D01*
X-39049Y246673D01*
X-39548Y247171D01*
X-40199Y247441D01*
D02*
G37*
G36*
X418817Y246850D02*
X418191D01*
X417612Y246611D01*
X417169Y246168D01*
X416929Y245589D01*
Y244962D01*
X417169Y244384D01*
X417612Y243940D01*
X418191Y243701D01*
X418817D01*
X419396Y243940D01*
X419839Y244384D01*
X420079Y244962D01*
Y245589D01*
X419839Y246168D01*
X419396Y246611D01*
X418817Y246850D01*
D02*
G37*
G36*
X403857D02*
X403230D01*
X402651Y246611D01*
X402208Y246168D01*
X401968Y245589D01*
Y244962D01*
X402208Y244384D01*
X402651Y243940D01*
X403230Y243701D01*
X403857D01*
X404435Y243940D01*
X404878Y244384D01*
X405118Y244962D01*
Y245589D01*
X404878Y246168D01*
X404435Y246611D01*
X403857Y246850D01*
D02*
G37*
G36*
X-25654Y244256D02*
X-26359D01*
X-27010Y243986D01*
X-27508Y243488D01*
X-27778Y242837D01*
Y242132D01*
X-27508Y241481D01*
X-27010Y240982D01*
X-26359Y240713D01*
X-25654D01*
X-25003Y240982D01*
X-24504Y241481D01*
X-24235Y242132D01*
Y242837D01*
X-24504Y243488D01*
X-25003Y243986D01*
X-25654Y244256D01*
D02*
G37*
G36*
X533365Y246543D02*
X532368D01*
X531404Y246285D01*
X530541Y245787D01*
X529836Y245081D01*
X529337Y244218D01*
X529079Y243254D01*
Y242257D01*
X529337Y241294D01*
X529836Y240430D01*
X530541Y239725D01*
X531404Y239227D01*
X532368Y238968D01*
X533365D01*
X534328Y239227D01*
X535192Y239725D01*
X535897Y240430D01*
X536395Y241294D01*
X536654Y242257D01*
Y243254D01*
X536395Y244218D01*
X535897Y245081D01*
X535192Y245787D01*
X534328Y246285D01*
X533365Y246543D01*
D02*
G37*
G36*
X523365D02*
X522367D01*
X521404Y246285D01*
X520541Y245787D01*
X519836Y245081D01*
X519337Y244218D01*
X519079Y243254D01*
Y242257D01*
X519337Y241294D01*
X519836Y240430D01*
X520541Y239725D01*
X521404Y239227D01*
X522367Y238968D01*
X523365D01*
X524328Y239227D01*
X525192Y239725D01*
X525897Y240430D01*
X526395Y241294D01*
X526653Y242257D01*
Y243254D01*
X526395Y244218D01*
X525897Y245081D01*
X525192Y245787D01*
X524328Y246285D01*
X523365Y246543D01*
D02*
G37*
G36*
X372360Y240945D02*
X371734D01*
X371155Y240705D01*
X370712Y240262D01*
X370472Y239683D01*
Y239057D01*
X370712Y238478D01*
X371155Y238035D01*
X371734Y237795D01*
X372360D01*
X372939Y238035D01*
X373382Y238478D01*
X373622Y239057D01*
Y239683D01*
X373382Y240262D01*
X372939Y240705D01*
X372360Y240945D01*
D02*
G37*
G36*
X-40199Y241142D02*
X-40904D01*
X-41555Y240872D01*
X-42053Y240374D01*
X-42323Y239722D01*
Y239018D01*
X-42053Y238367D01*
X-41555Y237868D01*
X-40904Y237598D01*
X-40199D01*
X-39548Y237868D01*
X-39049Y238367D01*
X-38780Y239018D01*
Y239722D01*
X-39049Y240374D01*
X-39548Y240872D01*
X-40199Y241142D01*
D02*
G37*
G36*
X-25654Y237957D02*
X-26359D01*
X-27010Y237687D01*
X-27508Y237189D01*
X-27778Y236537D01*
Y235833D01*
X-27508Y235181D01*
X-27010Y234683D01*
X-26359Y234413D01*
X-25654D01*
X-25003Y234683D01*
X-24504Y235181D01*
X-24235Y235833D01*
Y236537D01*
X-24504Y237189D01*
X-25003Y237687D01*
X-25654Y237957D01*
D02*
G37*
G36*
X372360Y234646D02*
X371734D01*
X371155Y234406D01*
X370712Y233963D01*
X370472Y233384D01*
Y232758D01*
X370712Y232179D01*
X371155Y231736D01*
X371734Y231496D01*
X372360D01*
X372939Y231736D01*
X373382Y232179D01*
X373622Y232758D01*
Y233384D01*
X373382Y233963D01*
X372939Y234406D01*
X372360Y234646D01*
D02*
G37*
G36*
X-40199Y234842D02*
X-40904D01*
X-41555Y234573D01*
X-42053Y234074D01*
X-42323Y233423D01*
Y232718D01*
X-42053Y232067D01*
X-41555Y231569D01*
X-40904Y231299D01*
X-40199D01*
X-39548Y231569D01*
X-39049Y232067D01*
X-38780Y232718D01*
Y233423D01*
X-39049Y234074D01*
X-39548Y234573D01*
X-40199Y234842D01*
D02*
G37*
G36*
X533365Y236543D02*
X532368D01*
X531404Y236285D01*
X530541Y235787D01*
X529836Y235081D01*
X529337Y234218D01*
X529079Y233255D01*
Y232257D01*
X529337Y231294D01*
X529836Y230430D01*
X530541Y229725D01*
X531404Y229227D01*
X532368Y228969D01*
X533365D01*
X534328Y229227D01*
X535192Y229725D01*
X535897Y230430D01*
X536395Y231294D01*
X536654Y232257D01*
Y233255D01*
X536395Y234218D01*
X535897Y235081D01*
X535192Y235787D01*
X534328Y236285D01*
X533365Y236543D01*
D02*
G37*
G36*
X523365D02*
X522367D01*
X521404Y236285D01*
X520541Y235787D01*
X519836Y235081D01*
X519337Y234218D01*
X519079Y233255D01*
Y232257D01*
X519337Y231294D01*
X519836Y230430D01*
X520541Y229725D01*
X521404Y229227D01*
X522367Y228969D01*
X523365D01*
X524328Y229227D01*
X525192Y229725D01*
X525897Y230430D01*
X526395Y231294D01*
X526653Y232257D01*
Y233255D01*
X526395Y234218D01*
X525897Y235081D01*
X525192Y235787D01*
X524328Y236285D01*
X523365Y236543D01*
D02*
G37*
G36*
X-25654Y231658D02*
X-26359D01*
X-27010Y231388D01*
X-27508Y230889D01*
X-27778Y230238D01*
Y229533D01*
X-27508Y228882D01*
X-27010Y228384D01*
X-26359Y228114D01*
X-25654D01*
X-25003Y228384D01*
X-24504Y228882D01*
X-24235Y229533D01*
Y230238D01*
X-24504Y230889D01*
X-25003Y231388D01*
X-25654Y231658D01*
D02*
G37*
G36*
X372360Y228346D02*
X371734D01*
X371155Y228107D01*
X370712Y227664D01*
X370472Y227085D01*
Y226458D01*
X370712Y225880D01*
X371155Y225437D01*
X371734Y225197D01*
X372360D01*
X372939Y225437D01*
X373382Y225880D01*
X373622Y226458D01*
Y227085D01*
X373382Y227664D01*
X372939Y228107D01*
X372360Y228346D01*
D02*
G37*
G36*
X-40199Y228543D02*
X-40904D01*
X-41555Y228274D01*
X-42053Y227775D01*
X-42323Y227124D01*
Y226419D01*
X-42053Y225768D01*
X-41555Y225270D01*
X-40904Y225000D01*
X-40199D01*
X-39548Y225270D01*
X-39049Y225768D01*
X-38780Y226419D01*
Y227124D01*
X-39049Y227775D01*
X-39548Y228274D01*
X-40199Y228543D01*
D02*
G37*
G36*
X-25654Y225358D02*
X-26359D01*
X-27010Y225089D01*
X-27508Y224590D01*
X-27778Y223939D01*
Y223234D01*
X-27508Y222583D01*
X-27010Y222085D01*
X-26359Y221815D01*
X-25654D01*
X-25003Y222085D01*
X-24504Y222583D01*
X-24235Y223234D01*
Y223939D01*
X-24504Y224590D01*
X-25003Y225089D01*
X-25654Y225358D01*
D02*
G37*
G36*
X385353Y223819D02*
X384726D01*
X384147Y223579D01*
X383704Y223136D01*
X383465Y222557D01*
Y221931D01*
X383704Y221352D01*
X384147Y220909D01*
X384726Y220669D01*
X385353D01*
X385931Y220909D01*
X386374Y221352D01*
X386614Y221931D01*
Y222557D01*
X386374Y223136D01*
X385931Y223579D01*
X385353Y223819D01*
D02*
G37*
G36*
X418424Y223622D02*
X417797D01*
X417218Y223382D01*
X416775Y222939D01*
X416535Y222360D01*
Y221734D01*
X416775Y221155D01*
X417218Y220712D01*
X417797Y220472D01*
X418424D01*
X419002Y220712D01*
X419445Y221155D01*
X419685Y221734D01*
Y222360D01*
X419445Y222939D01*
X419002Y223382D01*
X418424Y223622D01*
D02*
G37*
G36*
X372360Y222047D02*
X371734D01*
X371155Y221808D01*
X370712Y221364D01*
X370472Y220786D01*
Y220159D01*
X370712Y219580D01*
X371155Y219137D01*
X371734Y218898D01*
X372360D01*
X372939Y219137D01*
X373382Y219580D01*
X373622Y220159D01*
Y220786D01*
X373382Y221364D01*
X372939Y221808D01*
X372360Y222047D01*
D02*
G37*
G36*
X-40199Y222244D02*
X-40904D01*
X-41555Y221974D01*
X-42053Y221476D01*
X-42323Y220825D01*
Y220120D01*
X-42053Y219469D01*
X-41555Y218970D01*
X-40904Y218701D01*
X-40199D01*
X-39548Y218970D01*
X-39049Y219469D01*
X-38780Y220120D01*
Y220825D01*
X-39049Y221476D01*
X-39548Y221974D01*
X-40199Y222244D01*
D02*
G37*
G36*
X-25654Y219059D02*
X-26359D01*
X-27010Y218789D01*
X-27508Y218291D01*
X-27778Y217640D01*
Y216935D01*
X-27508Y216284D01*
X-27010Y215786D01*
X-26359Y215516D01*
X-25654D01*
X-25003Y215786D01*
X-24504Y216284D01*
X-24235Y216935D01*
Y217640D01*
X-24504Y218291D01*
X-25003Y218789D01*
X-25654Y219059D01*
D02*
G37*
G36*
X372360Y215748D02*
X371734D01*
X371155Y215508D01*
X370712Y215065D01*
X370472Y214487D01*
Y213860D01*
X370712Y213281D01*
X371155Y212838D01*
X371734Y212598D01*
X372360D01*
X372939Y212838D01*
X373382Y213281D01*
X373622Y213860D01*
Y214487D01*
X373382Y215065D01*
X372939Y215508D01*
X372360Y215748D01*
D02*
G37*
G36*
X-40199Y215945D02*
X-40904D01*
X-41555Y215675D01*
X-42053Y215177D01*
X-42323Y214526D01*
Y213821D01*
X-42053Y213170D01*
X-41555Y212671D01*
X-40904Y212402D01*
X-40199D01*
X-39548Y212671D01*
X-39049Y213170D01*
X-38780Y213821D01*
Y214526D01*
X-39049Y215177D01*
X-39548Y215675D01*
X-40199Y215945D01*
D02*
G37*
G36*
X-25654Y212760D02*
X-26359D01*
X-27010Y212490D01*
X-27508Y211992D01*
X-27778Y211341D01*
Y210636D01*
X-27508Y209985D01*
X-27010Y209486D01*
X-26359Y209217D01*
X-25654D01*
X-25003Y209486D01*
X-24504Y209985D01*
X-24235Y210636D01*
Y211341D01*
X-24504Y211992D01*
X-25003Y212490D01*
X-25654Y212760D01*
D02*
G37*
G36*
X533365Y214535D02*
X532368D01*
X531404Y214277D01*
X530541Y213779D01*
X529836Y213073D01*
X529337Y212210D01*
X529079Y211247D01*
Y210249D01*
X529337Y209286D01*
X529836Y208422D01*
X530541Y207717D01*
X531404Y207219D01*
X532368Y206961D01*
X533365D01*
X534328Y207219D01*
X535192Y207717D01*
X535897Y208422D01*
X536395Y209286D01*
X536654Y210249D01*
Y211247D01*
X536395Y212210D01*
X535897Y213073D01*
X535192Y213779D01*
X534328Y214277D01*
X533365Y214535D01*
D02*
G37*
G36*
X523365D02*
X522367D01*
X521404Y214277D01*
X520541Y213779D01*
X519836Y213073D01*
X519337Y212210D01*
X519079Y211247D01*
Y210249D01*
X519337Y209286D01*
X519836Y208422D01*
X520541Y207717D01*
X521404Y207219D01*
X522367Y206961D01*
X523365D01*
X524328Y207219D01*
X525192Y207717D01*
X525897Y208422D01*
X526395Y209286D01*
X526653Y210249D01*
Y211247D01*
X526395Y212210D01*
X525897Y213073D01*
X525192Y213779D01*
X524328Y214277D01*
X523365Y214535D01*
D02*
G37*
G36*
X-40199Y209646D02*
X-40904D01*
X-41555Y209376D01*
X-42053Y208878D01*
X-42323Y208226D01*
Y207522D01*
X-42053Y206871D01*
X-41555Y206372D01*
X-40904Y206102D01*
X-40199D01*
X-39548Y206372D01*
X-39049Y206871D01*
X-38780Y207522D01*
Y208226D01*
X-39049Y208878D01*
X-39548Y209376D01*
X-40199Y209646D01*
D02*
G37*
G36*
X-25654Y206461D02*
X-26359D01*
X-27010Y206191D01*
X-27508Y205693D01*
X-27778Y205041D01*
Y204337D01*
X-27508Y203685D01*
X-27010Y203187D01*
X-26359Y202917D01*
X-25654D01*
X-25003Y203187D01*
X-24504Y203685D01*
X-24235Y204337D01*
Y205041D01*
X-24504Y205693D01*
X-25003Y206191D01*
X-25654Y206461D01*
D02*
G37*
G36*
X299526Y205512D02*
X298899D01*
X298321Y205272D01*
X297878Y204829D01*
X297638Y204250D01*
Y203624D01*
X297878Y203045D01*
X298321Y202602D01*
X298899Y202362D01*
X299526D01*
X300105Y202602D01*
X300548Y203045D01*
X300787Y203624D01*
Y204250D01*
X300548Y204829D01*
X300105Y205272D01*
X299526Y205512D01*
D02*
G37*
G36*
X399920Y204331D02*
X399293D01*
X398714Y204091D01*
X398271Y203648D01*
X398031Y203069D01*
Y202443D01*
X398271Y201864D01*
X398714Y201421D01*
X399293Y201181D01*
X399920D01*
X400498Y201421D01*
X400941Y201864D01*
X401181Y202443D01*
Y203069D01*
X400941Y203648D01*
X400498Y204091D01*
X399920Y204331D01*
D02*
G37*
G36*
X392833D02*
X392206D01*
X391628Y204091D01*
X391185Y203648D01*
X390945Y203069D01*
Y202443D01*
X391185Y201864D01*
X391628Y201421D01*
X392206Y201181D01*
X392833D01*
X393412Y201421D01*
X393855Y201864D01*
X394094Y202443D01*
Y203069D01*
X393855Y203648D01*
X393412Y204091D01*
X392833Y204331D01*
D02*
G37*
G36*
X-40199Y203346D02*
X-40904D01*
X-41555Y203077D01*
X-42053Y202578D01*
X-42323Y201927D01*
Y201222D01*
X-42053Y200571D01*
X-41555Y200073D01*
X-40904Y199803D01*
X-40199D01*
X-39548Y200073D01*
X-39049Y200571D01*
X-38780Y201222D01*
Y201927D01*
X-39049Y202578D01*
X-39548Y203077D01*
X-40199Y203346D01*
D02*
G37*
G36*
X299526Y200394D02*
X298899D01*
X298321Y200154D01*
X297878Y199711D01*
X297638Y199132D01*
Y198506D01*
X297878Y197927D01*
X298321Y197484D01*
X298899Y197244D01*
X299526D01*
X300105Y197484D01*
X300548Y197927D01*
X300787Y198506D01*
Y199132D01*
X300548Y199711D01*
X300105Y200154D01*
X299526Y200394D01*
D02*
G37*
G36*
X533365Y204535D02*
X532368D01*
X531404Y204277D01*
X530541Y203779D01*
X529836Y203074D01*
X529337Y202210D01*
X529079Y201247D01*
Y200249D01*
X529337Y199286D01*
X529836Y198423D01*
X530541Y197717D01*
X531404Y197219D01*
X532368Y196961D01*
X533365D01*
X534328Y197219D01*
X535192Y197717D01*
X535897Y198423D01*
X536395Y199286D01*
X536654Y200249D01*
Y201247D01*
X536395Y202210D01*
X535897Y203074D01*
X535192Y203779D01*
X534328Y204277D01*
X533365Y204535D01*
D02*
G37*
G36*
X523365D02*
X522367D01*
X521404Y204277D01*
X520541Y203779D01*
X519836Y203074D01*
X519337Y202210D01*
X519079Y201247D01*
Y200249D01*
X519337Y199286D01*
X519836Y198423D01*
X520541Y197717D01*
X521404Y197219D01*
X522367Y196961D01*
X523365D01*
X524328Y197219D01*
X525192Y197717D01*
X525897Y198423D01*
X526395Y199286D01*
X526653Y200249D01*
Y201247D01*
X526395Y202210D01*
X525897Y203074D01*
X525192Y203779D01*
X524328Y204277D01*
X523365Y204535D01*
D02*
G37*
G36*
X-25654Y200162D02*
X-26359D01*
X-27010Y199892D01*
X-27508Y199393D01*
X-27778Y198742D01*
Y198037D01*
X-27508Y197386D01*
X-27010Y196888D01*
X-26359Y196618D01*
X-25654D01*
X-25003Y196888D01*
X-24504Y197386D01*
X-24235Y198037D01*
Y198742D01*
X-24504Y199393D01*
X-25003Y199892D01*
X-25654Y200162D01*
D02*
G37*
G36*
X299526Y195276D02*
X298899D01*
X298321Y195036D01*
X297878Y194593D01*
X297638Y194014D01*
Y193387D01*
X297878Y192809D01*
X298321Y192366D01*
X298899Y192126D01*
X299526D01*
X300105Y192366D01*
X300548Y192809D01*
X300787Y193387D01*
Y194014D01*
X300548Y194593D01*
X300105Y195036D01*
X299526Y195276D01*
D02*
G37*
G36*
Y190551D02*
X298899D01*
X298321Y190311D01*
X297878Y189868D01*
X297638Y189290D01*
Y188663D01*
X297878Y188084D01*
X298321Y187641D01*
X298899Y187402D01*
X299526D01*
X300105Y187641D01*
X300548Y188084D01*
X300787Y188663D01*
Y189290D01*
X300548Y189868D01*
X300105Y190311D01*
X299526Y190551D01*
D02*
G37*
G36*
X533365Y194535D02*
X532368D01*
X531404Y194277D01*
X530541Y193779D01*
X529836Y193074D01*
X529337Y192210D01*
X529079Y191247D01*
Y190249D01*
X529337Y189286D01*
X529836Y188423D01*
X530541Y187717D01*
X531404Y187219D01*
X532368Y186961D01*
X533365D01*
X534328Y187219D01*
X535192Y187717D01*
X535897Y188423D01*
X536395Y189286D01*
X536654Y190249D01*
Y191247D01*
X536395Y192210D01*
X535897Y193074D01*
X535192Y193779D01*
X534328Y194277D01*
X533365Y194535D01*
D02*
G37*
G36*
X523365D02*
X522367D01*
X521404Y194277D01*
X520541Y193779D01*
X519836Y193074D01*
X519337Y192210D01*
X519079Y191247D01*
Y190249D01*
X519337Y189286D01*
X519836Y188423D01*
X520541Y187717D01*
X521404Y187219D01*
X522367Y186961D01*
X523365D01*
X524328Y187219D01*
X525192Y187717D01*
X525897Y188423D01*
X526395Y189286D01*
X526653Y190249D01*
Y191247D01*
X526395Y192210D01*
X525897Y193074D01*
X525192Y193779D01*
X524328Y194277D01*
X523365Y194535D01*
D02*
G37*
G36*
X275510Y186614D02*
X274884D01*
X274305Y186374D01*
X273862Y185931D01*
X273622Y185353D01*
Y184726D01*
X273862Y184147D01*
X274305Y183704D01*
X274884Y183465D01*
X275510D01*
X276089Y183704D01*
X276532Y184147D01*
X276772Y184726D01*
Y185353D01*
X276532Y185931D01*
X276089Y186374D01*
X275510Y186614D01*
D02*
G37*
G36*
X399920Y184646D02*
X399293D01*
X398714Y184406D01*
X398271Y183963D01*
X398031Y183384D01*
Y182758D01*
X398271Y182179D01*
X398714Y181736D01*
X399293Y181496D01*
X399920D01*
X400498Y181736D01*
X400941Y182179D01*
X401181Y182758D01*
Y183384D01*
X400941Y183963D01*
X400498Y184406D01*
X399920Y184646D01*
D02*
G37*
G36*
X380235D02*
X379608D01*
X379029Y184406D01*
X378586Y183963D01*
X378346Y183384D01*
Y182758D01*
X378586Y182179D01*
X379029Y181736D01*
X379608Y181496D01*
X380235D01*
X380813Y181736D01*
X381256Y182179D01*
X381496Y182758D01*
Y183384D01*
X381256Y183963D01*
X380813Y184406D01*
X380235Y184646D01*
D02*
G37*
G36*
X-25654Y181264D02*
X-26359D01*
X-27010Y180994D01*
X-27508Y180496D01*
X-27778Y179845D01*
Y179140D01*
X-27508Y178489D01*
X-27010Y177990D01*
X-26359Y177721D01*
X-25654D01*
X-25003Y177990D01*
X-24504Y178489D01*
X-24235Y179140D01*
Y179845D01*
X-24504Y180496D01*
X-25003Y180994D01*
X-25654Y181264D01*
D02*
G37*
G36*
X533365Y184535D02*
X532368D01*
X531404Y184277D01*
X530541Y183779D01*
X529836Y183074D01*
X529337Y182210D01*
X529079Y181247D01*
Y180249D01*
X529337Y179286D01*
X529836Y178422D01*
X530541Y177717D01*
X531404Y177219D01*
X532368Y176961D01*
X533365D01*
X534328Y177219D01*
X535192Y177717D01*
X535897Y178422D01*
X536395Y179286D01*
X536654Y180249D01*
Y181247D01*
X536395Y182210D01*
X535897Y183074D01*
X535192Y183779D01*
X534328Y184277D01*
X533365Y184535D01*
D02*
G37*
G36*
X523365D02*
X522367D01*
X521404Y184277D01*
X520541Y183779D01*
X519836Y183074D01*
X519337Y182210D01*
X519079Y181247D01*
Y180249D01*
X519337Y179286D01*
X519836Y178422D01*
X520541Y177717D01*
X521404Y177219D01*
X522367Y176961D01*
X523365D01*
X524328Y177219D01*
X525192Y177717D01*
X525897Y178422D01*
X526395Y179286D01*
X526653Y180249D01*
Y181247D01*
X526395Y182210D01*
X525897Y183074D01*
X525192Y183779D01*
X524328Y184277D01*
X523365Y184535D01*
D02*
G37*
G36*
X-40199Y178150D02*
X-40904D01*
X-41555Y177880D01*
X-42053Y177382D01*
X-42323Y176730D01*
Y176025D01*
X-42053Y175374D01*
X-41555Y174876D01*
X-40904Y174606D01*
X-40199D01*
X-39548Y174876D01*
X-39049Y175374D01*
X-38780Y176025D01*
Y176730D01*
X-39049Y177382D01*
X-39548Y177880D01*
X-40199Y178150D01*
D02*
G37*
G36*
X416455Y174803D02*
X415829D01*
X415250Y174563D01*
X414807Y174120D01*
X414567Y173542D01*
Y172915D01*
X414807Y172336D01*
X415250Y171893D01*
X415829Y171653D01*
X416455D01*
X417034Y171893D01*
X417477Y172336D01*
X417717Y172915D01*
Y173542D01*
X417477Y174120D01*
X417034Y174563D01*
X416455Y174803D01*
D02*
G37*
G36*
X386534D02*
X385907D01*
X385328Y174563D01*
X384885Y174120D01*
X384646Y173542D01*
Y172915D01*
X384885Y172336D01*
X385328Y171893D01*
X385907Y171653D01*
X386534D01*
X387112Y171893D01*
X387556Y172336D01*
X387795Y172915D01*
Y173542D01*
X387556Y174120D01*
X387112Y174563D01*
X386534Y174803D01*
D02*
G37*
G36*
X-25654Y174964D02*
X-26359D01*
X-27010Y174695D01*
X-27508Y174196D01*
X-27778Y173545D01*
Y172840D01*
X-27508Y172189D01*
X-27010Y171691D01*
X-26359Y171421D01*
X-25654D01*
X-25003Y171691D01*
X-24504Y172189D01*
X-24235Y172840D01*
Y173545D01*
X-24504Y174196D01*
X-25003Y174695D01*
X-25654Y174964D01*
D02*
G37*
G36*
X372360Y173228D02*
X371734D01*
X371155Y172989D01*
X370712Y172546D01*
X370472Y171967D01*
Y171340D01*
X370712Y170762D01*
X371155Y170318D01*
X371734Y170079D01*
X372360D01*
X372939Y170318D01*
X373382Y170762D01*
X373622Y171340D01*
Y171967D01*
X373382Y172546D01*
X372939Y172989D01*
X372360Y173228D01*
D02*
G37*
G36*
X-40199Y171850D02*
X-40904D01*
X-41555Y171581D01*
X-42053Y171082D01*
X-42323Y170431D01*
Y169726D01*
X-42053Y169075D01*
X-41555Y168577D01*
X-40904Y168307D01*
X-40199D01*
X-39548Y168577D01*
X-39049Y169075D01*
X-38780Y169726D01*
Y170431D01*
X-39049Y171082D01*
X-39548Y171581D01*
X-40199Y171850D01*
D02*
G37*
G36*
X533365Y174535D02*
X532368D01*
X531404Y174277D01*
X530541Y173779D01*
X529836Y173074D01*
X529337Y172210D01*
X529079Y171247D01*
Y170249D01*
X529337Y169286D01*
X529836Y168422D01*
X530541Y167717D01*
X531404Y167219D01*
X532368Y166961D01*
X533365D01*
X534328Y167219D01*
X535192Y167717D01*
X535897Y168422D01*
X536395Y169286D01*
X536654Y170249D01*
Y171247D01*
X536395Y172210D01*
X535897Y173074D01*
X535192Y173779D01*
X534328Y174277D01*
X533365Y174535D01*
D02*
G37*
G36*
X523365D02*
X522367D01*
X521404Y174277D01*
X520541Y173779D01*
X519836Y173074D01*
X519337Y172210D01*
X519079Y171247D01*
Y170249D01*
X519337Y169286D01*
X519836Y168422D01*
X520541Y167717D01*
X521404Y167219D01*
X522367Y166961D01*
X523365D01*
X524328Y167219D01*
X525192Y167717D01*
X525897Y168422D01*
X526395Y169286D01*
X526653Y170249D01*
Y171247D01*
X526395Y172210D01*
X525897Y173074D01*
X525192Y173779D01*
X524328Y174277D01*
X523365Y174535D01*
D02*
G37*
G36*
X-25654Y168665D02*
X-26359D01*
X-27010Y168396D01*
X-27508Y167897D01*
X-27778Y167246D01*
Y166541D01*
X-27508Y165890D01*
X-27010Y165392D01*
X-26359Y165122D01*
X-25654D01*
X-25003Y165392D01*
X-24504Y165890D01*
X-24235Y166541D01*
Y167246D01*
X-24504Y167897D01*
X-25003Y168396D01*
X-25654Y168665D01*
D02*
G37*
G36*
X372360Y166929D02*
X371734D01*
X371155Y166689D01*
X370712Y166246D01*
X370472Y165668D01*
Y165041D01*
X370712Y164462D01*
X371155Y164019D01*
X371734Y163779D01*
X372360D01*
X372939Y164019D01*
X373382Y164462D01*
X373622Y165041D01*
Y165668D01*
X373382Y166246D01*
X372939Y166689D01*
X372360Y166929D01*
D02*
G37*
G36*
X-40199Y165551D02*
X-40904D01*
X-41555Y165281D01*
X-42053Y164783D01*
X-42323Y164132D01*
Y163427D01*
X-42053Y162776D01*
X-41555Y162278D01*
X-40904Y162008D01*
X-40199D01*
X-39548Y162278D01*
X-39049Y162776D01*
X-38780Y163427D01*
Y164132D01*
X-39049Y164783D01*
X-39548Y165281D01*
X-40199Y165551D01*
D02*
G37*
G36*
X-25654Y162366D02*
X-26359D01*
X-27010Y162096D01*
X-27508Y161598D01*
X-27778Y160947D01*
Y160242D01*
X-27508Y159591D01*
X-27010Y159092D01*
X-26359Y158823D01*
X-25654D01*
X-25003Y159092D01*
X-24504Y159591D01*
X-24235Y160242D01*
Y160947D01*
X-24504Y161598D01*
X-25003Y162096D01*
X-25654Y162366D01*
D02*
G37*
G36*
X372360Y160630D02*
X371734D01*
X371155Y160390D01*
X370712Y159947D01*
X370472Y159368D01*
Y158742D01*
X370712Y158163D01*
X371155Y157720D01*
X371734Y157480D01*
X372360D01*
X372939Y157720D01*
X373382Y158163D01*
X373622Y158742D01*
Y159368D01*
X373382Y159947D01*
X372939Y160390D01*
X372360Y160630D01*
D02*
G37*
G36*
X418817Y160236D02*
X418191D01*
X417612Y159996D01*
X417169Y159554D01*
X416929Y158975D01*
Y158348D01*
X417169Y157769D01*
X417612Y157326D01*
X418191Y157087D01*
X418817D01*
X419396Y157326D01*
X419839Y157769D01*
X420079Y158348D01*
Y158975D01*
X419839Y159554D01*
X419396Y159996D01*
X418817Y160236D01*
D02*
G37*
G36*
X403857D02*
X403230D01*
X402651Y159996D01*
X402208Y159554D01*
X401968Y158975D01*
Y158348D01*
X402208Y157769D01*
X402651Y157326D01*
X403230Y157087D01*
X403857D01*
X404435Y157326D01*
X404878Y157769D01*
X405118Y158348D01*
Y158975D01*
X404878Y159554D01*
X404435Y159996D01*
X403857Y160236D01*
D02*
G37*
G36*
X533365Y164535D02*
X532368D01*
X531404Y164277D01*
X530541Y163779D01*
X529836Y163074D01*
X529337Y162210D01*
X529079Y161247D01*
Y160249D01*
X529337Y159286D01*
X529836Y158423D01*
X530541Y157717D01*
X531404Y157219D01*
X532368Y156961D01*
X533365D01*
X534328Y157219D01*
X535192Y157717D01*
X535897Y158423D01*
X536395Y159286D01*
X536654Y160249D01*
Y161247D01*
X536395Y162210D01*
X535897Y163074D01*
X535192Y163779D01*
X534328Y164277D01*
X533365Y164535D01*
D02*
G37*
G36*
X523365D02*
X522367D01*
X521404Y164277D01*
X520541Y163779D01*
X519836Y163074D01*
X519337Y162210D01*
X519079Y161247D01*
Y160249D01*
X519337Y159286D01*
X519836Y158423D01*
X520541Y157717D01*
X521404Y157219D01*
X522367Y156961D01*
X523365D01*
X524328Y157219D01*
X525192Y157717D01*
X525897Y158423D01*
X526395Y159286D01*
X526653Y160249D01*
Y161247D01*
X526395Y162210D01*
X525897Y163074D01*
X525192Y163779D01*
X524328Y164277D01*
X523365Y164535D01*
D02*
G37*
G36*
X-40199Y159252D02*
X-40904D01*
X-41555Y158982D01*
X-42053Y158484D01*
X-42323Y157833D01*
Y157128D01*
X-42053Y156477D01*
X-41555Y155978D01*
X-40904Y155709D01*
X-40199D01*
X-39548Y155978D01*
X-39049Y156477D01*
X-38780Y157128D01*
Y157833D01*
X-39049Y158484D01*
X-39548Y158982D01*
X-40199Y159252D01*
D02*
G37*
G36*
X-25654Y156067D02*
X-26359D01*
X-27010Y155797D01*
X-27508Y155299D01*
X-27778Y154648D01*
Y153943D01*
X-27508Y153292D01*
X-27010Y152793D01*
X-26359Y152524D01*
X-25654D01*
X-25003Y152793D01*
X-24504Y153292D01*
X-24235Y153943D01*
Y154648D01*
X-24504Y155299D01*
X-25003Y155797D01*
X-25654Y156067D01*
D02*
G37*
G36*
X372360Y154331D02*
X371734D01*
X371155Y154091D01*
X370712Y153648D01*
X370472Y153069D01*
Y152443D01*
X370712Y151864D01*
X371155Y151421D01*
X371734Y151181D01*
X372360D01*
X372939Y151421D01*
X373382Y151864D01*
X373622Y152443D01*
Y153069D01*
X373382Y153648D01*
X372939Y154091D01*
X372360Y154331D01*
D02*
G37*
G36*
X-40199Y152953D02*
X-40904D01*
X-41555Y152683D01*
X-42053Y152185D01*
X-42323Y151533D01*
Y150829D01*
X-42053Y150178D01*
X-41555Y149679D01*
X-40904Y149409D01*
X-40199D01*
X-39548Y149679D01*
X-39049Y150178D01*
X-38780Y150829D01*
Y151533D01*
X-39049Y152185D01*
X-39548Y152683D01*
X-40199Y152953D01*
D02*
G37*
G36*
X533365Y154535D02*
X532368D01*
X531404Y154277D01*
X530541Y153779D01*
X529836Y153074D01*
X529337Y152210D01*
X529079Y151247D01*
Y150249D01*
X529337Y149286D01*
X529836Y148423D01*
X530541Y147717D01*
X531404Y147219D01*
X532368Y146961D01*
X533365D01*
X534328Y147219D01*
X535192Y147717D01*
X535897Y148423D01*
X536395Y149286D01*
X536654Y150249D01*
Y151247D01*
X536395Y152210D01*
X535897Y153074D01*
X535192Y153779D01*
X534328Y154277D01*
X533365Y154535D01*
D02*
G37*
G36*
X523365D02*
X522367D01*
X521404Y154277D01*
X520541Y153779D01*
X519836Y153074D01*
X519337Y152210D01*
X519079Y151247D01*
Y150249D01*
X519337Y149286D01*
X519836Y148423D01*
X520541Y147717D01*
X521404Y147219D01*
X522367Y146961D01*
X523365D01*
X524328Y147219D01*
X525192Y147717D01*
X525897Y148423D01*
X526395Y149286D01*
X526653Y150249D01*
Y151247D01*
X526395Y152210D01*
X525897Y153074D01*
X525192Y153779D01*
X524328Y154277D01*
X523365Y154535D01*
D02*
G37*
G36*
X372360Y148031D02*
X371734D01*
X371155Y147792D01*
X370712Y147349D01*
X370472Y146770D01*
Y146143D01*
X370712Y145565D01*
X371155Y145122D01*
X371734Y144882D01*
X372360D01*
X372939Y145122D01*
X373382Y145565D01*
X373622Y146143D01*
Y146770D01*
X373382Y147349D01*
X372939Y147792D01*
X372360Y148031D01*
D02*
G37*
G36*
X-35081Y146653D02*
X-35785D01*
X-36437Y146384D01*
X-36935Y145885D01*
X-37205Y145234D01*
Y144529D01*
X-36935Y143878D01*
X-36437Y143380D01*
X-35785Y143110D01*
X-35081D01*
X-34429Y143380D01*
X-33931Y143878D01*
X-33661Y144529D01*
Y145234D01*
X-33931Y145885D01*
X-34429Y146384D01*
X-35081Y146653D01*
D02*
G37*
G36*
X-40199Y143110D02*
X-40904D01*
X-41555Y142841D01*
X-42053Y142342D01*
X-42323Y141691D01*
Y140986D01*
X-42053Y140335D01*
X-41555Y139837D01*
X-40904Y139567D01*
X-40199D01*
X-39548Y139837D01*
X-39049Y140335D01*
X-38780Y140986D01*
Y141691D01*
X-39049Y142342D01*
X-39548Y142841D01*
X-40199Y143110D01*
D02*
G37*
G36*
X372360Y141732D02*
X371734D01*
X371155Y141492D01*
X370712Y141050D01*
X370472Y140471D01*
Y139844D01*
X370712Y139265D01*
X371155Y138822D01*
X371734Y138583D01*
X372360D01*
X372939Y138822D01*
X373382Y139265D01*
X373622Y139844D01*
Y140471D01*
X373382Y141050D01*
X372939Y141492D01*
X372360Y141732D01*
D02*
G37*
G36*
X45195D02*
X44569D01*
X43990Y141492D01*
X43547Y141050D01*
X43307Y140471D01*
Y139844D01*
X43547Y139265D01*
X43990Y138822D01*
X44569Y138583D01*
X45195D01*
X45774Y138822D01*
X46217Y139265D01*
X46457Y139844D01*
Y140471D01*
X46217Y141050D01*
X45774Y141492D01*
X45195Y141732D01*
D02*
G37*
G36*
X234959Y141339D02*
X234332D01*
X233754Y141099D01*
X233311Y140656D01*
X233071Y140077D01*
Y139451D01*
X233311Y138872D01*
X233754Y138429D01*
X234332Y138189D01*
X234959D01*
X235538Y138429D01*
X235981Y138872D01*
X236221Y139451D01*
Y140077D01*
X235981Y140656D01*
X235538Y141099D01*
X234959Y141339D01*
D02*
G37*
G36*
X59801Y140748D02*
X59096D01*
X58445Y140478D01*
X57947Y139980D01*
X57677Y139329D01*
Y138624D01*
X57947Y137973D01*
X58445Y137475D01*
X59096Y137205D01*
X59801D01*
X60452Y137475D01*
X60951Y137973D01*
X61221Y138624D01*
Y139329D01*
X60951Y139980D01*
X60452Y140478D01*
X59801Y140748D01*
D02*
G37*
G36*
X533365Y144535D02*
X532368D01*
X531404Y144277D01*
X530541Y143779D01*
X529836Y143074D01*
X529337Y142210D01*
X529079Y141247D01*
Y140249D01*
X529337Y139286D01*
X529836Y138423D01*
X530541Y137717D01*
X531404Y137219D01*
X532368Y136961D01*
X533365D01*
X534328Y137219D01*
X535192Y137717D01*
X535897Y138423D01*
X536395Y139286D01*
X536654Y140249D01*
Y141247D01*
X536395Y142210D01*
X535897Y143074D01*
X535192Y143779D01*
X534328Y144277D01*
X533365Y144535D01*
D02*
G37*
G36*
X523365D02*
X522367D01*
X521404Y144277D01*
X520541Y143779D01*
X519836Y143074D01*
X519337Y142210D01*
X519079Y141247D01*
Y140249D01*
X519337Y139286D01*
X519836Y138423D01*
X520541Y137717D01*
X521404Y137219D01*
X522367Y136961D01*
X523365D01*
X524328Y137219D01*
X525192Y137717D01*
X525897Y138423D01*
X526395Y139286D01*
X526653Y140249D01*
Y141247D01*
X526395Y142210D01*
X525897Y143074D01*
X525192Y143779D01*
X524328Y144277D01*
X523365Y144535D01*
D02*
G37*
G36*
X205038Y138189D02*
X204411D01*
X203832Y137949D01*
X203389Y137506D01*
X203150Y136927D01*
Y136301D01*
X203389Y135722D01*
X203832Y135279D01*
X204411Y135039D01*
X205038D01*
X205616Y135279D01*
X206060Y135722D01*
X206299Y136301D01*
Y136927D01*
X206060Y137506D01*
X205616Y137949D01*
X205038Y138189D01*
D02*
G37*
G36*
X385353Y137205D02*
X384726D01*
X384147Y136965D01*
X383704Y136522D01*
X383465Y135943D01*
Y135317D01*
X383704Y134738D01*
X384147Y134295D01*
X384726Y134055D01*
X385353D01*
X385931Y134295D01*
X386374Y134738D01*
X386614Y135317D01*
Y135943D01*
X386374Y136522D01*
X385931Y136965D01*
X385353Y137205D01*
D02*
G37*
G36*
X418424Y137008D02*
X417797D01*
X417218Y136768D01*
X416775Y136325D01*
X416535Y135746D01*
Y135120D01*
X416775Y134541D01*
X417218Y134098D01*
X417797Y133858D01*
X418424D01*
X419002Y134098D01*
X419445Y134541D01*
X419685Y135120D01*
Y135746D01*
X419445Y136325D01*
X419002Y136768D01*
X418424Y137008D01*
D02*
G37*
G36*
X42439D02*
X41813D01*
X41234Y136768D01*
X40791Y136325D01*
X40551Y135746D01*
Y135120D01*
X40791Y134541D01*
X41234Y134098D01*
X41813Y133858D01*
X42439D01*
X43018Y134098D01*
X43461Y134541D01*
X43701Y135120D01*
Y135746D01*
X43461Y136325D01*
X43018Y136768D01*
X42439Y137008D01*
D02*
G37*
G36*
X232203Y135433D02*
X231576D01*
X230998Y135193D01*
X230555Y134750D01*
X230315Y134171D01*
Y133545D01*
X230522Y133045D01*
X230555Y132966D01*
X230171Y132686D01*
X230133Y132724D01*
X230026Y132831D01*
X229447Y133071D01*
X228821D01*
X228242Y132831D01*
X227799Y132388D01*
X227559Y131809D01*
Y131183D01*
X227799Y130604D01*
X228242Y130161D01*
X228821Y129921D01*
X229447D01*
X230026Y130161D01*
X230469Y130604D01*
X230709Y131183D01*
Y131809D01*
X230502Y132309D01*
X230469Y132388D01*
X230853Y132668D01*
X230891Y132630D01*
X230998Y132523D01*
X231576Y132283D01*
X232203D01*
X232782Y132523D01*
X233225Y132966D01*
X233465Y133545D01*
Y134171D01*
X233225Y134750D01*
X232782Y135193D01*
X232203Y135433D01*
D02*
G37*
G36*
X372360D02*
X371734D01*
X371155Y135193D01*
X370712Y134750D01*
X370472Y134171D01*
Y133545D01*
X370712Y132966D01*
X371155Y132523D01*
X371734Y132283D01*
X372360D01*
X372939Y132523D01*
X373382Y132966D01*
X373622Y133545D01*
Y134171D01*
X373382Y134750D01*
X372939Y135193D01*
X372360Y135433D01*
D02*
G37*
G36*
X-40199Y134055D02*
X-40904D01*
X-41555Y133785D01*
X-42053Y133287D01*
X-42323Y132636D01*
Y131931D01*
X-42053Y131280D01*
X-41555Y130781D01*
X-40904Y130512D01*
X-40199D01*
X-39548Y130781D01*
X-39049Y131280D01*
X-38780Y131931D01*
Y132636D01*
X-39049Y133287D01*
X-39548Y133785D01*
X-40199Y134055D01*
D02*
G37*
G36*
X226691Y130315D02*
X226065D01*
X225486Y130075D01*
X225043Y129632D01*
X224803Y129053D01*
Y128427D01*
X225043Y127848D01*
X225486Y127405D01*
X226065Y127165D01*
X226691D01*
X227270Y127405D01*
X227713Y127848D01*
X227953Y128427D01*
Y129053D01*
X227713Y129632D01*
X227270Y130075D01*
X226691Y130315D01*
D02*
G37*
G36*
X533365Y134535D02*
X532368D01*
X531404Y134277D01*
X530541Y133779D01*
X529836Y133074D01*
X529337Y132210D01*
X529079Y131247D01*
Y130249D01*
X529337Y129286D01*
X529836Y128422D01*
X530541Y127717D01*
X531404Y127219D01*
X532368Y126961D01*
X533365D01*
X534328Y127219D01*
X535192Y127717D01*
X535897Y128422D01*
X536395Y129286D01*
X536654Y130249D01*
Y131247D01*
X536395Y132210D01*
X535897Y133074D01*
X535192Y133779D01*
X534328Y134277D01*
X533365Y134535D01*
D02*
G37*
G36*
X523365D02*
X522367D01*
X521404Y134277D01*
X520541Y133779D01*
X519836Y133074D01*
X519337Y132210D01*
X519079Y131247D01*
Y130249D01*
X519337Y129286D01*
X519836Y128422D01*
X520541Y127717D01*
X521404Y127219D01*
X522367Y126961D01*
X523365D01*
X524328Y127219D01*
X525192Y127717D01*
X525897Y128422D01*
X526395Y129286D01*
X526653Y130249D01*
Y131247D01*
X526395Y132210D01*
X525897Y133074D01*
X525192Y133779D01*
X524328Y134277D01*
X523365Y134535D01*
D02*
G37*
G36*
X42439Y129921D02*
X41813D01*
X41234Y129682D01*
X40791Y129238D01*
X40551Y128660D01*
Y128033D01*
X40791Y127454D01*
X41234Y127011D01*
X41813Y126772D01*
X42439D01*
X43018Y127011D01*
X43461Y127454D01*
X43701Y128033D01*
Y128660D01*
X43461Y129238D01*
X43018Y129682D01*
X42439Y129921D01*
D02*
G37*
G36*
X372360Y129134D02*
X371734D01*
X371155Y128894D01*
X370712Y128451D01*
X370472Y127872D01*
Y127246D01*
X370712Y126667D01*
X371155Y126224D01*
X371734Y125984D01*
X372360D01*
X372939Y126224D01*
X373382Y126667D01*
X373622Y127246D01*
Y127872D01*
X373382Y128451D01*
X372939Y128894D01*
X372360Y129134D01*
D02*
G37*
G36*
X222754Y127953D02*
X222128D01*
X221549Y127713D01*
X221106Y127270D01*
X220866Y126691D01*
Y126065D01*
X221106Y125486D01*
X221549Y125043D01*
X222128Y124803D01*
X222754D01*
X223333Y125043D01*
X223776Y125486D01*
X224016Y126065D01*
Y126691D01*
X223776Y127270D01*
X223333Y127713D01*
X222754Y127953D01*
D02*
G37*
G36*
X211337Y125197D02*
X210710D01*
X210132Y124957D01*
X209689Y124514D01*
X209449Y123935D01*
Y123309D01*
X209620Y122895D01*
X209245Y122520D01*
X208831Y122691D01*
X208205D01*
X207626Y122452D01*
X207183Y122009D01*
X206943Y121430D01*
Y120803D01*
X207183Y120224D01*
X207626Y119781D01*
X208205Y119542D01*
X208831D01*
X209410Y119781D01*
X209853Y120224D01*
X210093Y120803D01*
Y121430D01*
X209921Y121844D01*
X210296Y122219D01*
X210710Y122047D01*
X211337D01*
X211916Y122287D01*
X212359Y122730D01*
X212598Y123309D01*
Y123935D01*
X212359Y124514D01*
X211916Y124957D01*
X211337Y125197D01*
D02*
G37*
G36*
X42439Y124803D02*
X41813D01*
X41234Y124563D01*
X40791Y124120D01*
X40551Y123542D01*
Y122915D01*
X40791Y122336D01*
X41234Y121893D01*
X41813Y121653D01*
X42439D01*
X43018Y121893D01*
X43461Y122336D01*
X43701Y122915D01*
Y123542D01*
X43461Y124120D01*
X43018Y124563D01*
X42439Y124803D01*
D02*
G37*
G36*
X523365Y124535D02*
X522367D01*
X521404Y124277D01*
X520541Y123779D01*
X519836Y123074D01*
X519337Y122210D01*
X519079Y121247D01*
Y120249D01*
X519337Y119286D01*
X519836Y118422D01*
X520541Y117717D01*
X521404Y117219D01*
X522367Y116961D01*
X523365D01*
X524328Y117219D01*
X525192Y117717D01*
X525897Y118422D01*
X526395Y119286D01*
X526653Y120249D01*
Y121247D01*
X526395Y122210D01*
X525897Y123074D01*
X525192Y123779D01*
X524328Y124277D01*
X523365Y124535D01*
D02*
G37*
G36*
X206219Y120079D02*
X205592D01*
X205013Y119839D01*
X204571Y119396D01*
X204331Y118817D01*
Y118191D01*
X204571Y117612D01*
X205013Y117169D01*
X205592Y116929D01*
X206219D01*
X206798Y117169D01*
X207241Y117612D01*
X207480Y118191D01*
Y118817D01*
X207241Y119396D01*
X206798Y119839D01*
X206219Y120079D01*
D02*
G37*
G36*
X-27207Y119748D02*
X-27911D01*
X-28563Y119478D01*
X-29061Y118980D01*
X-29331Y118329D01*
Y117624D01*
X-29061Y116973D01*
X-28563Y116474D01*
X-27911Y116205D01*
X-27207D01*
X-26555Y116474D01*
X-26057Y116973D01*
X-25787Y117624D01*
Y118329D01*
X-26057Y118980D01*
X-26555Y119478D01*
X-27207Y119748D01*
D02*
G37*
G36*
X42423Y118474D02*
X41718D01*
X41067Y118204D01*
X40568Y117706D01*
X40299Y117054D01*
Y116350D01*
X40568Y115699D01*
X41067Y115200D01*
X41718Y114930D01*
X42423D01*
X43074Y115200D01*
X43572Y115699D01*
X43842Y116350D01*
Y117054D01*
X43572Y117706D01*
X43074Y118204D01*
X42423Y118474D01*
D02*
G37*
G36*
X-40199Y118307D02*
X-40904D01*
X-41555Y118037D01*
X-42053Y117539D01*
X-42323Y116888D01*
Y116183D01*
X-42053Y115532D01*
X-41555Y115033D01*
X-40904Y114764D01*
X-40199D01*
X-39548Y115033D01*
X-39049Y115532D01*
X-38780Y116183D01*
Y116888D01*
X-39049Y117539D01*
X-39548Y118037D01*
X-40199Y118307D01*
D02*
G37*
G36*
X166061Y115354D02*
X165435D01*
X164856Y115115D01*
X164413Y114672D01*
X164173Y114093D01*
Y113466D01*
X164413Y112888D01*
X164856Y112444D01*
X165435Y112205D01*
X166061D01*
X166640Y112444D01*
X167083Y112888D01*
X167323Y113466D01*
Y114093D01*
X167083Y114672D01*
X166640Y115115D01*
X166061Y115354D01*
D02*
G37*
G36*
X2715Y115157D02*
X2010D01*
X1359Y114888D01*
X860Y114389D01*
X591Y113738D01*
Y113033D01*
X860Y112382D01*
X1359Y111884D01*
X2010Y111614D01*
X2715D01*
X3366Y111884D01*
X3864Y112382D01*
X4134Y113033D01*
Y113738D01*
X3864Y114389D01*
X3366Y114888D01*
X2715Y115157D01*
D02*
G37*
G36*
X533365Y114535D02*
X532368D01*
X531404Y114277D01*
X530541Y113779D01*
X529836Y113074D01*
X529337Y112210D01*
X529079Y111247D01*
Y110249D01*
X529337Y109286D01*
X529836Y108423D01*
X530541Y107717D01*
X531404Y107219D01*
X532368Y106961D01*
X533365D01*
X534328Y107219D01*
X535192Y107717D01*
X535897Y108423D01*
X536395Y109286D01*
X536654Y110249D01*
Y111247D01*
X536395Y112210D01*
X535897Y113074D01*
X535192Y113779D01*
X534328Y114277D01*
X533365Y114535D01*
D02*
G37*
G36*
X523365D02*
X522367D01*
X521404Y114277D01*
X520541Y113779D01*
X519836Y113074D01*
X519337Y112210D01*
X519079Y111247D01*
Y110249D01*
X519337Y109286D01*
X519836Y108423D01*
X520541Y107717D01*
X521404Y107219D01*
X522367Y106961D01*
X523365D01*
X524328Y107219D01*
X525192Y107717D01*
X525897Y108423D01*
X526395Y109286D01*
X526653Y110249D01*
Y111247D01*
X526395Y112210D01*
X525897Y113074D01*
X525192Y113779D01*
X524328Y114277D01*
X523365Y114535D01*
D02*
G37*
G36*
X151101Y109843D02*
X150474D01*
X149895Y109603D01*
X149452Y109160D01*
X149213Y108581D01*
Y107955D01*
X149452Y107376D01*
X149895Y106933D01*
X150474Y106693D01*
X151101D01*
X151679Y106933D01*
X152122Y107376D01*
X152362Y107955D01*
Y108581D01*
X152122Y109160D01*
X151679Y109603D01*
X151101Y109843D01*
D02*
G37*
G36*
X92439Y105905D02*
X91813D01*
X91234Y105666D01*
X90791Y105223D01*
X90551Y104644D01*
Y104017D01*
X90791Y103439D01*
X91234Y102996D01*
X91813Y102756D01*
X92439D01*
X93018Y102996D01*
X93461Y103439D01*
X93701Y104017D01*
Y104644D01*
X93461Y105223D01*
X93018Y105666D01*
X92439Y105905D01*
D02*
G37*
G36*
X533365Y104535D02*
X532368D01*
X531404Y104277D01*
X530541Y103779D01*
X529836Y103074D01*
X529337Y102210D01*
X529079Y101247D01*
Y100249D01*
X529337Y99286D01*
X529836Y98422D01*
X530541Y97717D01*
X531404Y97219D01*
X532368Y96961D01*
X533365D01*
X534328Y97219D01*
X535192Y97717D01*
X535897Y98422D01*
X536395Y99286D01*
X536654Y100249D01*
Y101247D01*
X536395Y102210D01*
X535897Y103074D01*
X535192Y103779D01*
X534328Y104277D01*
X533365Y104535D01*
D02*
G37*
G36*
X523365D02*
X522367D01*
X521404Y104277D01*
X520541Y103779D01*
X519836Y103074D01*
X519337Y102210D01*
X519079Y101247D01*
Y100249D01*
X519337Y99286D01*
X519836Y98422D01*
X520541Y97717D01*
X521404Y97219D01*
X522367Y96961D01*
X523365D01*
X524328Y97219D01*
X525192Y97717D01*
X525897Y98422D01*
X526395Y99286D01*
X526653Y100249D01*
Y101247D01*
X526395Y102210D01*
X525897Y103074D01*
X525192Y103779D01*
X524328Y104277D01*
X523365Y104535D01*
D02*
G37*
G36*
X36927Y96063D02*
X36301D01*
X35722Y95823D01*
X35279Y95380D01*
X35039Y94801D01*
Y94175D01*
X35279Y93596D01*
X35722Y93153D01*
X36301Y92913D01*
X36927D01*
X37506Y93153D01*
X37949Y93596D01*
X38189Y94175D01*
Y94801D01*
X37949Y95380D01*
X37506Y95823D01*
X36927Y96063D01*
D02*
G37*
G36*
X40077Y93701D02*
X39450D01*
X38872Y93461D01*
X38429Y93018D01*
X38189Y92439D01*
Y91813D01*
X38429Y91234D01*
X38872Y90791D01*
X39450Y90551D01*
X40077D01*
X40656Y90791D01*
X41099Y91234D01*
X41339Y91813D01*
Y92439D01*
X41099Y93018D01*
X40656Y93461D01*
X40077Y93701D01*
D02*
G37*
G36*
X206219Y96063D02*
X205592D01*
X205013Y95823D01*
X204571Y95380D01*
X204331Y94801D01*
Y94175D01*
X204571Y93596D01*
X205013Y93153D01*
X205592Y92913D01*
X206219D01*
X206798Y93153D01*
X206905Y93260D01*
X206942Y93298D01*
X207326Y93018D01*
X207294Y92939D01*
X207087Y92439D01*
Y91813D01*
X207326Y91234D01*
X207769Y90791D01*
X208348Y90551D01*
X208975D01*
X209474Y90758D01*
X209554Y90791D01*
X209833Y90407D01*
X209796Y90369D01*
X209689Y90262D01*
X209449Y89683D01*
Y89057D01*
X209689Y88478D01*
X210132Y88035D01*
X210710Y87795D01*
X211337D01*
X211916Y88035D01*
X212359Y88478D01*
X212598Y89057D01*
Y89683D01*
X212359Y90262D01*
X211916Y90705D01*
X211337Y90945D01*
X210710D01*
X210211Y90738D01*
X210132Y90705D01*
X209852Y91089D01*
X209890Y91127D01*
X209997Y91234D01*
X210236Y91813D01*
Y92439D01*
X209997Y93018D01*
X209554Y93461D01*
X208975Y93701D01*
X208348D01*
X207769Y93461D01*
X207662Y93354D01*
X207625Y93316D01*
X207241Y93596D01*
X207273Y93675D01*
X207480Y94175D01*
Y94801D01*
X207241Y95380D01*
X206798Y95823D01*
X206219Y96063D01*
D02*
G37*
G36*
X44801Y90945D02*
X44175D01*
X43596Y90705D01*
X43153Y90262D01*
X42913Y89683D01*
Y89057D01*
X43153Y88478D01*
X43596Y88035D01*
X44175Y87795D01*
X44801D01*
X45380Y88035D01*
X45823Y88478D01*
X46063Y89057D01*
Y89683D01*
X45823Y90262D01*
X45380Y90705D01*
X44801Y90945D01*
D02*
G37*
G36*
X533365Y94535D02*
X532368D01*
X531404Y94277D01*
X530541Y93779D01*
X529836Y93074D01*
X529337Y92210D01*
X529079Y91247D01*
Y90249D01*
X529337Y89286D01*
X529836Y88423D01*
X530541Y87717D01*
X531404Y87219D01*
X532368Y86961D01*
X533365D01*
X534328Y87219D01*
X535192Y87717D01*
X535897Y88423D01*
X536395Y89286D01*
X536654Y90249D01*
Y91247D01*
X536395Y92210D01*
X535897Y93074D01*
X535192Y93779D01*
X534328Y94277D01*
X533365Y94535D01*
D02*
G37*
G36*
X523365D02*
X522367D01*
X521404Y94277D01*
X520541Y93779D01*
X519836Y93074D01*
X519337Y92210D01*
X519079Y91247D01*
Y90249D01*
X519337Y89286D01*
X519836Y88423D01*
X520541Y87717D01*
X521404Y87219D01*
X522367Y86961D01*
X523365D01*
X524328Y87219D01*
X525192Y87717D01*
X525897Y88423D01*
X526395Y89286D01*
X526653Y90249D01*
Y91247D01*
X526395Y92210D01*
X525897Y93074D01*
X525192Y93779D01*
X524328Y94277D01*
X523365Y94535D01*
D02*
G37*
G36*
X416455Y88189D02*
X415829D01*
X415250Y87949D01*
X414807Y87506D01*
X414567Y86927D01*
Y86301D01*
X414807Y85722D01*
X415250Y85279D01*
X415829Y85039D01*
X416455D01*
X417034Y85279D01*
X417477Y85722D01*
X417717Y86301D01*
Y86927D01*
X417477Y87506D01*
X417034Y87949D01*
X416455Y88189D01*
D02*
G37*
G36*
X386927D02*
X386301D01*
X385722Y87949D01*
X385279Y87506D01*
X385039Y86927D01*
Y86301D01*
X385279Y85722D01*
X385722Y85279D01*
X386301Y85039D01*
X386927D01*
X387506Y85279D01*
X387949Y85722D01*
X388189Y86301D01*
Y86927D01*
X387949Y87506D01*
X387506Y87949D01*
X386927Y88189D01*
D02*
G37*
G36*
X372360Y83465D02*
X371734D01*
X371155Y83225D01*
X370712Y82782D01*
X370472Y82203D01*
Y81577D01*
X370712Y80998D01*
X371155Y80555D01*
X371734Y80315D01*
X372360D01*
X372939Y80555D01*
X373382Y80998D01*
X373622Y81577D01*
Y82203D01*
X373382Y82782D01*
X372939Y83225D01*
X372360Y83465D01*
D02*
G37*
G36*
X533365Y84535D02*
X532368D01*
X531404Y84277D01*
X530541Y83779D01*
X529836Y83074D01*
X529337Y82210D01*
X529079Y81247D01*
Y80249D01*
X529337Y79286D01*
X529836Y78422D01*
X530541Y77717D01*
X531404Y77219D01*
X532368Y76961D01*
X533365D01*
X534328Y77219D01*
X535192Y77717D01*
X535897Y78422D01*
X536395Y79286D01*
X536654Y80249D01*
Y81247D01*
X536395Y82210D01*
X535897Y83074D01*
X535192Y83779D01*
X534328Y84277D01*
X533365Y84535D01*
D02*
G37*
G36*
X523365D02*
X522367D01*
X521404Y84277D01*
X520541Y83779D01*
X519836Y83074D01*
X519337Y82210D01*
X519079Y81247D01*
Y80249D01*
X519337Y79286D01*
X519836Y78422D01*
X520541Y77717D01*
X521404Y77219D01*
X522367Y76961D01*
X523365D01*
X524328Y77219D01*
X525192Y77717D01*
X525897Y78422D01*
X526395Y79286D01*
X526653Y80249D01*
Y81247D01*
X526395Y82210D01*
X525897Y83074D01*
X525192Y83779D01*
X524328Y84277D01*
X523365Y84535D01*
D02*
G37*
G36*
X372360Y77165D02*
X371734D01*
X371155Y76926D01*
X370712Y76483D01*
X370472Y75904D01*
Y75277D01*
X370712Y74699D01*
X371155Y74256D01*
X371734Y74016D01*
X372360D01*
X372939Y74256D01*
X373382Y74699D01*
X373622Y75277D01*
Y75904D01*
X373382Y76483D01*
X372939Y76926D01*
X372360Y77165D01*
D02*
G37*
G36*
X399920Y75984D02*
X399293D01*
X398714Y75744D01*
X398271Y75301D01*
X398031Y74723D01*
Y74096D01*
X398271Y73517D01*
X398714Y73074D01*
X399293Y72835D01*
X399920D01*
X400498Y73074D01*
X400941Y73517D01*
X401181Y74096D01*
Y74723D01*
X400941Y75301D01*
X400498Y75744D01*
X399920Y75984D01*
D02*
G37*
G36*
X385353D02*
X384726D01*
X384147Y75744D01*
X383704Y75301D01*
X383465Y74723D01*
Y74096D01*
X383704Y73517D01*
X384147Y73074D01*
X384726Y72835D01*
X385353D01*
X385931Y73074D01*
X386374Y73517D01*
X386614Y74096D01*
Y74723D01*
X386374Y75301D01*
X385931Y75744D01*
X385353Y75984D01*
D02*
G37*
G36*
X372360Y70866D02*
X371734D01*
X371155Y70626D01*
X370712Y70183D01*
X370472Y69605D01*
Y68978D01*
X370712Y68399D01*
X371155Y67956D01*
X371734Y67716D01*
X372360D01*
X372939Y67956D01*
X373382Y68399D01*
X373622Y68978D01*
Y69605D01*
X373382Y70183D01*
X372939Y70626D01*
X372360Y70866D01*
D02*
G37*
G36*
X533365Y74535D02*
X532368D01*
X531404Y74277D01*
X530541Y73779D01*
X529836Y73074D01*
X529337Y72210D01*
X529079Y71247D01*
Y70249D01*
X529337Y69286D01*
X529836Y68423D01*
X530541Y67717D01*
X531404Y67219D01*
X532368Y66961D01*
X533365D01*
X534328Y67219D01*
X535192Y67717D01*
X535897Y68423D01*
X536395Y69286D01*
X536654Y70249D01*
Y71247D01*
X536395Y72210D01*
X535897Y73074D01*
X535192Y73779D01*
X534328Y74277D01*
X533365Y74535D01*
D02*
G37*
G36*
X523365D02*
X522367D01*
X521404Y74277D01*
X520541Y73779D01*
X519836Y73074D01*
X519337Y72210D01*
X519079Y71247D01*
Y70249D01*
X519337Y69286D01*
X519836Y68423D01*
X520541Y67717D01*
X521404Y67219D01*
X522367Y66961D01*
X523365D01*
X524328Y67219D01*
X525192Y67717D01*
X525897Y68423D01*
X526395Y69286D01*
X526653Y70249D01*
Y71247D01*
X526395Y72210D01*
X525897Y73074D01*
X525192Y73779D01*
X524328Y74277D01*
X523365Y74535D01*
D02*
G37*
G36*
X372360Y64567D02*
X371734D01*
X371155Y64327D01*
X370712Y63884D01*
X370472Y63305D01*
Y62679D01*
X370712Y62100D01*
X371155Y61657D01*
X371734Y61417D01*
X372360D01*
X372939Y61657D01*
X373382Y62100D01*
X373622Y62679D01*
Y63305D01*
X373382Y63884D01*
X372939Y64327D01*
X372360Y64567D01*
D02*
G37*
G36*
X533365Y64535D02*
X532368D01*
X531404Y64277D01*
X530541Y63779D01*
X529836Y63074D01*
X529337Y62210D01*
X529079Y61247D01*
Y60249D01*
X529337Y59286D01*
X529836Y58422D01*
X530541Y57717D01*
X531404Y57219D01*
X532368Y56961D01*
X533365D01*
X534328Y57219D01*
X535192Y57717D01*
X535897Y58422D01*
X536395Y59286D01*
X536654Y60249D01*
Y61247D01*
X536395Y62210D01*
X535897Y63074D01*
X535192Y63779D01*
X534328Y64277D01*
X533365Y64535D01*
D02*
G37*
G36*
X523365D02*
X522367D01*
X521404Y64277D01*
X520541Y63779D01*
X519836Y63074D01*
X519337Y62210D01*
X519079Y61247D01*
Y60249D01*
X519337Y59286D01*
X519836Y58422D01*
X520541Y57717D01*
X521404Y57219D01*
X522367Y56961D01*
X523365D01*
X524328Y57219D01*
X525192Y57717D01*
X525897Y58422D01*
X526395Y59286D01*
X526653Y60249D01*
Y61247D01*
X526395Y62210D01*
X525897Y63074D01*
X525192Y63779D01*
X524328Y64277D01*
X523365Y64535D01*
D02*
G37*
G36*
X372360Y58268D02*
X371734D01*
X371155Y58028D01*
X370712Y57585D01*
X370472Y57006D01*
Y56380D01*
X370712Y55801D01*
X371155Y55358D01*
X371734Y55118D01*
X372360D01*
X372939Y55358D01*
X373382Y55801D01*
X373622Y56380D01*
Y57006D01*
X373382Y57585D01*
X372939Y58028D01*
X372360Y58268D01*
D02*
G37*
G36*
Y51968D02*
X371734D01*
X371155Y51729D01*
X370712Y51286D01*
X370472Y50707D01*
Y50081D01*
X370712Y49502D01*
X371155Y49059D01*
X371734Y48819D01*
X372360D01*
X372939Y49059D01*
X373382Y49502D01*
X373622Y50081D01*
Y50707D01*
X373382Y51286D01*
X372939Y51729D01*
X372360Y51968D01*
D02*
G37*
G36*
X385353Y50591D02*
X384726D01*
X384147Y50351D01*
X383704Y49908D01*
X383465Y49329D01*
Y48702D01*
X383704Y48124D01*
X384147Y47681D01*
X384726Y47441D01*
X385353D01*
X385931Y47681D01*
X386374Y48124D01*
X386614Y48702D01*
Y49329D01*
X386374Y49908D01*
X385931Y50351D01*
X385353Y50591D01*
D02*
G37*
G36*
X418817Y50394D02*
X418191D01*
X417612Y50154D01*
X417169Y49711D01*
X416929Y49132D01*
Y48506D01*
X417169Y47927D01*
X417612Y47484D01*
X418191Y47244D01*
X418817D01*
X419396Y47484D01*
X419839Y47927D01*
X420079Y48506D01*
Y49132D01*
X419839Y49711D01*
X419396Y50154D01*
X418817Y50394D01*
D02*
G37*
G36*
X533365Y54535D02*
X532368D01*
X531404Y54277D01*
X530541Y53779D01*
X529836Y53074D01*
X529337Y52210D01*
X529079Y51247D01*
Y50249D01*
X529337Y49286D01*
X529836Y48423D01*
X530541Y47717D01*
X531404Y47219D01*
X532368Y46961D01*
X533365D01*
X534328Y47219D01*
X535192Y47717D01*
X535897Y48423D01*
X536395Y49286D01*
X536654Y50249D01*
Y51247D01*
X536395Y52210D01*
X535897Y53074D01*
X535192Y53779D01*
X534328Y54277D01*
X533365Y54535D01*
D02*
G37*
G36*
X523365D02*
X522367D01*
X521404Y54277D01*
X520541Y53779D01*
X519836Y53074D01*
X519337Y52210D01*
X519079Y51247D01*
Y50249D01*
X519337Y49286D01*
X519836Y48423D01*
X520541Y47717D01*
X521404Y47219D01*
X522367Y46961D01*
X523365D01*
X524328Y47219D01*
X525192Y47717D01*
X525897Y48423D01*
X526395Y49286D01*
X526653Y50249D01*
Y51247D01*
X526395Y52210D01*
X525897Y53074D01*
X525192Y53779D01*
X524328Y54277D01*
X523365Y54535D01*
D02*
G37*
G36*
X509449Y52994D02*
X507087D01*
X505854Y52831D01*
X504704Y52355D01*
X503718Y51598D01*
X502960Y50611D01*
X502484Y49462D01*
X502322Y48228D01*
X502484Y46995D01*
X502960Y45846D01*
X503718Y44859D01*
X504704Y44102D01*
X505854Y43626D01*
X507087Y43463D01*
X509449D01*
X510682Y43626D01*
X511832Y44102D01*
X512819Y44859D01*
X513576Y45846D01*
X514052Y46995D01*
X514214Y48228D01*
X514052Y49462D01*
X513576Y50611D01*
X512819Y51598D01*
X511832Y52355D01*
X510682Y52831D01*
X509449Y52994D01*
D02*
G37*
G36*
X533365Y44535D02*
X532368D01*
X531404Y44277D01*
X530541Y43779D01*
X529836Y43074D01*
X529337Y42210D01*
X529079Y41247D01*
Y40249D01*
X529337Y39286D01*
X529836Y38423D01*
X530541Y37717D01*
X531404Y37219D01*
X532368Y36961D01*
X533365D01*
X534328Y37219D01*
X535192Y37717D01*
X535897Y38423D01*
X536395Y39286D01*
X536654Y40249D01*
Y41247D01*
X536395Y42210D01*
X535897Y43074D01*
X535192Y43779D01*
X534328Y44277D01*
X533365Y44535D01*
D02*
G37*
G36*
X523365D02*
X522367D01*
X521404Y44277D01*
X520541Y43779D01*
X519836Y43074D01*
X519337Y42210D01*
X519079Y41247D01*
Y40249D01*
X519337Y39286D01*
X519836Y38423D01*
X520541Y37717D01*
X521404Y37219D01*
X522367Y36961D01*
X523365D01*
X524328Y37219D01*
X525192Y37717D01*
X525897Y38423D01*
X526395Y39286D01*
X526653Y40249D01*
Y41247D01*
X526395Y42210D01*
X525897Y43074D01*
X525192Y43779D01*
X524328Y44277D01*
X523365Y44535D01*
D02*
G37*
G36*
X449132Y35039D02*
X448506D01*
X447927Y34800D01*
X447484Y34357D01*
X447244Y33778D01*
Y33151D01*
X447484Y32572D01*
X447927Y32129D01*
X448506Y31890D01*
X449132D01*
X449711Y32129D01*
X450154Y32572D01*
X450394Y33151D01*
Y33778D01*
X450154Y34357D01*
X449711Y34800D01*
X449132Y35039D01*
D02*
G37*
G36*
X533365Y34535D02*
X532368D01*
X531404Y34277D01*
X530541Y33779D01*
X529836Y33074D01*
X529337Y32210D01*
X529079Y31247D01*
Y30249D01*
X529337Y29286D01*
X529836Y28422D01*
X530541Y27717D01*
X531404Y27219D01*
X532368Y26961D01*
X533365D01*
X534328Y27219D01*
X535192Y27717D01*
X535897Y28422D01*
X536395Y29286D01*
X536654Y30249D01*
Y31247D01*
X536395Y32210D01*
X535897Y33074D01*
X535192Y33779D01*
X534328Y34277D01*
X533365Y34535D01*
D02*
G37*
G36*
X523365D02*
X522367D01*
X521404Y34277D01*
X520541Y33779D01*
X519836Y33074D01*
X519337Y32210D01*
X519079Y31247D01*
Y30249D01*
X519337Y29286D01*
X519836Y28422D01*
X520541Y27717D01*
X521404Y27219D01*
X522367Y26961D01*
X523365D01*
X524328Y27219D01*
X525192Y27717D01*
X525897Y28422D01*
X526395Y29286D01*
X526653Y30249D01*
Y31247D01*
X526395Y32210D01*
X525897Y33074D01*
X525192Y33779D01*
X524328Y34277D01*
X523365Y34535D01*
D02*
G37*
G36*
X449132Y29921D02*
X448506D01*
X447927Y29682D01*
X447484Y29239D01*
X447244Y28660D01*
Y28033D01*
X447484Y27454D01*
X447927Y27011D01*
X448506Y26772D01*
X449132D01*
X449711Y27011D01*
X450154Y27454D01*
X450394Y28033D01*
Y28660D01*
X450154Y29239D01*
X449711Y29682D01*
X449132Y29921D01*
D02*
G37*
G36*
Y24803D02*
X448506D01*
X447927Y24563D01*
X447484Y24120D01*
X447244Y23542D01*
Y22915D01*
X447484Y22336D01*
X447927Y21893D01*
X448506Y21654D01*
X449132D01*
X449711Y21893D01*
X450154Y22336D01*
X450394Y22915D01*
Y23542D01*
X450154Y24120D01*
X449711Y24563D01*
X449132Y24803D01*
D02*
G37*
G36*
X509449Y27403D02*
X507087D01*
X505853Y27241D01*
X504704Y26765D01*
X503717Y26007D01*
X502960Y25020D01*
X502484Y23871D01*
X502321Y22638D01*
X502484Y21405D01*
X502960Y20255D01*
X503717Y19268D01*
X504704Y18511D01*
X505853Y18035D01*
X507087Y17873D01*
X509449D01*
X510682Y18035D01*
X511831Y18511D01*
X512818Y19268D01*
X513576Y20255D01*
X514052Y21405D01*
X514214Y22638D01*
X514052Y23871D01*
X513576Y25020D01*
X512818Y26007D01*
X511831Y26765D01*
X510682Y27241D01*
X509449Y27403D01*
D02*
G37*
G36*
X533365Y24535D02*
X532368D01*
X531404Y24277D01*
X530541Y23779D01*
X529836Y23074D01*
X529337Y22210D01*
X529079Y21247D01*
Y20249D01*
X529337Y19286D01*
X529836Y18422D01*
X530541Y17717D01*
X531404Y17219D01*
X532368Y16961D01*
X533365D01*
X534328Y17219D01*
X535192Y17717D01*
X535897Y18422D01*
X536395Y19286D01*
X536654Y20249D01*
Y21247D01*
X536395Y22210D01*
X535897Y23074D01*
X535192Y23779D01*
X534328Y24277D01*
X533365Y24535D01*
D02*
G37*
G36*
X523365D02*
X522367D01*
X521404Y24277D01*
X520541Y23779D01*
X519836Y23074D01*
X519337Y22210D01*
X519079Y21247D01*
Y20249D01*
X519337Y19286D01*
X519836Y18422D01*
X520541Y17717D01*
X521404Y17219D01*
X522367Y16961D01*
X523365D01*
X524328Y17219D01*
X525192Y17717D01*
X525897Y18422D01*
X526395Y19286D01*
X526653Y20249D01*
Y21247D01*
X526395Y22210D01*
X525897Y23074D01*
X525192Y23779D01*
X524328Y24277D01*
X523365Y24535D01*
D02*
G37*
%LPD*%
D62*
X532866Y120748D02*
D03*
D63*
X104724Y373622D02*
D03*
X197638Y301969D02*
D03*
X223622Y333858D02*
D03*
X142126Y359055D02*
D03*
X392913Y86614D02*
D03*
X15748Y113386D02*
D03*
X51575Y337402D02*
D03*
Y334252D02*
D03*
Y331496D02*
D03*
Y340158D02*
D03*
X392913Y346457D02*
D03*
Y259842D02*
D03*
X392520Y173228D02*
D03*
X322047Y187008D02*
D03*
Y193307D02*
D03*
Y199606D02*
D03*
Y205906D02*
D03*
D64*
X501181Y38976D02*
D03*
X175197Y109843D02*
D03*
X236614Y359449D02*
D03*
D65*
X68504Y142913D02*
D03*
X84646Y129921D02*
D03*
X30709Y127953D02*
D03*
Y135433D02*
D03*
Y120472D02*
D03*
M02*
