G04*
G04 #@! TF.GenerationSoftware,Altium Limited,Altium Designer,24.1.2 (44)*
G04*
G04 Layer_Color=8388736*
%FSLAX25Y25*%
%MOIN*%
G70*
G04*
G04 #@! TF.SameCoordinates,431092DA-F967-4261-A4BB-5581ED7D94E6*
G04*
G04*
G04 #@! TF.FilePolarity,Negative*
G04*
G01*
G75*
%ADD20R,0.06517X0.01499*%
G04:AMPARAMS|DCode=21|XSize=65.17mil|YSize=14.99mil|CornerRadius=7.5mil|HoleSize=0mil|Usage=FLASHONLY|Rotation=0.000|XOffset=0mil|YOffset=0mil|HoleType=Round|Shape=RoundedRectangle|*
%AMROUNDEDRECTD21*
21,1,0.06517,0.00000,0,0,0.0*
21,1,0.05018,0.01499,0,0,0.0*
1,1,0.01499,0.02509,0.00000*
1,1,0.01499,-0.02509,0.00000*
1,1,0.01499,-0.02509,0.00000*
1,1,0.01499,0.02509,0.00000*
%
%ADD21ROUNDEDRECTD21*%
%ADD24R,0.13504X0.07008*%
G04:AMPARAMS|DCode=34|XSize=27.69mil|YSize=43.43mil|CornerRadius=7.25mil|HoleSize=0mil|Usage=FLASHONLY|Rotation=0.000|XOffset=0mil|YOffset=0mil|HoleType=Round|Shape=RoundedRectangle|*
%AMROUNDEDRECTD34*
21,1,0.02769,0.02894,0,0,0.0*
21,1,0.01319,0.04343,0,0,0.0*
1,1,0.01450,0.00659,-0.01447*
1,1,0.01450,-0.00659,-0.01447*
1,1,0.01450,-0.00659,0.01447*
1,1,0.01450,0.00659,0.01447*
%
%ADD34ROUNDEDRECTD34*%
G04:AMPARAMS|DCode=35|XSize=35.56mil|YSize=78.87mil|CornerRadius=10.89mil|HoleSize=0mil|Usage=FLASHONLY|Rotation=0.000|XOffset=0mil|YOffset=0mil|HoleType=Round|Shape=RoundedRectangle|*
%AMROUNDEDRECTD35*
21,1,0.03556,0.05709,0,0,0.0*
21,1,0.01378,0.07887,0,0,0.0*
1,1,0.02178,0.00689,-0.02854*
1,1,0.02178,-0.00689,-0.02854*
1,1,0.02178,-0.00689,0.02854*
1,1,0.02178,0.00689,0.02854*
%
%ADD35ROUNDEDRECTD35*%
G04:AMPARAMS|DCode=36|XSize=35.95mil|YSize=42.65mil|CornerRadius=8.61mil|HoleSize=0mil|Usage=FLASHONLY|Rotation=180.000|XOffset=0mil|YOffset=0mil|HoleType=Round|Shape=RoundedRectangle|*
%AMROUNDEDRECTD36*
21,1,0.03595,0.02542,0,0,180.0*
21,1,0.01873,0.04265,0,0,180.0*
1,1,0.01722,-0.00936,0.01271*
1,1,0.01722,0.00936,0.01271*
1,1,0.01722,0.00936,-0.01271*
1,1,0.01722,-0.00936,-0.01271*
%
%ADD36ROUNDEDRECTD36*%
%ADD37C,0.04737*%
%ADD38R,0.05131X0.03359*%
%ADD39R,0.05800X0.03792*%
%ADD40R,0.04000X0.04800*%
G04:AMPARAMS|DCode=41|XSize=35.95mil|YSize=42.65mil|CornerRadius=8.61mil|HoleSize=0mil|Usage=FLASHONLY|Rotation=90.000|XOffset=0mil|YOffset=0mil|HoleType=Round|Shape=RoundedRectangle|*
%AMROUNDEDRECTD41*
21,1,0.03595,0.02542,0,0,90.0*
21,1,0.01873,0.04265,0,0,90.0*
1,1,0.01722,0.01271,0.00936*
1,1,0.01722,0.01271,-0.00936*
1,1,0.01722,-0.01271,-0.00936*
1,1,0.01722,-0.01271,0.00936*
%
%ADD41ROUNDEDRECTD41*%
G04:AMPARAMS|DCode=42|XSize=31.62mil|YSize=65.09mil|CornerRadius=6.01mil|HoleSize=0mil|Usage=FLASHONLY|Rotation=90.000|XOffset=0mil|YOffset=0mil|HoleType=Round|Shape=RoundedRectangle|*
%AMROUNDEDRECTD42*
21,1,0.03162,0.05307,0,0,90.0*
21,1,0.01961,0.06509,0,0,90.0*
1,1,0.01202,0.02653,0.00980*
1,1,0.01202,0.02653,-0.00980*
1,1,0.01202,-0.02653,-0.00980*
1,1,0.01202,-0.02653,0.00980*
%
%ADD42ROUNDEDRECTD42*%
%ADD43R,0.04147X0.04540*%
%ADD44R,0.07414X0.13162*%
%ADD45R,0.03950X0.03950*%
%ADD46R,0.11417X0.02559*%
%ADD47C,0.06600*%
%ADD48C,0.02769*%
%ADD49C,0.02375*%
%ADD50C,0.03162*%
G36*
X79934Y127541D02*
X78934D01*
X76534Y129941D01*
X78934Y132342D01*
X79934D01*
Y127541D01*
D02*
G37*
G36*
X76334Y129941D02*
X78734Y127541D01*
X74934D01*
Y129941D01*
Y132342D01*
X78734D01*
X76334Y129941D01*
D02*
G37*
D20*
X390451Y77067D02*
D03*
Y250295D02*
D03*
Y163681D02*
D03*
Y336910D02*
D03*
D21*
Y74508D02*
D03*
Y71949D02*
D03*
Y69390D02*
D03*
Y66831D02*
D03*
Y64272D02*
D03*
Y61713D02*
D03*
Y59153D02*
D03*
Y56595D02*
D03*
Y54035D02*
D03*
Y51476D02*
D03*
Y48917D02*
D03*
X412698D02*
D03*
Y51476D02*
D03*
Y54035D02*
D03*
Y56595D02*
D03*
Y59153D02*
D03*
Y61713D02*
D03*
Y64272D02*
D03*
Y66831D02*
D03*
Y69390D02*
D03*
Y71949D02*
D03*
Y74508D02*
D03*
Y77067D02*
D03*
X390451Y247736D02*
D03*
Y245177D02*
D03*
Y242618D02*
D03*
Y240059D02*
D03*
Y237500D02*
D03*
Y234941D02*
D03*
Y232382D02*
D03*
Y229823D02*
D03*
Y227264D02*
D03*
Y224705D02*
D03*
Y222146D02*
D03*
X412698D02*
D03*
Y224705D02*
D03*
Y227264D02*
D03*
Y229823D02*
D03*
Y232382D02*
D03*
Y234941D02*
D03*
Y237500D02*
D03*
Y240059D02*
D03*
Y242618D02*
D03*
Y245177D02*
D03*
Y247736D02*
D03*
Y250295D02*
D03*
X390451Y161122D02*
D03*
Y158563D02*
D03*
Y156004D02*
D03*
Y153445D02*
D03*
Y150886D02*
D03*
Y148327D02*
D03*
Y145768D02*
D03*
Y143209D02*
D03*
Y140650D02*
D03*
Y138091D02*
D03*
Y135531D02*
D03*
X412698D02*
D03*
Y138091D02*
D03*
Y140650D02*
D03*
Y143209D02*
D03*
Y145768D02*
D03*
Y148327D02*
D03*
Y150886D02*
D03*
Y153445D02*
D03*
Y156004D02*
D03*
Y158563D02*
D03*
Y161122D02*
D03*
Y163681D02*
D03*
X390451Y334350D02*
D03*
Y331791D02*
D03*
Y329232D02*
D03*
Y326673D02*
D03*
Y324114D02*
D03*
Y321555D02*
D03*
Y318996D02*
D03*
Y316437D02*
D03*
Y313878D02*
D03*
Y311319D02*
D03*
Y308760D02*
D03*
X412698D02*
D03*
Y311319D02*
D03*
Y313878D02*
D03*
Y316437D02*
D03*
Y318996D02*
D03*
Y321555D02*
D03*
Y324114D02*
D03*
Y326673D02*
D03*
Y329232D02*
D03*
Y331791D02*
D03*
Y334350D02*
D03*
Y336910D02*
D03*
D24*
X190945Y346457D02*
D03*
Y320866D02*
D03*
D34*
X363268Y38976D02*
D03*
X369016D02*
D03*
X80433Y123969D02*
D03*
X74685D02*
D03*
X80433Y117946D02*
D03*
X74685D02*
D03*
X33740Y135225D02*
D03*
X39488D02*
D03*
X33740Y127942D02*
D03*
X39488D02*
D03*
X33740Y120820D02*
D03*
X39488D02*
D03*
X363268Y127559D02*
D03*
X369016D02*
D03*
X363268Y146457D02*
D03*
X369016D02*
D03*
X363268Y133858D02*
D03*
X369016D02*
D03*
X363268Y140157D02*
D03*
X369016D02*
D03*
X363268Y171653D02*
D03*
X369016D02*
D03*
X363268Y159055D02*
D03*
X369016D02*
D03*
X363268Y152756D02*
D03*
X369016D02*
D03*
X363268Y165354D02*
D03*
X369016D02*
D03*
X275709Y350000D02*
D03*
X269961D02*
D03*
X363268Y344488D02*
D03*
X369016D02*
D03*
X363268Y338189D02*
D03*
X369016D02*
D03*
X363268Y331890D02*
D03*
X369016D02*
D03*
X312874Y199606D02*
D03*
X318622D02*
D03*
X363268Y325590D02*
D03*
X369016D02*
D03*
X312874Y193307D02*
D03*
X318622D02*
D03*
X363268Y319291D02*
D03*
X369016D02*
D03*
X312874Y187008D02*
D03*
X318622D02*
D03*
X363268Y312992D02*
D03*
X369016D02*
D03*
X363268Y306693D02*
D03*
X369016D02*
D03*
X363268Y300394D02*
D03*
X369016D02*
D03*
X363268Y258268D02*
D03*
X369016D02*
D03*
X363268Y251969D02*
D03*
X369016D02*
D03*
X363268Y245669D02*
D03*
X369016D02*
D03*
X363268Y239370D02*
D03*
X369016D02*
D03*
X363268Y233071D02*
D03*
X369016D02*
D03*
X363268Y226772D02*
D03*
X369016D02*
D03*
X363268Y220472D02*
D03*
X369016D02*
D03*
X363268Y214173D02*
D03*
X369016D02*
D03*
X363268Y81890D02*
D03*
X369016D02*
D03*
X363268Y75590D02*
D03*
X369016D02*
D03*
X363268Y69291D02*
D03*
X369016D02*
D03*
X363268Y62992D02*
D03*
X369016D02*
D03*
X363268Y56693D02*
D03*
X369016D02*
D03*
X363268Y50394D02*
D03*
X369016D02*
D03*
X472717Y25577D02*
D03*
X478465D02*
D03*
X472717Y35522D02*
D03*
X478465D02*
D03*
X472717Y45466D02*
D03*
X478465D02*
D03*
X472717Y55410D02*
D03*
X478465D02*
D03*
X472717Y65354D02*
D03*
X478465D02*
D03*
X472717Y75298D02*
D03*
X478465D02*
D03*
X472717Y85242D02*
D03*
X478465D02*
D03*
X472717Y95186D02*
D03*
X478465D02*
D03*
X472717Y105131D02*
D03*
X478465D02*
D03*
X472716Y125130D02*
D03*
X478464D02*
D03*
X472716Y135131D02*
D03*
X478464D02*
D03*
X472716Y145131D02*
D03*
X478464D02*
D03*
X472716Y155131D02*
D03*
X478464D02*
D03*
X472716Y165130D02*
D03*
X478464D02*
D03*
X472716Y175130D02*
D03*
X478464D02*
D03*
X472716Y185131D02*
D03*
X478464D02*
D03*
X472716Y195131D02*
D03*
X478464D02*
D03*
X472717Y227018D02*
D03*
X478465D02*
D03*
X472717Y237008D02*
D03*
X478465D02*
D03*
X472717Y246998D02*
D03*
X478465D02*
D03*
X472717Y256988D02*
D03*
X478465D02*
D03*
X472717Y266978D02*
D03*
X478465D02*
D03*
X472717Y287402D02*
D03*
X478465D02*
D03*
X472717Y297402D02*
D03*
X478465D02*
D03*
X472717Y307402D02*
D03*
X478465D02*
D03*
X472717Y317402D02*
D03*
X478465D02*
D03*
X472717Y327402D02*
D03*
X478465D02*
D03*
X472717Y337402D02*
D03*
X478465D02*
D03*
X472717Y347402D02*
D03*
X478465D02*
D03*
X472717Y357402D02*
D03*
X478465D02*
D03*
X312874Y205906D02*
D03*
X318622D02*
D03*
X12323Y113386D02*
D03*
X6575D02*
D03*
D35*
X230315Y348622D02*
D03*
X240158D02*
D03*
X250000D02*
D03*
X230315Y324606D02*
D03*
X240158D02*
D03*
X250000D02*
D03*
D36*
X68386Y138965D02*
D03*
X62323D02*
D03*
X409961Y255906D02*
D03*
X416024D02*
D03*
X392795Y255906D02*
D03*
X386732D02*
D03*
X409961Y342520D02*
D03*
X416024D02*
D03*
X392795Y342520D02*
D03*
X386732D02*
D03*
X409961Y82677D02*
D03*
X416024D02*
D03*
X392795Y82677D02*
D03*
X386732D02*
D03*
X409961Y169291D02*
D03*
X416024D02*
D03*
X392402Y169291D02*
D03*
X386339D02*
D03*
D37*
X172047Y355512D02*
D03*
X171653Y330315D02*
D03*
X-6299Y113386D02*
D03*
D38*
X164173Y321063D02*
D03*
Y324803D02*
D03*
Y328543D02*
D03*
X154724D02*
D03*
Y321063D02*
D03*
X164173Y346654D02*
D03*
Y350394D02*
D03*
Y354134D02*
D03*
X154724D02*
D03*
Y346654D02*
D03*
D39*
X305157Y203957D02*
D03*
Y198957D02*
D03*
Y193957D02*
D03*
Y188957D02*
D03*
X275157D02*
D03*
Y193957D02*
D03*
Y198957D02*
D03*
Y203957D02*
D03*
D40*
X80934Y129941D02*
D03*
X74184D02*
D03*
D41*
X148819Y320984D02*
D03*
Y327047D02*
D03*
Y346575D02*
D03*
Y352638D02*
D03*
D42*
X46358Y133091D02*
D03*
Y128091D02*
D03*
Y123091D02*
D03*
Y118091D02*
D03*
X67815Y133091D02*
D03*
Y128091D02*
D03*
Y123091D02*
D03*
Y118091D02*
D03*
D43*
X92520Y334646D02*
D03*
X87402D02*
D03*
D44*
X63346D02*
D03*
X44528D02*
D03*
X63346Y317717D02*
D03*
X44528D02*
D03*
X63346Y300787D02*
D03*
X44528D02*
D03*
D45*
X108268Y334646D02*
D03*
X101969D02*
D03*
D46*
X-48976Y280315D02*
D03*
Y277166D02*
D03*
Y274016D02*
D03*
Y270866D02*
D03*
Y267716D02*
D03*
Y264567D02*
D03*
Y261417D02*
D03*
Y258268D02*
D03*
Y255118D02*
D03*
Y251968D02*
D03*
Y248819D02*
D03*
Y245669D02*
D03*
Y242520D02*
D03*
Y239370D02*
D03*
Y236220D02*
D03*
Y233071D02*
D03*
Y229921D02*
D03*
Y226772D02*
D03*
Y223622D02*
D03*
Y220472D02*
D03*
Y217323D02*
D03*
Y214173D02*
D03*
Y211024D02*
D03*
Y207874D02*
D03*
Y204725D02*
D03*
Y201575D02*
D03*
Y198425D02*
D03*
Y182677D02*
D03*
Y179528D02*
D03*
Y176378D02*
D03*
Y173228D02*
D03*
Y170079D02*
D03*
Y166929D02*
D03*
Y163779D02*
D03*
Y160630D02*
D03*
Y157480D02*
D03*
Y154331D02*
D03*
Y151181D02*
D03*
Y148031D02*
D03*
Y144882D02*
D03*
Y141732D02*
D03*
Y138583D02*
D03*
Y135433D02*
D03*
Y132283D02*
D03*
Y129134D02*
D03*
Y125984D02*
D03*
Y122835D02*
D03*
Y119685D02*
D03*
Y116535D02*
D03*
Y113386D02*
D03*
D47*
X532866Y210748D02*
D03*
Y200748D02*
D03*
Y190748D02*
D03*
Y180748D02*
D03*
Y170748D02*
D03*
Y160748D02*
D03*
Y150748D02*
D03*
Y140748D02*
D03*
Y130748D02*
D03*
Y120748D02*
D03*
Y110748D02*
D03*
Y100748D02*
D03*
Y90748D02*
D03*
Y80748D02*
D03*
Y70748D02*
D03*
Y60748D02*
D03*
Y50748D02*
D03*
Y40748D02*
D03*
Y30748D02*
D03*
Y20748D02*
D03*
X522866Y210748D02*
D03*
Y200748D02*
D03*
Y190748D02*
D03*
Y180748D02*
D03*
Y170748D02*
D03*
Y160748D02*
D03*
Y150748D02*
D03*
Y140748D02*
D03*
Y130748D02*
D03*
Y120748D02*
D03*
Y110748D02*
D03*
Y100748D02*
D03*
Y90748D02*
D03*
Y80748D02*
D03*
Y70748D02*
D03*
Y60748D02*
D03*
Y50748D02*
D03*
Y40748D02*
D03*
Y30748D02*
D03*
Y20748D02*
D03*
X532866Y372756D02*
D03*
Y362756D02*
D03*
Y352756D02*
D03*
Y342756D02*
D03*
Y332756D02*
D03*
Y322756D02*
D03*
Y312756D02*
D03*
Y302756D02*
D03*
Y292756D02*
D03*
Y282756D02*
D03*
Y272756D02*
D03*
Y262756D02*
D03*
Y252756D02*
D03*
Y242756D02*
D03*
Y232756D02*
D03*
X522866Y372756D02*
D03*
Y362756D02*
D03*
Y352756D02*
D03*
Y342756D02*
D03*
Y332756D02*
D03*
Y322756D02*
D03*
Y312756D02*
D03*
Y302756D02*
D03*
Y292756D02*
D03*
Y282756D02*
D03*
Y272756D02*
D03*
Y262756D02*
D03*
Y252756D02*
D03*
Y242756D02*
D03*
Y232756D02*
D03*
D48*
X230315Y384646D02*
D03*
X250000Y388976D02*
D03*
X106299Y110236D02*
D03*
X120079D02*
D03*
X391732Y354331D02*
D03*
X406693D02*
D03*
X396850Y384646D02*
D03*
X2362Y113386D02*
D03*
X30709Y142913D02*
D03*
X-40551Y201575D02*
D03*
Y207874D02*
D03*
Y214173D02*
D03*
Y220472D02*
D03*
Y226772D02*
D03*
Y233071D02*
D03*
Y239370D02*
D03*
Y245669D02*
D03*
Y251969D02*
D03*
Y257874D02*
D03*
Y264567D02*
D03*
Y270866D02*
D03*
Y277165D02*
D03*
Y280315D02*
D03*
Y116535D02*
D03*
Y182677D02*
D03*
Y176378D02*
D03*
Y170079D02*
D03*
Y163779D02*
D03*
Y157480D02*
D03*
Y151181D02*
D03*
Y132283D02*
D03*
Y141339D02*
D03*
X59449Y138976D02*
D03*
X42070Y116702D02*
D03*
X30709Y127953D02*
D03*
Y135433D02*
D03*
Y120472D02*
D03*
X51968Y129134D02*
D03*
Y133465D02*
D03*
X-35433Y144882D02*
D03*
X-27559Y117976D02*
D03*
X-26006Y154295D02*
D03*
Y160594D02*
D03*
Y166894D02*
D03*
Y173193D02*
D03*
Y179492D02*
D03*
Y198390D02*
D03*
Y204689D02*
D03*
Y210988D02*
D03*
Y217287D02*
D03*
Y223587D02*
D03*
Y229886D02*
D03*
Y236185D02*
D03*
Y242484D02*
D03*
Y248783D02*
D03*
Y255083D02*
D03*
D49*
X391732Y350394D02*
D03*
X403543D02*
D03*
X118110Y320866D02*
D03*
X133858D02*
D03*
X27165Y113386D02*
D03*
X322047Y187008D02*
D03*
Y193307D02*
D03*
Y199606D02*
D03*
Y205906D02*
D03*
X275197Y185039D02*
D03*
X399606Y183071D02*
D03*
X379921D02*
D03*
X399606Y74410D02*
D03*
X385039D02*
D03*
X399606Y202756D02*
D03*
X392520D02*
D03*
X399606Y334646D02*
D03*
X385039D02*
D03*
Y308858D02*
D03*
Y222244D02*
D03*
Y49016D02*
D03*
X416142Y346457D02*
D03*
Y259842D02*
D03*
Y173228D02*
D03*
X386614Y346457D02*
D03*
Y259842D02*
D03*
X386221Y173228D02*
D03*
X416142Y86614D02*
D03*
X386614D02*
D03*
X418504Y308661D02*
D03*
X418110Y222047D02*
D03*
X418504Y48819D02*
D03*
Y331890D02*
D03*
Y245276D02*
D03*
Y158661D02*
D03*
X385039Y135630D02*
D03*
X372047Y50394D02*
D03*
Y56693D02*
D03*
Y62992D02*
D03*
Y69291D02*
D03*
Y75590D02*
D03*
Y81890D02*
D03*
Y171653D02*
D03*
Y165354D02*
D03*
Y159055D02*
D03*
Y152756D02*
D03*
Y146457D02*
D03*
Y140157D02*
D03*
Y133858D02*
D03*
Y127559D02*
D03*
Y258268D02*
D03*
Y251969D02*
D03*
Y245669D02*
D03*
Y239370D02*
D03*
Y233071D02*
D03*
Y226772D02*
D03*
Y220473D02*
D03*
Y214173D02*
D03*
Y300394D02*
D03*
Y306693D02*
D03*
Y312992D02*
D03*
Y319291D02*
D03*
Y325591D02*
D03*
Y331890D02*
D03*
Y338189D02*
D03*
Y344488D02*
D03*
D50*
X112992Y334646D02*
D03*
M02*
