G04*
G04 #@! TF.GenerationSoftware,Altium Limited,Altium Designer,24.1.2 (44)*
G04*
G04 Layer_Color=16711935*
%FSLAX25Y25*%
%MOIN*%
G70*
G04*
G04 #@! TF.SameCoordinates,431092DA-F967-4261-A4BB-5581ED7D94E6*
G04*
G04*
G04 #@! TF.FilePolarity,Positive*
G04*
G01*
G75*
%ADD58C,0.00197*%
D58*
X-34803Y105414D02*
G03*
X-38740Y109350I-3937J0D01*
G01*
X-29370Y91634D02*
G03*
X-27795Y93208I-0J1575D01*
G01*
X-23858Y99508D02*
G03*
X-27795Y95571I-0J-3937D01*
G01*
X-0Y11811D02*
G03*
X11811Y-0I11811J-0D01*
G01*
X11811Y393701D02*
G03*
X0Y381890I0J-11811D01*
G01*
X-27795Y298130D02*
G03*
X-23858Y294193I3937J0D01*
G01*
X-27795Y300492D02*
G03*
X-29370Y302067I-1575J0D01*
G01*
X-38739Y284350D02*
G03*
X-34803Y288287I0J3937D01*
G01*
X-37953Y185827D02*
G03*
X-37953Y195276I0J4724D01*
G01*
X543862Y-0D02*
G03*
X555673Y11811I0J11811D01*
G01*
X555673Y381890D02*
G03*
X543862Y393701I-11811J0D01*
G01*
X-58425Y109350D02*
X-38740D01*
X-34803Y91634D02*
Y105413D01*
Y91634D02*
X-29370D01*
X-27795Y93209D02*
Y95571D01*
X-23858Y99508D02*
X0D01*
X-0Y11811D02*
X0Y99508D01*
X11811Y-0D02*
X543862Y0D01*
X555673Y11811D02*
Y381890D01*
X11811Y393701D02*
X543862D01*
X-27795Y298130D02*
Y300492D01*
X-34803Y302067D02*
X-29370D01*
X-34803Y288287D02*
Y302067D01*
X-58425Y284350D02*
X-38740D01*
X-58425Y195276D02*
Y284350D01*
Y195276D02*
X-37953D01*
X-58425Y185827D02*
X-37953Y185827D01*
X-58425Y109350D02*
Y185827D01*
X-23858Y294193D02*
X0D01*
X-0D02*
Y381890D01*
M02*
