G04*
G04 #@! TF.GenerationSoftware,Altium Limited,Altium Designer,24.1.2 (44)*
G04*
G04 Layer_Color=16711935*
%FSLAX25Y25*%
%MOIN*%
G70*
G04*
G04 #@! TF.SameCoordinates,431092DA-F967-4261-A4BB-5581ED7D94E6*
G04*
G04*
G04 #@! TF.FilePolarity,Negative*
G04*
G01*
G75*
%ADD46R,0.11417X0.02559*%
%ADD47C,0.06600*%
%ADD48C,0.02769*%
%ADD49C,0.02375*%
%ADD50C,0.03162*%
D46*
X-48976Y280315D02*
D03*
Y277166D02*
D03*
Y274016D02*
D03*
Y270866D02*
D03*
Y267716D02*
D03*
Y264567D02*
D03*
Y261417D02*
D03*
Y258268D02*
D03*
Y255118D02*
D03*
Y251968D02*
D03*
Y248819D02*
D03*
Y245669D02*
D03*
Y242520D02*
D03*
Y239370D02*
D03*
Y236220D02*
D03*
Y233071D02*
D03*
Y229921D02*
D03*
Y226772D02*
D03*
Y223622D02*
D03*
Y220472D02*
D03*
Y217323D02*
D03*
Y214173D02*
D03*
Y211024D02*
D03*
Y207874D02*
D03*
Y204725D02*
D03*
Y201575D02*
D03*
Y198425D02*
D03*
Y182677D02*
D03*
Y179528D02*
D03*
Y176378D02*
D03*
Y173228D02*
D03*
Y170079D02*
D03*
Y166929D02*
D03*
Y163779D02*
D03*
Y160630D02*
D03*
Y157480D02*
D03*
Y154331D02*
D03*
Y151181D02*
D03*
Y148031D02*
D03*
Y144882D02*
D03*
Y141732D02*
D03*
Y138583D02*
D03*
Y135433D02*
D03*
Y132283D02*
D03*
Y129134D02*
D03*
Y125984D02*
D03*
Y122835D02*
D03*
Y119685D02*
D03*
Y116535D02*
D03*
Y113386D02*
D03*
D47*
X532866Y210748D02*
D03*
Y200748D02*
D03*
Y190748D02*
D03*
Y180748D02*
D03*
Y170748D02*
D03*
Y160748D02*
D03*
Y150748D02*
D03*
Y140748D02*
D03*
Y130748D02*
D03*
Y120748D02*
D03*
Y110748D02*
D03*
Y100748D02*
D03*
Y90748D02*
D03*
Y80748D02*
D03*
Y70748D02*
D03*
Y60748D02*
D03*
Y50748D02*
D03*
Y40748D02*
D03*
Y30748D02*
D03*
Y20748D02*
D03*
X522866Y210748D02*
D03*
Y200748D02*
D03*
Y190748D02*
D03*
Y180748D02*
D03*
Y170748D02*
D03*
Y160748D02*
D03*
Y150748D02*
D03*
Y140748D02*
D03*
Y130748D02*
D03*
Y120748D02*
D03*
Y110748D02*
D03*
Y100748D02*
D03*
Y90748D02*
D03*
Y80748D02*
D03*
Y70748D02*
D03*
Y60748D02*
D03*
Y50748D02*
D03*
Y40748D02*
D03*
Y30748D02*
D03*
Y20748D02*
D03*
X532866Y372756D02*
D03*
Y362756D02*
D03*
Y352756D02*
D03*
Y342756D02*
D03*
Y332756D02*
D03*
Y322756D02*
D03*
Y312756D02*
D03*
Y302756D02*
D03*
Y292756D02*
D03*
Y282756D02*
D03*
Y272756D02*
D03*
Y262756D02*
D03*
Y252756D02*
D03*
Y242756D02*
D03*
Y232756D02*
D03*
X522866Y372756D02*
D03*
Y362756D02*
D03*
Y352756D02*
D03*
Y342756D02*
D03*
Y332756D02*
D03*
Y322756D02*
D03*
Y312756D02*
D03*
Y302756D02*
D03*
Y292756D02*
D03*
Y282756D02*
D03*
Y272756D02*
D03*
Y262756D02*
D03*
Y252756D02*
D03*
Y242756D02*
D03*
Y232756D02*
D03*
D48*
X230315Y384646D02*
D03*
X250000Y388976D02*
D03*
X106299Y110236D02*
D03*
X120079D02*
D03*
X391732Y354331D02*
D03*
X406693D02*
D03*
X396850Y384646D02*
D03*
X2362Y113386D02*
D03*
X30709Y142913D02*
D03*
X-40551Y201575D02*
D03*
Y207874D02*
D03*
Y214173D02*
D03*
Y220472D02*
D03*
Y226772D02*
D03*
Y233071D02*
D03*
Y239370D02*
D03*
Y245669D02*
D03*
Y251969D02*
D03*
Y257874D02*
D03*
Y264567D02*
D03*
Y270866D02*
D03*
Y277165D02*
D03*
Y280315D02*
D03*
Y116535D02*
D03*
Y182677D02*
D03*
Y176378D02*
D03*
Y170079D02*
D03*
Y163779D02*
D03*
Y157480D02*
D03*
Y151181D02*
D03*
Y132283D02*
D03*
Y141339D02*
D03*
X59449Y138976D02*
D03*
X42070Y116702D02*
D03*
X30709Y127953D02*
D03*
Y135433D02*
D03*
Y120472D02*
D03*
X51968Y129134D02*
D03*
Y133465D02*
D03*
X-35433Y144882D02*
D03*
X-27559Y117976D02*
D03*
X-26006Y154295D02*
D03*
Y160594D02*
D03*
Y166894D02*
D03*
Y173193D02*
D03*
Y179492D02*
D03*
Y198390D02*
D03*
Y204689D02*
D03*
Y210988D02*
D03*
Y217287D02*
D03*
Y223587D02*
D03*
Y229886D02*
D03*
Y236185D02*
D03*
Y242484D02*
D03*
Y248783D02*
D03*
Y255083D02*
D03*
D49*
X391732Y350394D02*
D03*
X403543D02*
D03*
X118110Y320866D02*
D03*
X133858D02*
D03*
X27165Y113386D02*
D03*
X322047Y187008D02*
D03*
Y193307D02*
D03*
Y199606D02*
D03*
Y205906D02*
D03*
X275197Y185039D02*
D03*
X399606Y183071D02*
D03*
X379921D02*
D03*
X399606Y74410D02*
D03*
X385039D02*
D03*
X399606Y202756D02*
D03*
X392520D02*
D03*
X399606Y334646D02*
D03*
X385039D02*
D03*
X403543Y245276D02*
D03*
Y158661D02*
D03*
Y331890D02*
D03*
X385039Y308858D02*
D03*
Y222244D02*
D03*
Y49016D02*
D03*
X416142Y346457D02*
D03*
Y259842D02*
D03*
Y173228D02*
D03*
X386614Y346457D02*
D03*
Y259842D02*
D03*
X386221Y173228D02*
D03*
X416142Y86614D02*
D03*
X386614D02*
D03*
X418504Y308661D02*
D03*
X418110Y222047D02*
D03*
X418504Y48819D02*
D03*
Y331890D02*
D03*
Y245276D02*
D03*
Y158661D02*
D03*
X385039Y135630D02*
D03*
X372047Y50394D02*
D03*
Y56693D02*
D03*
Y62992D02*
D03*
Y69291D02*
D03*
Y75590D02*
D03*
Y81890D02*
D03*
Y171653D02*
D03*
Y165354D02*
D03*
Y159055D02*
D03*
Y152756D02*
D03*
Y146457D02*
D03*
Y140157D02*
D03*
Y133858D02*
D03*
Y127559D02*
D03*
Y258268D02*
D03*
Y251969D02*
D03*
Y245669D02*
D03*
Y239370D02*
D03*
Y233071D02*
D03*
Y226772D02*
D03*
Y220473D02*
D03*
Y214173D02*
D03*
Y300394D02*
D03*
Y306693D02*
D03*
Y312992D02*
D03*
Y319291D02*
D03*
Y325591D02*
D03*
Y331890D02*
D03*
Y338189D02*
D03*
Y344488D02*
D03*
D50*
X112992Y334646D02*
D03*
M02*
