G04*
G04 #@! TF.GenerationSoftware,Altium Limited,Altium Designer,24.1.2 (44)*
G04*
G04 Layer_Physical_Order=1*
G04 Layer_Color=255*
%FSLAX25Y25*%
%MOIN*%
G70*
G04*
G04 #@! TF.SameCoordinates,431092DA-F967-4261-A4BB-5581ED7D94E6*
G04*
G04*
G04 #@! TF.FilePolarity,Positive*
G04*
G01*
G75*
%ADD10C,0.01968*%
%ADD16C,0.00787*%
%ADD17C,0.01000*%
%ADD18C,0.00591*%
G04:AMPARAMS|DCode=19|XSize=19.68mil|YSize=35.43mil|CornerRadius=3.25mil|HoleSize=0mil|Usage=FLASHONLY|Rotation=0.000|XOffset=0mil|YOffset=0mil|HoleType=Round|Shape=RoundedRectangle|*
%AMROUNDEDRECTD19*
21,1,0.01968,0.02894,0,0,0.0*
21,1,0.01319,0.03543,0,0,0.0*
1,1,0.00650,0.00659,-0.01447*
1,1,0.00650,-0.00659,-0.01447*
1,1,0.00650,-0.00659,0.01447*
1,1,0.00650,0.00659,0.01447*
%
%ADD19ROUNDEDRECTD19*%
%ADD20R,0.06517X0.01499*%
G04:AMPARAMS|DCode=21|XSize=65.17mil|YSize=14.99mil|CornerRadius=7.5mil|HoleSize=0mil|Usage=FLASHONLY|Rotation=0.000|XOffset=0mil|YOffset=0mil|HoleType=Round|Shape=RoundedRectangle|*
%AMROUNDEDRECTD21*
21,1,0.06517,0.00000,0,0,0.0*
21,1,0.05018,0.01499,0,0,0.0*
1,1,0.01499,0.02509,0.00000*
1,1,0.01499,-0.02509,0.00000*
1,1,0.01499,-0.02509,0.00000*
1,1,0.01499,0.02509,0.00000*
%
%ADD21ROUNDEDRECTD21*%
G04:AMPARAMS|DCode=22|XSize=27.56mil|YSize=70.87mil|CornerRadius=6.89mil|HoleSize=0mil|Usage=FLASHONLY|Rotation=0.000|XOffset=0mil|YOffset=0mil|HoleType=Round|Shape=RoundedRectangle|*
%AMROUNDEDRECTD22*
21,1,0.02756,0.05709,0,0,0.0*
21,1,0.01378,0.07087,0,0,0.0*
1,1,0.01378,0.00689,-0.02854*
1,1,0.01378,-0.00689,-0.02854*
1,1,0.01378,-0.00689,0.02854*
1,1,0.01378,0.00689,0.02854*
%
%ADD22ROUNDEDRECTD22*%
G04:AMPARAMS|DCode=23|XSize=27.95mil|YSize=34.65mil|CornerRadius=4.61mil|HoleSize=0mil|Usage=FLASHONLY|Rotation=180.000|XOffset=0mil|YOffset=0mil|HoleType=Round|Shape=RoundedRectangle|*
%AMROUNDEDRECTD23*
21,1,0.02795,0.02542,0,0,180.0*
21,1,0.01873,0.03465,0,0,180.0*
1,1,0.00922,-0.00936,0.01271*
1,1,0.00922,0.00936,0.01271*
1,1,0.00922,0.00936,-0.01271*
1,1,0.00922,-0.00936,-0.01271*
%
%ADD23ROUNDEDRECTD23*%
%ADD24R,0.13504X0.07008*%
%ADD25R,0.04331X0.02559*%
%ADD26R,0.05000X0.02992*%
%ADD27R,0.03200X0.04000*%
G04:AMPARAMS|DCode=28|XSize=27.95mil|YSize=34.65mil|CornerRadius=4.61mil|HoleSize=0mil|Usage=FLASHONLY|Rotation=90.000|XOffset=0mil|YOffset=0mil|HoleType=Round|Shape=RoundedRectangle|*
%AMROUNDEDRECTD28*
21,1,0.02795,0.02542,0,0,90.0*
21,1,0.01873,0.03465,0,0,90.0*
1,1,0.00922,0.01271,0.00936*
1,1,0.00922,0.01271,-0.00936*
1,1,0.00922,-0.01271,-0.00936*
1,1,0.00922,-0.01271,0.00936*
%
%ADD28ROUNDEDRECTD28*%
G04:AMPARAMS|DCode=29|XSize=23.62mil|YSize=57.09mil|CornerRadius=2.01mil|HoleSize=0mil|Usage=FLASHONLY|Rotation=90.000|XOffset=0mil|YOffset=0mil|HoleType=Round|Shape=RoundedRectangle|*
%AMROUNDEDRECTD29*
21,1,0.02362,0.05307,0,0,90.0*
21,1,0.01961,0.05709,0,0,90.0*
1,1,0.00402,0.02653,0.00980*
1,1,0.00402,0.02653,-0.00980*
1,1,0.00402,-0.02653,-0.00980*
1,1,0.00402,-0.02653,0.00980*
%
%ADD29ROUNDEDRECTD29*%
%ADD30R,0.03347X0.03740*%
%ADD31R,0.06614X0.12362*%
%ADD32R,0.03150X0.03150*%
%ADD33R,0.11024X0.02165*%
%ADD51C,0.03937*%
%ADD52C,0.01575*%
%ADD53C,0.01181*%
%ADD54C,0.06000*%
%ADD55C,0.01968*%
%ADD56C,0.01575*%
%ADD57C,0.02362*%
G36*
X361474Y336742D02*
X361561Y336308D01*
X361806Y335940D01*
X362174Y335695D01*
X362608Y335608D01*
X363500D01*
X364178Y334931D01*
X363931Y334470D01*
X363927Y334471D01*
X362608D01*
X362174Y334384D01*
X361806Y334138D01*
X361561Y333771D01*
X361474Y333337D01*
Y332994D01*
X319145D01*
X318722Y332910D01*
X318364Y332670D01*
X237979Y252285D01*
X-27024D01*
X-27446Y252201D01*
X-27804Y251962D01*
X-29879Y249887D01*
X-42677D01*
Y250689D01*
X-44488D01*
Y253248D01*
X-42677D01*
Y253979D01*
X-29421D01*
X-28999Y254063D01*
X-28641Y254302D01*
X-28240Y254703D01*
X-27698Y254538D01*
X-27508Y254079D01*
X-27010Y253581D01*
X-26359Y253311D01*
X-25654D01*
X-25003Y253581D01*
X-24569Y254014D01*
X236805D01*
X237228Y254098D01*
X237586Y254338D01*
X320333Y337085D01*
X361474D01*
Y336742D01*
D02*
G37*
G36*
X365630Y340235D02*
X372377D01*
X381601Y331011D01*
X381863Y330836D01*
X381781Y330339D01*
X381780Y330336D01*
X379099D01*
X373615Y335820D01*
X373257Y336059D01*
X372835Y336143D01*
X366087D01*
X365061Y337169D01*
Y339636D01*
X365011Y339887D01*
X365020Y339906D01*
X365368Y340262D01*
X365404Y340280D01*
X365630Y340235D01*
D02*
G37*
G36*
Y333935D02*
X372377D01*
X377861Y328452D01*
X378122Y328277D01*
X378041Y327780D01*
X378039Y327777D01*
X375359D01*
X373615Y329521D01*
X373257Y329760D01*
X372835Y329844D01*
X366087D01*
X365061Y330870D01*
Y333337D01*
X365011Y333588D01*
X365020Y333607D01*
X365368Y333962D01*
X365404Y333980D01*
X365630Y333935D01*
D02*
G37*
G36*
Y327636D02*
X372377D01*
X374121Y325893D01*
X374400Y325706D01*
X374402Y325382D01*
X374347Y325186D01*
X374085Y325134D01*
X373727Y324895D01*
X372377Y323545D01*
X366087D01*
X365061Y324571D01*
Y327037D01*
X365011Y327288D01*
X365020Y327308D01*
X365368Y327663D01*
X365404Y327681D01*
X365630Y327636D01*
D02*
G37*
G36*
X361474Y324144D02*
X361561Y323710D01*
X361806Y323342D01*
X362174Y323096D01*
X362608Y323010D01*
X363500D01*
X364178Y322332D01*
X363931Y321871D01*
X363927Y321872D01*
X362608D01*
X362174Y321786D01*
X361806Y321540D01*
X361561Y321172D01*
X361474Y320738D01*
Y320395D01*
X315455D01*
X315032Y320311D01*
X314674Y320072D01*
X240588Y245986D01*
X-27024D01*
X-27446Y245902D01*
X-27804Y245662D01*
X-29879Y243588D01*
X-42677D01*
Y244390D01*
X-44488D01*
Y246949D01*
X-42677D01*
Y247679D01*
X-29421D01*
X-28999Y247764D01*
X-28641Y248003D01*
X-28240Y248404D01*
X-27698Y248238D01*
X-27508Y247780D01*
X-27010Y247282D01*
X-26359Y247012D01*
X-25654D01*
X-25003Y247282D01*
X-24569Y247715D01*
X239414D01*
X239837Y247799D01*
X240195Y248038D01*
X316643Y324487D01*
X361474D01*
Y324144D01*
D02*
G37*
G36*
X377647Y323008D02*
X377729Y322510D01*
X377467Y322336D01*
X372377Y317246D01*
X366087D01*
X365061Y318272D01*
Y320738D01*
X365011Y320989D01*
X365020Y321009D01*
X365368Y321364D01*
X365404Y321382D01*
X365630Y321337D01*
X372835D01*
X373257Y321421D01*
X373615Y321660D01*
X374965Y323010D01*
X377646D01*
X377647Y323008D01*
D02*
G37*
G36*
X381387Y320449D02*
X381469Y319951D01*
X381208Y319777D01*
X372377Y310946D01*
X366087D01*
X365061Y311972D01*
Y314439D01*
X365011Y314690D01*
X365020Y314709D01*
X365367Y315065D01*
X365404Y315083D01*
X365630Y315038D01*
X372835D01*
X373257Y315122D01*
X373615Y315361D01*
X378705Y320451D01*
X381386D01*
X381387Y320449D01*
D02*
G37*
G36*
X395245Y340366D02*
Y260677D01*
X393018Y258450D01*
X391859D01*
X391372Y258353D01*
X390959Y258077D01*
X390683Y257664D01*
X390586Y257176D01*
Y255368D01*
X389164Y253946D01*
X388860Y253490D01*
X388753Y252953D01*
Y251832D01*
X386405D01*
Y248758D01*
X386405Y248758D01*
X386479Y248258D01*
X386375Y247736D01*
X386494Y247136D01*
X386732Y246781D01*
X386531Y246304D01*
X386510Y246281D01*
X383233D01*
X373615Y255899D01*
X373257Y256138D01*
X372835Y256222D01*
X366087D01*
X365061Y257248D01*
Y259715D01*
X364975Y260149D01*
X364729Y260516D01*
X364361Y260762D01*
X363927Y260849D01*
X362608D01*
X362174Y260762D01*
X361806Y260516D01*
X361561Y260149D01*
X361474Y259715D01*
Y257917D01*
X336944Y233387D01*
X-27024D01*
X-27446Y233303D01*
X-27804Y233064D01*
X-29879Y230990D01*
X-42677D01*
Y231791D01*
X-44488D01*
Y234350D01*
X-42677D01*
Y235081D01*
X-29421D01*
X-28999Y235165D01*
X-28641Y235404D01*
X-28240Y235805D01*
X-27698Y235640D01*
X-27508Y235181D01*
X-27010Y234683D01*
X-26359Y234413D01*
X-25654D01*
X-25003Y234683D01*
X-24569Y235117D01*
X244633D01*
X245055Y235201D01*
X245413Y235440D01*
X309263Y299290D01*
X361474D01*
Y298947D01*
X361561Y298513D01*
X361806Y298145D01*
X362174Y297899D01*
X362608Y297813D01*
X363500D01*
X364849Y296463D01*
X365208Y296224D01*
X365630Y296140D01*
X372835D01*
X373257Y296224D01*
X373615Y296463D01*
X375977Y298826D01*
X376217Y299184D01*
X376301Y299606D01*
Y301905D01*
X387033Y312637D01*
X387342Y312430D01*
X387942Y312311D01*
X392960D01*
X393560Y312430D01*
X394069Y312770D01*
X394408Y313278D01*
X394528Y313878D01*
X394408Y314478D01*
X394069Y314986D01*
Y315329D01*
X394408Y315837D01*
X394528Y316437D01*
X394408Y317037D01*
X394069Y317545D01*
Y317888D01*
X394408Y318396D01*
X394528Y318996D01*
X394408Y319596D01*
X394069Y320104D01*
Y320447D01*
X394408Y320955D01*
X394528Y321555D01*
X394408Y322155D01*
X394069Y322663D01*
Y323006D01*
X394408Y323515D01*
X394528Y324114D01*
X394408Y324714D01*
X394069Y325222D01*
Y325565D01*
X394408Y326074D01*
X394528Y326673D01*
X394408Y327273D01*
X394069Y327781D01*
Y328124D01*
X394408Y328633D01*
X394528Y329232D01*
X394408Y329832D01*
X394069Y330340D01*
Y330683D01*
X394408Y331192D01*
X394528Y331791D01*
X394408Y332391D01*
X394188Y332721D01*
X394108Y333071D01*
X394188Y333421D01*
X394408Y333751D01*
X394528Y334350D01*
X394424Y334873D01*
X394497Y335372D01*
X394497D01*
Y338446D01*
X391562D01*
Y338985D01*
X392553Y339976D01*
X393732D01*
X394219Y340072D01*
X394632Y340348D01*
X394745Y340517D01*
X395245Y340366D01*
D02*
G37*
G36*
X361474Y311545D02*
X361561Y311111D01*
X361806Y310743D01*
X362174Y310498D01*
X362608Y310411D01*
X363500D01*
X364178Y309734D01*
X363931Y309273D01*
X363927Y309274D01*
X362608D01*
X362174Y309187D01*
X361806Y308942D01*
X361561Y308574D01*
X361474Y308140D01*
Y307797D01*
X311765D01*
X311342Y307713D01*
X310984Y307473D01*
X243197Y239687D01*
X-27024D01*
X-27446Y239602D01*
X-27804Y239363D01*
X-29879Y237289D01*
X-42677D01*
Y238090D01*
X-44488D01*
Y240650D01*
X-42677D01*
Y241380D01*
X-29421D01*
X-28999Y241464D01*
X-28641Y241704D01*
X-28240Y242105D01*
X-27698Y241939D01*
X-27508Y241481D01*
X-27010Y240982D01*
X-26359Y240713D01*
X-25654D01*
X-25003Y240982D01*
X-24569Y241416D01*
X242024D01*
X242446Y241500D01*
X242804Y241739D01*
X312953Y311888D01*
X361474D01*
Y311545D01*
D02*
G37*
G36*
X385127Y317890D02*
X385209Y317392D01*
X384948Y317218D01*
X372377Y304647D01*
X366087D01*
X365061Y305673D01*
Y308140D01*
X365011Y308391D01*
X365020Y308410D01*
X365368Y308766D01*
X365404Y308784D01*
X365630Y308739D01*
X372835D01*
X373257Y308823D01*
X373615Y309062D01*
X382445Y317892D01*
X385126D01*
X385127Y317890D01*
D02*
G37*
G36*
X374135Y302576D02*
X374093Y302362D01*
Y300063D01*
X372377Y298348D01*
X366087D01*
X365061Y299374D01*
Y301840D01*
X365011Y302092D01*
X365020Y302111D01*
X365368Y302466D01*
X365404Y302484D01*
X365630Y302439D01*
X372835D01*
X373257Y302523D01*
X373615Y302763D01*
X373675Y302822D01*
X374135Y302576D01*
D02*
G37*
G36*
X40433Y324494D02*
Y313303D01*
X-3382Y269487D01*
X-42677D01*
Y269586D01*
X-44488D01*
Y272146D01*
X-42677D01*
Y272174D01*
X-34331D01*
X-34329Y272173D01*
X-33624D01*
X-33622Y272174D01*
X-6728D01*
X-6037Y272311D01*
X-5451Y272703D01*
X36710Y314864D01*
X37102Y315451D01*
X37239Y316142D01*
Y322008D01*
X39945Y324713D01*
X40433Y324494D01*
D02*
G37*
G36*
Y307486D02*
Y296374D01*
X7248Y263188D01*
X-42677D01*
Y263287D01*
X-44488D01*
Y265846D01*
X-42677D01*
Y265875D01*
X-34331D01*
X-34329Y265874D01*
X-33624D01*
X-33622Y265875D01*
X-2634D01*
X-1943Y266012D01*
X-1357Y266404D01*
X39933Y307694D01*
X40433Y307486D01*
D02*
G37*
G36*
X362608Y249388D02*
X363500D01*
X364178Y248710D01*
X363931Y248249D01*
X363927Y248250D01*
X362608D01*
X362174Y248164D01*
X361806Y247918D01*
X361561Y247550D01*
X361474Y247116D01*
Y245319D01*
X343244Y227088D01*
X-27024D01*
X-27446Y227004D01*
X-27804Y226765D01*
X-29879Y224691D01*
X-42677D01*
Y225492D01*
X-44488D01*
Y228051D01*
X-42677D01*
Y228782D01*
X-29421D01*
X-28999Y228866D01*
X-28641Y229105D01*
X-28240Y229506D01*
X-27698Y229341D01*
X-27508Y228882D01*
X-27010Y228384D01*
X-26359Y228114D01*
X-25654D01*
X-25003Y228384D01*
X-24569Y228817D01*
X341339D01*
X341761Y228901D01*
X342119Y229141D01*
X362406Y249428D01*
X362608Y249388D01*
D02*
G37*
G36*
X365630Y254014D02*
X372377D01*
X381995Y244397D01*
X382256Y244222D01*
X382174Y243725D01*
X382173Y243722D01*
X379493D01*
X373615Y249600D01*
X373257Y249839D01*
X372835Y249923D01*
X366087D01*
X365061Y250949D01*
Y253415D01*
X365011Y253666D01*
X365020Y253686D01*
X365368Y254041D01*
X365404Y254059D01*
X365630Y254014D01*
D02*
G37*
G36*
Y247715D02*
X372377D01*
X378255Y241838D01*
X378516Y241663D01*
X378434Y241165D01*
X378433Y241163D01*
X375752D01*
X373615Y243300D01*
X373257Y243540D01*
X372835Y243624D01*
X366087D01*
X365061Y244650D01*
Y247116D01*
X365011Y247367D01*
X365020Y247387D01*
X365368Y247742D01*
X365404Y247760D01*
X365630Y247715D01*
D02*
G37*
G36*
Y241416D02*
X372377D01*
X374515Y239279D01*
X374776Y239104D01*
X374694Y238607D01*
X374693Y238604D01*
X374114D01*
X373692Y238520D01*
X373334Y238281D01*
X372377Y237324D01*
X366087D01*
X365061Y238350D01*
Y240817D01*
X365011Y241068D01*
X365020Y241087D01*
X365368Y241443D01*
X365404Y241461D01*
X365630Y241416D01*
D02*
G37*
G36*
X362608Y236789D02*
X363500D01*
X364178Y236112D01*
X363931Y235651D01*
X363927Y235652D01*
X362608D01*
X362174Y235565D01*
X361806Y235320D01*
X361561Y234952D01*
X361474Y234518D01*
Y232327D01*
X349937Y220789D01*
X-27024D01*
X-27446Y220705D01*
X-27804Y220466D01*
X-29879Y218391D01*
X-42677D01*
Y219193D01*
X-44488D01*
Y221752D01*
X-42677D01*
Y222483D01*
X-29421D01*
X-28999Y222567D01*
X-28641Y222806D01*
X-28240Y223207D01*
X-27698Y223042D01*
X-27508Y222583D01*
X-27010Y222085D01*
X-26359Y221815D01*
X-25654D01*
X-25003Y222085D01*
X-24569Y222518D01*
X347638D01*
X348060Y222602D01*
X348418Y222842D01*
X362406Y236829D01*
X362608Y236789D01*
D02*
G37*
G36*
X377253Y236393D02*
X377335Y235896D01*
X377074Y235721D01*
X372377Y231025D01*
X366087D01*
X365061Y232051D01*
Y234518D01*
X365011Y234769D01*
X365020Y234788D01*
X365367Y235144D01*
X365404Y235161D01*
X365630Y235117D01*
X372835D01*
X373257Y235201D01*
X373615Y235440D01*
X374571Y236396D01*
X377252D01*
X377253Y236393D01*
D02*
G37*
G36*
X380993Y233835D02*
X381075Y233337D01*
X380814Y233162D01*
X372377Y224726D01*
X366087D01*
X365061Y225752D01*
Y228219D01*
X365011Y228469D01*
X365020Y228489D01*
X365367Y228844D01*
X365404Y228862D01*
X365630Y228817D01*
X372835D01*
X373257Y228901D01*
X373615Y229141D01*
X378311Y233837D01*
X380992D01*
X380993Y233835D01*
D02*
G37*
G36*
X362608Y224191D02*
X363500D01*
X364178Y223513D01*
X363931Y223053D01*
X363927Y223053D01*
X362608D01*
X362174Y222967D01*
X361806Y222721D01*
X361561Y222353D01*
X361474Y221919D01*
Y220122D01*
X355842Y214490D01*
X-27024D01*
X-27446Y214406D01*
X-27804Y214166D01*
X-29879Y212092D01*
X-42677D01*
Y212894D01*
X-44488D01*
Y215453D01*
X-42677D01*
Y216183D01*
X-29421D01*
X-28999Y216268D01*
X-28641Y216507D01*
X-28240Y216908D01*
X-27698Y216742D01*
X-27508Y216284D01*
X-27010Y215786D01*
X-26359Y215516D01*
X-25654D01*
X-25003Y215786D01*
X-24605Y216183D01*
X353902D01*
X354324Y216268D01*
X354682Y216507D01*
X362406Y224231D01*
X362608Y224191D01*
D02*
G37*
G36*
X384733Y231275D02*
X384815Y230778D01*
X384554Y230603D01*
X372377Y218427D01*
X366087D01*
X365061Y219453D01*
Y221919D01*
X365011Y222170D01*
X365020Y222190D01*
X365368Y222545D01*
X365404Y222563D01*
X365630Y222518D01*
X372835D01*
X373257Y222602D01*
X373615Y222842D01*
X382052Y231278D01*
X384732D01*
X384733Y231275D01*
D02*
G37*
G36*
X374923Y217143D02*
X374880Y216929D01*
Y214631D01*
X372377Y212127D01*
X366087D01*
X365061Y213154D01*
Y215620D01*
X365011Y215871D01*
X365020Y215891D01*
X365368Y216246D01*
X365404Y216264D01*
X365630Y216219D01*
X372835D01*
X373257Y216303D01*
X373615Y216542D01*
X374462Y217389D01*
X374923Y217143D01*
D02*
G37*
G36*
X387342Y225816D02*
X387942Y225697D01*
X392960D01*
X393278Y225760D01*
X393778Y225406D01*
Y204378D01*
X393278Y204146D01*
X392833Y204331D01*
X392206D01*
X391628Y204091D01*
X391396Y203860D01*
X390158D01*
X322431Y203860D01*
X322360Y204331D01*
X322939Y204571D01*
X323382Y205013D01*
X323622Y205592D01*
Y206219D01*
X323382Y206798D01*
X322939Y207241D01*
X322360Y207480D01*
X321734D01*
X321155Y207241D01*
X321024Y207110D01*
X320415D01*
Y207352D01*
X320329Y207786D01*
X320083Y208154D01*
X319715Y208400D01*
X319282Y208486D01*
X317963D01*
X317529Y208400D01*
X317161Y208154D01*
X316915Y207786D01*
X316829Y207352D01*
Y204459D01*
X316434Y204148D01*
X316210Y204131D01*
X314668Y205673D01*
Y207352D01*
X314581Y207786D01*
X314335Y208154D01*
X313967Y208400D01*
X313533Y208486D01*
X312215D01*
X311781Y208400D01*
X311413Y208154D01*
X311167Y207786D01*
X311081Y207352D01*
Y205061D01*
X308445D01*
Y206240D01*
X301870D01*
Y201673D01*
X301870D01*
Y201240D01*
X301870D01*
Y196673D01*
X301870D01*
Y196240D01*
X301870D01*
Y191740D01*
X301870Y191673D01*
Y191240D01*
X301870Y191173D01*
Y186673D01*
X308445D01*
Y187853D01*
X311081D01*
Y185561D01*
X311167Y185127D01*
X311413Y184759D01*
X311781Y184513D01*
X312215Y184427D01*
X313429D01*
X315566Y182290D01*
X315924Y182051D01*
X316346Y181967D01*
X378798D01*
X379029Y181736D01*
X379608Y181496D01*
X380235D01*
X380813Y181736D01*
X381256Y182179D01*
X381496Y182758D01*
X381967Y182687D01*
Y164567D01*
X382051Y164145D01*
X382290Y163786D01*
X385735Y160342D01*
X385997Y160167D01*
X385914Y159670D01*
X385913Y159667D01*
X382839D01*
X373221Y169284D01*
X372863Y169524D01*
X372441Y169608D01*
X366087D01*
X365061Y170634D01*
Y173100D01*
X364975Y173534D01*
X364729Y173902D01*
X364361Y174148D01*
X363927Y174234D01*
X362608D01*
X362174Y174148D01*
X361806Y173902D01*
X361561Y173534D01*
X361474Y173100D01*
Y172757D01*
X271323D01*
X236214Y207867D01*
X235856Y208106D01*
X235433Y208190D01*
X-27024D01*
X-27446Y208106D01*
X-27804Y207867D01*
X-29879Y205793D01*
X-42677D01*
Y206594D01*
X-44488D01*
Y209154D01*
X-42677D01*
Y209884D01*
X-29421D01*
X-28999Y209968D01*
X-28641Y210208D01*
X-28240Y210609D01*
X-27698Y210443D01*
X-27508Y209985D01*
X-27010Y209486D01*
X-26359Y209217D01*
X-25654D01*
X-25003Y209486D01*
X-24569Y209920D01*
X360630D01*
X361052Y210004D01*
X361410Y210243D01*
X362760Y211592D01*
X363500D01*
X364849Y210243D01*
X365208Y210004D01*
X365630Y209920D01*
X372835D01*
X373257Y210004D01*
X373615Y210243D01*
X376765Y213393D01*
X377004Y213751D01*
X377088Y214173D01*
Y216472D01*
X386464Y225848D01*
X386834Y226156D01*
X387342Y225816D01*
D02*
G37*
G36*
X545773Y391494D02*
X547010Y391163D01*
X548193Y390673D01*
X549303Y390032D01*
X550319Y389252D01*
X551225Y388347D01*
X552005Y387330D01*
X552645Y386221D01*
X553135Y385038D01*
X553467Y383800D01*
X553634Y382530D01*
Y381890D01*
X553634Y11811D01*
X553634Y11170D01*
X553467Y9900D01*
X553135Y8663D01*
X552645Y7480D01*
X552005Y6370D01*
X551225Y5354D01*
X550319Y4448D01*
X549303Y3669D01*
X548194Y3028D01*
X547010Y2538D01*
X545773Y2206D01*
X544503Y2039D01*
X543862Y2039D01*
X11811Y2039D01*
X11170Y2039D01*
X9900Y2206D01*
X8663Y2538D01*
X7480Y3028D01*
X6370Y3669D01*
X5354Y4448D01*
X4448Y5354D01*
X3669Y6370D01*
X3028Y7480D01*
X2538Y8663D01*
X2206Y9900D01*
X2039Y11171D01*
X2039Y11811D01*
X2039Y99508D01*
X1884Y100288D01*
X1442Y100950D01*
X780Y101392D01*
X-0Y101547D01*
X-23858Y101547D01*
X-23908Y101537D01*
X-23958Y101544D01*
X-24344Y101525D01*
X-24491Y101489D01*
X-24642D01*
X-25399Y101338D01*
X-25585Y101261D01*
X-25782Y101222D01*
X-26495Y100927D01*
X-26662Y100815D01*
X-26847Y100738D01*
X-27489Y100310D01*
X-27631Y100168D01*
X-27798Y100056D01*
X-28343Y99510D01*
X-28455Y99343D01*
X-28597Y99201D01*
X-29026Y98560D01*
X-29103Y98374D01*
X-29214Y98207D01*
X-29510Y97494D01*
X-29549Y97297D01*
X-29626Y97111D01*
X-29776Y96355D01*
Y96203D01*
X-29813Y96057D01*
X-29832Y95671D01*
X-29825Y95621D01*
X-29834Y95571D01*
X-29835Y93673D01*
X-32763D01*
X-32764Y105414D01*
X-32774Y105464D01*
X-32766Y105514D01*
X-32785Y105900D01*
X-32822Y106046D01*
Y106197D01*
X-32972Y106954D01*
X-33049Y107140D01*
X-33088Y107337D01*
X-33384Y108050D01*
X-33495Y108217D01*
X-33572Y108402D01*
X-34001Y109044D01*
X-34143Y109186D01*
X-34255Y109353D01*
X-34800Y109899D01*
X-34967Y110010D01*
X-35109Y110152D01*
X-35751Y110581D01*
X-35936Y110658D01*
X-36103Y110769D01*
X-36816Y111065D01*
X-37013Y111104D01*
X-37199Y111181D01*
X-37956Y111331D01*
X-38107D01*
X-38254Y111368D01*
X-38640Y111387D01*
X-38690Y111380D01*
X-38740Y111390D01*
X-42230D01*
X-42677Y111516D01*
Y112151D01*
X-8785Y112180D01*
X-8505Y111694D01*
X-7991Y111181D01*
X-7363Y110818D01*
X-6662Y110630D01*
X-5936D01*
X-5280Y110806D01*
X-3930Y109456D01*
X-3572Y109216D01*
X-3150Y109132D01*
X104898D01*
X105296Y108734D01*
X105947Y108465D01*
X106652D01*
X107303Y108734D01*
X107801Y109233D01*
X108071Y109884D01*
Y110589D01*
X107801Y111240D01*
X107303Y111738D01*
X106652Y112008D01*
X105947D01*
X105296Y111738D01*
X104898Y111340D01*
X27549D01*
X27479Y111811D01*
X28057Y112051D01*
X28500Y112494D01*
X28740Y113073D01*
Y113190D01*
X28852Y113299D01*
X29240Y113520D01*
X29528Y113463D01*
X62618D01*
X63041Y113547D01*
X63399Y113786D01*
X65715Y116103D01*
X70468D01*
X70854Y116179D01*
X71181Y116398D01*
X71399Y116725D01*
X71451Y116987D01*
X72891D01*
Y116499D01*
X72978Y116065D01*
X73224Y115697D01*
X73591Y115451D01*
X74025Y115365D01*
X75344D01*
X75778Y115451D01*
X76146Y115697D01*
X76392Y116065D01*
X76478Y116499D01*
Y119392D01*
X76392Y119826D01*
X76146Y120194D01*
X75778Y120440D01*
X75344Y120526D01*
X74025D01*
X73591Y120440D01*
X73224Y120194D01*
X72978Y119826D01*
X72891Y119392D01*
Y119194D01*
X71451D01*
X71399Y119456D01*
X71181Y119783D01*
X70854Y120002D01*
X70468Y120078D01*
X65161D01*
X64776Y120002D01*
X64449Y119783D01*
X64231Y119456D01*
X64154Y119071D01*
Y117664D01*
X62161Y115671D01*
X29985D01*
X27023Y118632D01*
X27021Y119097D01*
X27074Y119241D01*
X27158Y119298D01*
X28437Y120577D01*
X28937Y120370D01*
Y120120D01*
X29207Y119469D01*
X29705Y118971D01*
X30356Y118701D01*
X31061D01*
X31532Y118896D01*
X31809Y118920D01*
X32175Y118726D01*
X32279Y118571D01*
X32647Y118325D01*
X33081Y118239D01*
X34400D01*
X34834Y118325D01*
X35201Y118571D01*
X35447Y118939D01*
X35534Y119373D01*
Y122266D01*
X35447Y122700D01*
X35377Y122806D01*
X35644Y123306D01*
X35838D01*
X36261Y123390D01*
X36619Y123629D01*
X38430Y125440D01*
X38829Y125361D01*
X40148D01*
X40582Y125447D01*
X40949Y125693D01*
X41195Y126061D01*
X41282Y126495D01*
Y126987D01*
X42722D01*
X42774Y126725D01*
X42992Y126398D01*
X43319Y126179D01*
X43705Y126103D01*
X49012D01*
X49397Y126179D01*
X49724Y126398D01*
X49943Y126725D01*
X50019Y127110D01*
Y127924D01*
X50272Y128041D01*
X50519Y128077D01*
X50865Y127732D01*
Y126048D01*
X49650Y124833D01*
X49397Y125002D01*
X49012Y125078D01*
X43705D01*
X43319Y125002D01*
X42992Y124783D01*
X42774Y124456D01*
X42722Y124194D01*
X41444D01*
X41022Y124110D01*
X40664Y123871D01*
X40226Y123434D01*
X40129Y123414D01*
X40108Y123400D01*
X38829D01*
X38395Y123314D01*
X38027Y123068D01*
X37781Y122700D01*
X37695Y122266D01*
Y119373D01*
X37781Y118939D01*
X38027Y118571D01*
X38395Y118325D01*
X38829Y118239D01*
X40148D01*
X40582Y118325D01*
X40949Y118571D01*
X41195Y118939D01*
X41282Y119373D01*
Y121449D01*
X41529Y121614D01*
X41901Y121987D01*
X42722D01*
X42774Y121725D01*
X42992Y121398D01*
X43319Y121179D01*
X43705Y121103D01*
X49012D01*
X49397Y121179D01*
X49724Y121398D01*
X49943Y121725D01*
X50019Y122110D01*
Y122522D01*
X50422Y122602D01*
X50781Y122842D01*
X52749Y124810D01*
X52988Y125168D01*
X53072Y125591D01*
Y127732D01*
X53470Y128130D01*
X53740Y128781D01*
Y129486D01*
X53659Y129681D01*
X53804Y129898D01*
X54248Y130083D01*
X54670Y129999D01*
X57673D01*
X64154Y123517D01*
Y122110D01*
X64231Y121725D01*
X64449Y121398D01*
X64776Y121179D01*
X65161Y121103D01*
X70468D01*
X70854Y121179D01*
X71181Y121398D01*
X71399Y121725D01*
X71451Y121987D01*
X73046D01*
X73224Y121720D01*
X73592Y121475D01*
X74026Y121388D01*
X75345D01*
X75779Y121475D01*
X76147Y121720D01*
X76392Y122088D01*
X76479Y122522D01*
Y125416D01*
X76392Y125850D01*
X76147Y126218D01*
X75779Y126464D01*
X75345Y126550D01*
X74026D01*
X73592Y126464D01*
X73224Y126218D01*
X72978Y125850D01*
X72892Y125416D01*
Y124194D01*
X71451D01*
X71399Y124456D01*
X71181Y124783D01*
X70854Y125002D01*
X70468Y125078D01*
X65715D01*
X65191Y125603D01*
X65398Y126103D01*
X70468D01*
X70854Y126179D01*
X71181Y126398D01*
X71399Y126725D01*
X71451Y126987D01*
X72733D01*
X73156Y127071D01*
X73281Y127154D01*
X74857D01*
X74934Y127139D01*
X77834D01*
X77834Y127139D01*
X78047Y127181D01*
X78547Y127154D01*
X78547Y127154D01*
X78957D01*
X79034Y127139D01*
X79229D01*
Y126390D01*
X78972Y126218D01*
X78726Y125850D01*
X78640Y125416D01*
Y122522D01*
X78726Y122088D01*
X78972Y121720D01*
X79229Y121549D01*
Y120366D01*
X78972Y120194D01*
X78726Y119826D01*
X78639Y119392D01*
Y116499D01*
X78726Y116065D01*
X78972Y115697D01*
X79339Y115451D01*
X79773Y115365D01*
X81092D01*
X81526Y115451D01*
X81894Y115697D01*
X82140Y116065D01*
X82226Y116499D01*
Y119392D01*
X82140Y119826D01*
X81894Y120194D01*
X81637Y120366D01*
Y121548D01*
X81894Y121720D01*
X82140Y122088D01*
X82227Y122522D01*
Y125416D01*
X82140Y125850D01*
X81894Y126218D01*
X81638Y126390D01*
Y127154D01*
X83322D01*
Y128135D01*
X92932D01*
X212502Y8565D01*
X213088Y8174D01*
X213779Y8036D01*
X535039D01*
X535731Y8174D01*
X536317Y8565D01*
X545765Y18014D01*
X546157Y18600D01*
X546294Y19291D01*
Y109126D01*
X546157Y109817D01*
X545765Y110403D01*
X536498Y119670D01*
X536654Y120249D01*
Y121247D01*
X536395Y122210D01*
X535897Y123074D01*
X535192Y123779D01*
X534328Y124277D01*
X533365Y124535D01*
X532368D01*
X531404Y124277D01*
X530541Y123779D01*
X529836Y123074D01*
X529337Y122210D01*
X529079Y121247D01*
Y120249D01*
X529337Y119286D01*
X529836Y118422D01*
X530541Y117717D01*
X531404Y117219D01*
X532368Y116961D01*
X533365D01*
X533944Y117116D01*
X542682Y108378D01*
Y20040D01*
X534291Y11649D01*
X214528D01*
X94958Y131219D01*
X86317Y139860D01*
X85731Y140252D01*
X85039Y140389D01*
X70565D01*
X70498Y140723D01*
X70222Y141136D01*
X69809Y141412D01*
X69322Y141509D01*
X67663D01*
X65407Y143765D01*
X65017Y144026D01*
X64556Y144118D01*
X64556Y144118D01*
X32010D01*
X31712Y144415D01*
X31061Y144685D01*
X30356D01*
X29705Y144415D01*
X29207Y143917D01*
X28937Y143266D01*
Y142561D01*
X29207Y141910D01*
X29355Y141761D01*
X29148Y141261D01*
X-30251D01*
X-33661Y144671D01*
Y145234D01*
X-33931Y145885D01*
X-34429Y146384D01*
X-35081Y146653D01*
X-35785D01*
X-36437Y146384D01*
X-36935Y145885D01*
X-37047Y145615D01*
X-37637Y145497D01*
X-37767Y145627D01*
X-38125Y145866D01*
X-38547Y145950D01*
X-42677D01*
Y149901D01*
X-44488D01*
Y152461D01*
X-42677D01*
Y153191D01*
X-29421D01*
X-28999Y153275D01*
X-28641Y153515D01*
X-28240Y153916D01*
X-27698Y153750D01*
X-27508Y153292D01*
X-27010Y152793D01*
X-26359Y152524D01*
X-25654D01*
X-25003Y152793D01*
X-24569Y153227D01*
X232322D01*
X335936Y49613D01*
X336294Y49374D01*
X336717Y49290D01*
X361474D01*
Y48947D01*
X361561Y48513D01*
X361806Y48145D01*
X362174Y47899D01*
X362608Y47813D01*
X363500D01*
X364849Y46464D01*
X365208Y46224D01*
X365630Y46140D01*
X372441D01*
X372863Y46224D01*
X373221Y46464D01*
X384808Y58050D01*
X386510D01*
X386531Y58027D01*
X386732Y57550D01*
X386494Y57194D01*
X386375Y56595D01*
X386494Y55995D01*
X386834Y55486D01*
Y55143D01*
X386494Y54635D01*
X386375Y54035D01*
X386494Y53436D01*
X386834Y52927D01*
X387342Y52588D01*
X387942Y52468D01*
X392960D01*
X393560Y52588D01*
X394069Y52927D01*
X394408Y53436D01*
X394528Y54035D01*
X394408Y54635D01*
X394069Y55143D01*
Y55486D01*
X394408Y55995D01*
X394528Y56595D01*
X394408Y57194D01*
X394069Y57702D01*
Y58046D01*
X394408Y58554D01*
X394528Y59153D01*
X394408Y59753D01*
X394069Y60262D01*
Y60605D01*
X394408Y61113D01*
X394528Y61713D01*
X394408Y62312D01*
X394069Y62821D01*
Y63164D01*
X394408Y63672D01*
X394528Y64272D01*
X394408Y64871D01*
X394069Y65380D01*
Y65723D01*
X394408Y66231D01*
X394528Y66831D01*
X394408Y67430D01*
X394069Y67939D01*
Y68282D01*
X394408Y68790D01*
X394528Y69390D01*
X394408Y69989D01*
X394069Y70498D01*
Y70841D01*
X394408Y71349D01*
X394528Y71949D01*
X394408Y72549D01*
X394069Y73057D01*
Y73400D01*
X394408Y73908D01*
X394528Y74508D01*
X394424Y75030D01*
X394497Y75530D01*
X394497D01*
Y78604D01*
X391562D01*
Y79142D01*
X392553Y80133D01*
X393732D01*
X394219Y80230D01*
X394632Y80506D01*
X394908Y80919D01*
X395005Y81406D01*
Y83234D01*
X397844Y86073D01*
X398002Y86311D01*
X398502Y86159D01*
Y75533D01*
X398271Y75301D01*
X398031Y74723D01*
Y74096D01*
X398271Y73517D01*
X398714Y73074D01*
X399293Y72835D01*
X399920D01*
X400498Y73074D01*
X400941Y73517D01*
X401181Y74096D01*
Y74723D01*
X400941Y75301D01*
X400710Y75533D01*
Y181948D01*
X400941Y182179D01*
X401181Y182758D01*
Y183384D01*
X400941Y183963D01*
X400498Y184406D01*
X399920Y184646D01*
X399293D01*
X398956Y184506D01*
X398456Y184801D01*
Y196063D01*
Y201026D01*
X398956Y201321D01*
X399293Y201181D01*
X399920D01*
X400498Y201421D01*
X400941Y201864D01*
X401181Y202443D01*
Y203069D01*
X400941Y203648D01*
X400710Y203879D01*
Y333522D01*
X400941Y333754D01*
X401181Y334332D01*
Y334959D01*
X400941Y335538D01*
X400498Y335981D01*
X399920Y336221D01*
X399293D01*
X398956Y336081D01*
X398456Y336376D01*
Y346850D01*
Y383892D01*
X398622Y384293D01*
Y384998D01*
X398352Y385649D01*
X397854Y386148D01*
X397203Y386417D01*
X396498D01*
X395847Y386148D01*
X395349Y385649D01*
X395079Y384998D01*
Y384293D01*
X395245Y383892D01*
Y347291D01*
X393018Y345064D01*
X391859D01*
X391372Y344967D01*
X390959Y344691D01*
X390683Y344278D01*
X390586Y343791D01*
Y341982D01*
X389164Y340560D01*
X388860Y340105D01*
X388753Y339567D01*
Y338446D01*
X386405D01*
Y336214D01*
X385931Y335981D01*
X385353Y336221D01*
X384726D01*
X384147Y335981D01*
X383704Y335538D01*
X383465Y334959D01*
Y334332D01*
X383704Y333754D01*
X384063Y333395D01*
X383967Y332996D01*
X383909Y332895D01*
X382839D01*
X373615Y342119D01*
X373257Y342358D01*
X372835Y342442D01*
X366087D01*
X365061Y343468D01*
Y345935D01*
X364975Y346369D01*
X364729Y346737D01*
X364361Y346983D01*
X363927Y347069D01*
X362608D01*
X362174Y346983D01*
X361806Y346737D01*
X361561Y346369D01*
X361474Y345935D01*
Y345592D01*
X322835D01*
X322412Y345508D01*
X322054Y345269D01*
X235369Y258584D01*
X-27024D01*
X-27446Y258500D01*
X-27804Y258261D01*
X-29879Y256187D01*
X-42677D01*
Y256988D01*
X-44488D01*
Y259547D01*
X-42677D01*
Y259576D01*
X-34331D01*
X-34329Y259575D01*
X-33624D01*
X-33622Y259576D01*
X7996D01*
X8687Y259713D01*
X9273Y260104D01*
X42988Y293819D01*
X48622D01*
Y307756D01*
X40703D01*
X40495Y308256D01*
X42988Y310748D01*
X48622D01*
Y324685D01*
X40624D01*
X40405Y325173D01*
X42909Y327677D01*
X48622D01*
Y341614D01*
X40433D01*
Y330311D01*
X34156Y324033D01*
X33764Y323447D01*
X33627Y322756D01*
Y316890D01*
X-7477Y275787D01*
X-42677D01*
Y275886D01*
X-44488D01*
Y282311D01*
X-38739D01*
X-38689Y282321D01*
X-38639Y282314D01*
X-38253Y282333D01*
X-38107Y282369D01*
X-37955Y282369D01*
X-37198Y282520D01*
X-37013Y282597D01*
X-36816Y282636D01*
X-36103Y282931D01*
X-35936Y283043D01*
X-35750Y283120D01*
X-35109Y283549D01*
X-34967Y283691D01*
X-34800Y283802D01*
X-34254Y284348D01*
X-34143Y284515D01*
X-34001Y284657D01*
X-33572Y285299D01*
X-33495Y285484D01*
X-33383Y285651D01*
X-33088Y286364D01*
X-33049Y286561D01*
X-32972Y286747D01*
X-32822Y287504D01*
X-32822Y287655D01*
X-32785Y287802D01*
X-32766Y288188D01*
X-32773Y288238D01*
X-32763Y288287D01*
X-32763Y300028D01*
X-29834Y300028D01*
X-29834Y298130D01*
X-29825Y298080D01*
X-29832Y298030D01*
X-29813Y297644D01*
X-29776Y297497D01*
Y297346D01*
X-29626Y296589D01*
X-29549Y296404D01*
X-29510Y296207D01*
X-29214Y295494D01*
X-29103Y295327D01*
X-29026Y295141D01*
X-28597Y294499D01*
X-28455Y294357D01*
X-28343Y294190D01*
X-27798Y293645D01*
X-27631Y293533D01*
X-27489Y293391D01*
X-26847Y292962D01*
X-26662Y292885D01*
X-26495Y292774D01*
X-25782Y292478D01*
X-25585Y292439D01*
X-25399Y292362D01*
X-24642Y292212D01*
X-24491D01*
X-24344Y292175D01*
X-23958Y292156D01*
X-23908Y292164D01*
X-23858Y292154D01*
X-0D01*
X780Y292309D01*
X1442Y292751D01*
X1884Y293413D01*
X2039Y294193D01*
X2039Y381890D01*
X2039Y382530D01*
X2206Y383800D01*
X2538Y385038D01*
X3028Y386221D01*
X3669Y387330D01*
X4448Y388347D01*
X5354Y389252D01*
X6370Y390032D01*
X7480Y390673D01*
X8663Y391163D01*
X9900Y391494D01*
X11170Y391662D01*
X544503D01*
X545773Y391494D01*
D02*
G37*
G36*
X395245Y192071D02*
Y174456D01*
X392624Y171835D01*
X391465D01*
X390978Y171739D01*
X390565Y171463D01*
X390289Y171049D01*
X390192Y170562D01*
Y168734D01*
X389164Y167706D01*
X388860Y167250D01*
X388753Y166713D01*
Y165218D01*
X386405D01*
Y163447D01*
X385943Y163256D01*
X384175Y165024D01*
Y185433D01*
X384091Y185855D01*
X383851Y186214D01*
X379127Y190938D01*
X378769Y191177D01*
X378346Y191261D01*
X322431D01*
X322360Y191732D01*
X322939Y191972D01*
X323070Y192103D01*
X394094D01*
X394094Y192103D01*
X394555Y192194D01*
X394745Y192321D01*
X395245Y192071D01*
D02*
G37*
G36*
X-27698Y197845D02*
X-27508Y197386D01*
X-27010Y196888D01*
X-26359Y196618D01*
X-25654D01*
X-25003Y196888D01*
X-24569Y197321D01*
X231388D01*
X276734Y151975D01*
X277092Y151736D01*
X277515Y151652D01*
X361474D01*
Y151309D01*
X361561Y150875D01*
X361806Y150507D01*
X362174Y150261D01*
X362608Y150175D01*
X363500D01*
X364178Y149497D01*
X363931Y149037D01*
X363927Y149038D01*
X362608D01*
X362174Y148951D01*
X361806Y148705D01*
X361561Y148337D01*
X361474Y147904D01*
Y147561D01*
X279985D01*
X244875Y182670D01*
X244517Y182910D01*
X244094Y182994D01*
X-27024D01*
X-27446Y182910D01*
X-27804Y182670D01*
X-29879Y180596D01*
X-42677D01*
Y181398D01*
X-44488D01*
Y183788D01*
X-37953D01*
X-37886Y183801D01*
X-37819Y183792D01*
X-37203Y183832D01*
X-37009Y183884D01*
X-36808Y183898D01*
X-35617Y184217D01*
X-35378Y184335D01*
X-35125Y184421D01*
X-34057Y185037D01*
X-33856Y185213D01*
X-33635Y185361D01*
X-32763Y186233D01*
X-32614Y186455D01*
X-32439Y186656D01*
X-31822Y187724D01*
X-31736Y187976D01*
X-31618Y188215D01*
X-31299Y189407D01*
X-31282Y189673D01*
X-31230Y189935D01*
X-31230Y191168D01*
X-31282Y191429D01*
X-31299Y191696D01*
X-31618Y192887D01*
X-31736Y193126D01*
X-31822Y193379D01*
X-32439Y194447D01*
X-32615Y194647D01*
X-32763Y194869D01*
X-33635Y195741D01*
X-33857Y195889D01*
X-34057Y196065D01*
X-35125Y196682D01*
X-35378Y196768D01*
X-35415Y196786D01*
X-35298Y197286D01*
X-29421D01*
X-28999Y197370D01*
X-28641Y197609D01*
X-28240Y198010D01*
X-27698Y197845D01*
D02*
G37*
G36*
Y204144D02*
X-27508Y203685D01*
X-27010Y203187D01*
X-26359Y202917D01*
X-25654D01*
X-25003Y203187D01*
X-24569Y203621D01*
X233997D01*
X273044Y164574D01*
X273402Y164334D01*
X273825Y164251D01*
X361474D01*
Y163908D01*
X361561Y163473D01*
X361806Y163106D01*
X362174Y162860D01*
X362608Y162774D01*
X363500D01*
X364178Y162096D01*
X363931Y161635D01*
X363927Y161636D01*
X362608D01*
X362174Y161550D01*
X361806Y161304D01*
X361561Y160936D01*
X361474Y160502D01*
Y160159D01*
X275013D01*
X233604Y201568D01*
X233246Y201807D01*
X232824Y201891D01*
X-27024D01*
X-27446Y201807D01*
X-27804Y201568D01*
X-29879Y199494D01*
X-42677D01*
Y200295D01*
X-44488D01*
Y202854D01*
X-42677D01*
Y203585D01*
X-29421D01*
X-28999Y203669D01*
X-28641Y203908D01*
X-28240Y204309D01*
X-27698Y204144D01*
D02*
G37*
G36*
X365630Y167400D02*
X371984D01*
X381601Y157782D01*
X381863Y157608D01*
X381781Y157110D01*
X381780Y157108D01*
X379493D01*
X373615Y162985D01*
X373257Y163225D01*
X372835Y163309D01*
X366087D01*
X365061Y164335D01*
Y166801D01*
X365011Y167052D01*
X365020Y167072D01*
X365368Y167427D01*
X365404Y167445D01*
X365630Y167400D01*
D02*
G37*
G36*
Y161101D02*
X372377D01*
X378255Y155223D01*
X378516Y155049D01*
X378434Y154551D01*
X378433Y154549D01*
X375752D01*
X373615Y156686D01*
X373257Y156925D01*
X372835Y157009D01*
X366087D01*
X365061Y158035D01*
Y160502D01*
X365011Y160753D01*
X365020Y160772D01*
X365368Y161128D01*
X365404Y161146D01*
X365630Y161101D01*
D02*
G37*
G36*
Y154802D02*
X372377D01*
X374515Y152664D01*
X374776Y152490D01*
X374694Y151992D01*
X374693Y151990D01*
X374114D01*
X373692Y151906D01*
X373334Y151666D01*
X372377Y150710D01*
X366087D01*
X365061Y151736D01*
Y154203D01*
X365011Y154454D01*
X365020Y154473D01*
X365368Y154829D01*
X365404Y154847D01*
X365630Y154802D01*
D02*
G37*
G36*
X377253Y149779D02*
X377335Y149282D01*
X377074Y149107D01*
X372377Y144411D01*
X366087D01*
X365061Y145437D01*
Y147904D01*
X365011Y148154D01*
X365020Y148174D01*
X365368Y148529D01*
X365404Y148547D01*
X365630Y148502D01*
X372835D01*
X373257Y148586D01*
X373615Y148826D01*
X374571Y149782D01*
X377252D01*
X377253Y149779D01*
D02*
G37*
G36*
X380993Y147220D02*
X381075Y146723D01*
X380814Y146548D01*
X372377Y138112D01*
X366087D01*
X365061Y139138D01*
Y141604D01*
X365011Y141855D01*
X365020Y141875D01*
X365368Y142230D01*
X365404Y142248D01*
X365630Y142203D01*
X372835D01*
X373257Y142287D01*
X373615Y142526D01*
X378312Y147223D01*
X380992D01*
X380993Y147220D01*
D02*
G37*
G36*
X-27698Y178947D02*
X-27508Y178489D01*
X-27010Y177990D01*
X-26359Y177721D01*
X-25654D01*
X-25003Y177990D01*
X-24569Y178424D01*
X242659D01*
X281705Y139377D01*
X282064Y139138D01*
X282486Y139054D01*
X361474D01*
Y138711D01*
X361561Y138277D01*
X361806Y137909D01*
X362174Y137663D01*
X362608Y137577D01*
X363500D01*
X364178Y136899D01*
X363931Y136438D01*
X363927Y136439D01*
X362608D01*
X362174Y136353D01*
X361806Y136107D01*
X361561Y135739D01*
X361474Y135305D01*
Y134962D01*
X283675D01*
X242266Y176371D01*
X241908Y176610D01*
X241485Y176694D01*
X-27024D01*
X-27446Y176610D01*
X-27804Y176371D01*
X-29879Y174297D01*
X-42677D01*
Y175098D01*
X-44488D01*
Y177658D01*
X-42677D01*
Y178388D01*
X-29421D01*
X-28999Y178472D01*
X-28641Y178712D01*
X-28240Y179113D01*
X-27698Y178947D01*
D02*
G37*
G36*
X384340Y144661D02*
X384422Y144164D01*
X384160Y143989D01*
X371984Y131813D01*
X366087D01*
X365061Y132838D01*
Y135305D01*
X365011Y135556D01*
X365020Y135575D01*
X365368Y135931D01*
X365404Y135949D01*
X365630Y135904D01*
X372835D01*
X373257Y135988D01*
X373615Y136227D01*
X382052Y144664D01*
X384338D01*
X384340Y144661D01*
D02*
G37*
G36*
X-33064Y137802D02*
X-32706Y137563D01*
X-32283Y137479D01*
X29711D01*
X29811Y136979D01*
X29705Y136935D01*
X29207Y136437D01*
X28937Y135785D01*
Y135081D01*
X29207Y134430D01*
X29705Y133931D01*
X30356Y133661D01*
X31061D01*
X31447Y133821D01*
X31531Y133814D01*
X31983Y133561D01*
X31993Y133547D01*
X32033Y133344D01*
X32196Y133100D01*
X32041Y132682D01*
X31975Y132600D01*
X-36220D01*
X-36643Y132516D01*
X-37001Y132277D01*
X-39075Y130202D01*
X-42677D01*
Y131004D01*
X-44488D01*
Y133563D01*
X-42677D01*
Y136713D01*
Y140453D01*
X-44488D01*
Y143012D01*
X-42677D01*
Y143743D01*
X-39004D01*
X-33064Y137802D01*
D02*
G37*
G36*
X66176Y139590D02*
Y137694D01*
X66273Y137207D01*
X66304Y137161D01*
Y135078D01*
X65161D01*
X64776Y135002D01*
X64449Y134783D01*
X64231Y134456D01*
X64154Y134071D01*
Y132110D01*
X64231Y131725D01*
X64449Y131398D01*
X64776Y131179D01*
X65161Y131103D01*
X70468D01*
X70854Y131179D01*
X71181Y131398D01*
X71297Y131571D01*
X71797Y131420D01*
Y129762D01*
X71297Y129610D01*
X71181Y129783D01*
X70854Y130002D01*
X70468Y130078D01*
X65161D01*
X64776Y130002D01*
X64449Y129783D01*
X64231Y129456D01*
X64154Y129071D01*
Y127347D01*
X63654Y127139D01*
X58910Y131883D01*
X58552Y132122D01*
X58130Y132206D01*
X55016D01*
X54994Y132221D01*
X54572Y132305D01*
X53947D01*
X53613Y132805D01*
X53740Y133112D01*
Y133817D01*
X53470Y134468D01*
X52972Y134967D01*
X52321Y135236D01*
X51616D01*
X51438Y135162D01*
X45663Y140938D01*
X45304Y141177D01*
X45144Y141209D01*
X45194Y141709D01*
X64057D01*
X66176Y139590D01*
D02*
G37*
G36*
X385356Y141910D02*
X385448Y141668D01*
X385467Y141358D01*
X374023Y129914D01*
X373783Y129556D01*
X373699Y129134D01*
Y127229D01*
X371984Y125513D01*
X366087D01*
X365061Y126539D01*
Y129006D01*
X365011Y129257D01*
X365020Y129276D01*
X365368Y129632D01*
X365404Y129650D01*
X365630Y129605D01*
X372441D01*
X372863Y129689D01*
X373221Y129928D01*
X385237Y141944D01*
X385356Y141910D01*
D02*
G37*
G36*
X79934Y127942D02*
X79034D01*
X77034Y129941D01*
X79034Y131941D01*
X79934D01*
Y127942D01*
D02*
G37*
G36*
X75834Y129941D02*
X77834Y127942D01*
X74934D01*
Y129941D01*
Y131941D01*
X77834D01*
X75834Y129941D01*
D02*
G37*
G36*
X-29235Y118559D02*
X-29331Y118329D01*
Y117624D01*
X-29061Y116973D01*
X-28563Y116474D01*
X-27911Y116205D01*
X-27207D01*
X-26555Y116474D01*
X-26158Y116873D01*
X25661D01*
X27073Y115461D01*
X26866Y114961D01*
X26852D01*
X26273Y114721D01*
X26142Y114590D01*
X14116D01*
Y114833D01*
X14030Y115267D01*
X13784Y115635D01*
X13416Y115880D01*
X12982Y115967D01*
X11663D01*
X11229Y115880D01*
X10862Y115635D01*
X10616Y115267D01*
X10529Y114833D01*
Y111939D01*
X10549Y111840D01*
X10170Y111340D01*
X8727D01*
X8349Y111840D01*
X8368Y111939D01*
Y114833D01*
X8282Y115267D01*
X8036Y115635D01*
X7668Y115880D01*
X7234Y115967D01*
X5915D01*
X5481Y115880D01*
X5113Y115635D01*
X4868Y115267D01*
X4781Y114833D01*
Y114590D01*
X3664D01*
X3366Y114888D01*
X2715Y115157D01*
X2010D01*
X1359Y114888D01*
X860Y114389D01*
X591Y113738D01*
Y113033D01*
X860Y112382D01*
X1359Y111884D01*
X1464Y111840D01*
X1365Y111340D01*
X-2692D01*
X-3719Y112367D01*
X-3543Y113023D01*
Y113749D01*
X-3731Y114450D01*
X-4094Y115078D01*
X-4607Y115591D01*
X-5235Y115954D01*
X-5936Y116142D01*
X-6662D01*
X-7363Y115954D01*
X-7991Y115591D01*
X-8505Y115078D01*
X-8787Y114588D01*
X-42323Y114560D01*
X-42677Y114914D01*
Y115256D01*
X-44488D01*
Y117815D01*
X-42677D01*
Y118975D01*
X-29513D01*
X-29235Y118559D01*
D02*
G37*
G36*
X-27698Y172648D02*
X-27508Y172189D01*
X-27010Y171691D01*
X-26359Y171421D01*
X-25654D01*
X-25003Y171691D01*
X-24569Y172125D01*
X240050D01*
X285396Y126778D01*
X285754Y126539D01*
X286176Y126455D01*
X361474D01*
Y126112D01*
X361561Y125678D01*
X361806Y125310D01*
X362174Y125065D01*
X362608Y124978D01*
X363500D01*
X364849Y123629D01*
X365208Y123390D01*
X365630Y123306D01*
X372441D01*
X372863Y123390D01*
X373221Y123629D01*
X375584Y125991D01*
X375823Y126349D01*
X375907Y126772D01*
Y128677D01*
X386464Y139233D01*
X386834Y139541D01*
X387342Y139202D01*
X387942Y139083D01*
X392960D01*
X393560Y139202D01*
X394069Y139541D01*
X394408Y140050D01*
X394528Y140650D01*
X394408Y141249D01*
X394069Y141758D01*
Y142101D01*
X394408Y142609D01*
X394528Y143209D01*
X394408Y143808D01*
X394069Y144317D01*
Y144660D01*
X394408Y145168D01*
X394528Y145768D01*
X394408Y146367D01*
X394069Y146876D01*
Y147219D01*
X394408Y147727D01*
X394528Y148327D01*
X394408Y148926D01*
X394069Y149435D01*
Y149778D01*
X394408Y150286D01*
X394528Y150886D01*
X394408Y151486D01*
X394069Y151994D01*
Y152337D01*
X394408Y152845D01*
X394528Y153445D01*
X394408Y154045D01*
X394069Y154553D01*
Y154896D01*
X394408Y155404D01*
X394528Y156004D01*
X394408Y156604D01*
X394069Y157112D01*
Y157455D01*
X394408Y157963D01*
X394528Y158563D01*
X394408Y159163D01*
X394069Y159671D01*
Y160014D01*
X394408Y160522D01*
X394528Y161122D01*
X394424Y161644D01*
X394497Y162144D01*
X394497D01*
Y165218D01*
X391562D01*
Y166131D01*
X392179Y166747D01*
X393338D01*
X393825Y166844D01*
X394238Y167120D01*
X394514Y167533D01*
X394611Y168020D01*
Y169550D01*
X394745Y169645D01*
X395245Y169386D01*
Y88189D01*
X395367Y87574D01*
X395369Y87572D01*
X393018Y85221D01*
X391859D01*
X391372Y85124D01*
X390959Y84848D01*
X390683Y84435D01*
X390586Y83948D01*
Y82140D01*
X389164Y80718D01*
X388860Y80262D01*
X388753Y79724D01*
Y78604D01*
X386405D01*
Y75978D01*
X385931Y75744D01*
X385353Y75984D01*
X384726D01*
X384147Y75744D01*
X383704Y75301D01*
X383465Y74723D01*
Y74096D01*
X383704Y73517D01*
X383462Y73053D01*
X380083D01*
X373615Y79521D01*
X373257Y79760D01*
X372835Y79844D01*
X366087D01*
X365061Y80870D01*
Y83337D01*
X364975Y83771D01*
X364729Y84139D01*
X364361Y84384D01*
X363927Y84471D01*
X362608D01*
X362174Y84384D01*
X361806Y84139D01*
X361561Y83771D01*
X361474Y83337D01*
Y82994D01*
X326835D01*
X239757Y170072D01*
X239399Y170311D01*
X238976Y170395D01*
X-27024D01*
X-27446Y170311D01*
X-27804Y170072D01*
X-29879Y167998D01*
X-42677D01*
Y168799D01*
X-44488D01*
Y171358D01*
X-42677D01*
Y172089D01*
X-29421D01*
X-28999Y172173D01*
X-28641Y172412D01*
X-28240Y172813D01*
X-27698Y172648D01*
D02*
G37*
G36*
Y166349D02*
X-27508Y165890D01*
X-27010Y165392D01*
X-26359Y165122D01*
X-25654D01*
X-25003Y165392D01*
X-24569Y165825D01*
X237541D01*
X328556Y74810D01*
X328914Y74571D01*
X329337Y74487D01*
X361474D01*
Y74144D01*
X361561Y73710D01*
X361806Y73342D01*
X362174Y73096D01*
X362608Y73010D01*
X363500D01*
X364178Y72332D01*
X363931Y71871D01*
X363927Y71872D01*
X362608D01*
X362174Y71786D01*
X361806Y71540D01*
X361561Y71172D01*
X361474Y70738D01*
Y70395D01*
X330525D01*
X237148Y163773D01*
X236790Y164012D01*
X236367Y164096D01*
X-27024D01*
X-27446Y164012D01*
X-27804Y163773D01*
X-29879Y161698D01*
X-42677D01*
Y162500D01*
X-44488D01*
Y165059D01*
X-42677D01*
Y165790D01*
X-29421D01*
X-28999Y165874D01*
X-28641Y166113D01*
X-28240Y166514D01*
X-27698Y166349D01*
D02*
G37*
G36*
X365630Y77636D02*
X372377D01*
X378845Y71168D01*
X379107Y70994D01*
X379025Y70496D01*
X379024Y70494D01*
X376343D01*
X373615Y73221D01*
X373257Y73461D01*
X372835Y73545D01*
X366087D01*
X365061Y74571D01*
Y77037D01*
X365011Y77288D01*
X365020Y77308D01*
X365368Y77663D01*
X365404Y77681D01*
X365630Y77636D01*
D02*
G37*
G36*
Y71337D02*
X372377D01*
X375105Y68609D01*
X375367Y68435D01*
X375285Y67937D01*
X375283Y67935D01*
X373524D01*
X373101Y67851D01*
X372743Y67611D01*
X372377Y67246D01*
X366087D01*
X365061Y68272D01*
Y70738D01*
X365011Y70989D01*
X365020Y71009D01*
X365368Y71364D01*
X365404Y71382D01*
X365630Y71337D01*
D02*
G37*
G36*
X376269Y65724D02*
X376351Y65227D01*
X376090Y65052D01*
X371984Y60946D01*
X366087D01*
X365061Y61972D01*
Y64439D01*
X365011Y64690D01*
X365020Y64709D01*
X365368Y65065D01*
X365404Y65083D01*
X365630Y65038D01*
X372835D01*
X373257Y65122D01*
X373615Y65361D01*
X373981Y65727D01*
X376268D01*
X376269Y65724D01*
D02*
G37*
G36*
X-27698Y160049D02*
X-27508Y159591D01*
X-27010Y159092D01*
X-26359Y158823D01*
X-25654D01*
X-25003Y159092D01*
X-24605Y159491D01*
X234917D01*
X332196Y62212D01*
X332554Y61972D01*
X332976Y61888D01*
X361474D01*
Y61545D01*
X361561Y61111D01*
X361806Y60743D01*
X362174Y60498D01*
X362608Y60411D01*
X363500D01*
X364178Y59734D01*
X363931Y59273D01*
X363927Y59274D01*
X362608D01*
X362174Y59187D01*
X361806Y58942D01*
X361561Y58574D01*
X361474Y58140D01*
Y57797D01*
X334215D01*
X234539Y157474D01*
X234180Y157713D01*
X233758Y157797D01*
X-27024D01*
X-27446Y157713D01*
X-27804Y157474D01*
X-29879Y155399D01*
X-42677D01*
Y156201D01*
X-44488D01*
Y158760D01*
X-42677D01*
Y159491D01*
X-29421D01*
X-28999Y159575D01*
X-28641Y159814D01*
X-28240Y160215D01*
X-27698Y160049D01*
D02*
G37*
G36*
X380403Y63165D02*
X380485Y62668D01*
X380223Y62493D01*
X372377Y54647D01*
X366087D01*
X365061Y55673D01*
Y58140D01*
X365011Y58391D01*
X365020Y58410D01*
X365368Y58766D01*
X365404Y58784D01*
X365630Y58739D01*
X372441D01*
X372863Y58823D01*
X373221Y59062D01*
X377327Y63168D01*
X380401D01*
X380403Y63165D01*
D02*
G37*
G36*
X383749Y60606D02*
X383831Y60109D01*
X383570Y59934D01*
X371984Y48348D01*
X366087D01*
X365061Y49374D01*
Y51841D01*
X365011Y52091D01*
X365020Y52111D01*
X365367Y52466D01*
X365404Y52484D01*
X365630Y52439D01*
X372835D01*
X373257Y52523D01*
X373615Y52763D01*
X381461Y60609D01*
X383748D01*
X383749Y60606D01*
D02*
G37*
%LPC*%
G36*
X140157Y390783D02*
X135039D01*
X134865Y390748D01*
X134687D01*
X134523Y390680D01*
X134348Y390645D01*
X134200Y390546D01*
X134036Y390478D01*
X133910Y390353D01*
X133762Y390254D01*
X128644Y385136D01*
X128252Y384549D01*
X128115Y383858D01*
Y339331D01*
X110927Y322143D01*
X110770Y321907D01*
X110534Y321750D01*
X108307Y319523D01*
X67441D01*
Y324685D01*
X59252D01*
Y310748D01*
X67441D01*
Y315910D01*
X109055D01*
X109746Y316048D01*
X110332Y316439D01*
X113088Y319195D01*
X113246Y319431D01*
X113482Y319589D01*
X113555Y319662D01*
X117087D01*
X117218Y319531D01*
X117797Y319291D01*
X118423D01*
X119002Y319531D01*
X119445Y319974D01*
X119685Y320553D01*
Y321179D01*
X119445Y321758D01*
X119002Y322201D01*
X118423Y322441D01*
X117797D01*
X117218Y322201D01*
X117087Y322070D01*
X116617D01*
X116426Y322532D01*
X131199Y337305D01*
X131590Y337891D01*
X131728Y338583D01*
Y383110D01*
X135788Y387170D01*
X137344D01*
X137346Y387169D01*
X138051D01*
X138053Y387170D01*
X140157D01*
X140332Y387205D01*
X140510D01*
X140674Y387273D01*
X140849Y387308D01*
X140997Y387406D01*
X141161Y387474D01*
X141287Y387600D01*
X141435Y387699D01*
X141534Y387847D01*
X141659Y387973D01*
X141727Y388137D01*
X141826Y388285D01*
X141861Y388460D01*
X141929Y388624D01*
Y388802D01*
X141964Y388976D01*
X141929Y389151D01*
Y389329D01*
X141861Y389493D01*
X141826Y389668D01*
X141727Y389816D01*
X141659Y389980D01*
X141534Y390106D01*
X141435Y390254D01*
X141287Y390353D01*
X141161Y390478D01*
X140997Y390546D01*
X140849Y390645D01*
X140674Y390680D01*
X140510Y390748D01*
X140332D01*
X140157Y390783D01*
D02*
G37*
G36*
X150787Y386452D02*
X145669D01*
X145495Y386417D01*
X145317D01*
X145152Y386349D01*
X144978Y386315D01*
X144830Y386216D01*
X144666Y386148D01*
X144540Y386022D01*
X144392Y385923D01*
X138487Y380017D01*
X138095Y379431D01*
X137957Y378740D01*
Y343307D01*
Y332244D01*
X108307Y302594D01*
X67441D01*
Y307756D01*
X59252D01*
Y293819D01*
X67441D01*
Y298981D01*
X109055D01*
X109746Y299118D01*
X110332Y299510D01*
X131783Y320961D01*
X132283Y320754D01*
Y320553D01*
X132523Y319974D01*
X132966Y319531D01*
X133545Y319291D01*
X134171D01*
X134750Y319531D01*
X134940Y319721D01*
X146340D01*
X146372Y319561D01*
X146648Y319148D01*
X147061Y318872D01*
X147548Y318775D01*
X150090D01*
X150577Y318872D01*
X150990Y319148D01*
X151266Y319561D01*
X151272Y319589D01*
X151772Y319539D01*
Y318996D01*
X157677D01*
Y323130D01*
X151772D01*
Y322429D01*
X151272Y322380D01*
X151266Y322408D01*
X150990Y322821D01*
X150577Y323097D01*
X150090Y323194D01*
X147548D01*
X147061Y323097D01*
X146648Y322821D01*
X146372Y322408D01*
X146316Y322129D01*
X134822D01*
X134750Y322201D01*
X134171Y322441D01*
X133970D01*
X133763Y322941D01*
X141041Y330219D01*
X141433Y330805D01*
X141570Y331496D01*
Y343410D01*
X143530Y345371D01*
X146328D01*
X146372Y345151D01*
X146648Y344738D01*
X147061Y344462D01*
X147548Y344365D01*
X150090D01*
X150577Y344462D01*
X150990Y344738D01*
X151266Y345151D01*
X151272Y345179D01*
X151772Y345130D01*
Y344587D01*
X157677D01*
Y348721D01*
X151772D01*
Y348020D01*
X151272Y347970D01*
X151266Y347998D01*
X150990Y348411D01*
X150577Y348687D01*
X150090Y348784D01*
X147548D01*
X147061Y348687D01*
X146648Y348411D01*
X146372Y347998D01*
X146328Y347779D01*
X143032D01*
X143032Y347779D01*
X142571Y347687D01*
X142180Y347426D01*
X142032Y347278D01*
X141570Y347470D01*
Y377992D01*
X146417Y382839D01*
X147974D01*
X147976Y382839D01*
X148681D01*
X148683Y382839D01*
X150787D01*
X150962Y382874D01*
X151140D01*
X151304Y382942D01*
X151479Y382977D01*
X151627Y383076D01*
X151791Y383144D01*
X151917Y383270D01*
X152065Y383368D01*
X152164Y383516D01*
X152289Y383642D01*
X152357Y383806D01*
X152456Y383954D01*
X152491Y384129D01*
X152559Y384293D01*
Y384471D01*
X152594Y384646D01*
X152559Y384820D01*
Y384998D01*
X152491Y385162D01*
X152456Y385337D01*
X152357Y385485D01*
X152289Y385649D01*
X152164Y385775D01*
X152065Y385923D01*
X151917Y386022D01*
X151791Y386148D01*
X151627Y386216D01*
X151479Y386315D01*
X151304Y386349D01*
X151140Y386417D01*
X150962D01*
X150787Y386452D01*
D02*
G37*
G36*
X121653Y381334D02*
X116535D01*
X116361Y381299D01*
X116183D01*
X116019Y381231D01*
X115844Y381196D01*
X115696Y381098D01*
X115532Y381030D01*
X115406Y380904D01*
X115258Y380805D01*
X70905Y336452D01*
X67441D01*
Y341614D01*
X59252D01*
Y327677D01*
X67441D01*
Y332839D01*
X71653D01*
X72345Y332977D01*
X72931Y333368D01*
X73004Y333441D01*
X84941D01*
Y331988D01*
X89559D01*
X89862Y331988D01*
X90362Y331988D01*
X94980D01*
Y333441D01*
X99606D01*
Y332283D01*
X104331D01*
Y337008D01*
X99606D01*
Y335850D01*
X94980D01*
Y337303D01*
X90362D01*
X90059Y337303D01*
X89559Y337303D01*
X84941D01*
Y335850D01*
X76066D01*
X75874Y336312D01*
X117284Y377721D01*
X118841D01*
X118842Y377720D01*
X119547D01*
X119549Y377721D01*
X121653D01*
X121828Y377756D01*
X122006D01*
X122170Y377824D01*
X122345Y377859D01*
X122493Y377958D01*
X122657Y378026D01*
X122783Y378151D01*
X122931Y378250D01*
X123030Y378398D01*
X123155Y378524D01*
X123224Y378688D01*
X123322Y378836D01*
X123357Y379011D01*
X123425Y379175D01*
Y379353D01*
X123460Y379528D01*
X123425Y379702D01*
Y379880D01*
X123357Y380044D01*
X123322Y380219D01*
X123224Y380367D01*
X123155Y380531D01*
X123030Y380657D01*
X122931Y380805D01*
X122783Y380904D01*
X122657Y381030D01*
X122493Y381098D01*
X122345Y381196D01*
X122170Y381231D01*
X122006Y381299D01*
X121828D01*
X121653Y381334D01*
D02*
G37*
G36*
X533365Y376543D02*
X532368D01*
X531404Y376285D01*
X530541Y375787D01*
X529836Y375081D01*
X529337Y374218D01*
X529079Y373254D01*
Y372257D01*
X529337Y371294D01*
X529836Y370430D01*
X530541Y369725D01*
X531404Y369227D01*
X532368Y368969D01*
X533365D01*
X534328Y369227D01*
X535192Y369725D01*
X535897Y370430D01*
X536395Y371294D01*
X536654Y372257D01*
Y373254D01*
X536395Y374218D01*
X535897Y375081D01*
X535192Y375787D01*
X534328Y376285D01*
X533365Y376543D01*
D02*
G37*
G36*
Y366543D02*
X532368D01*
X531404Y366285D01*
X530541Y365787D01*
X529836Y365081D01*
X529337Y364218D01*
X529079Y363254D01*
Y362257D01*
X529337Y361294D01*
X529470Y361063D01*
X527013Y358606D01*
X480258D01*
Y358848D01*
X480172Y359282D01*
X479926Y359650D01*
X479558Y359896D01*
X479124Y359982D01*
X477805D01*
X477371Y359896D01*
X477003Y359650D01*
X476757Y359282D01*
X476671Y358848D01*
Y355955D01*
X476757Y355521D01*
X477003Y355153D01*
X477371Y354907D01*
X477805Y354821D01*
X479124D01*
X479558Y354907D01*
X479926Y355153D01*
X480172Y355521D01*
X480258Y355955D01*
Y356197D01*
X527512D01*
X527512Y356197D01*
X527973Y356289D01*
X528363Y356550D01*
X531173Y359360D01*
X531404Y359227D01*
X532368Y358968D01*
X533365D01*
X534328Y359227D01*
X535192Y359725D01*
X535897Y360430D01*
X536395Y361294D01*
X536654Y362257D01*
Y363254D01*
X536395Y364218D01*
X535897Y365081D01*
X535192Y365787D01*
X534328Y366285D01*
X533365Y366543D01*
D02*
G37*
G36*
X392085Y356102D02*
X391380D01*
X390979Y355936D01*
X264961Y355936D01*
X264961Y355936D01*
X264346Y355814D01*
X263825Y355466D01*
X263825Y355466D01*
X251697Y343338D01*
X245548D01*
X242352Y346533D01*
Y351476D01*
X242238Y352052D01*
X241911Y352541D01*
X241423Y352867D01*
X240847Y352982D01*
X239469D01*
X238893Y352867D01*
X238405Y352541D01*
X238078Y352052D01*
X237964Y351476D01*
Y345768D01*
X238078Y345192D01*
X238405Y344703D01*
X238893Y344377D01*
X239469Y344262D01*
X240082D01*
X243747Y340597D01*
X243747Y340597D01*
X244268Y340249D01*
X244882Y340127D01*
X252362D01*
X252362Y340127D01*
X252933Y340240D01*
X252961Y340217D01*
X253072Y339672D01*
X241965Y328565D01*
X241851D01*
X241423Y328851D01*
X240847Y328965D01*
X239469D01*
X238893Y328851D01*
X238405Y328525D01*
X238078Y328036D01*
X237964Y327460D01*
Y321751D01*
X238078Y321176D01*
X238405Y320687D01*
X238893Y320361D01*
X239469Y320246D01*
X240847D01*
X241423Y320361D01*
X241911Y320687D01*
X242238Y321176D01*
X242352Y321751D01*
Y326357D01*
X242422D01*
X242844Y326441D01*
X243202Y326680D01*
X265418Y348896D01*
X268167D01*
Y348553D01*
X268253Y348119D01*
X268499Y347751D01*
X268867Y347505D01*
X269301Y347419D01*
X270620D01*
X271054Y347505D01*
X271422Y347751D01*
X271668Y348119D01*
X271754Y348553D01*
Y351447D01*
X271668Y351881D01*
X271438Y352225D01*
X271465Y352359D01*
X271609Y352725D01*
X274060D01*
X274204Y352359D01*
X274232Y352225D01*
X274002Y351881D01*
X273915Y351447D01*
Y348553D01*
X274002Y348119D01*
X274247Y347751D01*
X274615Y347505D01*
X275049Y347419D01*
X276368D01*
X276802Y347505D01*
X277170Y347751D01*
X277416Y348119D01*
X277502Y348553D01*
Y349290D01*
X390609Y349290D01*
X390840Y349059D01*
X391419Y348819D01*
X392045D01*
X392624Y349059D01*
X393067Y349502D01*
X393307Y350080D01*
Y350707D01*
X393067Y351286D01*
X392624Y351729D01*
X392045Y351969D01*
X391419D01*
X390840Y351729D01*
X390609Y351498D01*
X277492Y351498D01*
X277416Y351881D01*
X277186Y352225D01*
X277213Y352359D01*
X277357Y352725D01*
X390979Y352725D01*
X391380Y352559D01*
X392085D01*
X392736Y352829D01*
X393234Y353327D01*
X393504Y353978D01*
Y354683D01*
X393234Y355334D01*
X392736Y355833D01*
X392085Y356102D01*
D02*
G37*
G36*
X172410Y358268D02*
X171684D01*
X170984Y358080D01*
X170355Y357717D01*
X169842Y357204D01*
X169479Y356576D01*
X169291Y355875D01*
Y355338D01*
X167126D01*
Y356201D01*
X161221D01*
Y352067D01*
X167126D01*
Y352930D01*
X169817D01*
X169817Y352930D01*
X170278Y353021D01*
X170543Y353198D01*
X170984Y352944D01*
X171684Y352756D01*
X172410D01*
X173111Y352944D01*
X173739Y353307D01*
X174252Y353820D01*
X174615Y354448D01*
X174803Y355149D01*
Y355875D01*
X174615Y356576D01*
X174252Y357204D01*
X173739Y357717D01*
X173111Y358080D01*
X172410Y358268D01*
D02*
G37*
G36*
X157677Y356201D02*
X151772D01*
Y352067D01*
X157677D01*
Y356201D01*
D02*
G37*
G36*
X533365Y356543D02*
X532368D01*
X531404Y356285D01*
X530541Y355787D01*
X529836Y355081D01*
X529337Y354218D01*
X529079Y353255D01*
Y352257D01*
X529337Y351294D01*
X529470Y351063D01*
X527013Y348606D01*
X480258D01*
Y348848D01*
X480172Y349282D01*
X479926Y349650D01*
X479558Y349896D01*
X479124Y349982D01*
X477805D01*
X477371Y349896D01*
X477003Y349650D01*
X476757Y349282D01*
X476671Y348848D01*
Y345955D01*
X476757Y345521D01*
X477003Y345153D01*
X477371Y344907D01*
X477805Y344821D01*
X479124D01*
X479558Y344907D01*
X479926Y345153D01*
X480172Y345521D01*
X480258Y345955D01*
Y346197D01*
X527512D01*
X527512Y346197D01*
X527973Y346289D01*
X528363Y346550D01*
X531173Y349360D01*
X531404Y349227D01*
X532368Y348969D01*
X533365D01*
X534328Y349227D01*
X535192Y349725D01*
X535897Y350430D01*
X536395Y351294D01*
X536654Y352257D01*
Y353255D01*
X536395Y354218D01*
X535897Y355081D01*
X535192Y355787D01*
X534328Y356285D01*
X533365Y356543D01*
D02*
G37*
G36*
X198484Y350748D02*
X183405D01*
Y347858D01*
X167126D01*
Y348721D01*
X161221D01*
Y344587D01*
X167126D01*
Y345449D01*
X183405D01*
Y342165D01*
X198484D01*
Y344867D01*
X210516D01*
X228121Y327263D01*
Y321751D01*
X228235Y321176D01*
X228562Y320687D01*
X229050Y320361D01*
X229626Y320246D01*
X231004D01*
X231580Y320361D01*
X232068Y320687D01*
X232395Y321176D01*
X232509Y321751D01*
Y327460D01*
X232395Y328036D01*
X232068Y328525D01*
X231580Y328851D01*
X231004Y328965D01*
X229824D01*
X211867Y346923D01*
X211476Y347184D01*
X211015Y347276D01*
X211015Y347276D01*
X198484D01*
Y350748D01*
D02*
G37*
G36*
X250352Y390748D02*
X249648D01*
X248996Y390478D01*
X248498Y389980D01*
X248228Y389329D01*
Y388624D01*
X248394Y388223D01*
Y352640D01*
X248247Y352541D01*
X247920Y352052D01*
X247806Y351476D01*
Y345768D01*
X247920Y345192D01*
X248247Y344703D01*
X248735Y344377D01*
X249311Y344262D01*
X250689D01*
X251265Y344377D01*
X251753Y344703D01*
X252080Y345192D01*
X252194Y345768D01*
Y351476D01*
X252080Y352052D01*
X251753Y352541D01*
X251606Y352640D01*
Y388223D01*
X251772Y388624D01*
Y389329D01*
X251502Y389980D01*
X251004Y390478D01*
X250352Y390748D01*
D02*
G37*
G36*
X230667Y386417D02*
X229963D01*
X229311Y386148D01*
X228813Y385649D01*
X228543Y384998D01*
Y384293D01*
X228709Y383892D01*
Y352640D01*
X228562Y352541D01*
X228235Y352052D01*
X228121Y351476D01*
Y345768D01*
X228235Y345192D01*
X228562Y344703D01*
X229050Y344377D01*
X229626Y344262D01*
X231004D01*
X231580Y344377D01*
X232068Y344703D01*
X232395Y345192D01*
X232509Y345768D01*
Y351476D01*
X232395Y352052D01*
X232068Y352541D01*
X231921Y352640D01*
Y383892D01*
X232087Y384293D01*
Y384998D01*
X231817Y385649D01*
X231318Y386148D01*
X230667Y386417D01*
D02*
G37*
G36*
X533365Y346543D02*
X532368D01*
X531404Y346285D01*
X530541Y345787D01*
X529836Y345081D01*
X529337Y344218D01*
X529079Y343254D01*
Y342257D01*
X529337Y341294D01*
X529470Y341063D01*
X527013Y338606D01*
X480258D01*
Y338848D01*
X480172Y339282D01*
X479926Y339650D01*
X479558Y339896D01*
X479124Y339982D01*
X477805D01*
X477371Y339896D01*
X477003Y339650D01*
X476757Y339282D01*
X476671Y338848D01*
Y335955D01*
X476757Y335521D01*
X477003Y335153D01*
X477371Y334907D01*
X477805Y334821D01*
X479124D01*
X479558Y334907D01*
X479926Y335153D01*
X480172Y335521D01*
X480258Y335955D01*
Y336197D01*
X527512D01*
X527512Y336197D01*
X527973Y336289D01*
X528363Y336550D01*
X531173Y339360D01*
X531404Y339227D01*
X532368Y338968D01*
X533365D01*
X534328Y339227D01*
X535192Y339725D01*
X535897Y340430D01*
X536395Y341294D01*
X536654Y342257D01*
Y343254D01*
X536395Y344218D01*
X535897Y345081D01*
X535192Y345787D01*
X534328Y346285D01*
X533365Y346543D01*
D02*
G37*
G36*
X473376Y359982D02*
X472057D01*
X471623Y359896D01*
X471255Y359650D01*
X471009Y359282D01*
X470923Y358848D01*
Y356382D01*
X444877Y330336D01*
X419885D01*
X419677Y330836D01*
X419839Y330998D01*
X420079Y331576D01*
Y332203D01*
X419839Y332782D01*
X419396Y333225D01*
X418817Y333465D01*
X418626Y333965D01*
X418710Y334049D01*
X419015Y334505D01*
X419122Y335042D01*
Y336221D01*
X419015Y336758D01*
X418710Y337214D01*
X417923Y338001D01*
X417467Y338306D01*
X416929Y338413D01*
X415528D01*
X415207Y338476D01*
X414397D01*
Y339488D01*
X414290Y340026D01*
X413986Y340482D01*
X413150Y341317D01*
X412695Y341621D01*
X412466Y341667D01*
X412170Y341963D01*
Y343791D01*
X412073Y344278D01*
X411797Y344691D01*
X411384Y344967D01*
X410897Y345064D01*
X409738D01*
X408241Y346561D01*
X408299Y346850D01*
Y353578D01*
X408465Y353978D01*
Y354683D01*
X408195Y355334D01*
X407696Y355833D01*
X407045Y356102D01*
X406341D01*
X405689Y355833D01*
X405191Y355334D01*
X404921Y354683D01*
Y353978D01*
X405087Y353577D01*
Y351784D01*
X404587Y351577D01*
X404435Y351729D01*
X403857Y351969D01*
X403230D01*
X402651Y351729D01*
X402208Y351286D01*
X401968Y350707D01*
Y350080D01*
X402208Y349502D01*
X402439Y349271D01*
Y333013D01*
X402208Y332782D01*
X401968Y332203D01*
Y331576D01*
X402208Y330998D01*
X402439Y330767D01*
Y246399D01*
X402208Y246168D01*
X401968Y245589D01*
Y244962D01*
X402208Y244384D01*
X402439Y244152D01*
Y159785D01*
X402208Y159554D01*
X401968Y158975D01*
Y158348D01*
X402208Y157769D01*
X402439Y157538D01*
Y74409D01*
Y43371D01*
X399149Y40080D01*
X370809D01*
Y40423D01*
X370723Y40857D01*
X370477Y41225D01*
X370109Y41471D01*
X369675Y41557D01*
X368356D01*
X367922Y41471D01*
X367554Y41225D01*
X367309Y40857D01*
X367222Y40423D01*
Y37530D01*
X367309Y37096D01*
X367554Y36728D01*
X367922Y36482D01*
X368356Y36395D01*
X369675D01*
X370109Y36482D01*
X370477Y36728D01*
X370723Y37096D01*
X370809Y37530D01*
Y37872D01*
X399606D01*
X400029Y37957D01*
X400387Y38196D01*
X404324Y42133D01*
X404563Y42491D01*
X404647Y42913D01*
Y71091D01*
X404927Y71207D01*
X405147Y71252D01*
X405483Y71027D01*
X405905Y70943D01*
X408848D01*
X409003Y70647D01*
X409057Y70462D01*
X408741Y69989D01*
X408622Y69390D01*
X408741Y68790D01*
X409081Y68282D01*
Y67939D01*
X408741Y67430D01*
X408622Y66831D01*
X408741Y66231D01*
X409081Y65723D01*
Y65380D01*
X408741Y64871D01*
X408622Y64272D01*
X408741Y63672D01*
X408962Y63342D01*
X409042Y62992D01*
X408962Y62642D01*
X408741Y62312D01*
X408622Y61713D01*
X408741Y61113D01*
X409081Y60605D01*
Y60262D01*
X408741Y59753D01*
X408622Y59153D01*
X408741Y58554D01*
X408962Y58224D01*
X409042Y57874D01*
X408962Y57524D01*
X408741Y57194D01*
X408622Y56595D01*
X408741Y55995D01*
X409081Y55486D01*
Y55143D01*
X408741Y54635D01*
X408622Y54035D01*
X408741Y53436D01*
X409081Y52927D01*
Y52584D01*
X408741Y52076D01*
X408622Y51476D01*
X408741Y50877D01*
X409081Y50368D01*
X409589Y50029D01*
X410189Y49909D01*
X415207D01*
X415807Y50029D01*
X416316Y50368D01*
X416655Y50877D01*
X416775Y51476D01*
X416655Y52076D01*
X416316Y52584D01*
Y52927D01*
X416655Y53436D01*
X416775Y54035D01*
X416655Y54635D01*
X416418Y54991D01*
X416618Y55468D01*
X416639Y55491D01*
X442030D01*
X470923Y26597D01*
Y24130D01*
X471009Y23697D01*
X471255Y23329D01*
X471623Y23083D01*
X472057Y22997D01*
X473376D01*
X473810Y23083D01*
X474178Y23329D01*
X474424Y23697D01*
X474510Y24130D01*
Y27024D01*
X474424Y27458D01*
X474178Y27826D01*
X473810Y28072D01*
X473376Y28158D01*
X472484D01*
X443267Y57375D01*
X443006Y57550D01*
X443088Y58047D01*
X443089Y58050D01*
X449415D01*
X470923Y36541D01*
Y34075D01*
X471009Y33641D01*
X471255Y33273D01*
X471623Y33027D01*
X472057Y32941D01*
X473376D01*
X473810Y33027D01*
X474178Y33273D01*
X474424Y33641D01*
X474510Y34075D01*
Y36968D01*
X474424Y37402D01*
X474178Y37770D01*
X473810Y38016D01*
X473376Y38102D01*
X472484D01*
X450653Y59934D01*
X450391Y60109D01*
X450473Y60606D01*
X450474Y60609D01*
X456800D01*
X470923Y46485D01*
Y44019D01*
X471009Y43585D01*
X471255Y43217D01*
X471623Y42971D01*
X472057Y42885D01*
X473376D01*
X473810Y42971D01*
X474178Y43217D01*
X474424Y43585D01*
X474510Y44019D01*
Y46913D01*
X474424Y47346D01*
X474178Y47714D01*
X473810Y47960D01*
X473376Y48046D01*
X472484D01*
X458038Y62493D01*
X457776Y62668D01*
X457858Y63165D01*
X457859Y63168D01*
X464185D01*
X470923Y56429D01*
Y53963D01*
X471009Y53529D01*
X471255Y53161D01*
X471623Y52915D01*
X472057Y52829D01*
X473376D01*
X473810Y52915D01*
X474178Y53161D01*
X474424Y53529D01*
X474510Y53963D01*
Y56857D01*
X474424Y57291D01*
X474178Y57658D01*
X473810Y57904D01*
X473376Y57991D01*
X472484D01*
X465423Y65052D01*
X465161Y65227D01*
X465243Y65724D01*
X465244Y65727D01*
X470923D01*
Y63907D01*
X471009Y63473D01*
X471255Y63105D01*
X471623Y62859D01*
X472057Y62773D01*
X473376D01*
X473810Y62859D01*
X474178Y63105D01*
X474424Y63473D01*
X474510Y63907D01*
Y66801D01*
X474424Y67235D01*
X474178Y67603D01*
X473810Y67848D01*
X473376Y67935D01*
X472057D01*
X472034Y67930D01*
X472011Y67935D01*
X468198D01*
X468197Y67937D01*
X468115Y68435D01*
X468376Y68609D01*
X472484Y72717D01*
X473376D01*
X473810Y72803D01*
X474178Y73049D01*
X474424Y73417D01*
X474510Y73851D01*
Y76745D01*
X474424Y77179D01*
X474178Y77547D01*
X473810Y77793D01*
X473376Y77879D01*
X472057D01*
X471623Y77793D01*
X471255Y77547D01*
X471009Y77179D01*
X470923Y76745D01*
Y74278D01*
X467138Y70494D01*
X416639D01*
X416618Y70516D01*
X416418Y70994D01*
X416655Y71349D01*
X416775Y71949D01*
X416655Y72549D01*
X416619Y72603D01*
X416886Y73103D01*
X417025D01*
X417562Y73210D01*
X418018Y73514D01*
X418710Y74206D01*
X419015Y74662D01*
X419122Y75200D01*
Y76378D01*
X419015Y76916D01*
X418710Y77371D01*
X417923Y78159D01*
X417467Y78463D01*
X416929Y78570D01*
X415528D01*
X415207Y78634D01*
X414397D01*
Y79646D01*
X414290Y80183D01*
X413986Y80639D01*
X413150Y81474D01*
X412695Y81779D01*
X412466Y81824D01*
X412170Y82120D01*
Y83948D01*
X412073Y84435D01*
X411797Y84848D01*
X411384Y85124D01*
X410897Y85221D01*
X409738D01*
X408241Y86718D01*
X408299Y87008D01*
Y137322D01*
X408400Y137361D01*
X408799Y137405D01*
X409081Y136983D01*
X409589Y136643D01*
X410189Y136523D01*
X415207D01*
X415807Y136643D01*
X416316Y136983D01*
X416318Y136987D01*
X420198D01*
X470923Y86262D01*
Y83795D01*
X471009Y83361D01*
X471255Y82994D01*
X471623Y82748D01*
X472057Y82661D01*
X473376D01*
X473810Y82748D01*
X474178Y82994D01*
X474424Y83361D01*
X474510Y83795D01*
Y86689D01*
X474424Y87123D01*
X474178Y87491D01*
X473810Y87737D01*
X473376Y87823D01*
X472484D01*
X421436Y138871D01*
X421175Y139046D01*
X421257Y139543D01*
X421258Y139546D01*
X427583D01*
X470923Y96206D01*
Y93739D01*
X471009Y93305D01*
X471255Y92938D01*
X471623Y92692D01*
X472057Y92606D01*
X473376D01*
X473810Y92692D01*
X474178Y92938D01*
X474424Y93305D01*
X474510Y93739D01*
Y96633D01*
X474424Y97067D01*
X474178Y97435D01*
X473810Y97681D01*
X473376Y97767D01*
X472484D01*
X428821Y141430D01*
X428560Y141605D01*
X428642Y142102D01*
X428643Y142105D01*
X434969D01*
X470923Y106150D01*
Y103684D01*
X471009Y103250D01*
X471255Y102882D01*
X471623Y102636D01*
X472057Y102550D01*
X473376D01*
X473810Y102636D01*
X474178Y102882D01*
X474424Y103250D01*
X474510Y103684D01*
Y106577D01*
X474424Y107011D01*
X474178Y107379D01*
X473810Y107625D01*
X473376Y107711D01*
X472484D01*
X436206Y143989D01*
X435945Y144164D01*
X436027Y144661D01*
X436028Y144664D01*
X452409D01*
X470923Y126150D01*
Y123684D01*
X471009Y123250D01*
X471255Y122882D01*
X471623Y122636D01*
X472056Y122550D01*
X473375D01*
X473809Y122636D01*
X474177Y122882D01*
X474423Y123250D01*
X474509Y123684D01*
Y126577D01*
X474423Y127011D01*
X474177Y127379D01*
X473809Y127625D01*
X473375Y127711D01*
X472484D01*
X453647Y146548D01*
X453385Y146723D01*
X453468Y147220D01*
X453469Y147223D01*
X459850D01*
X470923Y136150D01*
Y133684D01*
X471009Y133250D01*
X471255Y132882D01*
X471623Y132636D01*
X472056Y132550D01*
X473375D01*
X473809Y132636D01*
X474177Y132882D01*
X474423Y133250D01*
X474509Y133684D01*
Y136577D01*
X474423Y137011D01*
X474177Y137379D01*
X473809Y137625D01*
X473375Y137711D01*
X472484D01*
X461088Y149107D01*
X460826Y149282D01*
X460908Y149779D01*
X460910Y149782D01*
X467291D01*
X470923Y146150D01*
Y143684D01*
X471009Y143250D01*
X471255Y142882D01*
X471623Y142636D01*
X472056Y142550D01*
X473375D01*
X473809Y142636D01*
X474177Y142882D01*
X474423Y143250D01*
X474509Y143684D01*
Y146577D01*
X474423Y147011D01*
X474177Y147379D01*
X473809Y147625D01*
X473375Y147711D01*
X472484D01*
X468529Y151666D01*
X468267Y151841D01*
X468349Y152338D01*
X468351Y152341D01*
X471802D01*
X472224Y152425D01*
X472411Y152550D01*
X473375D01*
X473809Y152636D01*
X474177Y152882D01*
X474423Y153250D01*
X474509Y153684D01*
Y156577D01*
X474423Y157011D01*
X474177Y157379D01*
X473809Y157625D01*
X473375Y157711D01*
X472056D01*
X471623Y157625D01*
X471255Y157379D01*
X471009Y157011D01*
X470923Y156577D01*
Y154549D01*
X464979D01*
X464978Y154551D01*
X464896Y155049D01*
X465157Y155223D01*
X472484Y162550D01*
X473375D01*
X473809Y162636D01*
X474177Y162882D01*
X474423Y163250D01*
X474509Y163684D01*
Y166577D01*
X474423Y167011D01*
X474177Y167379D01*
X473809Y167625D01*
X473375Y167711D01*
X472056D01*
X471623Y167625D01*
X471255Y167379D01*
X471009Y167011D01*
X470923Y166577D01*
Y164111D01*
X463919Y157108D01*
X419885D01*
X419677Y157608D01*
X419839Y157769D01*
X420079Y158348D01*
Y158975D01*
X419839Y159554D01*
X419396Y159996D01*
X418817Y160236D01*
X418626Y160736D01*
X418710Y160820D01*
X419015Y161276D01*
X419122Y161814D01*
Y162992D01*
X419015Y163530D01*
X418710Y163986D01*
X417923Y164773D01*
X417467Y165077D01*
X416929Y165184D01*
X415528D01*
X415207Y165248D01*
X414397D01*
Y166260D01*
X414290Y166798D01*
X413986Y167253D01*
X413150Y168088D01*
X412695Y168393D01*
X412466Y168439D01*
X412170Y168734D01*
Y170562D01*
X412073Y171050D01*
X411797Y171463D01*
X411384Y171739D01*
X410897Y171835D01*
X409738D01*
X408299Y173275D01*
Y223936D01*
X408400Y223975D01*
X408799Y224020D01*
X409081Y223597D01*
X409589Y223257D01*
X410189Y223138D01*
X415207D01*
X415807Y223257D01*
X416316Y223597D01*
X416318Y223601D01*
X423472D01*
X470923Y176150D01*
Y173684D01*
X471009Y173250D01*
X471255Y172882D01*
X471623Y172636D01*
X472056Y172550D01*
X473375D01*
X473809Y172636D01*
X474177Y172882D01*
X474423Y173250D01*
X474509Y173684D01*
Y176577D01*
X474423Y177011D01*
X474177Y177379D01*
X473809Y177625D01*
X473375Y177711D01*
X472484D01*
X424710Y225485D01*
X424448Y225660D01*
X424531Y226157D01*
X424532Y226160D01*
X430913D01*
X470923Y186150D01*
Y183684D01*
X471009Y183250D01*
X471255Y182882D01*
X471623Y182636D01*
X472056Y182550D01*
X473375D01*
X473809Y182636D01*
X474177Y182882D01*
X474423Y183250D01*
X474509Y183684D01*
Y186577D01*
X474423Y187011D01*
X474177Y187379D01*
X473809Y187625D01*
X473375Y187711D01*
X472484D01*
X432151Y228044D01*
X431889Y228219D01*
X431972Y228716D01*
X431973Y228719D01*
X438354D01*
X470923Y196150D01*
Y193684D01*
X471009Y193250D01*
X471255Y192882D01*
X471623Y192636D01*
X472056Y192550D01*
X473375D01*
X473809Y192636D01*
X474177Y192882D01*
X474423Y193250D01*
X474509Y193684D01*
Y196577D01*
X474423Y197011D01*
X474177Y197379D01*
X473809Y197625D01*
X473375Y197711D01*
X472484D01*
X439592Y230603D01*
X439330Y230778D01*
X439412Y231275D01*
X439413Y231278D01*
X467683D01*
X470923Y228037D01*
Y225571D01*
X471009Y225137D01*
X471255Y224769D01*
X471623Y224523D01*
X472057Y224437D01*
X473376D01*
X473810Y224523D01*
X474178Y224769D01*
X474424Y225137D01*
X474510Y225571D01*
Y228465D01*
X474424Y228899D01*
X474178Y229266D01*
X473810Y229512D01*
X473376Y229598D01*
X472484D01*
X468920Y233162D01*
X468659Y233337D01*
X468741Y233835D01*
X468742Y233837D01*
X471421D01*
X471843Y233921D01*
X472202Y234160D01*
X472468Y234427D01*
X473376D01*
X473810Y234513D01*
X474178Y234759D01*
X474424Y235127D01*
X474510Y235561D01*
Y238455D01*
X474424Y238889D01*
X474178Y239257D01*
X473810Y239502D01*
X473376Y239589D01*
X472057D01*
X471623Y239502D01*
X471255Y239257D01*
X471009Y238889D01*
X470923Y238455D01*
Y236045D01*
X464608D01*
X464607Y236048D01*
X464525Y236545D01*
X464786Y236719D01*
X472484Y244417D01*
X473376D01*
X473810Y244503D01*
X474178Y244749D01*
X474424Y245117D01*
X474510Y245551D01*
Y248445D01*
X474424Y248879D01*
X474178Y249247D01*
X473810Y249493D01*
X473376Y249579D01*
X472057D01*
X471623Y249493D01*
X471255Y249247D01*
X471009Y248879D01*
X470923Y248445D01*
Y245978D01*
X463549Y238604D01*
X457177D01*
X457176Y238607D01*
X457094Y239104D01*
X457355Y239279D01*
X472484Y254407D01*
X473376D01*
X473810Y254494D01*
X474178Y254739D01*
X474424Y255107D01*
X474510Y255541D01*
Y258435D01*
X474424Y258869D01*
X474178Y259237D01*
X473810Y259483D01*
X473376Y259569D01*
X472057D01*
X471623Y259483D01*
X471255Y259237D01*
X471009Y258869D01*
X470923Y258435D01*
Y255968D01*
X456118Y241163D01*
X449746D01*
X449745Y241166D01*
X449663Y241663D01*
X449924Y241838D01*
X472484Y264398D01*
X473376D01*
X473810Y264484D01*
X474178Y264730D01*
X474424Y265097D01*
X474510Y265531D01*
Y268425D01*
X474424Y268859D01*
X474178Y269227D01*
X473810Y269473D01*
X473376Y269559D01*
X472057D01*
X471623Y269473D01*
X471255Y269227D01*
X471009Y268859D01*
X470923Y268425D01*
Y265959D01*
X448687Y243722D01*
X419885D01*
X419677Y244222D01*
X419839Y244384D01*
X420079Y244962D01*
Y245589D01*
X419839Y246168D01*
X419396Y246611D01*
X418817Y246850D01*
X418626Y247350D01*
X418710Y247435D01*
X419015Y247890D01*
X419122Y248428D01*
Y249606D01*
X419015Y250144D01*
X418710Y250600D01*
X417923Y251387D01*
X417467Y251692D01*
X416929Y251799D01*
X415528D01*
X415207Y251862D01*
X414397D01*
Y252874D01*
X414290Y253412D01*
X413986Y253868D01*
X413150Y254703D01*
X412695Y255007D01*
X412466Y255053D01*
X412170Y255348D01*
Y257177D01*
X412073Y257664D01*
X411797Y258077D01*
X411384Y258353D01*
X410897Y258450D01*
X409738D01*
X408204Y259984D01*
X408176Y260122D01*
X408098Y260240D01*
Y260292D01*
X408176Y260409D01*
X408299Y261024D01*
Y310550D01*
X408400Y310589D01*
X408799Y310634D01*
X409081Y310211D01*
X409589Y309871D01*
X410189Y309752D01*
X415207D01*
X415807Y309871D01*
X416316Y310211D01*
X416318Y310215D01*
X449129D01*
X470923Y288421D01*
Y285955D01*
X471009Y285521D01*
X471255Y285153D01*
X471623Y284907D01*
X472057Y284821D01*
X473376D01*
X473810Y284907D01*
X474178Y285153D01*
X474424Y285521D01*
X474510Y285955D01*
Y288848D01*
X474424Y289282D01*
X474178Y289650D01*
X473810Y289896D01*
X473376Y289982D01*
X472484D01*
X450367Y312100D01*
X450106Y312274D01*
X450188Y312771D01*
X450189Y312774D01*
X456570D01*
X470923Y298421D01*
Y295955D01*
X471009Y295521D01*
X471255Y295153D01*
X471623Y294907D01*
X472057Y294821D01*
X473376D01*
X473810Y294907D01*
X474178Y295153D01*
X474424Y295521D01*
X474510Y295955D01*
Y298848D01*
X474424Y299282D01*
X474178Y299650D01*
X473810Y299896D01*
X473376Y299982D01*
X472484D01*
X457808Y314658D01*
X457547Y314833D01*
X457629Y315331D01*
X457630Y315333D01*
X464011D01*
X470923Y308421D01*
Y305955D01*
X471009Y305521D01*
X471255Y305153D01*
X471623Y304907D01*
X472057Y304821D01*
X473376D01*
X473810Y304907D01*
X474178Y305153D01*
X474424Y305521D01*
X474510Y305955D01*
Y308848D01*
X474424Y309282D01*
X474178Y309650D01*
X473810Y309896D01*
X473376Y309982D01*
X472484D01*
X465249Y317218D01*
X464988Y317392D01*
X465070Y317889D01*
X465071Y317892D01*
X470923D01*
Y315955D01*
X471009Y315521D01*
X471255Y315153D01*
X471623Y314907D01*
X472057Y314821D01*
X473376D01*
X473810Y314907D01*
X474178Y315153D01*
X474424Y315521D01*
X474510Y315955D01*
Y318848D01*
X474424Y319282D01*
X474178Y319650D01*
X473810Y319896D01*
X473376Y319982D01*
X472366D01*
X472316Y320016D01*
X471894Y320100D01*
X468260D01*
X468259Y320103D01*
X468177Y320600D01*
X468438Y320775D01*
X472484Y324821D01*
X473376D01*
X473810Y324907D01*
X474178Y325153D01*
X474424Y325521D01*
X474510Y325955D01*
Y328848D01*
X474424Y329282D01*
X474178Y329650D01*
X473810Y329896D01*
X473376Y329982D01*
X472057D01*
X471623Y329896D01*
X471255Y329650D01*
X471009Y329282D01*
X470923Y328848D01*
Y326382D01*
X467200Y322659D01*
X460819D01*
X460818Y322662D01*
X460736Y323159D01*
X460997Y323334D01*
X472484Y334821D01*
X473376D01*
X473810Y334907D01*
X474178Y335153D01*
X474424Y335521D01*
X474510Y335955D01*
Y338848D01*
X474424Y339282D01*
X474178Y339650D01*
X473810Y339896D01*
X473376Y339982D01*
X472057D01*
X471623Y339896D01*
X471255Y339650D01*
X471009Y339282D01*
X470923Y338848D01*
Y336382D01*
X459759Y325218D01*
X453378D01*
X453377Y325221D01*
X453295Y325718D01*
X453556Y325893D01*
X472484Y344821D01*
X473376D01*
X473810Y344907D01*
X474178Y345153D01*
X474424Y345521D01*
X474510Y345955D01*
Y348848D01*
X474424Y349282D01*
X474178Y349650D01*
X473810Y349896D01*
X473376Y349982D01*
X472057D01*
X471623Y349896D01*
X471255Y349650D01*
X471009Y349282D01*
X470923Y348848D01*
Y346382D01*
X452318Y327777D01*
X445937D01*
X445936Y327780D01*
X445854Y328277D01*
X446115Y328452D01*
X472484Y354821D01*
X473376D01*
X473810Y354907D01*
X474178Y355153D01*
X474424Y355521D01*
X474510Y355955D01*
Y358848D01*
X474424Y359282D01*
X474178Y359650D01*
X473810Y359896D01*
X473376Y359982D01*
D02*
G37*
G36*
X172016Y333071D02*
X171291D01*
X170590Y332883D01*
X169961Y332520D01*
X169448Y332007D01*
X169085Y331379D01*
X168898Y330678D01*
Y330114D01*
X168531Y329748D01*
X167126D01*
Y330610D01*
X161221D01*
Y326476D01*
X167126D01*
Y327339D01*
X169029D01*
X169030Y327339D01*
X169490Y327431D01*
X169881Y327692D01*
X170176Y327986D01*
X170590Y327747D01*
X171291Y327559D01*
X172016D01*
X172717Y327747D01*
X173346Y328110D01*
X173859Y328623D01*
X174222Y329251D01*
X174409Y329952D01*
Y330678D01*
X174222Y331379D01*
X173859Y332007D01*
X173346Y332520D01*
X172717Y332883D01*
X172016Y333071D01*
D02*
G37*
G36*
X533365Y336543D02*
X532368D01*
X531404Y336285D01*
X530541Y335787D01*
X529836Y335081D01*
X529337Y334218D01*
X529079Y333255D01*
Y332257D01*
X529337Y331294D01*
X529470Y331063D01*
X527013Y328606D01*
X480258D01*
Y328848D01*
X480172Y329282D01*
X479926Y329650D01*
X479558Y329896D01*
X479124Y329982D01*
X477805D01*
X477371Y329896D01*
X477003Y329650D01*
X476757Y329282D01*
X476671Y328848D01*
Y325955D01*
X476757Y325521D01*
X477003Y325153D01*
X477371Y324907D01*
X477805Y324821D01*
X479124D01*
X479558Y324907D01*
X479926Y325153D01*
X480172Y325521D01*
X480258Y325955D01*
Y326197D01*
X527512D01*
X527512Y326197D01*
X527973Y326289D01*
X528363Y326550D01*
X531173Y329360D01*
X531404Y329227D01*
X532368Y328969D01*
X533365D01*
X534328Y329227D01*
X535192Y329725D01*
X535897Y330430D01*
X536395Y331294D01*
X536654Y332257D01*
Y333255D01*
X536395Y334218D01*
X535897Y335081D01*
X535192Y335787D01*
X534328Y336285D01*
X533365Y336543D01*
D02*
G37*
G36*
X157677Y330610D02*
X151772D01*
Y326476D01*
X157677D01*
Y330610D01*
D02*
G37*
G36*
X250689Y328965D02*
X249311D01*
X248735Y328851D01*
X248247Y328525D01*
X247920Y328036D01*
X247806Y327460D01*
Y321751D01*
X247838Y321588D01*
X245958Y319708D01*
X198484D01*
Y325157D01*
X183405D01*
Y322267D01*
X167126D01*
Y323130D01*
X161221D01*
Y318996D01*
X167126D01*
Y319859D01*
X183405D01*
Y316575D01*
X198484D01*
Y317300D01*
X246457D01*
X246457Y317300D01*
X246918Y317391D01*
X247308Y317652D01*
X249867Y320211D01*
X249890Y320246D01*
X250689D01*
X251265Y320361D01*
X251753Y320687D01*
X252080Y321176D01*
X252194Y321751D01*
Y327460D01*
X252080Y328036D01*
X251753Y328525D01*
X251265Y328851D01*
X250689Y328965D01*
D02*
G37*
G36*
X533365Y326543D02*
X532368D01*
X531404Y326285D01*
X530541Y325787D01*
X529836Y325081D01*
X529337Y324218D01*
X529079Y323254D01*
Y322257D01*
X529337Y321294D01*
X529470Y321063D01*
X527013Y318606D01*
X480258D01*
Y318848D01*
X480172Y319282D01*
X479926Y319650D01*
X479558Y319896D01*
X479124Y319982D01*
X477805D01*
X477371Y319896D01*
X477003Y319650D01*
X476757Y319282D01*
X476671Y318848D01*
Y315955D01*
X476757Y315521D01*
X477003Y315153D01*
X477371Y314907D01*
X477805Y314821D01*
X479124D01*
X479558Y314907D01*
X479926Y315153D01*
X480172Y315521D01*
X480258Y315955D01*
Y316197D01*
X527512D01*
X527512Y316197D01*
X527973Y316289D01*
X528363Y316550D01*
X531173Y319360D01*
X531404Y319227D01*
X532368Y318969D01*
X533365D01*
X534328Y319227D01*
X535192Y319725D01*
X535897Y320430D01*
X536395Y321294D01*
X536654Y322257D01*
Y323254D01*
X536395Y324218D01*
X535897Y325081D01*
X535192Y325787D01*
X534328Y326285D01*
X533365Y326543D01*
D02*
G37*
G36*
Y316543D02*
X532368D01*
X531404Y316285D01*
X530541Y315787D01*
X529836Y315081D01*
X529337Y314218D01*
X529079Y313254D01*
Y312257D01*
X529337Y311294D01*
X529470Y311063D01*
X527013Y308606D01*
X480258D01*
Y308848D01*
X480172Y309282D01*
X479926Y309650D01*
X479558Y309896D01*
X479124Y309982D01*
X477805D01*
X477371Y309896D01*
X477003Y309650D01*
X476757Y309282D01*
X476671Y308848D01*
Y305955D01*
X476757Y305521D01*
X477003Y305153D01*
X477371Y304907D01*
X477805Y304821D01*
X479124D01*
X479558Y304907D01*
X479926Y305153D01*
X480172Y305521D01*
X480258Y305955D01*
Y306197D01*
X527512D01*
X527512Y306197D01*
X527973Y306289D01*
X528363Y306550D01*
X531173Y309360D01*
X531404Y309227D01*
X532368Y308968D01*
X533365D01*
X534328Y309227D01*
X535192Y309725D01*
X535897Y310430D01*
X536395Y311294D01*
X536654Y312257D01*
Y313254D01*
X536395Y314218D01*
X535897Y315081D01*
X535192Y315787D01*
X534328Y316285D01*
X533365Y316543D01*
D02*
G37*
G36*
Y306543D02*
X532368D01*
X531404Y306285D01*
X530541Y305787D01*
X529836Y305081D01*
X529337Y304218D01*
X529079Y303255D01*
Y302257D01*
X529337Y301294D01*
X529470Y301063D01*
X527013Y298606D01*
X480258D01*
Y298848D01*
X480172Y299282D01*
X479926Y299650D01*
X479558Y299896D01*
X479124Y299982D01*
X477805D01*
X477371Y299896D01*
X477003Y299650D01*
X476757Y299282D01*
X476671Y298848D01*
Y295955D01*
X476757Y295521D01*
X477003Y295153D01*
X477371Y294907D01*
X477805Y294821D01*
X479124D01*
X479558Y294907D01*
X479926Y295153D01*
X480172Y295521D01*
X480258Y295955D01*
Y296197D01*
X527512D01*
X527512Y296197D01*
X527973Y296289D01*
X528363Y296550D01*
X531173Y299360D01*
X531404Y299227D01*
X532368Y298969D01*
X533365D01*
X534328Y299227D01*
X535192Y299725D01*
X535897Y300430D01*
X536395Y301294D01*
X536654Y302257D01*
Y303255D01*
X536395Y304218D01*
X535897Y305081D01*
X535192Y305787D01*
X534328Y306285D01*
X533365Y306543D01*
D02*
G37*
G36*
Y296543D02*
X532368D01*
X531404Y296285D01*
X530541Y295787D01*
X529836Y295081D01*
X529337Y294218D01*
X529079Y293254D01*
Y292257D01*
X529337Y291294D01*
X529470Y291063D01*
X527013Y288606D01*
X480258D01*
Y288848D01*
X480172Y289282D01*
X479926Y289650D01*
X479558Y289896D01*
X479124Y289982D01*
X477805D01*
X477371Y289896D01*
X477003Y289650D01*
X476757Y289282D01*
X476671Y288848D01*
Y285955D01*
X476757Y285521D01*
X477003Y285153D01*
X477371Y284907D01*
X477805Y284821D01*
X479124D01*
X479558Y284907D01*
X479926Y285153D01*
X480172Y285521D01*
X480258Y285955D01*
Y286197D01*
X527512D01*
X527512Y286197D01*
X527973Y286289D01*
X528363Y286550D01*
X531173Y289360D01*
X531404Y289227D01*
X532368Y288968D01*
X533365D01*
X534328Y289227D01*
X535192Y289725D01*
X535897Y290430D01*
X536395Y291294D01*
X536654Y292257D01*
Y293254D01*
X536395Y294218D01*
X535897Y295081D01*
X535192Y295787D01*
X534328Y296285D01*
X533365Y296543D01*
D02*
G37*
G36*
Y286543D02*
X532368D01*
X531404Y286285D01*
X530541Y285787D01*
X529836Y285081D01*
X529337Y284218D01*
X529079Y283255D01*
Y282257D01*
X529337Y281294D01*
X529836Y280430D01*
X530541Y279725D01*
X531404Y279227D01*
X532368Y278969D01*
X533365D01*
X534328Y279227D01*
X535192Y279725D01*
X535897Y280430D01*
X536395Y281294D01*
X536654Y282257D01*
Y283255D01*
X536395Y284218D01*
X535897Y285081D01*
X535192Y285787D01*
X534328Y286285D01*
X533365Y286543D01*
D02*
G37*
G36*
Y276543D02*
X532368D01*
X531404Y276285D01*
X530541Y275787D01*
X529836Y275081D01*
X529337Y274218D01*
X529079Y273254D01*
Y272257D01*
X529337Y271294D01*
X529470Y271063D01*
X526590Y268183D01*
X480258D01*
Y268425D01*
X480172Y268859D01*
X479926Y269227D01*
X479558Y269473D01*
X479124Y269559D01*
X477805D01*
X477371Y269473D01*
X477003Y269227D01*
X476757Y268859D01*
X476671Y268425D01*
Y265531D01*
X476757Y265097D01*
X477003Y264730D01*
X477371Y264484D01*
X477805Y264398D01*
X479124D01*
X479558Y264484D01*
X479926Y264730D01*
X480172Y265097D01*
X480258Y265531D01*
Y265774D01*
X527088D01*
X527089Y265774D01*
X527549Y265866D01*
X527940Y266127D01*
X531173Y269360D01*
X531404Y269227D01*
X532368Y268969D01*
X533365D01*
X534328Y269227D01*
X535192Y269725D01*
X535897Y270430D01*
X536395Y271294D01*
X536654Y272257D01*
Y273254D01*
X536395Y274218D01*
X535897Y275081D01*
X535192Y275787D01*
X534328Y276285D01*
X533365Y276543D01*
D02*
G37*
G36*
Y266543D02*
X532368D01*
X531404Y266285D01*
X530541Y265787D01*
X529836Y265081D01*
X529337Y264218D01*
X529079Y263254D01*
Y262257D01*
X529337Y261294D01*
X529470Y261063D01*
X526600Y258192D01*
X480258D01*
Y258435D01*
X480172Y258869D01*
X479926Y259237D01*
X479558Y259483D01*
X479124Y259569D01*
X477805D01*
X477371Y259483D01*
X477003Y259237D01*
X476757Y258869D01*
X476671Y258435D01*
Y255541D01*
X476757Y255107D01*
X477003Y254739D01*
X477371Y254494D01*
X477805Y254407D01*
X479124D01*
X479558Y254494D01*
X479926Y254739D01*
X480172Y255107D01*
X480258Y255541D01*
Y255784D01*
X527098D01*
X527098Y255784D01*
X527559Y255876D01*
X527950Y256137D01*
X531173Y259360D01*
X531404Y259227D01*
X532368Y258968D01*
X533365D01*
X534328Y259227D01*
X535192Y259725D01*
X535897Y260430D01*
X536395Y261294D01*
X536654Y262257D01*
Y263254D01*
X536395Y264218D01*
X535897Y265081D01*
X535192Y265787D01*
X534328Y266285D01*
X533365Y266543D01*
D02*
G37*
G36*
Y256543D02*
X532368D01*
X531404Y256285D01*
X530541Y255787D01*
X529836Y255081D01*
X529337Y254218D01*
X529079Y253255D01*
Y252257D01*
X529337Y251294D01*
X529470Y251063D01*
X526609Y248202D01*
X480258D01*
Y248445D01*
X480172Y248879D01*
X479926Y249247D01*
X479558Y249493D01*
X479124Y249579D01*
X477805D01*
X477371Y249493D01*
X477003Y249247D01*
X476757Y248879D01*
X476671Y248445D01*
Y245551D01*
X476757Y245117D01*
X477003Y244749D01*
X477371Y244503D01*
X477805Y244417D01*
X479124D01*
X479558Y244503D01*
X479926Y244749D01*
X480172Y245117D01*
X480258Y245551D01*
Y245794D01*
X527108D01*
X527108Y245794D01*
X527569Y245885D01*
X527960Y246146D01*
X531173Y249360D01*
X531404Y249227D01*
X532368Y248969D01*
X533365D01*
X534328Y249227D01*
X535192Y249725D01*
X535897Y250430D01*
X536395Y251294D01*
X536654Y252257D01*
Y253255D01*
X536395Y254218D01*
X535897Y255081D01*
X535192Y255787D01*
X534328Y256285D01*
X533365Y256543D01*
D02*
G37*
G36*
Y246543D02*
X532368D01*
X531404Y246285D01*
X530541Y245787D01*
X529836Y245081D01*
X529337Y244218D01*
X529079Y243254D01*
Y242257D01*
X529337Y241294D01*
X529470Y241063D01*
X526619Y238212D01*
X480258D01*
Y238455D01*
X480172Y238889D01*
X479926Y239257D01*
X479558Y239502D01*
X479124Y239589D01*
X477805D01*
X477371Y239502D01*
X477003Y239257D01*
X476757Y238889D01*
X476671Y238455D01*
Y235561D01*
X476757Y235127D01*
X477003Y234759D01*
X477371Y234513D01*
X477805Y234427D01*
X479124D01*
X479558Y234513D01*
X479926Y234759D01*
X480172Y235127D01*
X480258Y235561D01*
Y235804D01*
X527118D01*
X527118Y235804D01*
X527579Y235895D01*
X527970Y236156D01*
X531173Y239360D01*
X531404Y239227D01*
X532368Y238968D01*
X533365D01*
X534328Y239227D01*
X535192Y239725D01*
X535897Y240430D01*
X536395Y241294D01*
X536654Y242257D01*
Y243254D01*
X536395Y244218D01*
X535897Y245081D01*
X535192Y245787D01*
X534328Y246285D01*
X533365Y246543D01*
D02*
G37*
G36*
Y236543D02*
X532368D01*
X531404Y236285D01*
X530541Y235787D01*
X529836Y235081D01*
X529337Y234218D01*
X529079Y233255D01*
Y232257D01*
X529337Y231294D01*
X529470Y231063D01*
X526629Y228222D01*
X480258D01*
Y228465D01*
X480172Y228899D01*
X479926Y229266D01*
X479558Y229512D01*
X479124Y229598D01*
X477805D01*
X477371Y229512D01*
X477003Y229266D01*
X476757Y228899D01*
X476671Y228465D01*
Y225571D01*
X476757Y225137D01*
X477003Y224769D01*
X477371Y224523D01*
X477805Y224437D01*
X479124D01*
X479558Y224523D01*
X479926Y224769D01*
X480172Y225137D01*
X480258Y225571D01*
Y225814D01*
X527128D01*
X527128Y225814D01*
X527589Y225905D01*
X527980Y226166D01*
X531173Y229360D01*
X531404Y229227D01*
X532368Y228969D01*
X533365D01*
X534328Y229227D01*
X535192Y229725D01*
X535897Y230430D01*
X536395Y231294D01*
X536654Y232257D01*
Y233255D01*
X536395Y234218D01*
X535897Y235081D01*
X535192Y235787D01*
X534328Y236285D01*
X533365Y236543D01*
D02*
G37*
G36*
Y214535D02*
X532368D01*
X531404Y214277D01*
X530541Y213779D01*
X529836Y213073D01*
X529337Y212210D01*
X529079Y211247D01*
Y210249D01*
X529337Y209286D01*
X529836Y208422D01*
X530541Y207717D01*
X531404Y207219D01*
X532368Y206961D01*
X533365D01*
X534328Y207219D01*
X535192Y207717D01*
X535897Y208422D01*
X536395Y209286D01*
X536654Y210249D01*
Y211247D01*
X536395Y212210D01*
X535897Y213073D01*
X535192Y213779D01*
X534328Y214277D01*
X533365Y214535D01*
D02*
G37*
G36*
Y204535D02*
X532368D01*
X531404Y204277D01*
X530541Y203779D01*
X529836Y203074D01*
X529337Y202210D01*
X529079Y201247D01*
Y200249D01*
X529337Y199286D01*
X529470Y199055D01*
X526750Y196335D01*
X480258D01*
Y196577D01*
X480171Y197011D01*
X479925Y197379D01*
X479557Y197625D01*
X479123Y197711D01*
X477805D01*
X477371Y197625D01*
X477003Y197379D01*
X476757Y197011D01*
X476671Y196577D01*
Y193684D01*
X476757Y193250D01*
X477003Y192882D01*
X477371Y192636D01*
X477805Y192550D01*
X479123D01*
X479557Y192636D01*
X479925Y192882D01*
X480171Y193250D01*
X480258Y193684D01*
Y193926D01*
X527249D01*
X527249Y193926D01*
X527709Y194018D01*
X528100Y194279D01*
X531173Y197352D01*
X531404Y197219D01*
X532368Y196961D01*
X533365D01*
X534328Y197219D01*
X535192Y197717D01*
X535897Y198423D01*
X536395Y199286D01*
X536654Y200249D01*
Y201247D01*
X536395Y202210D01*
X535897Y203074D01*
X535192Y203779D01*
X534328Y204277D01*
X533365Y204535D01*
D02*
G37*
G36*
Y194535D02*
X532368D01*
X531404Y194277D01*
X530541Y193779D01*
X529836Y193074D01*
X529337Y192210D01*
X529079Y191247D01*
Y190249D01*
X529337Y189286D01*
X529470Y189055D01*
X526750Y186335D01*
X480258D01*
Y186577D01*
X480171Y187011D01*
X479925Y187379D01*
X479557Y187625D01*
X479123Y187711D01*
X477805D01*
X477371Y187625D01*
X477003Y187379D01*
X476757Y187011D01*
X476671Y186577D01*
Y183684D01*
X476757Y183250D01*
X477003Y182882D01*
X477371Y182636D01*
X477805Y182550D01*
X479123D01*
X479557Y182636D01*
X479925Y182882D01*
X480171Y183250D01*
X480258Y183684D01*
Y183926D01*
X527249D01*
X527249Y183926D01*
X527709Y184018D01*
X528100Y184279D01*
X531173Y187352D01*
X531404Y187219D01*
X532368Y186961D01*
X533365D01*
X534328Y187219D01*
X535192Y187717D01*
X535897Y188423D01*
X536395Y189286D01*
X536654Y190249D01*
Y191247D01*
X536395Y192210D01*
X535897Y193074D01*
X535192Y193779D01*
X534328Y194277D01*
X533365Y194535D01*
D02*
G37*
G36*
Y184535D02*
X532368D01*
X531404Y184277D01*
X530541Y183779D01*
X529836Y183074D01*
X529337Y182210D01*
X529079Y181247D01*
Y180249D01*
X529337Y179286D01*
X529470Y179055D01*
X526750Y176335D01*
X480258D01*
Y176577D01*
X480171Y177011D01*
X479925Y177379D01*
X479557Y177625D01*
X479123Y177711D01*
X477805D01*
X477371Y177625D01*
X477003Y177379D01*
X476757Y177011D01*
X476671Y176577D01*
Y173684D01*
X476757Y173250D01*
X477003Y172882D01*
X477371Y172636D01*
X477805Y172550D01*
X479123D01*
X479557Y172636D01*
X479925Y172882D01*
X480171Y173250D01*
X480258Y173684D01*
Y173926D01*
X527249D01*
X527249Y173926D01*
X527709Y174018D01*
X528100Y174279D01*
X531173Y177352D01*
X531404Y177219D01*
X532368Y176961D01*
X533365D01*
X534328Y177219D01*
X535192Y177717D01*
X535897Y178422D01*
X536395Y179286D01*
X536654Y180249D01*
Y181247D01*
X536395Y182210D01*
X535897Y183074D01*
X535192Y183779D01*
X534328Y184277D01*
X533365Y184535D01*
D02*
G37*
G36*
Y174535D02*
X532368D01*
X531404Y174277D01*
X530541Y173779D01*
X529836Y173074D01*
X529337Y172210D01*
X529079Y171247D01*
Y170249D01*
X529337Y169286D01*
X529470Y169055D01*
X526750Y166335D01*
X480258D01*
Y166577D01*
X480171Y167011D01*
X479925Y167379D01*
X479557Y167625D01*
X479123Y167711D01*
X477805D01*
X477371Y167625D01*
X477003Y167379D01*
X476757Y167011D01*
X476671Y166577D01*
Y163684D01*
X476757Y163250D01*
X477003Y162882D01*
X477371Y162636D01*
X477805Y162550D01*
X479123D01*
X479557Y162636D01*
X479925Y162882D01*
X480171Y163250D01*
X480258Y163684D01*
Y163926D01*
X527249D01*
X527249Y163926D01*
X527709Y164018D01*
X528100Y164279D01*
X531173Y167352D01*
X531404Y167219D01*
X532368Y166961D01*
X533365D01*
X534328Y167219D01*
X535192Y167717D01*
X535897Y168422D01*
X536395Y169286D01*
X536654Y170249D01*
Y171247D01*
X536395Y172210D01*
X535897Y173074D01*
X535192Y173779D01*
X534328Y174277D01*
X533365Y174535D01*
D02*
G37*
G36*
Y164535D02*
X532368D01*
X531404Y164277D01*
X530541Y163779D01*
X529836Y163074D01*
X529337Y162210D01*
X529079Y161247D01*
Y160249D01*
X529337Y159286D01*
X529470Y159055D01*
X526750Y156335D01*
X480258D01*
Y156577D01*
X480171Y157011D01*
X479925Y157379D01*
X479557Y157625D01*
X479123Y157711D01*
X477805D01*
X477371Y157625D01*
X477003Y157379D01*
X476757Y157011D01*
X476671Y156577D01*
Y153684D01*
X476757Y153250D01*
X477003Y152882D01*
X477371Y152636D01*
X477805Y152550D01*
X479123D01*
X479557Y152636D01*
X479925Y152882D01*
X480171Y153250D01*
X480258Y153684D01*
Y153926D01*
X527249D01*
X527249Y153926D01*
X527709Y154018D01*
X528100Y154279D01*
X531173Y157352D01*
X531404Y157219D01*
X532368Y156961D01*
X533365D01*
X534328Y157219D01*
X535192Y157717D01*
X535897Y158423D01*
X536395Y159286D01*
X536654Y160249D01*
Y161247D01*
X536395Y162210D01*
X535897Y163074D01*
X535192Y163779D01*
X534328Y164277D01*
X533365Y164535D01*
D02*
G37*
G36*
Y154535D02*
X532368D01*
X531404Y154277D01*
X530541Y153779D01*
X529836Y153074D01*
X529337Y152210D01*
X529079Y151247D01*
Y150249D01*
X529337Y149286D01*
X529470Y149055D01*
X526750Y146335D01*
X480258D01*
Y146577D01*
X480171Y147011D01*
X479925Y147379D01*
X479557Y147625D01*
X479123Y147711D01*
X477805D01*
X477371Y147625D01*
X477003Y147379D01*
X476757Y147011D01*
X476671Y146577D01*
Y143684D01*
X476757Y143250D01*
X477003Y142882D01*
X477371Y142636D01*
X477805Y142550D01*
X479123D01*
X479557Y142636D01*
X479925Y142882D01*
X480171Y143250D01*
X480258Y143684D01*
Y143926D01*
X527249D01*
X527249Y143926D01*
X527709Y144018D01*
X528100Y144279D01*
X531173Y147352D01*
X531404Y147219D01*
X532368Y146961D01*
X533365D01*
X534328Y147219D01*
X535192Y147717D01*
X535897Y148423D01*
X536395Y149286D01*
X536654Y150249D01*
Y151247D01*
X536395Y152210D01*
X535897Y153074D01*
X535192Y153779D01*
X534328Y154277D01*
X533365Y154535D01*
D02*
G37*
G36*
Y144535D02*
X532368D01*
X531404Y144277D01*
X530541Y143779D01*
X529836Y143074D01*
X529337Y142210D01*
X529079Y141247D01*
Y140249D01*
X529337Y139286D01*
X529470Y139055D01*
X526750Y136335D01*
X480258D01*
Y136577D01*
X480171Y137011D01*
X479925Y137379D01*
X479557Y137625D01*
X479123Y137711D01*
X477805D01*
X477371Y137625D01*
X477003Y137379D01*
X476757Y137011D01*
X476671Y136577D01*
Y133684D01*
X476757Y133250D01*
X477003Y132882D01*
X477371Y132636D01*
X477805Y132550D01*
X479123D01*
X479557Y132636D01*
X479925Y132882D01*
X480171Y133250D01*
X480258Y133684D01*
Y133926D01*
X527249D01*
X527249Y133926D01*
X527709Y134018D01*
X528100Y134279D01*
X531173Y137352D01*
X531404Y137219D01*
X532368Y136961D01*
X533365D01*
X534328Y137219D01*
X535192Y137717D01*
X535897Y138423D01*
X536395Y139286D01*
X536654Y140249D01*
Y141247D01*
X536395Y142210D01*
X535897Y143074D01*
X535192Y143779D01*
X534328Y144277D01*
X533365Y144535D01*
D02*
G37*
G36*
Y134535D02*
X532368D01*
X531404Y134277D01*
X530541Y133779D01*
X529836Y133074D01*
X529337Y132210D01*
X529079Y131247D01*
Y130249D01*
X529337Y129286D01*
X529470Y129055D01*
X526750Y126335D01*
X480258D01*
Y126577D01*
X480171Y127011D01*
X479925Y127379D01*
X479557Y127625D01*
X479123Y127711D01*
X477805D01*
X477371Y127625D01*
X477003Y127379D01*
X476757Y127011D01*
X476671Y126577D01*
Y123684D01*
X476757Y123250D01*
X477003Y122882D01*
X477371Y122636D01*
X477805Y122550D01*
X479123D01*
X479557Y122636D01*
X479925Y122882D01*
X480171Y123250D01*
X480258Y123684D01*
Y123926D01*
X527249D01*
X527249Y123926D01*
X527709Y124018D01*
X528100Y124279D01*
X531173Y127352D01*
X531404Y127219D01*
X532368Y126961D01*
X533365D01*
X534328Y127219D01*
X535192Y127717D01*
X535897Y128422D01*
X536395Y129286D01*
X536654Y130249D01*
Y131247D01*
X536395Y132210D01*
X535897Y133074D01*
X535192Y133779D01*
X534328Y134277D01*
X533365Y134535D01*
D02*
G37*
G36*
Y114535D02*
X532368D01*
X531404Y114277D01*
X530541Y113779D01*
X529836Y113074D01*
X529337Y112210D01*
X529079Y111247D01*
Y110249D01*
X529337Y109286D01*
X529470Y109055D01*
X526750Y106335D01*
X480258D01*
Y106577D01*
X480172Y107011D01*
X479926Y107379D01*
X479558Y107625D01*
X479124Y107711D01*
X477805D01*
X477371Y107625D01*
X477003Y107379D01*
X476757Y107011D01*
X476671Y106577D01*
Y103684D01*
X476757Y103250D01*
X477003Y102882D01*
X477371Y102636D01*
X477805Y102550D01*
X479124D01*
X479558Y102636D01*
X479926Y102882D01*
X480172Y103250D01*
X480258Y103684D01*
Y103926D01*
X527248D01*
X527249Y103926D01*
X527709Y104018D01*
X528100Y104279D01*
X531173Y107352D01*
X531404Y107219D01*
X532368Y106961D01*
X533365D01*
X534328Y107219D01*
X535192Y107717D01*
X535897Y108423D01*
X536395Y109286D01*
X536654Y110249D01*
Y111247D01*
X536395Y112210D01*
X535897Y113074D01*
X535192Y113779D01*
X534328Y114277D01*
X533365Y114535D01*
D02*
G37*
G36*
Y104535D02*
X532368D01*
X531404Y104277D01*
X530541Y103779D01*
X529836Y103074D01*
X529337Y102210D01*
X529079Y101247D01*
Y100249D01*
X529337Y99286D01*
X529470Y99055D01*
X526806Y96391D01*
X480258D01*
Y96633D01*
X480172Y97067D01*
X479926Y97435D01*
X479558Y97681D01*
X479124Y97767D01*
X477805D01*
X477371Y97681D01*
X477003Y97435D01*
X476757Y97067D01*
X476671Y96633D01*
Y93739D01*
X476757Y93305D01*
X477003Y92938D01*
X477371Y92692D01*
X477805Y92606D01*
X479124D01*
X479558Y92692D01*
X479926Y92938D01*
X480172Y93305D01*
X480258Y93739D01*
Y93982D01*
X527304D01*
X527304Y93982D01*
X527765Y94074D01*
X528156Y94335D01*
X531173Y97352D01*
X531404Y97219D01*
X532368Y96961D01*
X533365D01*
X534328Y97219D01*
X535192Y97717D01*
X535897Y98422D01*
X536395Y99286D01*
X536654Y100249D01*
Y101247D01*
X536395Y102210D01*
X535897Y103074D01*
X535192Y103779D01*
X534328Y104277D01*
X533365Y104535D01*
D02*
G37*
G36*
Y94535D02*
X532368D01*
X531404Y94277D01*
X530541Y93779D01*
X529836Y93074D01*
X529337Y92210D01*
X529079Y91247D01*
Y90249D01*
X529337Y89286D01*
X529470Y89055D01*
X526861Y86446D01*
X480258D01*
Y86689D01*
X480172Y87123D01*
X479926Y87491D01*
X479558Y87737D01*
X479124Y87823D01*
X477805D01*
X477371Y87737D01*
X477003Y87491D01*
X476757Y87123D01*
X476671Y86689D01*
Y83795D01*
X476757Y83361D01*
X477003Y82994D01*
X477371Y82748D01*
X477805Y82661D01*
X479124D01*
X479558Y82748D01*
X479926Y82994D01*
X480172Y83361D01*
X480258Y83795D01*
Y84038D01*
X527360D01*
X527360Y84038D01*
X527821Y84130D01*
X528212Y84391D01*
X531173Y87352D01*
X531404Y87219D01*
X532368Y86961D01*
X533365D01*
X534328Y87219D01*
X535192Y87717D01*
X535897Y88423D01*
X536395Y89286D01*
X536654Y90249D01*
Y91247D01*
X536395Y92210D01*
X535897Y93074D01*
X535192Y93779D01*
X534328Y94277D01*
X533365Y94535D01*
D02*
G37*
G36*
Y84535D02*
X532368D01*
X531404Y84277D01*
X530541Y83779D01*
X529836Y83074D01*
X529337Y82210D01*
X529079Y81247D01*
Y80249D01*
X529337Y79286D01*
X529470Y79055D01*
X526917Y76502D01*
X480258D01*
Y76745D01*
X480172Y77179D01*
X479926Y77547D01*
X479558Y77793D01*
X479124Y77879D01*
X477805D01*
X477371Y77793D01*
X477003Y77547D01*
X476757Y77179D01*
X476671Y76745D01*
Y73851D01*
X476757Y73417D01*
X477003Y73049D01*
X477371Y72803D01*
X477805Y72717D01*
X479124D01*
X479558Y72803D01*
X479926Y73049D01*
X480172Y73417D01*
X480258Y73851D01*
Y74094D01*
X527416D01*
X527416Y74094D01*
X527877Y74186D01*
X528268Y74446D01*
X531173Y77352D01*
X531404Y77219D01*
X532368Y76961D01*
X533365D01*
X534328Y77219D01*
X535192Y77717D01*
X535897Y78422D01*
X536395Y79286D01*
X536654Y80249D01*
Y81247D01*
X536395Y82210D01*
X535897Y83074D01*
X535192Y83779D01*
X534328Y84277D01*
X533365Y84535D01*
D02*
G37*
G36*
Y74535D02*
X532368D01*
X531404Y74277D01*
X530541Y73779D01*
X529836Y73074D01*
X529337Y72210D01*
X529079Y71247D01*
Y70249D01*
X529337Y69286D01*
X529470Y69055D01*
X526973Y66558D01*
X480258D01*
Y66801D01*
X480172Y67235D01*
X479926Y67603D01*
X479558Y67848D01*
X479124Y67935D01*
X477805D01*
X477371Y67848D01*
X477003Y67603D01*
X476757Y67235D01*
X476671Y66801D01*
Y63907D01*
X476757Y63473D01*
X477003Y63105D01*
X477371Y62859D01*
X477805Y62773D01*
X479124D01*
X479558Y62859D01*
X479926Y63105D01*
X480172Y63473D01*
X480258Y63907D01*
Y64150D01*
X527472D01*
X527472Y64150D01*
X527933Y64241D01*
X528324Y64502D01*
X531173Y67352D01*
X531404Y67219D01*
X532368Y66961D01*
X533365D01*
X534328Y67219D01*
X535192Y67717D01*
X535897Y68423D01*
X536395Y69286D01*
X536654Y70249D01*
Y71247D01*
X536395Y72210D01*
X535897Y73074D01*
X535192Y73779D01*
X534328Y74277D01*
X533365Y74535D01*
D02*
G37*
G36*
Y64535D02*
X532368D01*
X531404Y64277D01*
X530541Y63779D01*
X529836Y63074D01*
X529337Y62210D01*
X529079Y61247D01*
Y60249D01*
X529337Y59286D01*
X529470Y59055D01*
X527029Y56614D01*
X480258D01*
Y56857D01*
X480172Y57291D01*
X479926Y57658D01*
X479558Y57904D01*
X479124Y57991D01*
X477805D01*
X477371Y57904D01*
X477003Y57658D01*
X476757Y57291D01*
X476671Y56857D01*
Y53963D01*
X476757Y53529D01*
X477003Y53161D01*
X477371Y52915D01*
X477805Y52829D01*
X479124D01*
X479558Y52915D01*
X479926Y53161D01*
X480172Y53529D01*
X480258Y53963D01*
Y54206D01*
X527528D01*
X527528Y54206D01*
X527989Y54297D01*
X528379Y54558D01*
X531173Y57352D01*
X531404Y57219D01*
X532368Y56961D01*
X533365D01*
X534328Y57219D01*
X535192Y57717D01*
X535897Y58422D01*
X536395Y59286D01*
X536654Y60249D01*
Y61247D01*
X536395Y62210D01*
X535897Y63074D01*
X535192Y63779D01*
X534328Y64277D01*
X533365Y64535D01*
D02*
G37*
G36*
Y54535D02*
X532368D01*
X531404Y54277D01*
X530541Y53779D01*
X529836Y53074D01*
X529337Y52210D01*
X529079Y51247D01*
Y50249D01*
X529337Y49286D01*
X529470Y49055D01*
X527085Y46670D01*
X480258D01*
Y46913D01*
X480172Y47346D01*
X479926Y47714D01*
X479558Y47960D01*
X479124Y48046D01*
X477805D01*
X477371Y47960D01*
X477003Y47714D01*
X476757Y47346D01*
X476671Y46913D01*
Y44019D01*
X476757Y43585D01*
X477003Y43217D01*
X477371Y42971D01*
X477805Y42885D01*
X479124D01*
X479558Y42971D01*
X479926Y43217D01*
X480172Y43585D01*
X480258Y44019D01*
Y44261D01*
X527584D01*
X527584Y44261D01*
X528045Y44353D01*
X528435Y44614D01*
X531173Y47352D01*
X531404Y47219D01*
X532368Y46961D01*
X533365D01*
X534328Y47219D01*
X535192Y47717D01*
X535897Y48423D01*
X536395Y49286D01*
X536654Y50249D01*
Y51247D01*
X536395Y52210D01*
X535897Y53074D01*
X535192Y53779D01*
X534328Y54277D01*
X533365Y54535D01*
D02*
G37*
G36*
Y44535D02*
X532368D01*
X531404Y44277D01*
X530541Y43779D01*
X529836Y43074D01*
X529337Y42210D01*
X529079Y41247D01*
Y40249D01*
X529337Y39286D01*
X529470Y39055D01*
X527141Y36726D01*
X480258D01*
Y36968D01*
X480172Y37402D01*
X479926Y37770D01*
X479558Y38016D01*
X479124Y38102D01*
X477805D01*
X477371Y38016D01*
X477003Y37770D01*
X476757Y37402D01*
X476671Y36968D01*
Y34075D01*
X476757Y33641D01*
X477003Y33273D01*
X477371Y33027D01*
X477805Y32941D01*
X479124D01*
X479558Y33027D01*
X479926Y33273D01*
X480172Y33641D01*
X480258Y34075D01*
Y34317D01*
X527640D01*
X527640Y34317D01*
X528100Y34409D01*
X528491Y34670D01*
X531173Y37352D01*
X531404Y37219D01*
X532368Y36961D01*
X533365D01*
X534328Y37219D01*
X535192Y37717D01*
X535897Y38423D01*
X536395Y39286D01*
X536654Y40249D01*
Y41247D01*
X536395Y42210D01*
X535897Y43074D01*
X535192Y43779D01*
X534328Y44277D01*
X533365Y44535D01*
D02*
G37*
G36*
X120431Y112008D02*
X119726D01*
X119075Y111738D01*
X118577Y111240D01*
X118307Y110589D01*
Y109884D01*
X118577Y109233D01*
X119075Y108734D01*
X119726Y108465D01*
X120289D01*
X190558Y38196D01*
X190916Y37957D01*
X191339Y37872D01*
X361474D01*
Y37530D01*
X361561Y37096D01*
X361806Y36728D01*
X362174Y36482D01*
X362608Y36395D01*
X363927D01*
X364361Y36482D01*
X364729Y36728D01*
X364975Y37096D01*
X365061Y37530D01*
Y40423D01*
X364975Y40857D01*
X364729Y41225D01*
X364361Y41471D01*
X363927Y41557D01*
X362608D01*
X362174Y41471D01*
X361806Y41225D01*
X361561Y40857D01*
X361474Y40423D01*
Y40080D01*
X191796D01*
X121850Y110026D01*
Y110589D01*
X121581Y111240D01*
X121082Y111738D01*
X120431Y112008D01*
D02*
G37*
G36*
X533365Y34535D02*
X532368D01*
X531404Y34277D01*
X530541Y33779D01*
X529836Y33074D01*
X529337Y32210D01*
X529079Y31247D01*
Y30249D01*
X529337Y29286D01*
X529470Y29055D01*
X527197Y26782D01*
X480258D01*
Y27024D01*
X480172Y27458D01*
X479926Y27826D01*
X479558Y28072D01*
X479124Y28158D01*
X477805D01*
X477371Y28072D01*
X477003Y27826D01*
X476757Y27458D01*
X476671Y27024D01*
Y24130D01*
X476757Y23697D01*
X477003Y23329D01*
X477371Y23083D01*
X477805Y22997D01*
X479124D01*
X479558Y23083D01*
X479926Y23329D01*
X480172Y23697D01*
X480258Y24130D01*
Y24373D01*
X527695D01*
X527696Y24373D01*
X528156Y24465D01*
X528547Y24726D01*
X531173Y27352D01*
X531404Y27219D01*
X532368Y26961D01*
X533365D01*
X534328Y27219D01*
X535192Y27717D01*
X535897Y28422D01*
X536395Y29286D01*
X536654Y30249D01*
Y31247D01*
X536395Y32210D01*
X535897Y33074D01*
X535192Y33779D01*
X534328Y34277D01*
X533365Y34535D01*
D02*
G37*
G36*
Y24535D02*
X532368D01*
X531404Y24277D01*
X530541Y23779D01*
X529836Y23074D01*
X529337Y22210D01*
X529079Y21247D01*
Y20249D01*
X529337Y19286D01*
X529836Y18422D01*
X530541Y17717D01*
X531404Y17219D01*
X532368Y16961D01*
X533365D01*
X534328Y17219D01*
X535192Y17717D01*
X535897Y18422D01*
X536395Y19286D01*
X536654Y20249D01*
Y21247D01*
X536395Y22210D01*
X535897Y23074D01*
X535192Y23779D01*
X534328Y24277D01*
X533365Y24535D01*
D02*
G37*
%LPD*%
D10*
X145669Y384646D02*
X150787D01*
X68110Y138965D02*
X68493Y138583D01*
X68110Y133287D02*
Y138965D01*
X135039Y388976D02*
X140157D01*
X112205Y320866D02*
X129921Y338583D01*
X109055Y317717D02*
X111811Y320472D01*
X139764Y343307D02*
Y378740D01*
Y331496D02*
Y343307D01*
X-36636Y273980D02*
X-31518D01*
X-22857Y267681D02*
X-2634D01*
X-26006D02*
X-22857D01*
X-28762D02*
X-26006D01*
X-31518D02*
X-28762D01*
X-36636D02*
X-31518D01*
X-48976D02*
X-36636D01*
X-22857Y261382D02*
X7996D01*
X-26006D02*
X-22857D01*
X-28762D02*
X-26006D01*
X-31518D02*
X-28762D01*
X-36636D02*
X-31518D01*
X-48976D02*
X-36636D01*
X63346Y300787D02*
X109055D01*
X139764Y331496D01*
Y378740D02*
X145669Y384646D01*
X129921Y383858D02*
X135039Y388976D01*
X129921Y338583D02*
Y383858D01*
X63346Y317717D02*
X109055D01*
X116535Y379528D02*
X121653D01*
X71653Y334646D02*
X116535Y379528D01*
X63346Y334646D02*
X71653D01*
X85039Y138583D02*
X93681Y129941D01*
X80934D02*
X93681D01*
X213779Y9843D01*
X67815Y133091D02*
X67913D01*
X68110Y133287D01*
X68493Y138583D02*
X85039D01*
X213779Y9843D02*
X535039D01*
X544488Y19291D01*
Y109126D01*
X532866Y120748D02*
X544488Y109126D01*
X-26006Y273980D02*
X-22857D01*
X-6728D01*
X-28762D02*
X-26006D01*
X-6728D02*
X35433Y316142D01*
X-31518Y273980D02*
X-28762D01*
X-48976D02*
X-36636D01*
X35433Y316142D02*
Y322756D01*
X42126Y329449D02*
X42205D01*
X35433Y322756D02*
X42126Y329449D01*
X42205D02*
X44528Y331772D01*
Y334646D01*
X-2634Y267681D02*
X44528Y314843D01*
Y317717D01*
X7996Y261382D02*
X44528Y297913D01*
Y300787D01*
D16*
X190748Y321063D02*
X193307Y318504D01*
X246457D01*
X249016Y321063D01*
X250000Y322281D02*
Y324606D01*
X249016Y321296D02*
X250000Y322281D01*
X249016Y321063D02*
Y321296D01*
X191330Y346072D02*
X211015D01*
X230315Y326772D01*
X68493Y138583D02*
Y138976D01*
X64556Y142913D02*
X68493Y138976D01*
X30709Y135433D02*
X33847D01*
X34055Y135225D01*
X30709Y127953D02*
X34044D01*
X33708Y120472D02*
X34055Y120820D01*
X-48976Y113350D02*
X-6299Y113386D01*
X-48976Y113350D02*
X-48976D01*
X190945Y346457D02*
X191330Y346072D01*
X190748Y346654D02*
X190945Y346457D01*
X112205Y320866D02*
X118110D01*
X111811Y320472D02*
X112205Y320866D01*
X133917Y320925D02*
X148760D01*
X148819Y320984D01*
X133858Y320866D02*
X133917Y320925D01*
X148819Y320984D02*
X154646D01*
X154724Y321063D01*
X139764Y343307D02*
X143032Y346575D01*
X148819D01*
X154646D02*
X154724Y346654D01*
X148819Y346575D02*
X154646D01*
X164173Y321063D02*
X190748D01*
X164173Y346654D02*
X190748D01*
X169030Y328543D02*
X170801Y330315D01*
X171653D01*
X164173Y328543D02*
X169030D01*
X169817Y354134D02*
X171195Y355512D01*
X172047D01*
X164173Y354134D02*
X169817D01*
X80433Y129440D02*
X80934Y129941D01*
X80433Y123969D02*
Y129440D01*
X80433Y117946D02*
Y123969D01*
X80433Y123969D01*
X80433Y117946D02*
X80433Y117946D01*
X12323Y113386D02*
X27165D01*
X322047Y193307D02*
X394094D01*
X396850Y196063D01*
X318622Y187008D02*
X322047D01*
X318622Y193307D02*
X322047D01*
X318622Y199606D02*
X322047D01*
X318622Y205906D02*
X322047D01*
X275197Y185039D02*
Y203917D01*
X275157Y203957D02*
X275197Y203917D01*
X385039Y308858D02*
X385089Y308809D01*
X390108D02*
X390158Y308760D01*
X385089Y308809D02*
X390108D01*
X385190Y309009D02*
X385781D01*
X388090Y311319D02*
X390158D01*
X385039Y308858D02*
X385190Y309009D01*
X385781D02*
X388090Y311319D01*
X385039Y222244D02*
X385089Y222195D01*
X390108D02*
X390158Y222146D01*
X385089Y222195D02*
X390108D01*
X385190Y222395D02*
X385781D01*
X388090Y224705D02*
X390158D01*
X385039Y222244D02*
X385190Y222395D01*
X385781D02*
X388090Y224705D01*
X385039Y49016D02*
X385089Y48967D01*
X390108D02*
X390158Y48917D01*
X385089Y48967D02*
X390108D01*
X385190Y49166D02*
X385781D01*
X388090Y51476D02*
X390158D01*
X385039Y49016D02*
X385190Y49166D01*
X385781D02*
X388090Y51476D01*
X385781Y135781D02*
X388090Y138091D01*
X385039Y135630D02*
X385190Y135781D01*
X388090Y138091D02*
X390158D01*
X385190Y135781D02*
X385781D01*
X416083Y346398D02*
X416142Y346457D01*
X416083Y342579D02*
Y346398D01*
X416024Y342520D02*
X416083Y342579D01*
Y259784D02*
X416142Y259842D01*
X416083Y255965D02*
Y259784D01*
X416024Y255906D02*
X416083Y255965D01*
Y173169D02*
X416142Y173228D01*
X416083Y169350D02*
Y173169D01*
X416024Y169291D02*
X416083Y169350D01*
X386673Y342579D02*
Y346398D01*
Y342579D02*
X386732Y342520D01*
X386614Y346457D02*
X386673Y346398D01*
Y255964D02*
Y259784D01*
Y255964D02*
X386732Y255906D01*
X386614Y259842D02*
X386673Y259784D01*
X386280Y169350D02*
Y173169D01*
Y169350D02*
X386339Y169291D01*
X386221Y173228D02*
X386280Y173169D01*
X416024Y82677D02*
X416083Y82736D01*
Y86555D01*
X416142Y86614D01*
X386614D02*
X386673Y86555D01*
Y82736D02*
X386732Y82677D01*
X386673Y82736D02*
Y86555D01*
X412992Y308760D02*
X413041Y308711D01*
X418455D02*
X418504Y308661D01*
X413041Y308711D02*
X418455D01*
X412992Y222146D02*
X413041Y222096D01*
X418061D02*
X418110Y222047D01*
X413041Y222096D02*
X418061D01*
X412992Y48917D02*
X413041Y48868D01*
X418455D01*
X418504Y48819D01*
X412992Y135531D02*
X413041Y135482D01*
X418061D01*
X418110Y135433D01*
X2362Y113386D02*
X6575D01*
X385089Y135581D02*
X390108D01*
X390158Y135531D01*
X385039Y135630D02*
X385089Y135581D01*
X369016Y50394D02*
X372047D01*
X369016Y50394D02*
X369016Y50394D01*
Y56693D02*
X372047D01*
X369016Y56693D02*
X369016Y56693D01*
Y62992D02*
X372047D01*
X369016Y62992D02*
X369016Y62992D01*
Y69291D02*
X372047D01*
X369016Y69291D02*
X369016Y69291D01*
Y75590D02*
X372047D01*
X369016Y75590D02*
X369016Y75590D01*
X369016Y81890D02*
X369016Y81890D01*
X372047D01*
X369016Y171653D02*
X372047D01*
X369016Y171653D02*
X369016Y171653D01*
X369016Y165354D02*
X369016Y165354D01*
X372047D01*
X369016Y159055D02*
X369016Y159055D01*
X372047D01*
X369016Y152756D02*
X369016Y152756D01*
X372047D01*
X369016Y146457D02*
X369016Y146457D01*
X372047D01*
X369016Y140157D02*
X369016Y140157D01*
X372047D01*
X369016Y133858D02*
X369016Y133858D01*
X372047D01*
X369016Y127559D02*
X369016Y127559D01*
X372047D01*
X369016Y258268D02*
X372047D01*
X369016Y258268D02*
X369016Y258268D01*
X369016Y251969D02*
X369016Y251969D01*
X372047D01*
X369016Y245669D02*
X369016Y245669D01*
X372047D01*
X369016Y239370D02*
X369016Y239370D01*
X372047D01*
X369016Y233071D02*
X369016Y233071D01*
X372047D01*
X369016Y226772D02*
X369016Y226772D01*
X372047D01*
X369016Y220472D02*
X369016Y220473D01*
X372047D01*
X369016Y214173D02*
X369016Y214173D01*
X372047D01*
X369016Y300394D02*
X372047D01*
X369016Y300394D02*
X369016Y300394D01*
Y306693D02*
X372047D01*
X369016Y306693D02*
X369016Y306693D01*
Y312992D02*
X372047D01*
X369016Y312992D02*
X369016Y312992D01*
Y319291D02*
X372047D01*
X369016Y319291D02*
X369016Y319291D01*
Y325591D02*
X372047D01*
X369016Y325590D02*
X369016Y325591D01*
Y331890D02*
X372047D01*
X369016Y331890D02*
X369016Y331890D01*
Y338189D02*
X372047D01*
X369016Y338189D02*
X369016Y338189D01*
X369016Y344488D02*
X369016Y344488D01*
X372047D01*
X30709Y142913D02*
X64556D01*
X71653Y334646D02*
X87402D01*
X92520D02*
X101969D01*
X108268D02*
X112992D01*
X62587Y138976D02*
X62598Y138965D01*
X59449Y138976D02*
X62587D01*
X34044Y127953D02*
X34055Y127942D01*
X30709Y120472D02*
X33708D01*
X478150Y25577D02*
X527696D01*
X532866Y30748D01*
X527640Y35522D02*
X532866Y40748D01*
X478150Y35522D02*
X527640D01*
X478150Y45466D02*
X527584D01*
X532866Y50748D01*
X527528Y55410D02*
X532866Y60748D01*
X478150Y55410D02*
X527528D01*
X527472Y65354D02*
X532866Y70748D01*
X478150Y65354D02*
X527472D01*
X527416Y75298D02*
X532866Y80748D01*
X478150Y75298D02*
X527416D01*
X527360Y85242D02*
X532866Y90748D01*
X478150Y85242D02*
X527360D01*
X478150Y95186D02*
X527304D01*
X532866Y100748D01*
X478150Y105131D02*
X527249D01*
X532866Y110748D01*
X478149Y125130D02*
X527249D01*
X532866Y130748D01*
X478149Y135131D02*
X527249D01*
X532866Y140748D01*
X478149Y145131D02*
X527249D01*
X532866Y150748D01*
X478149Y155131D02*
X527249D01*
X532866Y160748D01*
X478149Y165130D02*
X527249D01*
X532866Y170748D01*
X527249Y175130D02*
X532866Y180748D01*
X478149Y175130D02*
X527249D01*
Y185131D02*
X532866Y190748D01*
X478149Y185131D02*
X527249D01*
X478149Y195131D02*
X527249D01*
X532866Y200748D01*
X478150Y227018D02*
X527128D01*
X532866Y232756D01*
X478150Y237008D02*
X527118D01*
X532866Y242756D01*
X527108Y246998D02*
X532866Y252756D01*
X478150Y246998D02*
X527108D01*
X478150Y256988D02*
X527098D01*
X532866Y262756D01*
X478150Y266978D02*
X527089D01*
X532866Y272756D01*
X527512Y287402D02*
X532866Y292756D01*
X478150Y287402D02*
X527512D01*
X478150Y297402D02*
X527512D01*
X532866Y302756D01*
X527512Y307402D02*
X532866Y312756D01*
X478150Y307402D02*
X527512D01*
Y317402D02*
X532866Y322756D01*
X478150Y317402D02*
X527512D01*
X478150Y327402D02*
X527512D01*
X532866Y332756D01*
X527512Y337402D02*
X532866Y342756D01*
X478150Y337402D02*
X527512D01*
X478150Y347402D02*
X527512D01*
X532866Y352756D01*
X478150Y357402D02*
X527512D01*
X532866Y362756D01*
D17*
X43040Y117409D02*
X45677D01*
X42332Y116702D02*
X43040Y117409D01*
X42070Y116702D02*
X42332D01*
X45677Y117409D02*
X46358Y118091D01*
D18*
X242422Y327461D02*
X264961Y350000D01*
X269961D01*
X240158Y324803D02*
Y326408D01*
X241211Y327461D01*
X242422D01*
X405905Y72047D02*
X412894D01*
X275709Y350394D02*
X391732Y350394D01*
X275590Y350394D02*
X275709D01*
X-6693Y112992D02*
X-5906D01*
X-3150Y110236D01*
X106299D01*
X120079D02*
X191339Y38976D01*
X363268D01*
X403543Y74409D02*
Y158661D01*
Y42913D02*
Y74409D01*
X399606Y38976D02*
X403543Y42913D01*
X369016Y38976D02*
X399606D01*
X390550Y247638D02*
X393701D01*
X390451Y247736D02*
X390550Y247638D01*
X393701D02*
X394882Y246457D01*
Y201181D02*
Y246457D01*
X403543Y331890D02*
Y350394D01*
Y158661D02*
Y245276D01*
X363268Y258150D02*
Y258268D01*
Y257480D02*
Y258150D01*
X363386Y258268D01*
X337402Y232283D02*
X363268Y258150D01*
X-48976Y229886D02*
X-29421D01*
X363268Y251850D02*
Y251969D01*
Y251181D02*
Y251850D01*
X363386Y251969D01*
X341339Y229921D02*
X363268Y251850D01*
Y245551D02*
Y245669D01*
Y244882D02*
Y245551D01*
X363386Y245669D01*
X343701Y225984D02*
X363268Y245551D01*
X-48976Y223587D02*
X-29421D01*
X363268Y239252D02*
Y239370D01*
Y238583D02*
Y239252D01*
X363386Y239370D01*
X347638Y223622D02*
X363268Y239252D01*
Y232559D02*
Y233071D01*
Y232283D02*
Y232559D01*
X363386Y232677D01*
X350394Y219685D02*
X363268Y232559D01*
X-48976Y217287D02*
X-29421D01*
X363268Y226654D02*
Y226772D01*
Y225984D02*
Y226654D01*
X363386Y226772D01*
X353902Y217287D02*
X363268Y226654D01*
Y220354D02*
Y220472D01*
Y219685D02*
Y220354D01*
X363386Y220472D01*
X356299Y213386D02*
X363268Y220354D01*
X-48976Y210988D02*
X-29421D01*
X363268Y213661D02*
Y214173D01*
Y213386D02*
Y213661D01*
X363386Y213779D01*
X360630Y211024D02*
X363268Y213661D01*
X-26006Y210988D02*
X-25971Y211024D01*
X360630D01*
X-27024Y219685D02*
X350394D01*
X-27024Y213386D02*
X356299D01*
X-29421Y210988D02*
X-27024Y213386D01*
X-26006Y217287D02*
X353902D01*
X-29421Y229886D02*
X-27024Y232283D01*
X-26006Y223587D02*
X-25971Y223622D01*
X347638D01*
X-25971Y229921D02*
X341339D01*
X-29421Y217287D02*
X-27024Y219685D01*
X-26006Y229886D02*
X-25971Y229921D01*
X-27024Y225984D02*
X343701D01*
X-27024Y232283D02*
X337402D01*
X-29421Y223587D02*
X-27024Y225984D01*
X363268Y344488D02*
X363386D01*
X322835D02*
X363268D01*
X-48976Y255083D02*
X-29421D01*
X363268Y338189D02*
X363386D01*
X319876D02*
X363268D01*
X363268Y331890D02*
X363386D01*
X319145D02*
X363268D01*
X-48976Y248783D02*
X-29421D01*
X-27024Y251181D01*
X238436D02*
X319145Y331890D01*
X-27024Y251181D02*
X238436D01*
X363268Y325590D02*
X363386D01*
X316186D02*
X363268D01*
X239414Y248819D02*
X316186Y325590D01*
X-25971Y248819D02*
X239414D01*
X-48976Y242484D02*
X-29421D01*
X315455Y319291D02*
X362992D01*
X-27024Y244882D02*
X241045D01*
X315455Y319291D01*
X363268Y312992D02*
X363386D01*
X312496D02*
X363268D01*
X363268Y306693D02*
X363386D01*
X311765D02*
X363268D01*
X-48976Y236185D02*
X-29421D01*
X363268Y300394D02*
Y300394D01*
Y299606D02*
Y300394D01*
X363386D01*
X308806D02*
X363268D01*
X244633Y236221D02*
X308806Y300394D01*
X-25971Y236221D02*
X244633D01*
X242024Y242520D02*
X312496Y312992D01*
X243654Y238583D02*
X311765Y306693D01*
X236805Y255118D02*
X319876Y338189D01*
X235827Y257480D02*
X322835Y344488D01*
X363268Y56693D02*
Y56693D01*
Y55905D02*
Y56693D01*
X-48976Y154295D02*
X-29421D01*
X363268Y56693D02*
X363386D01*
X333758D02*
X363268D01*
X233758Y156693D02*
X333758Y56693D01*
X332976Y62992D02*
X363268D01*
X-48976Y160594D02*
X-29421D01*
X330068Y69291D02*
X363268D01*
X-27024Y162992D02*
X236367D01*
X330068Y69291D01*
X-48976Y166894D02*
X-29421D01*
X326378Y81890D02*
X363268D01*
X286176Y127559D02*
X363268D01*
X-48976Y173193D02*
X-29421D01*
X283218Y133858D02*
X363268D01*
X363268Y146457D02*
Y146457D01*
Y145669D02*
Y146457D01*
X-48976Y179492D02*
X-29421D01*
X363268Y146457D02*
X363386D01*
X279528D02*
X363268D01*
X244094Y181890D02*
X279528Y146457D01*
X-27024Y181890D02*
X244094D01*
X274556Y159055D02*
X363268D01*
X-48976Y198390D02*
X-29421D01*
X-48976Y204689D02*
X-29421D01*
X270866Y171653D02*
X363268D01*
X232824Y200787D02*
X274556Y159055D01*
X234455Y204724D02*
X273825Y165354D01*
X231845Y198425D02*
X277515Y152756D01*
X235433Y207087D02*
X270866Y171653D01*
X241485Y175591D02*
X283218Y133858D01*
X243116Y179528D02*
X282486Y140157D01*
X240507Y173228D02*
X286176Y127559D01*
X232780Y154331D02*
X336717Y50394D01*
X235374Y160594D02*
X332976Y62992D01*
X237998Y166929D02*
X329337Y75590D01*
X238976Y169291D02*
X326378Y81890D01*
X-25971Y154331D02*
X232780D01*
X-26006Y154295D02*
X-25971Y154331D01*
X-27024Y156693D02*
X233758D01*
X-26006Y160594D02*
X235374D01*
X-25971Y166929D02*
X237998D01*
X-26006Y166894D02*
X-25971Y166929D01*
X-27024Y169291D02*
X238976D01*
X-26006Y173193D02*
X-25971Y173228D01*
X240507D01*
X-27024Y175591D02*
X241485D01*
X-25971Y179528D02*
X243116D01*
X-26006Y179492D02*
X-25971Y179528D01*
X-25971Y198425D02*
X231845D01*
X-26006Y198390D02*
X-25971Y198425D01*
X-27024Y200787D02*
X232824D01*
X-25971Y204724D02*
X234455D01*
X-26006Y204689D02*
X-25971Y204724D01*
X-27024Y207087D02*
X235433D01*
X-26006Y236185D02*
X-25971Y236221D01*
X-27024Y238583D02*
X243654D01*
X-26006Y242484D02*
X-25971Y242520D01*
X242024D01*
X-26006Y248783D02*
X-25971Y248819D01*
X-26006Y255083D02*
X-25971Y255118D01*
X236805D01*
X-27024Y257480D02*
X235827D01*
X313561Y185550D02*
X313867D01*
X312874Y186236D02*
X313561Y185550D01*
X316346Y183071D02*
X379921D01*
X312874Y186236D02*
Y187779D01*
X313867Y185550D02*
X316346Y183071D01*
X399606Y74410D02*
Y183071D01*
X378346Y190157D02*
X383071Y185433D01*
X315559Y190157D02*
X378346D01*
X383071Y164567D02*
Y185433D01*
X386516Y161122D02*
X390158D01*
X383071Y164567D02*
X386516Y161122D01*
X385089Y74459D02*
X390108D01*
X385039Y74410D02*
X385089Y74459D01*
X390108D02*
X390158Y74508D01*
X312874Y192536D02*
Y193307D01*
Y192536D02*
X313561Y191849D01*
X313867D01*
X315559Y190157D01*
X399606Y202756D02*
Y334646D01*
X392520Y202756D02*
X392520Y202756D01*
X390158Y202756D02*
X392520D01*
X390158Y196457D02*
X394882Y201181D01*
X316024Y196457D02*
X390158Y196457D01*
X311697Y188957D02*
X312874Y187779D01*
X305157Y188957D02*
X311697D01*
X305807Y193307D02*
X312874D01*
X305157Y193957D02*
X305807Y193307D01*
X305807Y199606D02*
X312874D01*
X305157Y198957D02*
X305807Y199606D01*
X311697Y203957D02*
X312874Y205134D01*
X305157Y203957D02*
X311697D01*
X312874Y205134D02*
Y205906D01*
Y199606D02*
X316024Y196457D01*
X312874Y205906D02*
X316024Y202756D01*
X390158Y202756D01*
X385187Y334498D02*
X390010D01*
X390158Y334350D01*
X385039Y334646D02*
X385187Y334498D01*
X403543Y74409D02*
X405905Y72047D01*
X403543Y245276D02*
Y331890D01*
X445335Y329232D02*
X472717Y356614D01*
X412992Y329232D02*
X445335D01*
X472717Y356614D02*
Y357402D01*
X412992Y326673D02*
X452776D01*
X472717Y346614D01*
Y347402D01*
X412992Y324114D02*
X460217D01*
X472717Y336614D01*
Y337402D01*
X412992Y321555D02*
X467658D01*
X472717Y326614D01*
Y327402D01*
X449587Y311319D02*
X472717Y288189D01*
X412992Y311319D02*
X449587D01*
X472717Y287402D02*
Y288189D01*
Y297402D02*
Y298189D01*
X412992Y313878D02*
X457027D01*
X472717Y298189D01*
X464468Y316437D02*
X472717Y308189D01*
X412992Y316437D02*
X464468D01*
X472717Y307402D02*
Y308189D01*
X471894Y318996D02*
X472717Y318173D01*
Y317402D02*
Y318173D01*
X412992Y318996D02*
X471894D01*
X472717Y266191D02*
Y266978D01*
X412992Y242618D02*
X449144D01*
X472717Y266191D01*
X456575Y240059D02*
X472717Y256201D01*
Y256988D01*
X412992Y240059D02*
X456575D01*
X464006Y237500D02*
X472717Y246211D01*
Y246998D01*
X412992Y237500D02*
X464006D01*
X471421Y234941D02*
X472717Y236236D01*
X412992Y234941D02*
X471421D01*
X472717Y236236D02*
Y237008D01*
X412992Y232382D02*
X468140D01*
X472717Y227805D01*
Y227018D02*
Y227805D01*
X423929Y224705D02*
X472716Y175918D01*
X412992Y224705D02*
X423929D01*
X472716Y175130D02*
Y175918D01*
X431370Y227264D02*
X472716Y185918D01*
X412992Y227264D02*
X431370D01*
X472716Y185131D02*
Y185918D01*
X412992Y229823D02*
X438811D01*
X472716Y195918D01*
Y195131D02*
Y195918D01*
X420656Y138091D02*
X472717Y86030D01*
Y85242D02*
Y86030D01*
X412992Y138091D02*
X420656D01*
X428041Y140650D02*
X472717Y95974D01*
X412992Y140650D02*
X428041D01*
X472717Y95186D02*
Y95974D01*
X435426Y143209D02*
X472717Y105918D01*
Y105131D02*
Y105918D01*
X412992Y143209D02*
X435426D01*
X452866Y145768D02*
X472716Y125918D01*
X412992Y145768D02*
X452866D01*
X472716Y125130D02*
Y125918D01*
X460307Y148327D02*
X472716Y135918D01*
Y135131D02*
Y135918D01*
X412992Y148327D02*
X460307D01*
X412992Y150886D02*
X467748D01*
X472716Y145918D01*
Y145131D02*
Y145918D01*
X464377Y156004D02*
X472716Y164343D01*
Y165130D01*
X412992Y156004D02*
X464377D01*
X472716Y154359D02*
Y155131D01*
X412992Y153445D02*
X471802D01*
X472716Y154359D01*
X472717Y25577D02*
Y26365D01*
X412992Y56595D02*
X442487D01*
X472717Y26365D01*
X412992Y59153D02*
X449872D01*
X472717Y36309D01*
Y35522D02*
Y36309D01*
X457257Y61713D02*
X472717Y46253D01*
X412992Y61713D02*
X457257D01*
X472717Y45466D02*
Y46253D01*
Y55410D02*
Y56197D01*
X412992Y64272D02*
X464642D01*
X472717Y56197D01*
X472011Y66831D02*
X472717Y66125D01*
X412992Y66831D02*
X472011D01*
X472717Y65354D02*
Y66125D01*
X467596Y69390D02*
X472717Y74511D01*
X412992Y69390D02*
X467596D01*
X472717Y74511D02*
Y75298D01*
X412894Y72047D02*
X412992Y71949D01*
X413041Y331841D02*
X418455D01*
X412992Y331791D02*
X413041Y331841D01*
X418455D02*
X418504Y331890D01*
X413041Y245226D02*
X418455D01*
X412992Y245177D02*
X413041Y245226D01*
X418455D02*
X418504Y245276D01*
X418455Y158612D02*
X418504Y158661D01*
X412992Y158563D02*
X413041Y158612D01*
X418455D01*
X386319Y140650D02*
X390158D01*
X374803Y126772D02*
Y129134D01*
X386319Y140650D01*
X372441Y47244D02*
X384350Y59153D01*
X390158D01*
X365630Y47244D02*
X372441D01*
X376870Y64272D02*
X390158D01*
X365630Y59842D02*
X372441D01*
X376870Y64272D01*
X379626Y71949D02*
X390158D01*
X372835Y78740D02*
X379626Y71949D01*
X375886Y69390D02*
X390158D01*
X372835Y72441D02*
X375886Y69390D01*
X372835Y53543D02*
X381004Y61713D01*
X390158D01*
X372835Y66142D02*
X373524Y66831D01*
X390158D01*
X365630Y124409D02*
X372441D01*
X374803Y126772D01*
X384941Y143209D02*
X390158D01*
X365630Y130709D02*
X372441D01*
X384941Y143209D01*
X372835Y137008D02*
X381594Y145768D01*
X390158D01*
X372835Y143307D02*
X377854Y148327D01*
X390158D01*
X372441Y168504D02*
X382382Y158563D01*
X390158D01*
X365630Y168504D02*
X372441D01*
X372835Y162205D02*
X379035Y156004D01*
X390158D01*
X372835Y155905D02*
X375295Y153445D01*
X365630Y155905D02*
X372835D01*
X375295Y153445D02*
X390158D01*
X372835Y149606D02*
X374114Y150886D01*
X390158D01*
X372835Y211024D02*
X375984Y214173D01*
Y216929D01*
X386319Y227264D02*
X390158D01*
X375984Y216929D02*
X386319Y227264D01*
X372835Y217323D02*
X385335Y229823D01*
X390158D01*
X372835Y223622D02*
X381594Y232382D01*
X390158D01*
X372835Y229921D02*
X377854Y234941D01*
X390158D01*
X365630Y236221D02*
X372835D01*
X374114Y237500D02*
X390158D01*
X372835Y236221D02*
X374114Y237500D01*
X382776Y245177D02*
X390158D01*
X372835Y255118D02*
X382776Y245177D01*
X372835Y248819D02*
X379035Y242618D01*
X390158D01*
X372835Y242520D02*
X375295Y240059D01*
X390158D01*
X375197Y302362D02*
X386665Y313830D01*
X390110D01*
X390158Y313878D01*
X375197Y299606D02*
Y302362D01*
X372835Y297244D02*
X375197Y299606D01*
X372835Y303543D02*
X385728Y316437D01*
X390158D01*
X372835Y341339D02*
X382382Y331791D01*
X390158D01*
X372835Y335039D02*
X378642Y329232D01*
X390158D01*
X372835Y309842D02*
X381988Y318996D01*
X390158D01*
X372835Y316142D02*
X378248Y321555D01*
X390158D01*
X374508Y324114D02*
X390158D01*
X372835Y322441D02*
X374508Y324114D01*
X374902Y326673D02*
X390158D01*
X372835Y328740D02*
X374902Y326673D01*
X336717Y50394D02*
X363268D01*
X363268Y50394D01*
Y49606D02*
Y50394D01*
Y49606D02*
X365630Y47244D01*
X363268Y55905D02*
X365630Y53543D01*
X372835D01*
X363268Y62992D02*
X363268Y62992D01*
Y62205D02*
Y62992D01*
Y62205D02*
X365630Y59842D01*
X363268Y69291D02*
X363268Y69291D01*
Y68504D02*
Y69291D01*
Y68504D02*
X365630Y66142D01*
X372835D01*
X329337Y75590D02*
X363268D01*
X363268Y75590D01*
Y74803D02*
Y75590D01*
Y74803D02*
X365630Y72441D01*
X372835D01*
X365630Y78740D02*
X372835D01*
X363268Y81102D02*
X365630Y78740D01*
X363268Y81102D02*
Y81890D01*
X363268Y81890D02*
X363268Y81890D01*
X363268Y171653D02*
X363268Y171653D01*
Y170866D02*
Y171653D01*
Y170866D02*
X365630Y168504D01*
Y162205D02*
X372835D01*
X363268Y164567D02*
X365630Y162205D01*
X363268Y164567D02*
Y165354D01*
X363268Y165354D02*
X363268Y165354D01*
X273825Y165354D02*
X363268D01*
X363268Y158268D02*
X365630Y155905D01*
X363268Y158268D02*
Y159055D01*
X365630Y149606D02*
X372835D01*
X363268Y151969D02*
X365630Y149606D01*
X363268Y151969D02*
Y152756D01*
X363268Y152756D02*
X363268Y152756D01*
X277515Y152756D02*
X363268D01*
X365630Y143307D02*
X372835D01*
X363268Y145669D02*
X365630Y143307D01*
Y137008D02*
X372835D01*
X363268Y139370D02*
X365630Y137008D01*
X363268Y139370D02*
Y140157D01*
X363268Y140157D02*
X363268Y140157D01*
X282486Y140157D02*
X363268D01*
X363268Y133071D02*
X365630Y130709D01*
X363268Y133071D02*
Y133858D01*
X363268Y133858D02*
X363268Y133858D01*
Y126772D02*
X365630Y124409D01*
X363268Y126772D02*
Y127559D01*
X363268Y127559D02*
X363268Y127559D01*
X363268Y258268D02*
X363268Y258268D01*
Y257480D02*
X365630Y255118D01*
X372835D01*
X365630Y248819D02*
X372835D01*
X363268Y251181D02*
X365630Y248819D01*
X363268Y251969D02*
X363268Y251969D01*
X365630Y242520D02*
X372835D01*
X363268Y244882D02*
X365630Y242520D01*
X363268Y245669D02*
X363268Y245669D01*
Y238583D02*
X365630Y236221D01*
X363268Y239370D02*
X363268Y239370D01*
X365630Y229921D02*
X372835D01*
X363268Y232283D02*
X365630Y229921D01*
X363268Y233071D02*
X363268Y233071D01*
X365630Y223622D02*
X372835D01*
X363268Y225984D02*
X365630Y223622D01*
X363268Y226772D02*
X363268Y226772D01*
X365630Y217323D02*
X372835D01*
X363268Y219685D02*
X365630Y217323D01*
X363268Y220473D02*
X363268Y220472D01*
X365630Y211024D02*
X372835D01*
X363268Y213386D02*
X365630Y211024D01*
X363268Y214173D02*
X363268Y214173D01*
Y299606D02*
X365630Y297244D01*
X372835D01*
X363268Y306693D02*
X363268Y306693D01*
Y305906D02*
Y306693D01*
Y305906D02*
X365630Y303543D01*
X372835D01*
X363268Y312992D02*
X363268Y312992D01*
Y312205D02*
Y312992D01*
Y312205D02*
X365630Y309842D01*
X372835D01*
X363268Y319291D02*
X363268Y319291D01*
Y318504D02*
Y319291D01*
Y318504D02*
X365630Y316142D01*
X372835D01*
X363268Y325591D02*
X363268Y325590D01*
Y324803D02*
Y325590D01*
Y324803D02*
X365630Y322441D01*
X372835D01*
X363268Y331890D02*
X363268Y331890D01*
Y331102D02*
Y331890D01*
Y331102D02*
X365630Y328740D01*
X372835D01*
X363268Y338189D02*
X363268Y338189D01*
Y337402D02*
Y338189D01*
Y337402D02*
X365630Y335039D01*
X372835D01*
X365630Y341339D02*
X372835D01*
X363268Y343701D02*
X365630Y341339D01*
X363268Y343701D02*
Y344488D01*
X363268Y344488D02*
X363268Y344488D01*
X-38618Y129098D02*
X-36220Y131496D01*
X40945D01*
X41732Y130709D02*
X50268D01*
X40945Y131496D02*
X41732Y130709D01*
X50760Y131201D02*
X54572D01*
X50268Y130709D02*
X50760Y131201D01*
X54572D02*
X54670Y131102D01*
X58130D01*
X26118Y117976D02*
X29528Y114567D01*
X62618D02*
X66142Y118091D01*
X29528Y114567D02*
X62618D01*
X26378Y120079D02*
X30709Y124409D01*
X-48547Y120079D02*
X26378D01*
X-48976Y119650D02*
X-48547Y120079D01*
X58130Y131102D02*
X66142Y123091D01*
X-29421Y154295D02*
X-27024Y156693D01*
X-29421Y160594D02*
X-27024Y162992D01*
X-29421Y166894D02*
X-27024Y169291D01*
X-29421Y173193D02*
X-27024Y175591D01*
X-29421Y179492D02*
X-27024Y181890D01*
X-29421Y198390D02*
X-27024Y200787D01*
X-29421Y204689D02*
X-27024Y207087D01*
X-29421Y236185D02*
X-27024Y238583D01*
X-29421Y242484D02*
X-27024Y244882D01*
X-29421Y255083D02*
X-27024Y257480D01*
X-27559Y117976D02*
X26118D01*
X30709Y124409D02*
X35838D01*
X39173Y121016D02*
X40551Y122394D01*
X40748D02*
X41444Y123091D01*
X39173Y120820D02*
Y121016D01*
X40551Y122394D02*
X40748D01*
X41444Y123091D02*
X46358D01*
X46890Y123622D01*
X50000D01*
X51968Y125591D02*
Y129134D01*
X50000Y123622D02*
X51968Y125591D01*
X51575Y133465D02*
X51968D01*
X-30709Y140157D02*
X44882D01*
X51575Y133465D01*
X-35433Y144882D02*
X-30709Y140157D01*
X-32283Y138583D02*
X36013D01*
X-38547Y144846D02*
X-32283Y138583D01*
X-48976Y144846D02*
X-38547D01*
X36013Y138583D02*
X39173Y135422D01*
X-48976Y129098D02*
X-38618D01*
X66142Y123091D02*
X67815D01*
X72733Y128091D02*
X74184Y129542D01*
Y129941D01*
X67815Y128091D02*
X72733D01*
X74122Y123091D02*
X75000Y123969D01*
X67815Y123091D02*
X74122D01*
X67815Y118091D02*
X74855D01*
X75000Y117946D01*
X66142Y118091D02*
X67815D01*
X35838Y124409D02*
X39173Y127745D01*
X39322Y128091D02*
X46358D01*
X39173Y127942D02*
X39322Y128091D01*
X39173Y127745D02*
Y127942D01*
X42551Y135225D02*
X44685Y133091D01*
X39173Y135225D02*
X42551D01*
X44685Y133091D02*
X46358D01*
X39173Y135225D02*
Y135422D01*
D19*
X363268Y38976D02*
D03*
X369016D02*
D03*
X80433Y123969D02*
D03*
X74685D02*
D03*
X80433Y117946D02*
D03*
X74685D02*
D03*
X33740Y135225D02*
D03*
X39488D02*
D03*
X33740Y127942D02*
D03*
X39488D02*
D03*
X33740Y120820D02*
D03*
X39488D02*
D03*
X363268Y127559D02*
D03*
X369016D02*
D03*
X363268Y146457D02*
D03*
X369016D02*
D03*
X363268Y133858D02*
D03*
X369016D02*
D03*
X363268Y140157D02*
D03*
X369016D02*
D03*
X363268Y171653D02*
D03*
X369016D02*
D03*
X363268Y159055D02*
D03*
X369016D02*
D03*
X363268Y152756D02*
D03*
X369016D02*
D03*
X363268Y165354D02*
D03*
X369016D02*
D03*
X275709Y350000D02*
D03*
X269961D02*
D03*
X363268Y344488D02*
D03*
X369016D02*
D03*
X363268Y338189D02*
D03*
X369016D02*
D03*
X363268Y331890D02*
D03*
X369016D02*
D03*
X312874Y199606D02*
D03*
X318622D02*
D03*
X363268Y325590D02*
D03*
X369016D02*
D03*
X312874Y193307D02*
D03*
X318622D02*
D03*
X363268Y319291D02*
D03*
X369016D02*
D03*
X312874Y187008D02*
D03*
X318622D02*
D03*
X363268Y312992D02*
D03*
X369016D02*
D03*
X363268Y306693D02*
D03*
X369016D02*
D03*
X363268Y300394D02*
D03*
X369016D02*
D03*
X363268Y258268D02*
D03*
X369016D02*
D03*
X363268Y251969D02*
D03*
X369016D02*
D03*
X363268Y245669D02*
D03*
X369016D02*
D03*
X363268Y239370D02*
D03*
X369016D02*
D03*
X363268Y233071D02*
D03*
X369016D02*
D03*
X363268Y226772D02*
D03*
X369016D02*
D03*
X363268Y220472D02*
D03*
X369016D02*
D03*
X363268Y214173D02*
D03*
X369016D02*
D03*
X363268Y81890D02*
D03*
X369016D02*
D03*
X363268Y75590D02*
D03*
X369016D02*
D03*
X363268Y69291D02*
D03*
X369016D02*
D03*
X363268Y62992D02*
D03*
X369016D02*
D03*
X363268Y56693D02*
D03*
X369016D02*
D03*
X363268Y50394D02*
D03*
X369016D02*
D03*
X472717Y25577D02*
D03*
X478465D02*
D03*
X472717Y35522D02*
D03*
X478465D02*
D03*
X472717Y45466D02*
D03*
X478465D02*
D03*
X472717Y55410D02*
D03*
X478465D02*
D03*
X472717Y65354D02*
D03*
X478465D02*
D03*
X472717Y75298D02*
D03*
X478465D02*
D03*
X472717Y85242D02*
D03*
X478465D02*
D03*
X472717Y95186D02*
D03*
X478465D02*
D03*
X472717Y105131D02*
D03*
X478465D02*
D03*
X472716Y125130D02*
D03*
X478464D02*
D03*
X472716Y135131D02*
D03*
X478464D02*
D03*
X472716Y145131D02*
D03*
X478464D02*
D03*
X472716Y155131D02*
D03*
X478464D02*
D03*
X472716Y165130D02*
D03*
X478464D02*
D03*
X472716Y175130D02*
D03*
X478464D02*
D03*
X472716Y185131D02*
D03*
X478464D02*
D03*
X472716Y195131D02*
D03*
X478464D02*
D03*
X472717Y227018D02*
D03*
X478465D02*
D03*
X472717Y237008D02*
D03*
X478465D02*
D03*
X472717Y246998D02*
D03*
X478465D02*
D03*
X472717Y256988D02*
D03*
X478465D02*
D03*
X472717Y266978D02*
D03*
X478465D02*
D03*
X472717Y287402D02*
D03*
X478465D02*
D03*
X472717Y297402D02*
D03*
X478465D02*
D03*
X472717Y307402D02*
D03*
X478465D02*
D03*
X472717Y317402D02*
D03*
X478465D02*
D03*
X472717Y327402D02*
D03*
X478465D02*
D03*
X472717Y337402D02*
D03*
X478465D02*
D03*
X472717Y347402D02*
D03*
X478465D02*
D03*
X472717Y357402D02*
D03*
X478465D02*
D03*
X312874Y205906D02*
D03*
X318622D02*
D03*
X12323Y113386D02*
D03*
X6575D02*
D03*
D20*
X390451Y77067D02*
D03*
Y250295D02*
D03*
Y163681D02*
D03*
Y336910D02*
D03*
D21*
Y74508D02*
D03*
Y71949D02*
D03*
Y69390D02*
D03*
Y66831D02*
D03*
Y64272D02*
D03*
Y61713D02*
D03*
Y59153D02*
D03*
Y56595D02*
D03*
Y54035D02*
D03*
Y51476D02*
D03*
Y48917D02*
D03*
X412698D02*
D03*
Y51476D02*
D03*
Y54035D02*
D03*
Y56595D02*
D03*
Y59153D02*
D03*
Y61713D02*
D03*
Y64272D02*
D03*
Y66831D02*
D03*
Y69390D02*
D03*
Y71949D02*
D03*
Y74508D02*
D03*
Y77067D02*
D03*
X390451Y247736D02*
D03*
Y245177D02*
D03*
Y242618D02*
D03*
Y240059D02*
D03*
Y237500D02*
D03*
Y234941D02*
D03*
Y232382D02*
D03*
Y229823D02*
D03*
Y227264D02*
D03*
Y224705D02*
D03*
Y222146D02*
D03*
X412698D02*
D03*
Y224705D02*
D03*
Y227264D02*
D03*
Y229823D02*
D03*
Y232382D02*
D03*
Y234941D02*
D03*
Y237500D02*
D03*
Y240059D02*
D03*
Y242618D02*
D03*
Y245177D02*
D03*
Y247736D02*
D03*
Y250295D02*
D03*
X390451Y161122D02*
D03*
Y158563D02*
D03*
Y156004D02*
D03*
Y153445D02*
D03*
Y150886D02*
D03*
Y148327D02*
D03*
Y145768D02*
D03*
Y143209D02*
D03*
Y140650D02*
D03*
Y138091D02*
D03*
Y135531D02*
D03*
X412698D02*
D03*
Y138091D02*
D03*
Y140650D02*
D03*
Y143209D02*
D03*
Y145768D02*
D03*
Y148327D02*
D03*
Y150886D02*
D03*
Y153445D02*
D03*
Y156004D02*
D03*
Y158563D02*
D03*
Y161122D02*
D03*
Y163681D02*
D03*
X390451Y334350D02*
D03*
Y331791D02*
D03*
Y329232D02*
D03*
Y326673D02*
D03*
Y324114D02*
D03*
Y321555D02*
D03*
Y318996D02*
D03*
Y316437D02*
D03*
Y313878D02*
D03*
Y311319D02*
D03*
Y308760D02*
D03*
X412698D02*
D03*
Y311319D02*
D03*
Y313878D02*
D03*
Y316437D02*
D03*
Y318996D02*
D03*
Y321555D02*
D03*
Y324114D02*
D03*
Y326673D02*
D03*
Y329232D02*
D03*
Y331791D02*
D03*
Y334350D02*
D03*
Y336910D02*
D03*
D22*
X230315Y348622D02*
D03*
X240158D02*
D03*
X250000D02*
D03*
X230315Y324606D02*
D03*
X240158D02*
D03*
X250000D02*
D03*
D23*
X68386Y138965D02*
D03*
X62323D02*
D03*
X409961Y255906D02*
D03*
X416024D02*
D03*
X392795Y255906D02*
D03*
X386732D02*
D03*
X409961Y342520D02*
D03*
X416024D02*
D03*
X392795Y342520D02*
D03*
X386732D02*
D03*
X409961Y82677D02*
D03*
X416024D02*
D03*
X392795Y82677D02*
D03*
X386732D02*
D03*
X409961Y169291D02*
D03*
X416024D02*
D03*
X392402Y169291D02*
D03*
X386339D02*
D03*
D24*
X190945Y346457D02*
D03*
Y320866D02*
D03*
D25*
X164173Y321063D02*
D03*
Y324803D02*
D03*
Y328543D02*
D03*
X154724D02*
D03*
Y321063D02*
D03*
X164173Y346654D02*
D03*
Y350394D02*
D03*
Y354134D02*
D03*
X154724D02*
D03*
Y346654D02*
D03*
D26*
X305157Y203957D02*
D03*
Y198957D02*
D03*
Y193957D02*
D03*
Y188957D02*
D03*
X275157D02*
D03*
Y193957D02*
D03*
Y198957D02*
D03*
Y203957D02*
D03*
D27*
X80934Y129941D02*
D03*
X74184D02*
D03*
D28*
X148819Y320984D02*
D03*
Y327047D02*
D03*
Y346575D02*
D03*
Y352638D02*
D03*
D29*
X46358Y133091D02*
D03*
Y128091D02*
D03*
Y123091D02*
D03*
Y118091D02*
D03*
X67815Y133091D02*
D03*
Y128091D02*
D03*
Y123091D02*
D03*
Y118091D02*
D03*
D30*
X92520Y334646D02*
D03*
X87402D02*
D03*
D31*
X63346D02*
D03*
X44528D02*
D03*
X63346Y317717D02*
D03*
X44528D02*
D03*
X63346Y300787D02*
D03*
X44528D02*
D03*
D32*
X108268Y334646D02*
D03*
X101969D02*
D03*
D33*
X-48976Y280315D02*
D03*
Y277166D02*
D03*
Y274016D02*
D03*
Y270866D02*
D03*
Y267716D02*
D03*
Y264567D02*
D03*
Y261417D02*
D03*
Y258268D02*
D03*
Y255118D02*
D03*
Y251968D02*
D03*
Y248819D02*
D03*
Y245669D02*
D03*
Y242520D02*
D03*
Y239370D02*
D03*
Y236220D02*
D03*
Y233071D02*
D03*
Y229921D02*
D03*
Y226772D02*
D03*
Y223622D02*
D03*
Y220472D02*
D03*
Y217323D02*
D03*
Y214173D02*
D03*
Y211024D02*
D03*
Y207874D02*
D03*
Y204725D02*
D03*
Y201575D02*
D03*
Y198425D02*
D03*
Y182677D02*
D03*
Y179528D02*
D03*
Y176378D02*
D03*
Y173228D02*
D03*
Y170079D02*
D03*
Y166929D02*
D03*
Y163779D02*
D03*
Y160630D02*
D03*
Y157480D02*
D03*
Y154331D02*
D03*
Y151181D02*
D03*
Y148031D02*
D03*
Y144882D02*
D03*
Y141732D02*
D03*
Y138583D02*
D03*
Y135433D02*
D03*
Y132283D02*
D03*
Y129134D02*
D03*
Y125984D02*
D03*
Y122835D02*
D03*
Y119685D02*
D03*
Y116535D02*
D03*
Y113386D02*
D03*
D51*
X172047Y355512D02*
D03*
X171653Y330315D02*
D03*
X-6299Y113386D02*
D03*
D52*
X240158Y346457D02*
X240158D01*
X244882Y341732D01*
X252362D01*
X264961Y354331D01*
X391732Y354331D01*
X230315Y348622D02*
Y384646D01*
X250000Y348819D02*
Y388976D01*
X406693Y346850D02*
Y354331D01*
X406693Y354331D02*
X406693Y354331D01*
Y261024D02*
Y346122D01*
X396850Y346850D02*
Y384646D01*
Y88189D02*
Y174075D01*
Y196063D02*
Y260236D01*
Y174075D02*
Y196063D01*
X406693Y87008D02*
X406693Y259508D01*
X396850Y260236D02*
Y346850D01*
D53*
X412992Y336910D02*
Y339488D01*
Y250295D02*
Y252874D01*
Y163681D02*
Y166260D01*
Y77067D02*
Y79646D01*
X390158Y336910D02*
Y339567D01*
Y250295D02*
Y252953D01*
Y163681D02*
Y166713D01*
Y77067D02*
Y79724D01*
X406693Y172894D02*
X409961Y169626D01*
X406693Y172894D02*
Y174016D01*
Y259508D02*
X409961Y256240D01*
Y255906D02*
Y256240D01*
X406693Y259508D02*
Y261024D01*
Y346122D02*
X409961Y342854D01*
Y342520D02*
Y342854D01*
X406693Y346122D02*
Y346850D01*
X412157Y340323D02*
X412992Y339488D01*
X411822Y340323D02*
X412157D01*
X409961Y342185D02*
Y342520D01*
Y342185D02*
X411822Y340323D01*
X417025Y334350D02*
X417717Y335042D01*
X412992Y334350D02*
X417025D01*
X417717Y335042D02*
Y336221D01*
X416929Y337008D02*
X417717Y336221D01*
X413091Y337008D02*
X416929D01*
X412992Y336910D02*
X413091Y337008D01*
X412157Y253709D02*
X412992Y252874D01*
X411822Y253709D02*
X412157D01*
X409961Y255571D02*
Y255906D01*
Y255571D02*
X411822Y253709D01*
X417025Y247736D02*
X417717Y248428D01*
X412992Y247736D02*
X417025D01*
X417717Y248428D02*
Y249606D01*
X416929Y250394D02*
X417717Y249606D01*
X413091Y250394D02*
X416929D01*
X412992Y250295D02*
X413091Y250394D01*
X409961Y169291D02*
Y169626D01*
X412157Y167095D02*
X412992Y166260D01*
X411822Y167095D02*
X412157D01*
X409961Y168957D02*
Y169291D01*
Y168957D02*
X411822Y167095D01*
X417025Y161122D02*
X417717Y161814D01*
X412992Y161122D02*
X417025D01*
X417717Y161814D02*
Y162992D01*
X416929Y163779D02*
X417717Y162992D01*
X413091Y163779D02*
X416929D01*
X412992Y163681D02*
X413091Y163779D01*
X412992Y77067D02*
X413091Y77165D01*
X416929D01*
X417717Y76378D01*
Y75200D02*
Y76378D01*
X412992Y74508D02*
X417025D01*
X417717Y75200D01*
X409961Y82343D02*
X411822Y80481D01*
X409961Y82343D02*
Y82677D01*
X411822Y80481D02*
X412157D01*
X412992Y79646D01*
X406693Y87008D02*
Y87795D01*
Y86280D02*
Y87008D01*
X409961Y82677D02*
Y83012D01*
X406693Y86280D02*
X409961Y83012D01*
X392795Y83012D02*
X396850Y87067D01*
Y88189D01*
X392795Y82677D02*
Y83012D01*
X392402Y169626D02*
X396850Y174075D01*
X392402Y169291D02*
Y169626D01*
X392795Y256240D02*
X396791Y260236D01*
X392795Y255906D02*
Y256240D01*
X396791Y260236D02*
X396850D01*
X392795Y342854D02*
X396791Y346850D01*
X392795Y342520D02*
Y342854D01*
X396791Y346850D02*
X396850D01*
X390158Y79724D02*
X391968Y81535D01*
X391988D01*
X392795Y82342D01*
Y82677D01*
X392402Y168957D02*
Y169291D01*
X390158Y166713D02*
X392402Y168957D01*
X390158Y252953D02*
X391968Y254764D01*
X392795Y255571D02*
Y255906D01*
X391968Y254764D02*
X391988D01*
X392795Y255571D01*
X391968Y341378D02*
X391988D01*
X392795Y342185D01*
Y342520D01*
X390158Y339567D02*
X391968Y341378D01*
D54*
X532866Y210748D02*
D03*
Y200748D02*
D03*
Y190748D02*
D03*
Y180748D02*
D03*
Y170748D02*
D03*
Y160748D02*
D03*
Y150748D02*
D03*
Y140748D02*
D03*
Y130748D02*
D03*
Y120748D02*
D03*
Y110748D02*
D03*
Y100748D02*
D03*
Y90748D02*
D03*
Y80748D02*
D03*
Y70748D02*
D03*
Y60748D02*
D03*
Y50748D02*
D03*
Y40748D02*
D03*
Y30748D02*
D03*
Y20748D02*
D03*
X522866Y210748D02*
D03*
Y200748D02*
D03*
Y190748D02*
D03*
Y180748D02*
D03*
Y170748D02*
D03*
Y160748D02*
D03*
Y150748D02*
D03*
Y140748D02*
D03*
Y130748D02*
D03*
Y120748D02*
D03*
Y110748D02*
D03*
Y100748D02*
D03*
Y90748D02*
D03*
Y80748D02*
D03*
Y70748D02*
D03*
Y60748D02*
D03*
Y50748D02*
D03*
Y40748D02*
D03*
Y30748D02*
D03*
Y20748D02*
D03*
X532866Y372756D02*
D03*
Y362756D02*
D03*
Y352756D02*
D03*
Y342756D02*
D03*
Y332756D02*
D03*
Y322756D02*
D03*
Y312756D02*
D03*
Y302756D02*
D03*
Y292756D02*
D03*
Y282756D02*
D03*
Y272756D02*
D03*
Y262756D02*
D03*
Y252756D02*
D03*
Y242756D02*
D03*
Y232756D02*
D03*
X522866Y372756D02*
D03*
Y362756D02*
D03*
Y352756D02*
D03*
Y342756D02*
D03*
Y332756D02*
D03*
Y322756D02*
D03*
Y312756D02*
D03*
Y302756D02*
D03*
Y292756D02*
D03*
Y282756D02*
D03*
Y272756D02*
D03*
Y262756D02*
D03*
Y252756D02*
D03*
Y242756D02*
D03*
Y232756D02*
D03*
D55*
X230315Y384646D02*
D03*
X250000Y388976D02*
D03*
X106299Y110236D02*
D03*
X120079D02*
D03*
X391732Y354331D02*
D03*
X406693D02*
D03*
X396850Y384646D02*
D03*
X2362Y113386D02*
D03*
X30709Y142913D02*
D03*
X-40551Y201575D02*
D03*
Y207874D02*
D03*
Y214173D02*
D03*
Y220472D02*
D03*
Y226772D02*
D03*
Y233071D02*
D03*
Y239370D02*
D03*
Y245669D02*
D03*
Y251969D02*
D03*
Y257874D02*
D03*
Y264567D02*
D03*
Y270866D02*
D03*
Y277165D02*
D03*
Y280315D02*
D03*
Y116535D02*
D03*
Y182677D02*
D03*
Y176378D02*
D03*
Y170079D02*
D03*
Y163779D02*
D03*
Y157480D02*
D03*
Y151181D02*
D03*
Y132283D02*
D03*
Y141339D02*
D03*
X150787Y384646D02*
D03*
X148329Y384610D02*
D03*
X145669Y384646D02*
D03*
X135039Y388976D02*
D03*
X137699Y388941D02*
D03*
X140157Y388976D02*
D03*
X121653Y379528D02*
D03*
X119195Y379492D02*
D03*
X116535Y379528D02*
D03*
X59449Y138976D02*
D03*
X42070Y116702D02*
D03*
X30709Y127953D02*
D03*
Y135433D02*
D03*
Y120472D02*
D03*
X51968Y129134D02*
D03*
Y133465D02*
D03*
X-35433Y144882D02*
D03*
X-27559Y117976D02*
D03*
X-26006Y154295D02*
D03*
Y160594D02*
D03*
Y166894D02*
D03*
Y173193D02*
D03*
Y179492D02*
D03*
Y198390D02*
D03*
Y204689D02*
D03*
Y210988D02*
D03*
Y217287D02*
D03*
Y223587D02*
D03*
Y229886D02*
D03*
Y236185D02*
D03*
Y242484D02*
D03*
Y248783D02*
D03*
Y255083D02*
D03*
Y261382D02*
D03*
X-28762D02*
D03*
X-31518D02*
D03*
X-33977Y261346D02*
D03*
X-36636Y261382D02*
D03*
X-22857D02*
D03*
X-26006Y267681D02*
D03*
X-28762D02*
D03*
X-31518D02*
D03*
X-33977Y267646D02*
D03*
X-36636Y267681D02*
D03*
X-22857D02*
D03*
Y273980D02*
D03*
X-36636D02*
D03*
X-33977Y273945D02*
D03*
X-31518Y273980D02*
D03*
X-28762D02*
D03*
X-26006D02*
D03*
D56*
X391732Y350394D02*
D03*
X403543D02*
D03*
X118110Y320866D02*
D03*
X133858D02*
D03*
X27165Y113386D02*
D03*
X322047Y187008D02*
D03*
Y193307D02*
D03*
Y199606D02*
D03*
Y205906D02*
D03*
X275197Y185039D02*
D03*
X399606Y183071D02*
D03*
X379921D02*
D03*
X399606Y74410D02*
D03*
X385039D02*
D03*
X399606Y202756D02*
D03*
X392520D02*
D03*
X399606Y334646D02*
D03*
X385039D02*
D03*
X403543Y245276D02*
D03*
Y158661D02*
D03*
Y331890D02*
D03*
X385039Y308858D02*
D03*
Y222244D02*
D03*
Y49016D02*
D03*
X416142Y346457D02*
D03*
Y259842D02*
D03*
Y173228D02*
D03*
X386614Y346457D02*
D03*
Y259842D02*
D03*
X386221Y173228D02*
D03*
X416142Y86614D02*
D03*
X386614D02*
D03*
X418504Y308661D02*
D03*
X418110Y222047D02*
D03*
X418504Y48819D02*
D03*
X418110Y135433D02*
D03*
X418504Y331890D02*
D03*
Y245276D02*
D03*
Y158661D02*
D03*
X385039Y135630D02*
D03*
X372047Y50394D02*
D03*
Y56693D02*
D03*
Y62992D02*
D03*
Y69291D02*
D03*
Y75590D02*
D03*
Y81890D02*
D03*
Y171653D02*
D03*
Y165354D02*
D03*
Y159055D02*
D03*
Y152756D02*
D03*
Y146457D02*
D03*
Y140157D02*
D03*
Y133858D02*
D03*
Y127559D02*
D03*
Y258268D02*
D03*
Y251969D02*
D03*
Y245669D02*
D03*
Y239370D02*
D03*
Y233071D02*
D03*
Y226772D02*
D03*
Y220473D02*
D03*
Y214173D02*
D03*
Y300394D02*
D03*
Y306693D02*
D03*
Y312992D02*
D03*
Y319291D02*
D03*
Y325591D02*
D03*
Y331890D02*
D03*
Y338189D02*
D03*
Y344488D02*
D03*
D57*
X112992Y334646D02*
D03*
M02*
