M48
;Layer_Color=9474304
;FILE_FORMAT=2:5
INCH,TZ
;TYPE=PLATED
T01F00S00C0.00787
T02F00S00C0.01181
T03F00S00C0.01575
T04F00S00C0.04000
;TYPE=NON_PLATED
%
T01
X372047Y50394
X385039Y49016
X418504Y48819
X448819Y33465
Y28346
Y23228
X416142Y86614
X392913
X386614
X385039Y74410
X372047Y75590
Y69291
Y62992
Y56693
Y81890
X399606Y74410
X385039Y135630
X372047Y133858
Y140157
Y146457
Y152756
Y159055
Y165354
Y171653
X386221Y173228
X392520Y173228
X399606Y183071
X379921
X392520Y202756
X399606
X416142Y173228
X418504Y158661
X403543
X418110Y135433
X372047Y127559
X322047Y187008
Y193307
Y199606
Y205906
X299213Y203937
Y198819
Y193701
Y188976
X275197Y185039
X234646Y139764
X231890Y133858
X229134Y131496
X226378Y128740
X222441Y126378
X211024Y123622
X208518Y121117
X205906Y118504
X204724Y136614
X205906Y94488
X208661Y92126
X211024Y89370
X165748Y113779
X150787Y108268
X92126Y104331
X84646Y129921
X68504Y142913
X44882Y140157
X42126Y135433
Y128347
Y123228
X39764Y92126
X36614Y94488
X44488Y89370
X15748Y113386
X97638Y271654
X92126Y280315
X98032Y325590
Y361024
X117717Y341732
X51575Y340158
Y337402
Y334252
Y331496
X150787Y342520
X154724Y348425
X142126Y359055
X223622Y333858
X222441Y306299
X197638Y301969
X252756Y323622
X256299Y322441
X259842Y323622
X372047Y325591
Y319291
Y312992
Y306693
Y300394
X385039Y308858
Y334646
X386614Y346457
X392913
X399606Y334646
X403543Y331890
X418504
X416142Y346457
X418504Y308661
X416142Y259842
X418504Y245276
X403543
X392913Y259842
X386614Y259842
X372047Y258268
Y251969
Y245669
Y239370
Y233071
Y226772
Y220473
Y214173
X385039Y222244
X418110Y222047
X372047Y331890
Y338189
Y344488
X256299Y387795
X104724Y373622
T02
X501181Y38976
X175197Y109843
X42070Y116702
X30709Y120472
Y127953
Y135433
X59449Y138976
X2362Y113386
X-27559Y117976
X-40551Y116535
Y132283
Y141339
X-35433Y144882
X-40551Y151181
Y157480
Y163779
Y170079
Y176378
Y182677
X-26006Y179492
Y173193
Y166894
Y160594
Y154295
Y198390
Y204689
X-40551Y201575
Y207874
Y214173
Y220472
Y226772
Y233071
Y239370
Y245669
Y251969
Y257874
Y264567
Y270866
Y277165
Y280315
X-36636Y273980
X-33977Y273945
X-31518Y273980
X-28762
X-26006
Y267681
X-28762
X-31518
X-33977Y267646
X-36636Y267681
Y261382
X-33977Y261346
X-31518Y261382
X-28762
X-26006
Y255083
Y248783
Y242484
Y236185
Y229886
Y223587
Y217287
Y210988
X-22857Y261382
Y267681
Y273980
X236614Y359449
X109055Y387795
X106596Y387760
X103937Y387795
X58661Y379528
X56203Y379492
X53543Y379528
T03
X81102Y369685
T04
X522866Y20748
X532866
Y30748
Y40748
Y50748
X522866
Y40748
Y30748
Y60748
X532866
Y70748
Y80748
Y90748
Y100748
Y110748
Y120748
Y130748
Y140748
Y150748
Y160748
Y170748
Y180748
Y190748
Y200748
X522866
Y190748
Y180748
Y170748
Y160748
Y150748
Y140748
Y130748
Y120748
Y110748
Y100748
Y90748
Y80748
Y70748
Y210748
X532866
Y232756
Y242756
Y252756
Y262756
Y272756
Y282756
Y292756
Y302756
Y312756
Y322756
Y332756
Y342756
Y352756
Y362756
X522866
Y352756
Y342756
Y332756
Y322756
Y312756
Y302756
Y292756
Y282756
Y272756
Y262756
Y252756
Y242756
Y232756
Y372756
X532866
M30
